<?xml version="1.0" standalone="no"?>
<!DOCTYPE svg PUBLIC "-//W3C//DTD SVG 1.1//EN" "http://www.w3.org/Graphics/SVG/1.1/DTD/svg11.dtd" >
<svg xmlns="http://www.w3.org/2000/svg" xmlns:xlink="http://www.w3.org/1999/xlink" version="1.1">
<metadata>
Created by FontForge 20170910 at Tue Mar 22 16:19:15 2005
 By Jimmy Wärting
The typeface was designed at ParaType (ParaGraph) in 1989-2003 by Vladimir Yefimov and Olga Chaeva. A spinoff the Encyclopedia-4 type family of the Polygraphmash type design bureau (1987, Vladimir Yefimov and Isay Slutsker). Inspired by Helvetica (Neue Haas Grotesk) of the Haas typefoundry, 1957 by Eduard Hoffman and Max Miedinger. Based on the 19th century Grotesque designs, Helvetica brought a new level of mathematical accuracy to the sans serif category. Widely used for many applications, from magazines and books to advertising and headlines. Eight additional styles were developed in 2003 for ParaType by Olga Chaeva. Condensed styles were developed in 1993-2004 by Vladimir Yefimov, Alexander Tarbeev and Manvel Shmavonyan, with participation of Dmitry Kirsanov. Extended styles developed in 2004 by Olga Chaeva and Manvel Shmavonyan.
</metadata>
<defs>
<font id="PragmaticaBlack" horiz-adv-x="818" >
  <font-face 
    font-family="Pragmatica Black"
    font-weight="800"
    font-stretch="normal"
    units-per-em="1000"
    panose-1="2 11 9 3 4 5 2 2 2 4"
    ascent="800"
    descent="-200"
    x-height="508"
    cap-height="700"
    bbox="-444 -352 1327 984"
    underline-thickness="50"
    underline-position="-100"
    stemh="132"
    stemv="210"
    unicode-range="U+0020-F8FF"
  />
<missing-glyph horiz-adv-x="233" 
 />
    <glyph glyph-name="fi" unicode="fi" horiz-adv-x="731" 
d="M666 508v-508h-208v370h-152v-370h-208v370h-93v138h93v8c0 32 3 96 45 138c44 44 119 46 153 46c37 0 83 -4 120 -10v-125c-16 4 -36 6 -49 6c-14 0 -36 -2 -48 -13c-13 -12 -13 -27 -13 -40v-10h360zM458 568v132h208v-132h-208z" />
    <glyph glyph-name="fl" unicode="fl" horiz-adv-x="733" 
d="M458 508v192h210v-700h-210v370h-152v-370h-208v370h-93v138h93v8c0 32 3 96 45 138c44 44 119 46 153 46c37 0 83 -4 120 -10v-125c-16 4 -36 6 -49 6c-14 0 -36 -2 -48 -13c-13 -12 -13 -27 -13 -40v-10h152z" />
    <glyph glyph-name="afii10017.var.accented" unicode="&#x410;`" horiz-adv-x="710" 
d="M245 99l-32 -99h-226l259 700h215l259 -700h-226l-32 99h-217zM288 243h131l-66 210zM329 908h199l-112 -142h-153z" />
    <glyph glyph-name="afii10022.var.accented" unicode="&#x415;`" horiz-adv-x="719" 
d="M303 436h311v-165h-311v-86h371v-185h-589v700h581v-185h-363v-79zM334 908h199l-112 -142h-153z" />
    <glyph glyph-name="afii10026.var.accented" unicode="&#x418;`" horiz-adv-x="805" 
d="M297 325l211 375h212v-700h-212v379l-211 -379h-212v700h212v-375zM377 908h199l-112 -142h-153z" />
    <glyph glyph-name="afii10032.var.accented" unicode="&#x41e;`" 
d="M40 348c0 129 47 219 99 273c84 87 186 98 267 98c93 0 198 -16 279 -99c78 -81 93 -187 93 -266c0 -133 -41 -219 -91 -273c-81 -87 -184 -100 -275 -100c-92 0 -200 14 -282 102c-32 34 -90 116 -90 265zM272 350c0 -38 5 -106 44 -148c26 -27 58 -37 93 -37
c34 0 68 8 94 37c32 35 43 97 43 148s-7 110 -43 148c-26 27 -56 37 -90 37c-35 0 -68 -9 -95 -37c-40 -42 -46 -110 -46 -148zM383 908h199l-112 -142h-153z" />
    <glyph glyph-name="afii10037.var.accented" unicode="&#x423;`" horiz-adv-x="661" 
d="M352 392l95 308h227l-221 -535c-19 -46 -45 -97 -91 -133c-53 -41 -103 -41 -145 -41c-48 0 -84 1 -136 20v174c19 -10 44 -17 74 -17c19 0 63 4 80 49l-235 483h239zM305 908h199l-112 -142h-153z" />
    <glyph glyph-name="afii10045.var.accented" unicode="&#x42b;`" horiz-adv-x="1062" 
d="M759 700h218v-700h-218v700zM302 700v-237h139c63 0 151 -10 211 -70c28 -28 60 -78 60 -163c0 -74 -25 -135 -61 -170c-60 -58 -157 -60 -209 -60h-357v700h217zM302 297v-125h114c22 0 47 5 61 18s16 32 16 46c0 17 -4 33 -21 46c-16 12 -39 15 -56 15h-114zM505 908
h199l-112 -142h-153z" />
    <glyph glyph-name="afii10047.var.accented" unicode="&#x42d;`" horiz-adv-x="789" 
d="M246 450h-218c9 81 47 138 87 176c78 73 178 89 270 89c86 0 196 -12 275 -94c76 -78 89 -183 89 -263c0 -65 -8 -193 -94 -282c-87 -90 -209 -96 -280 -96c-83 0 -198 11 -275 88c-44 44 -73 110 -80 177h219c3 -30 17 -57 35 -75c30 -29 68 -35 101 -35
c31 0 71 5 99 32c26 25 42 74 42 113h-219v141h219c1 36 -13 73 -35 95c-23 23 -63 35 -101 35s-70 -10 -92 -27c-9 -7 -35 -30 -42 -74zM369 908h199l-112 -142h-153z" />
    <glyph glyph-name="afii10048.var.accented" unicode="&#x42e;`" horiz-adv-x="1153" 
d="M385 276h-82v-276h-218v700h218v-246h88c12 62 41 121 83 165c78 82 180 100 272 100c87 0 193 -17 274 -101c46 -48 93 -130 93 -262c0 -129 -47 -223 -102 -279c-84 -85 -187 -96 -273 -96c-83 0 -182 9 -260 84c-46 44 -88 117 -93 211zM607 350c0 -38 5 -106 44 -148
c26 -27 58 -37 93 -37c34 0 68 8 94 37c32 35 43 97 43 148s-7 110 -43 148c-26 27 -56 37 -90 37c-35 0 -68 -9 -95 -37c-40 -42 -46 -110 -46 -148zM551 908h199l-112 -142h-153z" />
    <glyph glyph-name="afii10049.var.accented" unicode="&#x42f;`" horiz-adv-x="741" 
d="M457 230h-40l-139 -230h-252l181 248c-47 8 -88 29 -116 56c-48 46 -58 104 -58 154c0 91 37 144 62 170c37 38 100 72 205 72h375v-700h-218v230zM457 526h-124c-15 0 -44 -2 -63 -21c-8 -8 -17 -22 -17 -46s9 -41 19 -50c14 -13 43 -20 67 -20h118v137zM345 908h199
l-112 -142h-153z" />
    <glyph glyph-name="afii10065.var.accented" unicode="&#x430;`" horiz-adv-x="634" 
d="M249 335h-197c4 49 24 90 51 118c57 59 147 68 214 68c49 0 152 -2 210 -59c47 -45 52 -104 52 -145v-229c0 -36 2 -49 7 -58c5 -10 16 -19 28 -23v-7h-226l-13 55h-2c-16 -19 -38 -37 -62 -49c-37 -19 -79 -24 -114 -24c-40 0 -91 5 -128 39c-20 19 -43 53 -43 110
c0 38 10 71 38 99c40 40 96 50 137 55l60 7c57 7 79 9 93 22c7 7 15 19 15 38c0 17 -7 28 -13 33c-14 13 -38 14 -44 14c-23 0 -38 -7 -47 -16c-10 -10 -17 -29 -16 -48zM369 217v13c-22 -16 -39 -19 -60 -22c-17 -3 -43 -6 -60 -24c-9 -10 -12 -20 -12 -32
c0 -15 6 -26 13 -33c11 -11 24 -13 35 -13c23 0 41 6 57 23c25 26 27 61 27 88zM296 700h189l-112 -132h-143z" />
    <glyph glyph-name="afii10070.var.accented" unicode="&#x435;`" horiz-adv-x="648" 
d="M404 147h206c-14 -43 -41 -92 -101 -127c-64 -37 -132 -38 -185 -38c-79 0 -162 7 -225 70c-39 39 -69 102 -69 187c0 81 28 155 76 205c62 65 142 82 220 82c116 0 183 -35 222 -75c69 -71 70 -167 70 -227v-12h-373c-1 -27 6 -59 19 -77c13 -17 33 -29 64 -29
c15 0 36 2 50 10c16 9 23 21 26 31zM246 312h156c0 22 -8 53 -22 68c-15 17 -35 21 -52 21c-21 0 -42 -5 -57 -22c-16 -17 -24 -46 -25 -67zM303 700h189l-112 -132h-143z" />
    <glyph glyph-name="afii10074.var.accented" unicode="&#x438;`" horiz-adv-x="717" 
d="M265 222l179 286h208v-508h-200v260l4 27h-4l-179 -287h-208v508h200v-260l-4 -26h4zM338 700h189l-112 -132h-143z" />
    <glyph glyph-name="afii10080.var.accented" unicode="&#x43e;`" horiz-adv-x="654" 
d="M327 394c-21 0 -35 -7 -48 -20c-22 -23 -33 -60 -33 -120c0 -58 10 -97 34 -121c14 -14 29 -19 47 -19c21 0 35 7 48 20c22 23 33 60 33 120s-11 97 -33 120c-13 13 -27 20 -48 20zM624 255c0 -95 -34 -159 -76 -199c-68 -65 -160 -74 -221 -74c-63 0 -154 10 -221 74
c-30 29 -76 91 -76 199c0 92 36 158 77 197c67 65 160 74 221 74c52 0 149 -5 221 -74c44 -42 75 -105 75 -197zM306 700h189l-112 -132h-143z" />
    <glyph glyph-name="afii10085.var.accented" unicode="&#x443;`" horiz-adv-x="588" 
d="M62 -173v135c21 -8 37 -10 56 -10c15 0 33 0 50 13c17 12 23 29 26 43l5 22l-199 478h212l101 -317l80 317h195l-179 -500c-16 -45 -36 -107 -76 -144c-27 -25 -74 -50 -156 -50c-25 0 -66 2 -115 13zM273 700h189l-112 -132h-143z" />
    <glyph glyph-name="afii10093.var.accented" unicode="&#x44b;`" horiz-adv-x="908" 
d="M635 508h208v-508h-208v508zM275 508v-174h102c36 0 119 -2 167 -47c22 -21 45 -59 45 -119c0 -58 -20 -99 -45 -123c-44 -42 -113 -45 -147 -45h-332v508h210zM275 224v-117h52c17 0 39 4 51 14c13 11 18 31 18 47c0 23 -11 36 -20 43c-12 9 -32 13 -50 13h-51zM433 700
h189l-112 -132h-143z" />
    <glyph glyph-name="afii10095.var.accented" unicode="&#x44d;`" horiz-adv-x="646" 
d="M262 204v103h144c-1 27 -12 50 -26 64c-22 22 -49 25 -70 25c-25 0 -51 -3 -73 -26c-15 -16 -24 -38 -26 -58h-179c7 61 35 111 65 141c65 66 163 72 218 72c60 0 167 -7 237 -81c53 -57 64 -131 64 -187c0 -112 -42 -173 -74 -205c-65 -63 -154 -71 -226 -71
c-66 0 -153 8 -212 58c-34 29 -69 83 -74 155h181c2 -19 11 -41 25 -56c23 -24 55 -26 75 -26c21 0 47 4 67 23c17 16 27 43 28 69h-144zM302 700h189l-112 -132h-143z" />
    <glyph glyph-name="afii10096.var.accented" unicode="&#x44e;`" horiz-adv-x="943" 
d="M616 394c-21 0 -35 -7 -48 -20c-22 -23 -33 -60 -33 -120c0 -58 10 -97 34 -121c14 -14 29 -19 47 -19c21 0 35 7 48 20c22 23 33 60 33 120s-11 97 -33 120c-13 13 -27 20 -48 20zM273 331h66c13 71 52 113 70 129c59 55 133 66 204 66c57 0 153 -5 225 -74
c33 -32 75 -93 75 -196c0 -112 -50 -173 -72 -196c-70 -72 -167 -78 -226 -78c-65 0 -152 11 -211 66c-38 35 -64 91 -70 151h-61v-199h-208v508h208v-177zM451 700h189l-112 -132h-143z" />
    <glyph glyph-name="afii10097.var.accented" unicode="&#x44f;`" horiz-adv-x="631" 
d="M338 166l-98 -166h-215l131 175c-27 6 -60 21 -81 41c-35 33 -43 76 -43 110c0 62 22 106 49 132c49 47 123 50 160 50h325v-508h-210v166h-18zM356 396h-44c-21 0 -41 -1 -59 -15c-17 -14 -21 -32 -21 -49c0 -14 3 -30 18 -43c19 -16 46 -17 68 -17h38v124zM295 700h189
l-112 -132h-143z" />
    <glyph glyph-name=".notdef" horiz-adv-x="233" 
 />
    <glyph glyph-name=".notdef" horiz-adv-x="233" 
 />
    <glyph glyph-name="space" unicode=" " horiz-adv-x="233" 
 />
    <glyph glyph-name="space" unicode="&#xa0;" horiz-adv-x="233" 
 />
    <glyph glyph-name="exclam" unicode="!" horiz-adv-x="374" 
d="M81 0v191h209v-191h-209zM240 270h-106l-59 264v182h224v-182z" />
    <glyph glyph-name="quotedbl" unicode="&#x22;" horiz-adv-x="594" 
d="M272 700l-57 -197h-98l-57 197h212zM534 700l-57 -197h-98l-57 197h212z" />
    <glyph glyph-name="numbersign" unicode="#" horiz-adv-x="813" 
d="M523 0h-96l26 163h-161l-26 -163h-97l26 163h-152l18 103h152l33 187h-154l18 103h152l25 144h97l-24 -144h160l25 144h96l-23 -144h152l-18 -103h-151l-32 -187h153l-19 -103h-153zM472 266l33 187h-162l-33 -187h162z" />
    <glyph glyph-name="dollar" unicode="$" horiz-adv-x="720" 
d="M53 239h197c0 -26 9 -54 23 -71c12 -14 33 -27 61 -28v141c-38 8 -151 36 -208 93c-32 32 -52 75 -52 132c0 56 19 110 58 148c54 53 135 66 200 65v75h79v-75c52 0 126 -16 172 -53c64 -52 71 -127 71 -168v-5h-182v5c0 17 -5 40 -17 54s-31 21 -48 23v-129
c96 -24 165 -50 207 -93c45 -45 54 -99 54 -139c0 -105 -56 -161 -90 -185c-48 -33 -114 -48 -167 -48v-77h-79v77c-58 -1 -146 13 -204 65c-67 60 -75 152 -75 193zM409 269v-129c16 1 36 7 48 18c11 10 20 27 20 50c0 19 -6 33 -23 45c-11 8 -30 14 -45 16zM336 460v117
c-18 0 -36 -6 -47 -15c-13 -11 -20 -28 -20 -45c0 -19 9 -31 18 -38s32 -16 49 -19z" />
    <glyph glyph-name="percent" unicode="%" horiz-adv-x="885" 
d="M400 522c0 -77 -30 -124 -59 -151c-24 -23 -67 -49 -133 -49c-58 0 -104 20 -134 48c-29 27 -59 76 -59 152c0 77 31 124 59 151c24 22 67 49 134 49c66 0 109 -26 133 -49c29 -27 59 -74 59 -151zM206 607c-23 0 -36 -12 -43 -22c-12 -16 -15 -41 -15 -63
c0 -13 1 -45 17 -65c9 -12 24 -20 41 -20c19 0 33 9 41 20c12 16 17 43 17 65c0 14 0 45 -16 65c-6 8 -19 20 -42 20zM161 0l472 713h101l-467 -713h-106zM870 178c0 -77 -30 -124 -59 -151c-24 -23 -67 -49 -133 -49c-58 0 -104 20 -134 48c-29 27 -59 76 -59 152
c0 77 31 124 59 151c24 22 67 49 134 49c66 0 109 -26 133 -49c29 -27 59 -74 59 -151zM676 263c-23 0 -36 -12 -43 -22c-12 -16 -15 -41 -15 -63c0 -13 1 -45 17 -65c9 -12 24 -20 41 -20c19 0 33 9 41 20c12 16 17 43 17 65c0 14 0 45 -16 65c-6 8 -19 20 -42 20z" />
    <glyph glyph-name="ampersand" unicode="&#x26;" horiz-adv-x="698" 
d="M489 335h159c-19 -87 -61 -140 -81 -163l141 -172h-229l-41 52c-41 -39 -100 -69 -196 -69c-64 0 -121 12 -172 63c-41 41 -60 89 -60 147c0 60 18 114 63 158c9 8 39 37 88 56c-43 41 -51 84 -51 119c0 65 27 107 52 131c26 26 74 54 158 54c51 0 105 -13 141 -41
c35 -27 61 -75 61 -129c0 -69 -40 -136 -118 -171l66 -78c10 14 16 29 19 43zM345 171l-88 116c-12 -6 -23 -15 -32 -24c-16 -16 -22 -30 -22 -53c0 -18 3 -32 17 -46c17 -17 36 -19 55 -19c20 0 42 4 70 26zM318 471c7 3 29 14 42 26c11 11 20 27 20 45c0 14 -6 30 -15 39
s-25 13 -38 13c-12 0 -27 -5 -36 -13c-9 -9 -14 -25 -14 -38c0 -18 9 -33 18 -44c10 -12 9 -10 23 -28z" />
    <glyph glyph-name="quotesingle" unicode="'" horiz-adv-x="332" 
d="M272 700l-57 -197h-98l-57 197h212z" />
    <glyph glyph-name="parenleft" unicode="(" horiz-adv-x="450" 
d="M196 761h162c-25 -66 -54 -152 -70 -209c-23 -82 -38 -161 -38 -249c0 -116 20 -193 49 -284c20 -63 38 -114 59 -171h-162c-35 61 -70 134 -92 191c-36 94 -51 178 -51 264c0 103 20 190 46 258c21 55 67 146 97 200z" />
    <glyph glyph-name="parenright" unicode=")" horiz-adv-x="450" 
d="M92 761h162c30 -52 73 -136 97 -200c31 -82 46 -167 46 -270c0 -89 -14 -158 -51 -252c-25 -64 -62 -137 -92 -191h-162c24 61 42 114 59 171c30 99 49 182 49 284c0 93 -16 170 -38 249c-18 62 -45 142 -70 209z" />
    <glyph glyph-name="asterisk" unicode="*" horiz-adv-x="480" 
d="M240 548l-64 -85l-74 57l61 82l-97 33l31 89l97 -34v102h93v-102l97 34l30 -89l-97 -33l62 -82l-74 -57z" />
    <glyph glyph-name="plus" unicode="+" horiz-adv-x="680" 
d="M53 390h243v243h85v-243h243v-85h-243v-243h-85v243h-243v85z" />
    <glyph glyph-name="comma" unicode="," horiz-adv-x="353" 
d="M70 0v199h213v-180c0 -51 -6 -117 -58 -166c-49 -46 -113 -50 -149 -50h-6v103h4c22 0 57 0 83 26c15 15 26 41 26 68h-113z" />
    <glyph glyph-name="hyphen" unicode="-" horiz-adv-x="505" 
d="M53 205v185h399v-185h-399z" />
    <glyph glyph-name="hyphen" unicode="&#x2010;" horiz-adv-x="505" 
d="M53 205v185h399v-185h-399z" />
    <glyph glyph-name="hyphen" unicode="&#xad;" horiz-adv-x="505" 
d="M53 205v185h399v-185h-399z" />
    <glyph glyph-name="period" unicode="." horiz-adv-x="353" 
d="M70 0v206h213v-206h-213z" />
    <glyph glyph-name="slash" unicode="/" horiz-adv-x="452" 
d="M0 -185l367 885h85l-367 -885h-85z" />
    <glyph glyph-name="zero" unicode="0" horiz-adv-x="720" 
d="M362 -10c-83 0 -163 16 -227 79c-57 56 -99 150 -99 285c0 148 50 233 97 278c35 33 105 81 229 81c64 0 157 -10 230 -81c81 -79 93 -185 93 -278c0 -99 -13 -207 -100 -288c-71 -66 -154 -76 -223 -76zM362 141c27 0 50 10 65 24c40 36 48 117 48 191
c0 59 -6 142 -49 182c-15 14 -37 24 -64 24c-30 0 -54 -13 -70 -30c-38 -41 -43 -122 -43 -173c0 -75 7 -156 45 -193c14 -14 38 -25 68 -25z" />
    <glyph glyph-name="one" unicode="1" horiz-adv-x="720" 
d="M131 466v110h12c44 0 90 9 122 26c52 27 70 70 78 98h171v-700h-222v466h-161z" />
    <glyph glyph-name="two" unicode="2" horiz-adv-x="720" 
d="M641 171v-171h-579v9c0 82 10 145 73 210c36 37 74 61 116 84l88 49c22 12 58 34 75 50c29 27 37 56 37 83c0 23 -8 45 -22 59c-19 20 -47 23 -68 23c-26 0 -50 -4 -70 -23c-24 -23 -29 -59 -25 -97h-199c-7 74 21 145 74 193c70 63 162 74 232 74c117 0 187 -34 227 -74
c27 -27 59 -76 59 -153c0 -57 -17 -103 -54 -142c-15 -16 -46 -42 -116 -76l-23 -11c-26 -12 -46 -20 -77 -36c-42 -22 -54 -32 -63 -51h315z" />
    <glyph glyph-name="three" unicode="3" horiz-adv-x="720" 
d="M50 253h199v-5c0 -29 1 -61 24 -85c22 -24 56 -29 76 -29c17 0 50 0 73 20c13 11 27 31 27 64c0 21 -6 45 -30 61c-21 14 -57 17 -80 17h-39v131h48c28 0 59 5 77 17s30 35 30 59c0 25 -13 44 -27 54c-20 15 -48 16 -63 16c-20 0 -56 -2 -81 -30c-22 -24 -25 -59 -25 -78
h-192c-1 84 38 149 87 187c47 36 119 59 218 59c68 0 145 -12 196 -47c40 -28 77 -77 77 -147c0 -50 -20 -86 -43 -109c-17 -17 -43 -35 -80 -43v-5c37 -6 69 -23 90 -44c22 -21 44 -57 44 -112c0 -69 -31 -129 -84 -166c-59 -42 -141 -50 -216 -50c-70 0 -172 7 -238 73
c-24 24 -68 82 -68 189v3z" />
    <glyph glyph-name="four" unicode="4" horiz-adv-x="720" 
d="M369 149h-330v164l340 387h202v-393h90v-158h-90v-149h-212v149zM199 307h180v198z" />
    <glyph glyph-name="five" unicode="5" horiz-adv-x="720" 
d="M61 215h202c1 -26 13 -44 24 -55c19 -19 41 -24 65 -24c23 0 50 5 70 26c21 22 30 58 30 93c0 47 -17 71 -31 83c-19 16 -44 19 -66 19s-60 -3 -81 -45h-205l42 388h496v-155h-357l-11 -102c51 40 103 44 153 44c55 0 135 -6 196 -63c57 -54 67 -124 67 -170
c0 -77 -25 -147 -70 -192c-72 -72 -179 -76 -240 -76c-65 0 -141 6 -203 56c-38 31 -80 86 -81 173z" />
    <glyph glyph-name="six" unicode="6" horiz-adv-x="720" 
d="M655 526h-185c-5 22 -18 34 -27 39c-16 10 -40 13 -57 13c-32 0 -64 -7 -90 -33c-23 -23 -40 -63 -43 -103c47 38 98 45 149 45c56 0 126 -9 183 -58c39 -34 76 -92 76 -174c0 -71 -26 -142 -76 -192c-70 -70 -158 -78 -226 -78c-71 0 -151 8 -218 80
c-72 77 -81 187 -81 250c0 120 33 239 105 312c64 65 146 86 231 86c32 0 120 -3 180 -49c37 -28 69 -76 79 -138zM369 360c-24 0 -57 -4 -83 -28c-16 -15 -33 -42 -33 -88c0 -47 17 -75 33 -90c14 -13 38 -29 79 -29c22 0 52 4 77 29c20 20 35 53 35 94c0 39 -14 67 -31 84
c-24 24 -54 28 -77 28z" />
    <glyph glyph-name="seven" unicode="7" horiz-adv-x="720" 
d="M64 529v171h592v-154c-90 -92 -144 -202 -169 -269c-32 -86 -46 -179 -45 -277h-224c-1 94 34 224 78 310c36 70 95 154 151 219h-383z" />
    <glyph glyph-name="eight" unicode="8" horiz-adv-x="720" 
d="M360 309c-43 0 -69 -13 -83 -26c-19 -17 -28 -41 -28 -63c0 -23 11 -49 30 -64c27 -22 71 -23 79 -23c29 0 57 7 77 21c22 16 35 43 35 71s-14 49 -30 61c-22 17 -54 23 -80 23zM361 581c-23 0 -52 -2 -75 -21c-18 -15 -31 -39 -31 -63c0 -25 9 -45 23 -58
c23 -22 55 -25 81 -25c22 0 51 2 75 21c18 14 30 35 30 64c0 32 -15 52 -31 64c-21 15 -48 18 -72 18zM360 713c60 0 140 -8 204 -52c56 -39 86 -97 86 -154c0 -36 -12 -71 -30 -94c-15 -19 -40 -37 -68 -46c21 -6 49 -19 75 -47c30 -34 43 -73 43 -116
c0 -78 -32 -127 -70 -158c-68 -55 -156 -60 -240 -60s-172 5 -240 60c-38 31 -70 80 -70 158c0 43 13 82 43 116c26 28 54 41 75 47c-28 9 -53 27 -68 46c-18 23 -30 58 -30 94c0 57 30 115 86 154c64 44 144 52 204 52z" />
    <glyph glyph-name="nine" unicode="9" horiz-adv-x="720" 
d="M66 172h185c5 -22 18 -34 27 -39c16 -10 40 -13 57 -13c32 0 64 7 90 33c23 23 40 63 43 103c-47 -38 -98 -45 -149 -45c-56 0 -126 9 -183 58c-39 34 -76 92 -76 174c0 71 26 142 76 192c70 70 158 78 226 78c71 0 151 -8 218 -80c72 -77 81 -187 81 -250
c0 -120 -33 -239 -105 -312c-64 -65 -146 -86 -231 -86c-32 0 -120 3 -180 49c-37 28 -69 76 -79 138zM352 338c24 0 57 4 83 28c16 15 33 42 33 88c0 47 -17 75 -33 90c-14 13 -38 29 -79 29c-22 0 -52 -4 -77 -29c-20 -20 -35 -53 -35 -94c0 -39 14 -67 31 -84
c24 -24 54 -28 77 -28z" />
    <glyph glyph-name="colon" unicode=":" horiz-adv-x="353" 
d="M70 0v206h213v-206h-213zM70 291v207h213v-207h-213z" />
    <glyph glyph-name="semicolon" unicode=";" horiz-adv-x="353" 
d="M70 298v207h213v-207h-213zM70 14v199h213v-180c0 -51 -6 -117 -58 -166c-49 -46 -113 -50 -149 -50h-6v103h4c22 0 57 0 83 26c15 15 26 41 26 68h-113z" />
    <glyph glyph-name="semicolon" unicode="&#x37e;" horiz-adv-x="353" 
d="M70 298v207h213v-207h-213zM70 14v199h213v-180c0 -51 -6 -117 -58 -166c-49 -46 -113 -50 -149 -50h-6v103h4c22 0 57 0 83 26c15 15 26 41 26 68h-113z" />
    <glyph glyph-name="less" unicode="&#x3c;" horiz-adv-x="648" 
d="M132 357l456 -255l-41 -80l-506 283v104l506 283l41 -80z" />
    <glyph glyph-name="equal" unicode="=" horiz-adv-x="666" 
d="M50 462h566v-85h-566v85zM50 282h566v-85h-566v85z" />
    <glyph glyph-name="greater" unicode="&#x3e;" horiz-adv-x="648" 
d="M516 357l-456 255l41 80l506 -283v-104l-506 -283l-41 80z" />
    <glyph glyph-name="question" unicode="?" horiz-adv-x="627" 
d="M191 0v187h213v-187h-213zM242 473h-202v9c0 79 34 134 64 162c63 60 165 65 213 65c46 0 137 -3 196 -44c33 -23 74 -67 74 -145c0 -46 -14 -85 -46 -117c-19 -19 -42 -32 -66 -46c-23 -13 -47 -25 -63 -42c-10 -11 -27 -33 -27 -64v-6h-164v17c0 23 0 52 13 82
c15 35 38 53 62 71l27 20c18 13 53 33 53 78c0 21 -7 34 -15 41c-14 14 -34 16 -48 16c-17 0 -37 -4 -52 -21c-18 -21 -19 -58 -19 -73v-3z" />
    <glyph glyph-name="at" unicode="@" horiz-adv-x="873" 
d="M493 519v22h156v-246c0 -22 1 -57 35 -57c27 0 42 19 51 36c13 26 18 57 18 93c0 129 -63 199 -92 226c-48 44 -122 77 -216 77c-98 0 -179 -35 -232 -86c-46 -44 -93 -121 -93 -241c0 -106 39 -182 93 -235c50 -48 121 -84 223 -84c69 0 122 17 173 52l41 -77
c-64 -40 -128 -59 -214 -59c-143 0 -232 49 -285 97c-75 70 -121 180 -121 307c0 149 62 243 119 299c78 77 170 111 289 111c144 0 239 -48 302 -112c87 -88 103 -194 103 -268c0 -111 -38 -165 -64 -189c-39 -36 -84 -41 -119 -41c-26 0 -54 3 -81 17c-17 9 -29 19 -38 36
c-14 -19 -47 -53 -129 -53c-55 0 -105 16 -145 58c-41 44 -54 97 -54 147c0 73 23 123 49 153c33 38 78 55 131 55c55 0 82 -18 100 -38zM431 457c-14 0 -27 -3 -38 -14c-18 -17 -26 -47 -26 -88c0 -18 0 -73 25 -97c8 -8 20 -15 39 -15c14 0 28 4 39 15c21 21 25 60 25 97
c0 53 -13 77 -24 88c-7 7 -20 14 -40 14z" />
    <glyph glyph-name="A" unicode="A" horiz-adv-x="710" 
d="M245 99l-32 -99h-226l259 700h215l259 -700h-226l-32 99h-217zM288 243h131l-66 210z" />
    <glyph glyph-name="B" unicode="B" horiz-adv-x="778" 
d="M85 700h396c46 0 116 -1 166 -42c28 -23 56 -65 56 -133c0 -41 -11 -75 -43 -108c-23 -24 -47 -36 -71 -42v-4c58 -11 93 -43 99 -49c26 -25 50 -66 50 -131c0 -78 -36 -121 -66 -143c-55 -42 -142 -48 -194 -48h-393v700zM303 542v-112h112c18 0 40 1 54 14
c7 6 16 18 16 42c0 23 -9 36 -18 43c-16 12 -44 13 -55 13h-109zM303 285v-127h132c19 0 41 1 57 15c10 9 19 24 19 49c0 29 -12 43 -20 49c-15 12 -39 14 -57 14h-131z" />
    <glyph glyph-name="C" unicode="C" horiz-adv-x="759" 
d="M526 258h213c-7 -81 -43 -154 -87 -197c-78 -77 -195 -81 -259 -81c-72 0 -174 7 -252 80c-49 46 -101 136 -101 283c0 132 43 224 104 283c80 78 180 92 263 92c115 0 194 -33 245 -85c9 -9 70 -73 81 -186h-211c-4 26 -17 49 -33 63c-24 20 -57 22 -75 22
c-33 0 -68 -6 -97 -35c-40 -40 -45 -105 -45 -148c0 -45 6 -103 39 -142c31 -37 67 -40 97 -40s58 4 84 27c25 22 32 49 34 64z" />
    <glyph glyph-name="D" unicode="D" horiz-adv-x="800" 
d="M85 700h336c82 0 170 -9 243 -78c67 -63 101 -170 101 -282c0 -158 -69 -237 -102 -267c-77 -70 -160 -73 -242 -73h-336v700zM303 516v-328h78c32 0 77 2 110 33c36 33 42 89 42 129c0 26 -1 94 -38 131c-33 33 -82 35 -115 35h-77z" />
    <glyph glyph-name="E" unicode="E" horiz-adv-x="719" 
d="M303 436h311v-165h-311v-86h371v-185h-589v700h581v-185h-363v-79z" />
    <glyph glyph-name="F" unicode="F" horiz-adv-x="663" 
d="M303 417h286v-171h-286v-246h-218v700h563v-192h-345v-91z" />
    <glyph glyph-name="G" unicode="G" horiz-adv-x="800" 
d="M449 386h306v-386h-160l-13 59c-39 -48 -93 -80 -206 -80c-71 0 -162 9 -235 77c-61 57 -101 153 -101 276c0 148 59 238 106 286c80 81 175 99 259 99c81 0 178 -17 240 -66c46 -36 92 -104 103 -193h-225c-3 24 -13 45 -26 58c-26 27 -63 30 -82 30
c-46 0 -75 -18 -93 -37c-34 -36 -46 -103 -46 -159c0 -55 12 -128 54 -167c28 -27 60 -32 93 -32c28 0 54 5 80 25c26 21 39 49 42 56h-96v154z" />
    <glyph glyph-name="H" unicode="H" horiz-adv-x="801" 
d="M303 275v-275h-218v700h218v-241h195v241h218v-700h-218v275h-195z" />
    <glyph glyph-name="I" unicode="I" horiz-adv-x="388" 
d="M85 700h218v-700h-218v700z" />
    <glyph glyph-name="J" unicode="J" horiz-adv-x="648" 
d="M20 276h214v-41c0 -21 1 -43 14 -60c9 -11 23 -20 44 -20c17 0 30 5 40 19c12 16 13 36 13 54v472h218v-440c0 -72 -7 -156 -70 -217c-59 -57 -140 -63 -199 -63c-68 0 -149 8 -207 67c-65 65 -67 154 -67 215v14z" />
    <glyph glyph-name="K" unicode="K" horiz-adv-x="779" 
d="M303 471l220 229h255l-279 -291l295 -409h-263l-174 266l-54 -57v-209h-218v700h218v-229z" />
    <glyph glyph-name="L" unicode="L" horiz-adv-x="611" 
d="M606 185v-185h-521v700h218v-515h303z" />
    <glyph glyph-name="M" unicode="M" horiz-adv-x="1005" 
d="M423 0l-140 460l-5 -1l5 -53v-406h-198v700h296l113 -396l6 -48h5l7 48l112 396h296v-700h-198v406l5 53l-5 1l-140 -460h-159z" />
    <glyph glyph-name="N" unicode="N" horiz-adv-x="820" 
d="M303 388h-5l5 -53v-335h-218v700h218l214 -388h5l-5 53v335h218v-700h-218z" />
    <glyph glyph-name="O" unicode="O" 
d="M40 348c0 129 47 218 99 273c83 87 182 98 265 98c90 0 200 -15 281 -99c79 -81 93 -187 93 -264c0 -135 -41 -221 -91 -275c-81 -87 -184 -100 -275 -100c-92 0 -200 14 -282 102c-32 34 -90 116 -90 265zM272 350c0 -38 5 -106 44 -148c26 -27 58 -37 93 -37
c34 0 68 8 94 37c32 35 43 97 43 148s-7 110 -43 148c-26 27 -56 37 -90 37c-35 0 -68 -9 -95 -37c-40 -42 -46 -110 -46 -148z" />
    <glyph glyph-name="P" unicode="P" horiz-adv-x="740" 
d="M85 700h356c64 0 147 -9 207 -66s67 -132 67 -181c0 -46 -5 -129 -66 -188c-66 -64 -154 -63 -208 -63h-138v-202h-218v700zM303 511v-141h104c18 0 48 0 69 20c11 10 20 29 20 56c0 24 -9 39 -18 47c-19 17 -51 18 -71 18h-104z" />
    <glyph glyph-name="Q" unicode="Q" horiz-adv-x="816" 
d="M673 102l86 -85l-93 -96l-94 98c-62 -33 -109 -38 -173 -38c-86 0 -187 9 -267 90c-77 78 -92 183 -92 262c0 158 56 244 98 287c85 88 195 99 281 99c78 0 190 -12 271 -99c54 -58 86 -148 86 -250c0 -148 -62 -228 -103 -268zM468 308l63 -64c9 38 13 74 13 112
c0 47 -6 104 -33 142c-26 37 -61 48 -100 48c-42 0 -71 -14 -95 -44c-41 -51 -44 -130 -44 -159c0 -31 2 -113 49 -160c28 -28 58 -33 92 -33c17 0 30 2 45 13l-67 71z" />
    <glyph glyph-name="R" unicode="R" horiz-adv-x="770" 
d="M85 0v700h395c44 0 118 -6 173 -57c48 -45 60 -104 60 -160c0 -44 -9 -89 -46 -126c-16 -15 -37 -29 -63 -36v-5c30 -8 55 -26 71 -47c26 -35 27 -70 28 -109l2 -57c1 -37 3 -65 25 -103h-223c-22 33 -23 56 -24 86l-2 42c-1 29 1 69 -25 93c-20 19 -53 21 -77 21h-76
v-242h-218zM303 530v-138h123c15 0 40 1 58 17c11 9 22 26 22 54c0 15 -3 34 -19 49c-19 17 -46 18 -62 18h-122z" />
    <glyph glyph-name="S" unicode="S" horiz-adv-x="684" 
d="M30 231h219c-2 -30 9 -60 24 -76c25 -27 64 -28 85 -28s43 2 62 15c15 10 26 26 26 50c0 21 -7 37 -26 50s-59 23 -82 28l-70 14c-99 20 -148 51 -173 74c-37 33 -54 75 -54 132c0 91 48 142 82 169c67 52 152 59 215 59c54 0 154 -5 218 -60c35 -30 69 -86 72 -158h-206
c0 17 -5 36 -16 48c-10 11 -30 22 -68 22c-18 0 -45 -3 -60 -12c-13 -8 -24 -24 -24 -41c0 -10 2 -23 14 -34c17 -17 49 -22 101 -33l68 -15c47 -10 116 -27 163 -74c24 -24 54 -68 54 -136c0 -65 -29 -132 -66 -170c-70 -71 -183 -77 -247 -77c-69 0 -176 7 -245 79
c-36 37 -65 101 -66 174z" />
    <glyph glyph-name="T" unicode="T" horiz-adv-x="634" 
d="M208 508h-198v192h614v-192h-198v-508h-218v508z" />
    <glyph glyph-name="U" unicode="U" 
d="M733 700v-438c0 -67 -5 -135 -68 -199s-153 -82 -255 -82c-101 0 -194 18 -257 82c-60 61 -68 129 -68 200v437h219v-428c0 -28 4 -64 27 -88c24 -25 57 -27 78 -27s54 2 78 27c23 24 27 60 27 88v428h219z" />
    <glyph glyph-name="V" unicode="V" horiz-adv-x="695" 
d="M350 256l14 71l95 373h236l-236 -700h-224l-235 700h235l97 -373l13 -71h5z" />
    <glyph glyph-name="W" unicode="W" horiz-adv-x="997" 
d="M499 455l-85 -455h-221l-193 700h215l85 -375l13 -81l16 87l75 369h188l81 -377l12 -79l13 91l85 365h214l-192 -700h-218z" />
    <glyph glyph-name="X" unicode="X" horiz-adv-x="750" 
d="M379 204l-119 -204h-270l260 366l-225 334h240l114 -195l116 195h246l-233 -334l252 -366h-265z" />
    <glyph glyph-name="Y" unicode="Y" horiz-adv-x="685" 
d="M344 416l116 284h235l-244 -455v-245h-218v245l-243 455h235z" />
    <glyph glyph-name="Z" unicode="Z" horiz-adv-x="696" 
d="M356 508h-302v192h575v-155l-340 -353h367v-192h-616v189z" />
    <glyph glyph-name="bracketleft" unicode="[" horiz-adv-x="401" 
d="M53 761h295v-133h-96v-644h96v-136h-295v913z" />
    <glyph glyph-name="backslash" unicode="\" horiz-adv-x="452" 
d="M452 -185h-85l-367 885h85z" />
    <glyph glyph-name="bracketright" unicode="]" horiz-adv-x="401" 
d="M348 761v-913h-295v136h96v644h-96v133h295z" />
    <glyph glyph-name="asciicircum" unicode="^" horiz-adv-x="520" 
d="M259 627l-85 -145h-145l140 218h180l140 -218h-145z" />
    <glyph glyph-name="underscore" unicode="_" horiz-adv-x="497" 
d="M0 -190v85h497v-85h-497z" />
    <glyph glyph-name="grave" unicode="`" horiz-adv-x="375" 
d="M208 700l66 -132h-143l-112 132h189z" />
    <glyph glyph-name="a" unicode="a" horiz-adv-x="634" 
d="M249 335h-197c4 49 24 90 51 118c57 59 147 68 214 68c49 0 152 -2 210 -59c47 -45 52 -104 52 -145v-229c0 -36 2 -49 7 -58c5 -10 16 -19 28 -23v-7h-226l-13 55h-2c-16 -19 -38 -37 -62 -49c-37 -19 -79 -24 -114 -24c-40 0 -91 5 -128 39c-20 19 -43 53 -43 110
c0 38 10 71 38 99c40 40 96 50 137 55l60 7c57 7 79 9 93 22c7 7 15 19 15 38c0 17 -7 28 -13 33c-14 13 -38 14 -44 14c-23 0 -38 -7 -47 -16c-10 -10 -17 -29 -16 -48zM369 217v13c-22 -16 -39 -19 -60 -22c-17 -3 -43 -6 -60 -24c-9 -10 -12 -20 -12 -32
c0 -15 6 -26 13 -33c11 -11 24 -13 35 -13c23 0 41 6 57 23c25 26 27 61 27 88z" />
    <glyph glyph-name="b" unicode="b" horiz-adv-x="695" 
d="M265 49v-49h-200v700h210v-235c52 55 113 61 154 61c56 0 114 -15 163 -65c23 -24 73 -87 73 -207c0 -114 -44 -179 -77 -211c-49 -49 -105 -61 -168 -61c-49 0 -108 10 -151 67h-4zM266 248c0 -49 12 -87 33 -109c14 -15 34 -25 56 -25c29 0 48 12 59 24
c25 26 35 75 35 116c0 42 -10 84 -33 107c-15 15 -33 23 -57 23c-25 0 -45 -8 -61 -25c-25 -27 -32 -72 -32 -111z" />
    <glyph glyph-name="c" unicode="c" horiz-adv-x="626" 
d="M400 200h196c-7 -66 -37 -115 -68 -146c-66 -66 -152 -72 -217 -72s-146 8 -208 67c-35 33 -73 94 -73 193c0 95 38 167 82 211c63 61 144 76 213 76c107 0 169 -36 205 -72c31 -32 58 -82 62 -146h-193c0 20 -5 49 -24 68c-13 13 -30 18 -48 18c-21 0 -37 -6 -51 -21
c-26 -28 -30 -77 -30 -117c0 -28 1 -92 31 -124c15 -17 32 -21 51 -21c15 0 33 2 48 17c16 17 24 48 24 69z" />
    <glyph glyph-name="d" unicode="d" horiz-adv-x="695" 
d="M630 0h-200v49h-4c-49 -59 -117 -67 -160 -67c-49 0 -113 9 -166 64c-37 39 -70 103 -70 196c0 88 29 168 74 216c47 50 104 68 170 68c87 0 125 -35 146 -61v235h210v-700zM428 255c0 35 -4 75 -30 103c-12 13 -32 26 -63 26c-20 0 -40 -6 -57 -23
c-29 -30 -32 -84 -32 -112c0 -61 18 -94 36 -112c13 -12 31 -23 57 -23c24 0 44 8 59 25c26 30 30 77 30 116z" />
    <glyph glyph-name="e" unicode="e" horiz-adv-x="648" 
d="M404 147h206c-14 -43 -41 -92 -101 -127c-64 -37 -132 -38 -185 -38c-79 0 -162 7 -225 70c-39 39 -69 102 -69 187c0 81 28 155 76 205c62 65 142 82 220 82c116 0 183 -35 222 -75c69 -71 70 -167 70 -227v-12h-373c-1 -27 6 -59 19 -77c13 -17 33 -29 64 -29
c15 0 36 2 50 10c16 9 23 21 26 31zM246 312h156c0 22 -8 53 -22 68c-15 17 -35 21 -52 21c-21 0 -42 -5 -57 -22c-16 -17 -24 -46 -25 -67z" />
    <glyph glyph-name="f" unicode="f" horiz-adv-x="433" 
d="M428 508v-138h-118v-370h-212v370h-93v138h93v8c0 47 6 99 47 138c46 44 117 46 153 46c37 0 91 -5 130 -10v-127c-17 4 -41 8 -55 8c-18 0 -35 -4 -46 -13c-19 -14 -17 -29 -17 -46v-4h118z" />
    <glyph glyph-name="g" unicode="g" horiz-adv-x="684" 
d="M76 -25h194c0 -19 11 -30 17 -34c11 -8 29 -12 46 -12c29 0 46 10 56 19c18 18 20 41 20 60v56h-5c-44 -37 -91 -44 -143 -44s-115 6 -166 56c-31 30 -65 85 -65 180c0 102 36 163 69 198c44 48 99 68 163 68c53 0 112 -14 155 -61h5v47h197v-432
c0 -71 -10 -147 -70 -205c-64 -61 -149 -65 -218 -65c-56 0 -132 5 -186 43c-58 40 -67 95 -69 126zM247 267c0 -27 3 -61 24 -88c15 -20 35 -29 59 -29c29 0 48 11 60 25c25 29 27 78 27 93c0 49 -14 76 -29 92c-14 14 -33 24 -56 24c-21 0 -41 -8 -55 -23
c-28 -28 -30 -76 -30 -94z" />
    <glyph glyph-name="h" unicode="h" horiz-adv-x="690" 
d="M275 700v-235c28 25 78 58 160 58c68 0 111 -23 136 -47c47 -44 54 -107 54 -171v-305h-210v272c0 16 -1 53 -16 75c-10 15 -25 26 -49 26c-23 0 -41 -9 -55 -29c-13 -19 -20 -47 -20 -74v-270h-210v700h210z" />
    <glyph glyph-name="i" unicode="i" horiz-adv-x="340" 
d="M65 508h210v-508h-210v508zM65 568v132h210v-132h-210z" />
    <glyph glyph-name="j" unicode="j" horiz-adv-x="349" 
d="M72 561v139h212v-139h-212zM72 508h211v-507c0 -47 -3 -103 -44 -144c-42 -42 -108 -45 -147 -45c-53 0 -88 5 -112 10v142c11 -2 21 -3 32 -3c10 0 32 0 45 13c14 14 15 36 15 55v479z" />
    <glyph glyph-name="k" unicode="k" horiz-adv-x="640" 
d="M275 350l137 158h233l-203 -205l208 -303h-233l-105 180l-37 -38v-142h-210v700h210v-350z" />
    <glyph glyph-name="l" unicode="l" horiz-adv-x="340" 
d="M65 700h210v-700h-210v700z" />
    <glyph glyph-name="m" unicode="m" horiz-adv-x="1009" 
d="M65 508h189v-70h6c16 25 37 46 58 60c25 16 59 27 98 27c32 0 71 -10 97 -26c20 -13 43 -36 56 -70c18 29 41 50 65 65c40 26 78 31 117 31c31 0 91 -4 135 -46c52 -49 58 -129 58 -178v-301h-205v283c0 15 -1 49 -17 70c-9 13 -24 23 -44 23c-16 0 -36 -5 -52 -29
c-12 -18 -19 -43 -19 -72v-275h-205v287c0 8 -1 50 -19 71c-9 10 -25 18 -43 18c-15 0 -34 -6 -50 -28c-13 -19 -20 -46 -20 -70v-278h-205v508z" />
    <glyph glyph-name="n" unicode="n" horiz-adv-x="690" 
d="M266 508v-54h4c16 19 37 36 65 49c34 16 67 20 98 20c45 0 98 -7 140 -47c46 -44 52 -100 52 -171v-305h-210v272c0 47 -11 67 -16 75c-11 18 -27 26 -48 26c-18 0 -40 -6 -56 -29c-20 -28 -20 -68 -20 -74v-270h-210v508h201z" />
    <glyph glyph-name="o" unicode="o" horiz-adv-x="654" 
d="M329 394c-21 0 -37 -5 -51 -20c-12 -13 -32 -43 -32 -120c0 -42 9 -96 31 -120c14 -16 31 -20 48 -20c19 0 36 5 50 20c33 35 33 111 33 120c0 35 -5 92 -32 121c-14 15 -29 19 -47 19zM624 255c0 -100 -40 -164 -77 -200c-70 -68 -163 -73 -230 -73
c-72 0 -151 7 -212 63c-37 33 -75 94 -75 198c0 102 40 164 76 202c69 71 154 81 223 81c62 0 151 -8 219 -73c41 -39 76 -102 76 -198z" />
    <glyph glyph-name="p" unicode="p" horiz-adv-x="695" 
d="M65 508h200v-56h4c47 66 115 74 164 74c43 0 108 -5 160 -55c16 -15 72 -76 72 -208c0 -80 -22 -165 -75 -219c-50 -52 -110 -62 -167 -62c-45 0 -103 7 -148 55v-222h-210v693zM266 248c0 -28 2 -71 26 -102c18 -23 41 -32 65 -32c27 0 46 10 61 26c29 32 31 81 31 108
c0 30 -3 79 -31 110c-11 13 -31 26 -61 26c-21 0 -43 -7 -60 -26c-28 -30 -31 -75 -31 -110z" />
    <glyph glyph-name="q" unicode="q" horiz-adv-x="695" 
d="M430 453v55h200v-693h-210v222c-48 -49 -106 -55 -152 -55c-49 0 -112 7 -164 57c-36 34 -74 97 -74 204c0 99 31 175 76 221c47 49 103 62 162 62c99 0 139 -44 158 -73h4zM429 256c0 23 -2 76 -31 105c-12 12 -31 23 -59 23c-21 0 -42 -6 -59 -23
c-18 -18 -34 -52 -34 -113c0 -29 3 -73 29 -105c20 -25 42 -29 62 -29c21 0 42 3 61 26c14 16 31 48 31 116z" />
    <glyph glyph-name="r" unicode="r" horiz-adv-x="488" 
d="M473 519v-161c-17 3 -39 5 -55 5c-61 0 -93 -25 -106 -38c-35 -36 -37 -89 -37 -137v-188h-210v508h201v-72c22 34 49 53 69 64c34 18 71 22 104 22c12 0 22 -1 34 -3z" />
    <glyph glyph-name="s" unicode="s" horiz-adv-x="589" 
d="M25 167h205c-3 -18 2 -41 15 -54c10 -10 28 -17 51 -17c18 0 34 1 51 11c12 7 22 17 22 35c0 17 -8 29 -25 37s-39 11 -67 15l-52 8c-48 7 -104 18 -139 49c-19 17 -42 47 -42 99c0 71 37 112 70 134c55 37 129 43 187 43c86 0 139 -15 173 -38c25 -17 65 -56 69 -126
h-179c1 14 -4 34 -15 45c-12 12 -35 16 -52 16c-27 0 -41 -9 -45 -12c-11 -8 -18 -21 -18 -34c0 -19 11 -26 22 -31c23 -12 42 -13 63 -16l70 -10c35 -5 94 -16 132 -52c23 -22 43 -58 43 -108c0 -66 -34 -112 -68 -136s-92 -44 -200 -44c-92 0 -170 9 -222 63
c-23 24 -48 65 -49 123z" />
    <glyph glyph-name="t" unicode="t" horiz-adv-x="441" 
d="M5 370v138h92v150h210v-150h108v-138h-108v-168c0 -15 0 -40 14 -55c7 -7 20 -14 47 -14c15 0 32 3 47 7v-141c-45 -10 -85 -14 -129 -14c-43 0 -112 4 -150 42c-34 34 -39 89 -39 125v218h-92z" />
    <glyph glyph-name="u" unicode="u" horiz-adv-x="689" 
d="M429 0v56h-5c-55 -59 -120 -70 -173 -70c-43 0 -94 7 -133 45c-52 51 -53 131 -53 173v304h210v-273c0 -45 9 -66 17 -77c13 -18 32 -22 50 -22c23 0 38 7 51 25c19 25 21 58 21 77v270h210v-508h-195z" />
    <glyph glyph-name="v" unicode="v" horiz-adv-x="572" 
d="M283 199l92 309h207l-186 -508h-226l-180 508h211z" />
    <glyph glyph-name="w" unicode="w" horiz-adv-x="849" 
d="M428 271l-69 -271h-196l-176 508h200l79 -276l68 276h180l67 -276l76 276h202l-170 -508h-192z" />
    <glyph glyph-name="x" unicode="x" horiz-adv-x="581" 
d="M293 369l78 140h210l-182 -246l182 -263h-203l-86 139l-84 -139h-208l187 263l-177 245h206z" />
    <glyph glyph-name="y" unicode="y" horiz-adv-x="588" 
d="M62 -173v135c21 -8 37 -10 56 -10c15 0 33 0 50 13c17 12 23 29 26 43l5 22l-199 478h212l101 -317l80 317h195l-179 -500c-16 -45 -36 -107 -76 -144c-27 -25 -74 -50 -156 -50c-25 0 -66 2 -115 13z" />
    <glyph glyph-name="z" unicode="z" horiz-adv-x="542" 
d="M47 370v138h457v-140l-264 -230l277 1v-139h-492v140l268 230h-246z" />
    <glyph glyph-name="braceleft" unicode="{" horiz-adv-x="529" 
d="M132 253v108c24 0 45 9 58 21c30 26 33 68 33 101c0 29 -4 90 -4 125c0 39 3 95 48 136c39 36 104 51 154 51h4v-95c-16 -1 -32 -8 -42 -19c-19 -20 -19 -46 -19 -69c0 -91 4 -75 4 -116c0 -47 -5 -93 -50 -136c-33 -32 -73 -45 -85 -49v-8c12 -4 52 -17 85 -49
c45 -43 50 -89 50 -136c0 -41 -4 -25 -4 -116c0 -23 0 -49 19 -69c10 -11 26 -18 42 -19v-95h-4c-51 0 -116 16 -154 51c-45 41 -48 97 -48 136c0 35 4 96 4 125c0 33 -3 75 -33 101c-13 12 -34 21 -58 21z" />
    <glyph glyph-name="bar" unicode="|" horiz-adv-x="475" 
d="M195 -224v1053h85v-1053h-85z" />
    <glyph glyph-name="braceright" unicode="}" horiz-adv-x="529" 
d="M397 361v-108c-24 0 -45 -9 -58 -21c-30 -26 -33 -68 -33 -101c0 -29 4 -90 4 -125c0 -39 -3 -95 -48 -136c-38 -35 -103 -51 -154 -51h-4v95c16 1 32 8 42 19c19 20 19 46 19 69c0 91 -4 75 -4 116c0 47 5 93 50 136c33 32 73 45 85 49v8c-12 4 -52 17 -85 49
c-45 43 -50 89 -50 136c0 41 4 25 4 116c0 23 0 49 -19 69c-10 11 -26 18 -42 19v95h4c50 0 115 -15 154 -51c45 -41 48 -97 48 -136c0 -35 -4 -96 -4 -125c0 -33 3 -75 33 -101c13 -12 34 -21 58 -21z" />
    <glyph glyph-name="asciitilde" unicode="~" horiz-adv-x="651" 
d="M125 279l-75 46c11 26 35 67 58 90c24 24 60 44 111 44c40 0 69 -12 102 -31l63 -36c17 -10 40 -22 66 -22c14 0 34 2 50 17c9 9 21 27 27 40l74 -45c-11 -30 -33 -75 -55 -97c-28 -29 -61 -38 -100 -38c-40 0 -68 11 -99 28l-73 41c-24 14 -48 20 -69 20
c-24 0 -42 -8 -56 -22c-8 -8 -18 -22 -24 -35z" />
    <glyph glyph-name="exclamdown" unicode="&#xa1;" horiz-adv-x="374" 
d="M240 264l59 -264v-182h-224v182l59 264h106zM81 333v191h209v-191h-209z" />
    <glyph glyph-name="cent" unicode="&#xa2;" horiz-adv-x="720" 
d="M451 200h196c-7 -65 -37 -116 -68 -147c-29 -29 -83 -67 -165 -69v-116h-79v116c-83 3 -144 40 -180 76c-62 62 -74 138 -74 197c0 102 37 164 73 199c43 42 110 70 181 71v109h79v-109c84 -3 139 -44 166 -72c28 -28 58 -75 63 -144h-193c0 20 -5 49 -24 68
c-13 13 -30 18 -48 18c-21 0 -37 -6 -51 -21c-26 -28 -30 -79 -30 -108c0 -51 7 -108 36 -136c14 -13 29 -18 48 -18c18 0 33 3 47 17c8 8 23 26 23 69z" />
    <glyph glyph-name="sterling" unicode="&#xa3;" horiz-adv-x="720" 
d="M569 215l92 -143c-77 -79 -131 -88 -180 -88c-38 0 -74 6 -109 22l-22 10c-27 12 -53 23 -86 23c-35 0 -62 -15 -89 -39l-96 149c3 3 32 27 43 38c27 28 33 55 33 73c0 7 -1 25 -11 45h-84v70h56c-17 33 -30 77 -30 118c0 61 24 124 78 165c65 50 155 55 196 55
c101 0 167 -29 207 -65c65 -59 70 -127 70 -196v-3h-194v2c0 22 2 52 -13 75c-12 18 -36 30 -64 30c-21 0 -38 -7 -50 -17c-11 -10 -24 -28 -24 -58c0 -28 11 -44 22 -62c8 -12 15 -23 22 -44h97v-70h-86c3 -25 -3 -53 -12 -71c-2 -5 -13 -25 -36 -43l2 -8c8 3 32 13 61 13
c24 0 44 -6 61 -11c21 -7 40 -14 62 -14c34 0 62 17 84 44z" />
    <glyph glyph-name="currency" unicode="&#xa4;" horiz-adv-x="741" 
d="M12 57l100 102c-31 45 -54 99 -54 174c0 70 20 125 53 173l-101 101l81 83l98 -104c32 23 93 58 180 58c80 0 139 -28 180 -58l101 102l75 -84l-97 -99c42 -65 52 -128 52 -172c0 -46 -11 -107 -50 -169l101 -107l-82 -78l-100 101c-51 -37 -109 -58 -179 -58
c-82 0 -139 28 -180 57l-99 -102zM170 333c0 -110 89 -199 199 -199s199 89 199 199s-89 199 -199 199s-199 -89 -199 -199z" />
    <glyph glyph-name="yen" unicode="&#xa5;" horiz-adv-x="720" 
d="M360 416l118 284h235l-248 -437v-26h82v-66h-82v-33h82v-66h-82v-72h-210v72h-82v66h82v33h-82v66h82v26l-247 437h235z" />
    <glyph glyph-name="brokenbar" unicode="&#xa6;" horiz-adv-x="475" 
d="M195 176h85v-400h-85v400zM280 429h-85v400h85v-400z" />
    <glyph glyph-name="section" unicode="&#xa7;" horiz-adv-x="621" 
d="M84 23h164c0 -17 5 -39 16 -51c8 -9 23 -17 49 -17c10 0 25 2 37 11c10 7 17 20 17 36c0 15 -6 25 -16 33c-14 10 -36 15 -77 27l-71 20c-44 12 -85 29 -114 55c-41 37 -49 82 -49 127c0 41 9 69 29 101c14 22 30 39 56 53c-17 23 -35 56 -35 99c0 45 18 98 51 131
c24 24 75 56 174 56c37 0 115 -4 164 -52c30 -30 53 -85 47 -137h-157c0 14 -4 32 -13 41s-27 15 -43 15c-15 0 -32 -4 -41 -13s-12 -20 -12 -30s2 -18 10 -27c7 -8 24 -19 86 -33l35 -8c38 -9 100 -23 141 -63s49 -91 49 -133c0 -31 -6 -68 -29 -102
c-15 -22 -37 -41 -58 -55c36 -33 43 -74 43 -102c0 -56 -21 -103 -53 -135c-54 -54 -124 -59 -171 -59c-43 0 -116 3 -169 54c-37 36 -60 96 -60 147v11zM252 239l150 -39c2 1 13 5 20 14c5 6 9 15 9 29c0 10 -2 21 -12 31c-12 12 -31 17 -45 21l-152 42
c-8 -4 -14 -10 -18 -16c-5 -7 -8 -16 -8 -26c0 -18 7 -29 14 -36c11 -11 27 -16 42 -20z" />
    <glyph glyph-name="dieresis" unicode="&#xa8;" horiz-adv-x="541" 
d="M50 581v129h172v-129h-172zM319 581v129h172v-129h-172z" />
    <glyph glyph-name="copyright" unicode="&#xa9;" horiz-adv-x="720" 
d="M420 305h104c-3 -40 -21 -75 -42 -96c-37 -36 -88 -39 -117 -39c-37 0 -89 6 -130 47c-25 25 -50 70 -50 138c0 67 24 106 43 126c39 41 92 46 131 46c35 0 88 -5 123 -40c23 -23 36 -59 39 -91h-102c0 7 -3 19 -14 29c-12 11 -27 13 -40 13c-17 0 -32 -3 -46 -18
c-17 -19 -21 -44 -21 -67c0 -16 1 -54 24 -76c10 -9 24 -16 45 -16c19 0 31 5 39 12c7 6 14 16 14 32zM10 350c0 89 35 180 103 248c74 73 168 102 247 102s173 -29 247 -102c68 -68 103 -159 103 -248s-35 -180 -103 -248c-67 -67 -157 -102 -247 -102
c-52 0 -156 12 -247 103s-103 195 -103 247zM90 350c0 -67 27 -140 78 -191c52 -52 125 -79 192 -79c68 0 139 26 192 80c56 57 78 128 78 190c0 68 -26 139 -81 193c-56 55 -127 77 -189 77c-69 0 -139 -26 -192 -80c-56 -57 -78 -128 -78 -190z" />
    <glyph glyph-name="ordfeminine" unicode="&#xaa;" horiz-adv-x="404" 
d="M34 290v55h332v-55h-332zM161 606h-118c2 30 14 57 30 74c23 24 66 40 130 40c56 0 103 -14 129 -40c28 -27 31 -62 31 -84v-140c0 -13 -1 -26 4 -35c3 -5 8 -11 17 -13v-5h-138l-7 31h-2c-9 -11 -21 -22 -38 -29c-10 -5 -33 -12 -70 -12c-25 0 -54 4 -78 27
c-18 18 -25 40 -25 64c0 17 4 40 23 59c18 17 47 28 77 32l30 4c42 6 55 7 64 12s14 12 14 22s-2 19 -10 25c-6 4 -14 7 -25 7c-12 0 -22 -3 -28 -9c-7 -6 -11 -18 -10 -30zM234 531v8c-12 -8 -22 -11 -36 -13c-11 -2 -25 -4 -34 -12c-7 -6 -9 -13 -9 -20c0 -10 3 -17 7 -22
c7 -7 15 -8 22 -8c14 0 26 6 34 13c16 15 16 40 16 54z" />
    <glyph glyph-name="guillemotleft" unicode="&#xab;" horiz-adv-x="467" 
d="M40 356l150 139v-177l-65 -53l65 -55v-179l-150 140v185zM236 357l151 139v-177l-66 -53l66 -55v-180l-151 141v185z" />
    <glyph glyph-name="logicalnot" unicode="&#xac;" horiz-adv-x="675" 
d="M53 390h566v-224h-85v139h-481v85z" />
    <glyph glyph-name="registered" unicode="&#xae;" horiz-adv-x="720" 
d="M10 350c0 89 35 180 103 248c74 73 168 102 247 102s173 -29 247 -102c68 -68 103 -159 103 -248s-35 -180 -103 -248c-67 -67 -157 -102 -247 -102c-52 0 -156 12 -247 103s-103 195 -103 247zM90 350c0 -67 27 -140 78 -191c52 -52 125 -79 192 -79c68 0 139 26 192 80
c56 57 78 128 78 190c0 68 -26 139 -81 193c-56 55 -127 77 -189 77c-69 0 -139 -26 -192 -80c-56 -57 -78 -128 -78 -190zM218 181v341h192c21 0 57 -3 84 -29c23 -22 29 -50 29 -76s-7 -44 -16 -56c-3 -4 -14 -18 -36 -24v-2c12 -3 24 -10 32 -20c14 -17 13 -35 14 -57
l1 -28c1 -19 5 -35 13 -49h-107c-11 16 -11 27 -12 41l-1 21c-1 15 0 32 -10 43c-9 10 -23 11 -35 11h-42v-116h-106zM324 438v-66h58c9 0 21 0 29 6c10 7 11 21 11 28c0 9 -1 19 -10 26c-7 5 -18 6 -28 6h-60z" />
    <glyph glyph-name="macron" unicode="&#xaf;" horiz-adv-x="506" 
d="M50 590v96h406v-96h-406z" />
    <glyph glyph-name="macron" unicode="&#x2c9;" horiz-adv-x="506" 
d="M50 590v96h406v-96h-406z" />
    <glyph glyph-name="degree" unicode="&#xb0;" horiz-adv-x="328" 
d="M40 605c0 68 56 124 124 124s124 -56 124 -124s-56 -124 -124 -124s-124 56 -124 124zM110 605c0 -30 24 -54 54 -54s54 24 54 54s-24 54 -54 54s-54 -24 -54 -54z" />
    <glyph glyph-name="plusminus" unicode="&#xb1;" horiz-adv-x="680" 
d="M53 450h243v220h85v-220h243v-85h-243v-180h-85v180h-243v85zM53 140h571v-85h-571v85z" />
    <glyph glyph-name="twosuperior" unicode="&#xb2;" horiz-adv-x="435" 
d="M389 396v-103h-351v8c0 39 1 85 39 124c23 24 53 38 75 50l46 24c11 6 33 18 47 32c15 15 21 29 21 52c0 12 -2 27 -14 39c-13 13 -30 15 -43 15c-15 0 -29 -3 -40 -16c-14 -16 -14 -36 -14 -52v-6h-120v7c0 36 3 75 39 110c39 37 95 45 136 45c72 0 116 -21 143 -47
c29 -29 37 -64 37 -97s-8 -59 -33 -84c-17 -17 -46 -34 -66 -43l-13 -6c-32 -15 -37 -17 -46 -21c-28 -13 -33 -22 -34 -31h191z" />
    <glyph glyph-name="threesuperior" unicode="&#xb3;" horiz-adv-x="453" 
d="M35 444h123v-6c0 -22 7 -38 15 -47c15 -17 39 -18 50 -18c22 0 35 7 43 14c9 9 15 24 15 38s-5 27 -18 36c-15 10 -34 10 -49 10h-31v81h30c32 0 45 7 46 8c7 4 19 14 19 35c0 19 -9 31 -17 36c-11 8 -29 10 -41 10c-27 0 -42 -9 -50 -20c-7 -10 -11 -24 -11 -37v-6h-117
v6c0 34 16 74 41 99c39 38 100 42 139 42c50 0 92 -7 123 -27c37 -23 49 -55 49 -92c0 -23 -5 -48 -25 -68c-12 -13 -29 -22 -51 -24v-2c28 -4 51 -17 65 -32c12 -13 25 -33 25 -65c0 -43 -22 -82 -55 -104c-38 -25 -93 -27 -129 -27c-49 0 -107 5 -147 45
c-25 24 -42 63 -42 109v6z" />
    <glyph glyph-name="acute" unicode="&#xb4;" horiz-adv-x="375" 
d="M167 700h189l-112 -132h-143z" />
    <glyph glyph-name="mu" unicode="&#xb5;" horiz-adv-x="696" 
d="M264 -185h-199v693h205v-236c0 -36 4 -82 16 -111c15 -35 41 -48 62 -48c15 0 46 6 64 52c7 19 14 49 14 107v236h205v-508h-199v77h-7c-4 -22 -14 -48 -25 -63c-17 -24 -38 -30 -53 -30c-14 0 -36 5 -53 30c-10 14 -20 42 -24 63h-6v-262z" />
    <glyph glyph-name="mu" unicode="&#x3bc;" horiz-adv-x="696" 
d="M264 -185h-199v693h205v-236c0 -36 4 -82 16 -111c15 -35 41 -48 62 -48c15 0 46 6 64 52c7 19 14 49 14 107v236h205v-508h-199v77h-7c-4 -22 -14 -48 -25 -63c-17 -24 -38 -30 -53 -30c-14 0 -36 5 -53 30c-10 14 -20 42 -24 63h-6v-262z" />
    <glyph glyph-name="paragraph" unicode="&#xb6;" horiz-adv-x="523" 
d="M196 -185v555c-111 3 -166 91 -166 165c0 92 75 165 166 165h90v-885h-90zM366 -185v885h90v-885h-90z" />
    <glyph glyph-name="periodcentered" unicode="&#xb7;" horiz-adv-x="353" 
d="M70 264v206h213v-206h-213z" />
    <glyph glyph-name="periodcentered" unicode="&#x22c5;" horiz-adv-x="353" 
d="M70 264v206h213v-206h-213z" />
    <glyph glyph-name="periodcentered" unicode="&#x2219;" horiz-adv-x="353" 
d="M70 264v206h213v-206h-213z" />
    <glyph glyph-name="cedilla" unicode="&#xb8;" horiz-adv-x="333" 
d="M37 -234l24 70c21 -6 43 -10 63 -10c8 0 30 0 41 5c15 6 18 17 18 25c0 17 -11 23 -23 26c-6 1 -20 4 -68 4h-14l23 67c19 2 36 2 51 2c63 0 91 -13 103 -20c29 -18 42 -44 42 -77c0 -48 -26 -74 -43 -85c-32 -22 -75 -23 -102 -23c-62 0 -92 7 -115 16z" />
    <glyph glyph-name="onesuperior" unicode="&#xb9;" horiz-adv-x="334" 
d="M30 560v67h8c26 0 58 5 76 15c14 7 36 24 44 58h101v-420h-133v280h-96z" />
    <glyph glyph-name="ordmasculine" unicode="&#xba;" horiz-adv-x="421" 
d="M391 553c0 -29 -5 -80 -46 -119c-43 -41 -99 -44 -135 -44c-39 0 -93 4 -135 44c-37 35 -45 78 -45 121c0 38 8 86 45 121c25 24 69 44 135 44c62 0 107 -17 135 -44c26 -24 46 -65 46 -123zM46 290v55h331v-55h-331zM210 639c-14 0 -24 -5 -31 -12
c-6 -6 -18 -22 -18 -74c0 -48 13 -65 19 -72c9 -9 19 -12 31 -12c13 0 22 3 31 14c11 13 17 34 17 70c0 46 -9 65 -18 74s-19 12 -31 12z" />
    <glyph glyph-name="guillemotright" unicode="&#xbb;" horiz-adv-x="467" 
d="M427 356v-185l-150 -140l-1 177l66 54l-66 55v179zM231 355v-185l-151 -139v176l66 54l-66 55v179z" />
    <glyph glyph-name="onequarter" unicode="&#xbc;" horiz-adv-x="879" 
d="M35 560v67h8c26 0 58 5 76 15c14 7 36 24 44 58h101v-420h-133v280h-96zM82 0l600 700h108l-600 -700h-108zM654 92h-196v97l203 231h119v-233h54v-95h-54v-92h-126v92zM554 187h107v118z" />
    <glyph glyph-name="onehalf" unicode="&#xbd;" horiz-adv-x="952" 
d="M35 560v67h8c26 0 58 5 76 15c14 7 36 24 44 58h101v-420h-133v280h-96zM906 103v-103h-351v8c0 39 1 85 39 124c23 24 53 38 75 50l46 24c11 6 33 18 47 32c15 15 21 29 21 52c0 12 -2 27 -14 39c-10 10 -25 15 -41 15c-21 0 -34 -7 -42 -16c-14 -16 -14 -36 -14 -52v-6
h-120v7c0 36 3 75 39 110c39 37 95 45 136 45c72 0 116 -21 143 -47c29 -29 37 -64 37 -97s-8 -59 -33 -84c-17 -17 -46 -34 -66 -43l-13 -6c-32 -15 -38 -17 -46 -21c-28 -13 -33 -22 -34 -31h191zM82 0l600 700h108l-600 -700h-108z" />
    <glyph glyph-name="threequarters" unicode="&#xbe;" horiz-adv-x="961" 
d="M164 0l600 700h108l-600 -700h-108zM736 92h-196v97l203 231h119v-233h54v-95h-54v-92h-126v92zM636 187h107v118zM35 444h123v-6c0 -22 7 -38 15 -47c15 -17 39 -18 50 -18c22 0 35 7 43 14c9 9 15 24 15 38s-5 27 -18 36c-15 10 -34 10 -49 10h-31v81h30
c32 0 45 7 46 8c7 4 19 14 19 35c0 19 -9 31 -17 36c-11 8 -29 10 -41 10c-27 0 -42 -9 -50 -20c-7 -10 -11 -24 -11 -37v-6h-117v6c0 34 16 74 41 99c39 38 100 42 139 42c50 0 92 -7 123 -27c37 -23 49 -55 49 -92c0 -23 -5 -48 -25 -68c-12 -13 -29 -22 -51 -24v-2
c28 -4 51 -17 65 -32c12 -13 25 -33 25 -65c0 -43 -22 -82 -55 -104c-38 -25 -93 -27 -129 -27c-49 0 -107 5 -147 45c-25 24 -42 63 -42 109v6z" />
    <glyph glyph-name="questiondown" unicode="&#xbf;" horiz-adv-x="627" 
d="M436 529v-187h-213v187h213zM385 56h202v-9c0 -79 -34 -134 -64 -162c-63 -60 -165 -65 -213 -65c-46 0 -137 3 -196 44c-32 22 -74 67 -74 145c0 61 28 98 47 117c15 15 36 30 67 47c25 14 45 25 61 41c10 11 27 33 27 64v6h164v-17c0 -23 0 -52 -13 -82
c-15 -35 -38 -53 -62 -71l-27 -20c-18 -13 -53 -33 -53 -78c0 -21 7 -34 15 -41c14 -14 34 -16 48 -16c17 0 37 4 52 21c18 21 19 58 19 73v3z" />
    <glyph glyph-name="Agrave" unicode="&#xc0;" horiz-adv-x="710" 
d="M245 99l-32 -99h-226l259 700h215l259 -700h-226l-32 99h-217zM288 243h131l-66 210zM368 908l66 -142h-153l-112 142h199z" />
    <glyph glyph-name="Aacute" unicode="&#xc1;" horiz-adv-x="710" 
d="M245 99l-32 -99h-226l259 700h215l259 -700h-226l-32 99h-217zM288 243h131l-66 210zM342 908h199l-112 -142h-153z" />
    <glyph glyph-name="Acircumflex" unicode="&#xc2;" horiz-adv-x="710" 
d="M245 99l-32 -99h-226l259 700h215l259 -700h-226l-32 99h-217zM288 243h131l-66 210zM352 849l-77 -83h-160l125 132h224l125 -132h-160z" />
    <glyph glyph-name="Atilde" unicode="&#xc3;" horiz-adv-x="710" 
d="M245 99l-32 -99h-226l259 700h215l259 -700h-226l-32 99h-217zM288 243h131l-66 210zM470 901h106c-5 -38 -23 -81 -47 -105c-23 -24 -48 -30 -76 -30c-33 0 -57 11 -79 21l-30 14c-18 9 -35 16 -56 16c-9 0 -20 -2 -29 -11c-6 -7 -11 -18 -12 -29h-107c5 30 19 67 41 93
c25 29 52 40 89 40c33 0 52 -9 74 -19l26 -12c24 -11 43 -20 61 -20c10 0 21 3 27 10c7 8 11 23 12 32z" />
    <glyph glyph-name="Adieresis" unicode="&#xc4;" horiz-adv-x="710" 
d="M245 99l-32 -99h-226l259 700h215l259 -700h-226l-32 99h-217zM288 243h131l-66 210zM130 779v129h172v-129h-172zM399 779v129h172v-129h-172z" />
    <glyph glyph-name="Aring" unicode="&#xc5;" horiz-adv-x="710" 
d="M245 99l-32 -99h-226l259 700h215l259 -700h-226l-32 99h-217zM288 243h131l-66 210zM244 872c0 62 48 112 111 112s111 -50 111 -112c0 -61 -47 -111 -111 -111s-111 50 -111 111zM309 872c0 -26 20 -46 46 -46s46 20 46 46c0 30 -26 47 -46 47s-46 -17 -46 -47z" />
    <glyph glyph-name="AE" unicode="&#xc6;" horiz-adv-x="1135" 
d="M265 99l-60 -99h-230l426 700h681v-185h-363v-79h311v-165h-311v-86h371v-185h-585v99h-240zM345 243h160v232h-25z" />
    <glyph glyph-name="Ccedilla" unicode="&#xc7;" horiz-adv-x="759" 
d="M526 258h213c-7 -81 -43 -154 -87 -197c-78 -77 -195 -81 -259 -81c-72 0 -174 7 -252 80c-49 46 -101 136 -101 283c0 132 43 224 104 283c80 78 180 92 263 92c115 0 194 -33 245 -85c9 -9 70 -73 81 -186h-211c-4 26 -17 49 -33 63c-24 20 -57 22 -75 22
c-33 0 -68 -6 -97 -35c-40 -40 -45 -105 -45 -148c0 -45 6 -103 39 -142c31 -37 67 -40 97 -40s58 4 84 27c25 22 32 49 34 64zM282 -245l24 70c21 -6 43 -10 63 -10c8 0 30 0 41 5c15 6 18 17 18 25c0 17 -11 23 -23 26c-6 1 -20 4 -68 4h-14l23 67c19 2 36 2 51 2
c63 0 91 -13 103 -20c29 -18 42 -44 42 -77c0 -48 -26 -74 -43 -85c-32 -22 -75 -23 -102 -23c-62 0 -92 7 -115 16z" />
    <glyph glyph-name="Egrave" unicode="&#xc8;" horiz-adv-x="719" 
d="M303 436h311v-165h-311v-86h371v-185h-589v700h581v-185h-363v-79zM408 908l66 -142h-153l-112 142h199z" />
    <glyph glyph-name="Eacute" unicode="&#xc9;" horiz-adv-x="719" 
d="M303 436h311v-165h-311v-86h371v-185h-589v700h581v-185h-363v-79zM347 908h199l-112 -142h-153z" />
    <glyph glyph-name="Ecircumflex" unicode="&#xca;" horiz-adv-x="719" 
d="M303 436h311v-165h-311v-86h371v-185h-589v700h581v-185h-363v-79zM377 849l-77 -83h-160l125 132h224l125 -132h-160z" />
    <glyph glyph-name="Edieresis" unicode="&#xcb;" horiz-adv-x="719" 
d="M303 436h311v-165h-311v-86h371v-185h-589v700h581v-185h-363v-79zM150 779v129h172v-129h-172zM419 779v129h172v-129h-172z" />
    <glyph glyph-name="Igrave" unicode="&#xcc;" horiz-adv-x="388" 
d="M85 700h218v-700h-218v700zM235 908l66 -142h-153l-112 142h199z" />
    <glyph glyph-name="Iacute" unicode="&#xcd;" horiz-adv-x="388" 
d="M85 700h218v-700h-218v700zM168 908h199l-112 -142h-153z" />
    <glyph glyph-name="Icircumflex" unicode="&#xce;" horiz-adv-x="388" 
d="M85 700h218v-700h-218v700zM189 849l-77 -83h-160l125 132h224l125 -132h-160z" />
    <glyph glyph-name="Idieresis" unicode="&#xcf;" horiz-adv-x="388" 
d="M85 700h218v-700h-218v700zM-31 779v129h172v-129h-172zM238 779v129h172v-129h-172z" />
    <glyph glyph-name="Eth" unicode="&#xd0;" horiz-adv-x="823" 
d="M108 700h336c81 0 170 -9 243 -78c68 -65 101 -172 101 -281c0 -151 -59 -230 -102 -268c-77 -68 -167 -73 -242 -73h-336v324h-98v99h98v277zM326 516v-93h134v-104h-134v-131h78c32 0 77 2 110 33c36 33 42 89 42 129c0 26 -1 94 -38 131c-33 33 -82 35 -115 35h-77z
" />
    <glyph glyph-name="Ntilde" unicode="&#xd1;" horiz-adv-x="820" 
d="M303 388h-5l5 -53v-335h-218v700h218l214 -388h5l-5 53v335h218v-700h-218zM522 901h106c-5 -38 -23 -81 -47 -105c-23 -24 -48 -30 -76 -30c-33 0 -57 11 -79 21l-30 14c-18 9 -35 16 -56 16c-9 0 -20 -2 -29 -11c-6 -7 -11 -18 -12 -29h-107c5 30 19 67 41 93
c25 29 52 40 89 40c33 0 52 -9 74 -19l26 -12c24 -11 43 -20 61 -20c10 0 21 3 27 10c7 8 11 23 12 32z" />
    <glyph glyph-name="Ograve" unicode="&#xd2;" 
d="M40 348c0 129 47 218 99 273c83 87 182 98 265 98c90 0 200 -15 281 -99c79 -81 93 -187 93 -264c0 -135 -41 -221 -91 -275c-81 -87 -184 -100 -275 -100c-92 0 -200 14 -282 102c-32 34 -90 116 -90 265zM272 350c0 -38 5 -106 44 -148c26 -27 58 -37 93 -37
c34 0 68 8 94 37c32 35 43 97 43 148s-7 110 -43 148c-26 27 -56 37 -90 37c-35 0 -68 -9 -95 -37c-40 -42 -46 -110 -46 -148zM448 908l66 -142h-153l-112 142h199z" />
    <glyph glyph-name="Oacute" unicode="&#xd3;" 
d="M40 348c0 129 47 218 99 273c83 87 182 98 265 98c90 0 200 -15 281 -99c79 -81 93 -187 93 -264c0 -135 -41 -221 -91 -275c-81 -87 -184 -100 -275 -100c-92 0 -200 14 -282 102c-32 34 -90 116 -90 265zM272 350c0 -38 5 -106 44 -148c26 -27 58 -37 93 -37
c34 0 68 8 94 37c32 35 43 97 43 148s-7 110 -43 148c-26 27 -56 37 -90 37c-35 0 -68 -9 -95 -37c-40 -42 -46 -110 -46 -148zM407 908h199l-112 -142h-153z" />
    <glyph glyph-name="Ocircumflex" unicode="&#xd4;" 
d="M40 348c0 129 47 218 99 273c83 87 182 98 265 98c90 0 200 -15 281 -99c79 -81 93 -187 93 -264c0 -135 -41 -221 -91 -275c-81 -87 -184 -100 -275 -100c-92 0 -200 14 -282 102c-32 34 -90 116 -90 265zM272 350c0 -38 5 -106 44 -148c26 -27 58 -37 93 -37
c34 0 68 8 94 37c32 35 43 97 43 148s-7 110 -43 148c-26 27 -56 37 -90 37c-35 0 -68 -9 -95 -37c-40 -42 -46 -110 -46 -148zM409 849l-77 -83h-160l125 132h224l125 -132h-160z" />
    <glyph glyph-name="Otilde" unicode="&#xd5;" 
d="M40 348c0 129 47 218 99 273c83 87 182 98 265 98c90 0 200 -15 281 -99c79 -81 93 -187 93 -264c0 -135 -41 -221 -91 -275c-81 -87 -184 -100 -275 -100c-92 0 -200 14 -282 102c-32 34 -90 116 -90 265zM272 350c0 -38 5 -106 44 -148c26 -27 58 -37 93 -37
c34 0 68 8 94 37c32 35 43 97 43 148s-7 110 -43 148c-26 27 -56 37 -90 37c-35 0 -68 -9 -95 -37c-40 -42 -46 -110 -46 -148zM540 901h106c-5 -38 -23 -81 -47 -105c-23 -24 -48 -30 -76 -30c-33 0 -57 11 -79 21l-30 14c-18 9 -35 16 -56 16c-9 0 -20 -2 -29 -11
c-6 -7 -11 -18 -12 -29h-107c5 30 19 67 41 93c25 29 52 40 89 40c33 0 52 -9 74 -19l26 -12c24 -11 43 -20 61 -20c10 0 21 3 27 10c7 8 11 23 12 32z" />
    <glyph glyph-name="Odieresis" unicode="&#xd6;" 
d="M40 348c0 129 47 218 99 273c83 87 182 98 265 98c90 0 200 -15 281 -99c79 -81 93 -187 93 -264c0 -135 -41 -221 -91 -275c-81 -87 -184 -100 -275 -100c-92 0 -200 14 -282 102c-32 34 -90 116 -90 265zM272 350c0 -38 5 -106 44 -148c26 -27 58 -37 93 -37
c34 0 68 8 94 37c32 35 43 97 43 148s-7 110 -43 148c-26 27 -56 37 -90 37c-35 0 -68 -9 -95 -37c-40 -42 -46 -110 -46 -148zM190 779v129h172v-129h-172zM459 779v129h172v-129h-172z" />
    <glyph glyph-name="multiply" unicode="&#xd7;" horiz-adv-x="664" 
d="M90 163l182 182l-182 181l60 61l182 -182l182 182l60 -61l-182 -181l182 -183l-60 -60l-182 183l-182 -182z" />
    <glyph glyph-name="Oslash" unicode="&#xd8;" horiz-adv-x="824" 
d="M40 17l79 85c-33 41 -74 113 -74 248c0 79 15 190 99 273c77 77 175 96 273 96c92 0 154 -15 223 -58l81 87l63 -66l-76 -82c63 -86 75 -175 75 -254c0 -83 -11 -183 -91 -265c-83 -85 -189 -100 -281 -100c-88 0 -151 12 -225 59l-83 -89zM285 281l215 228
c-25 22 -48 30 -85 30c-39 0 -69 -9 -95 -37c-24 -26 -43 -72 -43 -152c0 -25 3 -45 8 -69zM542 425l-217 -231c25 -25 52 -33 87 -33c29 0 66 6 95 37c36 38 44 106 44 154c0 27 -2 49 -9 73z" />
    <glyph glyph-name="Ugrave" unicode="&#xd9;" 
d="M733 700v-438c0 -67 -5 -135 -68 -199s-153 -82 -255 -82c-101 0 -194 18 -257 82c-60 61 -68 129 -68 200v437h219v-428c0 -28 4 -64 27 -88c24 -25 57 -27 78 -27s54 2 78 27c23 24 27 60 27 88v428h219zM418 908l66 -142h-153l-112 142h199z" />
    <glyph glyph-name="Uacute" unicode="&#xda;" 
d="M733 700v-438c0 -67 -5 -135 -68 -199s-153 -82 -255 -82c-101 0 -194 18 -257 82c-60 61 -68 129 -68 200v437h219v-428c0 -28 4 -64 27 -88c24 -25 57 -27 78 -27s54 2 78 27c23 24 27 60 27 88v428h219zM402 908h199l-112 -142h-153z" />
    <glyph glyph-name="Ucircumflex" unicode="&#xdb;" 
d="M733 700v-438c0 -67 -5 -135 -68 -199s-153 -82 -255 -82c-101 0 -194 18 -257 82c-60 61 -68 129 -68 200v437h219v-428c0 -28 4 -64 27 -88c24 -25 57 -27 78 -27s54 2 78 27c23 24 27 60 27 88v428h219zM409 849l-77 -83h-160l125 132h224l125 -132h-160z" />
    <glyph glyph-name="Udieresis" unicode="&#xdc;" 
d="M733 700v-438c0 -67 -5 -135 -68 -199s-153 -82 -255 -82c-101 0 -194 18 -257 82c-60 61 -68 129 -68 200v437h219v-428c0 -28 4 -64 27 -88c24 -25 57 -27 78 -27s54 2 78 27c23 24 27 60 27 88v428h219zM188 779v129h172v-129h-172zM457 779v129h172v-129h-172z" />
    <glyph glyph-name="Yacute" unicode="&#xdd;" horiz-adv-x="685" 
d="M344 416l116 284h235l-244 -455v-245h-218v245l-243 455h235zM317 908h199l-112 -142h-153z" />
    <glyph glyph-name="Thorn" unicode="&#xde;" horiz-adv-x="740" 
d="M85 700h210v-112h146c61 0 151 -8 212 -70c38 -38 62 -96 62 -171c0 -76 -28 -136 -66 -173c-66 -64 -154 -63 -208 -63h-138v-111h-218v700zM303 420v-141h104c21 0 52 1 70 18c12 12 19 34 19 54c0 22 -7 40 -18 50c-19 18 -52 19 -71 19h-104z" />
    <glyph glyph-name="germandbls" unicode="&#xdf;" horiz-adv-x="660" 
d="M65 0v447c0 53 3 134 64 196c60 61 150 70 207 70c45 0 113 -6 164 -44c26 -19 66 -61 66 -137c0 -19 -2 -98 -80 -129v-5c42 -8 76 -29 97 -51c25 -27 47 -71 47 -140c0 -82 -32 -130 -56 -154c-52 -53 -126 -60 -172 -60c-33 0 -58 2 -88 10v145c11 -4 22 -6 37 -6
c21 0 45 6 60 21c14 13 22 36 22 64c0 43 -17 66 -32 77c-21 15 -50 16 -78 16h-9v124h6c14 0 31 2 45 16s17 33 17 49c0 10 -1 31 -14 45c-7 7 -18 14 -37 14s-35 -6 -47 -23c-13 -19 -14 -43 -14 -61v-484h-205z" />
    <glyph glyph-name="agrave" unicode="&#xe0;" horiz-adv-x="634" 
d="M249 335h-197c4 49 24 90 51 118c57 59 147 68 214 68c49 0 152 -2 210 -59c47 -45 52 -104 52 -145v-229c0 -36 2 -49 7 -58c5 -10 16 -19 28 -23v-7h-226l-13 55h-2c-16 -19 -38 -37 -62 -49c-37 -19 -79 -24 -114 -24c-40 0 -91 5 -128 39c-20 19 -43 53 -43 110
c0 38 10 71 38 99c40 40 96 50 137 55l60 7c57 7 79 9 93 22c7 7 15 19 15 38c0 17 -7 28 -13 33c-14 13 -38 14 -44 14c-23 0 -38 -7 -47 -16c-10 -10 -17 -29 -16 -48zM369 217v13c-22 -16 -39 -19 -60 -22c-17 -3 -43 -6 -60 -24c-9 -10 -12 -20 -12 -32
c0 -15 6 -26 13 -33c11 -11 24 -13 35 -13c23 0 41 6 57 23c25 26 27 61 27 88zM353 700l66 -132h-143l-112 132h189z" />
    <glyph glyph-name="aacute" unicode="&#xe1;" horiz-adv-x="634" 
d="M249 335h-197c4 49 24 90 51 118c57 59 147 68 214 68c49 0 152 -2 210 -59c47 -45 52 -104 52 -145v-229c0 -36 2 -49 7 -58c5 -10 16 -19 28 -23v-7h-226l-13 55h-2c-16 -19 -38 -37 -62 -49c-37 -19 -79 -24 -114 -24c-40 0 -91 5 -128 39c-20 19 -43 53 -43 110
c0 38 10 71 38 99c40 40 96 50 137 55l60 7c57 7 79 9 93 22c7 7 15 19 15 38c0 17 -7 28 -13 33c-14 13 -38 14 -44 14c-23 0 -38 -7 -47 -16c-10 -10 -17 -29 -16 -48zM369 217v13c-22 -16 -39 -19 -60 -22c-17 -3 -43 -6 -60 -24c-9 -10 -12 -20 -12 -32
c0 -15 6 -26 13 -33c11 -11 24 -13 35 -13c23 0 41 6 57 23c25 26 27 61 27 88zM307 700h189l-112 -132h-143z" />
    <glyph glyph-name="acircumflex" unicode="&#xe2;" horiz-adv-x="634" 
d="M249 335h-197c4 49 24 90 51 118c57 59 147 68 214 68c49 0 152 -2 210 -59c47 -45 52 -104 52 -145v-229c0 -36 2 -49 7 -58c5 -10 16 -19 28 -23v-7h-226l-13 55h-2c-16 -19 -38 -37 -62 -49c-37 -19 -79 -24 -114 -24c-40 0 -91 5 -128 39c-20 19 -43 53 -43 110
c0 38 10 71 38 99c40 40 96 50 137 55l60 7c57 7 79 9 93 22c7 7 15 19 15 38c0 17 -7 28 -13 33c-14 13 -38 14 -44 14c-23 0 -38 -7 -47 -16c-10 -10 -17 -29 -16 -48zM369 217v13c-22 -16 -39 -19 -60 -22c-17 -3 -43 -6 -60 -24c-9 -10 -12 -20 -12 -32
c0 -15 6 -26 13 -33c11 -11 24 -13 35 -13c23 0 41 6 57 23c25 26 27 61 27 88zM337 656l-77 -88h-160l125 132h224l125 -132h-160z" />
    <glyph glyph-name="atilde" unicode="&#xe3;" horiz-adv-x="634" 
d="M249 335h-197c4 49 24 90 51 118c57 59 147 68 214 68c49 0 152 -2 210 -59c47 -45 52 -104 52 -145v-229c0 -36 2 -49 7 -58c5 -10 16 -19 28 -23v-7h-226l-13 55h-2c-16 -19 -38 -37 -62 -49c-37 -19 -79 -24 -114 -24c-40 0 -91 5 -128 39c-20 19 -43 53 -43 110
c0 38 10 71 38 99c40 40 96 50 137 55l60 7c57 7 79 9 93 22c7 7 15 19 15 38c0 17 -7 28 -13 33c-14 13 -38 14 -44 14c-23 0 -38 -7 -47 -16c-10 -10 -17 -29 -16 -48zM369 217v13c-22 -16 -39 -19 -60 -22c-17 -3 -43 -6 -60 -24c-9 -10 -12 -20 -12 -32
c0 -15 6 -26 13 -33c11 -11 24 -13 35 -13c23 0 41 6 57 23c25 26 27 61 27 88zM435 703h106c-5 -38 -23 -81 -46 -105c-22 -23 -46 -30 -76 -30c-38 0 -58 11 -80 21l-30 14c-18 9 -35 16 -56 16c-9 0 -20 -2 -29 -11c-6 -7 -11 -18 -12 -29h-107c5 30 19 67 41 93
c24 29 51 40 87 40c32 0 55 -9 76 -19l26 -12c24 -11 43 -20 61 -20c10 0 21 3 27 10c7 8 11 23 12 32z" />
    <glyph glyph-name="adieresis" unicode="&#xe4;" horiz-adv-x="634" 
d="M249 335h-197c4 49 24 90 51 118c57 59 147 68 214 68c49 0 152 -2 210 -59c47 -45 52 -104 52 -145v-229c0 -36 2 -49 7 -58c5 -10 16 -19 28 -23v-7h-226l-13 55h-2c-16 -19 -38 -37 -62 -49c-37 -19 -79 -24 -114 -24c-40 0 -91 5 -128 39c-20 19 -43 53 -43 110
c0 38 10 71 38 99c40 40 96 50 137 55l60 7c57 7 79 9 93 22c7 7 15 19 15 38c0 17 -7 28 -13 33c-14 13 -38 14 -44 14c-23 0 -38 -7 -47 -16c-10 -10 -17 -29 -16 -48zM369 217v13c-22 -16 -39 -19 -60 -22c-17 -3 -43 -6 -60 -24c-9 -10 -12 -20 -12 -32
c0 -15 6 -26 13 -33c11 -11 24 -13 35 -13c23 0 41 6 57 23c25 26 27 61 27 88zM96 581v129h172v-129h-172zM365 581v129h172v-129h-172z" />
    <glyph glyph-name="aring" unicode="&#xe5;" horiz-adv-x="634" 
d="M249 335h-197c4 49 24 90 51 118c57 59 147 68 214 68c49 0 152 -2 210 -59c47 -45 52 -104 52 -145v-229c0 -36 2 -49 7 -58c5 -10 16 -19 28 -23v-7h-226l-13 55h-2c-16 -19 -38 -37 -62 -49c-37 -19 -79 -24 -114 -24c-40 0 -91 5 -128 39c-20 19 -43 53 -43 110
c0 38 10 71 38 99c40 40 96 50 137 55l60 7c57 7 79 9 93 22c7 7 15 19 15 38c0 17 -7 28 -13 33c-14 13 -38 14 -44 14c-23 0 -38 -7 -47 -16c-10 -10 -17 -29 -16 -48zM369 217v13c-22 -16 -39 -19 -60 -22c-17 -3 -43 -6 -60 -24c-9 -10 -12 -20 -12 -32
c0 -15 6 -26 13 -33c11 -11 24 -13 35 -13c23 0 41 6 57 23c25 26 27 61 27 88zM220 670c0 59 47 106 106 106s106 -47 106 -106s-47 -106 -106 -106s-106 47 -106 106zM282 670c0 -24 20 -44 44 -44s44 20 44 44s-20 44 -44 44s-44 -20 -44 -44z" />
    <glyph glyph-name="ae" unicode="&#xe6;" horiz-adv-x="982" 
d="M738 147h206c-18 -70 -61 -109 -100 -131c-56 -32 -123 -34 -167 -34c-68 0 -113 10 -145 26c-41 20 -62 50 -74 72c-19 -30 -47 -58 -79 -74c-25 -13 -65 -24 -140 -24c-90 0 -138 18 -165 40c-28 23 -48 62 -48 110c0 52 24 89 49 110c37 31 89 39 126 43l79 9
c47 5 64 14 71 19c11 8 18 21 18 37c0 14 -7 29 -17 37c-12 9 -32 12 -45 12c-28 0 -42 -10 -48 -16c-11 -11 -17 -32 -18 -48h-189c4 63 34 103 55 124c54 54 126 62 188 62c100 0 149 -25 187 -67c26 30 74 72 186 72c96 0 163 -31 204 -71c73 -71 80 -174 80 -231v-12
h-373c0 -25 7 -61 26 -82c20 -21 47 -24 62 -24c17 0 34 3 48 11c13 8 20 17 23 30zM365 222c-19 -13 -33 -17 -54 -20c-25 -4 -46 -5 -61 -15c-7 -5 -20 -17 -20 -41c0 -18 9 -29 15 -34c13 -11 30 -12 43 -12c16 0 36 4 52 22c20 23 25 70 25 100zM580 312h156
c0 24 -9 54 -23 69c-15 16 -35 20 -52 20c-16 0 -40 -2 -57 -21c-14 -15 -23 -43 -24 -68z" />
    <glyph glyph-name="ccedilla" unicode="&#xe7;" horiz-adv-x="626" 
d="M400 200h196c-7 -66 -37 -115 -68 -146c-66 -66 -152 -72 -217 -72s-146 8 -208 67c-35 33 -73 94 -73 193c0 95 38 167 82 211c63 61 144 76 213 76c107 0 169 -36 205 -72c31 -32 58 -82 62 -146h-193c0 20 -5 49 -24 68c-13 13 -30 18 -48 18c-21 0 -37 -6 -51 -21
c-26 -28 -30 -77 -30 -117c0 -28 1 -92 31 -124c15 -17 32 -21 51 -21c15 0 33 2 48 17c16 17 24 48 24 69zM190 -234l24 70c21 -6 43 -10 63 -10c8 0 30 0 41 5c15 6 18 17 18 25c0 17 -11 23 -23 26c-6 1 -20 4 -68 4h-14l23 67c19 2 36 2 51 2c63 0 91 -13 103 -20
c29 -18 42 -44 42 -77c0 -48 -26 -74 -43 -85c-32 -22 -75 -23 -102 -23c-62 0 -92 7 -115 16z" />
    <glyph glyph-name="egrave" unicode="&#xe8;" horiz-adv-x="648" 
d="M404 147h206c-14 -43 -41 -92 -101 -127c-64 -37 -132 -38 -185 -38c-79 0 -162 7 -225 70c-39 39 -69 102 -69 187c0 81 28 155 76 205c62 65 142 82 220 82c116 0 183 -35 222 -75c69 -71 70 -167 70 -227v-12h-373c-1 -27 6 -59 19 -77c13 -17 33 -29 64 -29
c15 0 36 2 50 10c16 9 23 21 26 31zM246 312h156c0 22 -8 53 -22 68c-15 17 -35 21 -52 21c-21 0 -42 -5 -57 -22c-16 -17 -24 -46 -25 -67zM333 700l66 -132h-143l-112 132h189z" />
    <glyph glyph-name="eacute" unicode="&#xe9;" horiz-adv-x="648" 
d="M404 147h206c-14 -43 -41 -92 -101 -127c-64 -37 -132 -38 -185 -38c-79 0 -162 7 -225 70c-39 39 -69 102 -69 187c0 81 28 155 76 205c62 65 142 82 220 82c116 0 183 -35 222 -75c69 -71 70 -167 70 -227v-12h-373c-1 -27 6 -59 19 -77c13 -17 33 -29 64 -29
c15 0 36 2 50 10c16 9 23 21 26 31zM246 312h156c0 22 -8 53 -22 68c-15 17 -35 21 -52 21c-21 0 -42 -5 -57 -22c-16 -17 -24 -46 -25 -67zM322 700h189l-112 -132h-143z" />
    <glyph glyph-name="ecircumflex" unicode="&#xea;" horiz-adv-x="648" 
d="M404 147h206c-14 -43 -41 -92 -101 -127c-64 -37 -132 -38 -185 -38c-79 0 -162 7 -225 70c-39 39 -69 102 -69 187c0 81 28 155 76 205c62 65 142 82 220 82c116 0 183 -35 222 -75c69 -71 70 -167 70 -227v-12h-373c-1 -27 6 -59 19 -77c13 -17 33 -29 64 -29
c15 0 36 2 50 10c16 9 23 21 26 31zM246 312h156c0 22 -8 53 -22 68c-15 17 -35 21 -52 21c-21 0 -42 -5 -57 -22c-16 -17 -24 -46 -25 -67zM337 656l-77 -88h-160l125 132h224l125 -132h-160z" />
    <glyph glyph-name="edieresis" unicode="&#xeb;" horiz-adv-x="648" 
d="M404 147h206c-14 -43 -41 -92 -101 -127c-64 -37 -132 -38 -185 -38c-79 0 -162 7 -225 70c-39 39 -69 102 -69 187c0 81 28 155 76 205c62 65 142 82 220 82c116 0 183 -35 222 -75c69 -71 70 -167 70 -227v-12h-373c-1 -27 6 -59 19 -77c13 -17 33 -29 64 -29
c15 0 36 2 50 10c16 9 23 21 26 31zM246 312h156c0 22 -8 53 -22 68c-15 17 -35 21 -52 21c-21 0 -42 -5 -57 -22c-16 -17 -24 -46 -25 -67zM103 581v129h172v-129h-172zM372 581v129h172v-129h-172z" />
    <glyph glyph-name="igrave" unicode="&#xec;" horiz-adv-x="340" 
d="M65 508h210v-508h-210v508zM192 700l66 -132h-143l-112 132h189z" />
    <glyph glyph-name="iacute" unicode="&#xed;" horiz-adv-x="340" 
d="M65 508h210v-508h-210v508zM142 700h189l-112 -132h-143z" />
    <glyph glyph-name="icircumflex" unicode="&#xee;" horiz-adv-x="340" 
d="M65 508h210v-508h-210v508zM167 656l-77 -88h-160l125 132h224l125 -132h-160z" />
    <glyph glyph-name="idieresis" unicode="&#xef;" horiz-adv-x="340" 
d="M65 508h210v-508h-210v508zM-54 581v129h172v-129h-172zM215 581v129h172v-129h-172z" />
    <glyph glyph-name="eth" unicode="&#xf0;" horiz-adv-x="669" 
d="M327 394c-21 0 -35 -7 -48 -20c-22 -23 -33 -60 -33 -120s11 -97 33 -120c13 -13 27 -20 48 -20s35 7 48 20c22 23 33 60 33 120s-11 97 -33 120c-13 13 -27 20 -48 20zM154 719l15 96c74 -10 141 -28 203 -53l93 59l53 -61l-71 -42c57 -37 109 -90 141 -148
c44 -81 51 -171 51 -229c0 -68 -9 -187 -86 -270c-73 -78 -166 -88 -236 -88c-66 0 -148 10 -213 76c-42 43 -74 110 -74 202c0 91 33 150 70 188c61 61 140 72 197 72c125 0 177 -57 200 -99h7c-8 56 -28 100 -59 141c-27 36 -58 66 -103 89l-163 -95l-50 60l129 75
c-32 12 -67 22 -104 27z" />
    <glyph glyph-name="ntilde" unicode="&#xf1;" horiz-adv-x="690" 
d="M266 508v-54h4c16 19 37 36 65 49c34 16 67 20 98 20c45 0 98 -7 140 -47c46 -44 52 -100 52 -171v-305h-210v272c0 47 -11 67 -16 75c-11 18 -27 26 -48 26c-18 0 -40 -6 -56 -29c-20 -28 -20 -68 -20 -74v-270h-210v508h201zM457 703h106c-5 -38 -23 -81 -46 -105
c-22 -23 -46 -30 -76 -30c-38 0 -58 11 -80 21l-30 14c-18 9 -35 16 -56 16c-9 0 -20 -2 -29 -11c-6 -7 -11 -18 -12 -29h-107c5 30 19 67 41 93c24 29 51 40 87 40c32 0 55 -9 76 -19l26 -12c24 -11 43 -20 61 -20c10 0 21 3 27 10c7 8 11 23 12 32z" />
    <glyph glyph-name="ograve" unicode="&#xf2;" horiz-adv-x="654" 
d="M329 394c-21 0 -37 -5 -51 -20c-12 -13 -32 -43 -32 -120c0 -42 9 -96 31 -120c14 -16 31 -20 48 -20c19 0 36 5 50 20c33 35 33 111 33 120c0 35 -5 92 -32 121c-14 15 -29 19 -47 19zM624 255c0 -100 -40 -164 -77 -200c-70 -68 -163 -73 -230 -73
c-72 0 -151 7 -212 63c-37 33 -75 94 -75 198c0 102 40 164 76 202c69 71 154 81 223 81c62 0 151 -8 219 -73c41 -39 76 -102 76 -198zM338 700l66 -132h-143l-112 132h189z" />
    <glyph glyph-name="oacute" unicode="&#xf3;" horiz-adv-x="654" 
d="M329 394c-21 0 -37 -5 -51 -20c-12 -13 -32 -43 -32 -120c0 -42 9 -96 31 -120c14 -16 31 -20 48 -20c19 0 36 5 50 20c33 35 33 111 33 120c0 35 -5 92 -32 121c-14 15 -29 19 -47 19zM624 255c0 -100 -40 -164 -77 -200c-70 -68 -163 -73 -230 -73
c-72 0 -151 7 -212 63c-37 33 -75 94 -75 198c0 102 40 164 76 202c69 71 154 81 223 81c62 0 151 -8 219 -73c41 -39 76 -102 76 -198zM317 700h189l-112 -132h-143z" />
    <glyph glyph-name="ocircumflex" unicode="&#xf4;" horiz-adv-x="654" 
d="M329 394c-21 0 -37 -5 -51 -20c-12 -13 -32 -43 -32 -120c0 -42 9 -96 31 -120c14 -16 31 -20 48 -20c19 0 36 5 50 20c33 35 33 111 33 120c0 35 -5 92 -32 121c-14 15 -29 19 -47 19zM624 255c0 -100 -40 -164 -77 -200c-70 -68 -163 -73 -230 -73
c-72 0 -151 7 -212 63c-37 33 -75 94 -75 198c0 102 40 164 76 202c69 71 154 81 223 81c62 0 151 -8 219 -73c41 -39 76 -102 76 -198zM337 656l-77 -88h-160l125 132h224l125 -132h-160z" />
    <glyph glyph-name="otilde" unicode="&#xf5;" horiz-adv-x="654" 
d="M329 394c-21 0 -37 -5 -51 -20c-12 -13 -32 -43 -32 -120c0 -42 9 -96 31 -120c14 -16 31 -20 48 -20c19 0 36 5 50 20c33 35 33 111 33 120c0 35 -5 92 -32 121c-14 15 -29 19 -47 19zM624 255c0 -100 -40 -164 -77 -200c-70 -68 -163 -73 -230 -73
c-72 0 -151 7 -212 63c-37 33 -75 94 -75 198c0 102 40 164 76 202c69 71 154 81 223 81c62 0 151 -8 219 -73c41 -39 76 -102 76 -198zM445 703h106c-5 -38 -23 -81 -46 -105c-22 -23 -46 -30 -76 -30c-38 0 -58 11 -80 21l-30 14c-18 9 -35 16 -56 16c-9 0 -20 -2 -29 -11
c-6 -7 -11 -18 -12 -29h-107c5 30 19 67 41 93c24 29 51 40 87 40c32 0 55 -9 76 -19l26 -12c24 -11 43 -20 61 -20c10 0 21 3 27 10c7 8 11 23 12 32z" />
    <glyph glyph-name="odieresis" unicode="&#xf6;" horiz-adv-x="654" 
d="M329 394c-21 0 -37 -5 -51 -20c-12 -13 -32 -43 -32 -120c0 -42 9 -96 31 -120c14 -16 31 -20 48 -20c19 0 36 5 50 20c33 35 33 111 33 120c0 35 -5 92 -32 121c-14 15 -29 19 -47 19zM624 255c0 -100 -40 -164 -77 -200c-70 -68 -163 -73 -230 -73
c-72 0 -151 7 -212 63c-37 33 -75 94 -75 198c0 102 40 164 76 202c69 71 154 81 223 81c62 0 151 -8 219 -73c41 -39 76 -102 76 -198zM106 581v129h172v-129h-172zM375 581v129h172v-129h-172z" />
    <glyph glyph-name="divide" unicode="&#xf7;" horiz-adv-x="694" 
d="M50 409h594v-89h-594v89zM270 564c0 44 33 77 77 77s77 -33 77 -77s-33 -77 -77 -77s-77 33 -77 77zM270 165c0 44 33 77 77 77s77 -33 77 -77s-33 -77 -77 -77s-77 33 -77 77z" />
    <glyph glyph-name="oslash" unicode="&#xf8;" horiz-adv-x="654" 
d="M241 223l138 153c-12 13 -28 23 -54 23c-27 0 -47 -10 -62 -29c-18 -24 -26 -63 -26 -101c0 -16 2 -32 4 -46zM413 309l-147 -164c7 -11 26 -36 65 -36c19 0 45 8 64 37c17 26 23 66 23 104c0 21 -2 42 -5 59zM598 504l-49 -55c46 -47 75 -104 75 -194
c0 -100 -40 -165 -77 -200c-70 -68 -161 -73 -236 -73c-56 0 -99 2 -157 34l-56 -60l-52 55l48 53c-43 48 -64 99 -64 175c0 106 42 171 76 206c69 71 155 81 223 81c60 0 105 -8 158 -31l57 62z" />
    <glyph glyph-name="ugrave" unicode="&#xf9;" horiz-adv-x="689" 
d="M429 0v56h-5c-55 -59 -120 -70 -173 -70c-43 0 -94 7 -133 45c-52 51 -53 131 -53 173v304h210v-273c0 -45 9 -66 17 -77c13 -18 32 -22 50 -22c23 0 38 7 51 25c19 25 21 58 21 77v270h210v-508h-195zM373 700l66 -132h-143l-112 132h189z" />
    <glyph glyph-name="uacute" unicode="&#xfa;" horiz-adv-x="689" 
d="M429 0v56h-5c-55 -59 -120 -70 -173 -70c-43 0 -94 7 -133 45c-52 51 -53 131 -53 173v304h210v-273c0 -45 9 -66 17 -77c13 -18 32 -22 50 -22c23 0 38 7 51 25c19 25 21 58 21 77v270h210v-508h-195zM312 700h189l-112 -132h-143z" />
    <glyph glyph-name="ucircumflex" unicode="&#xfb;" horiz-adv-x="689" 
d="M429 0v56h-5c-55 -59 -120 -70 -173 -70c-43 0 -94 7 -133 45c-52 51 -53 131 -53 173v304h210v-273c0 -45 9 -66 17 -77c13 -18 32 -22 50 -22c23 0 38 7 51 25c19 25 21 58 21 77v270h210v-508h-195zM352 656l-77 -88h-160l125 132h224l125 -132h-160z" />
    <glyph glyph-name="udieresis" unicode="&#xfc;" horiz-adv-x="689" 
d="M429 0v56h-5c-55 -59 -120 -70 -173 -70c-43 0 -94 7 -133 45c-52 51 -53 131 -53 173v304h210v-273c0 -45 9 -66 17 -77c13 -18 32 -22 50 -22c23 0 38 7 51 25c19 25 21 58 21 77v270h210v-508h-195zM124 581v129h172v-129h-172zM393 581v129h172v-129h-172z" />
    <glyph glyph-name="yacute" unicode="&#xfd;" horiz-adv-x="588" 
d="M62 -173v135c21 -8 37 -10 56 -10c15 0 33 0 50 13c17 12 23 29 26 43l5 22l-199 478h212l101 -317l80 317h195l-179 -500c-16 -45 -36 -107 -76 -144c-27 -25 -74 -50 -156 -50c-25 0 -66 2 -115 13zM307 700h189l-112 -132h-143z" />
    <glyph glyph-name="thorn" unicode="&#xfe;" horiz-adv-x="695" 
d="M65 700h200v-248h4c47 66 115 74 164 74c43 0 108 -5 160 -55c16 -15 72 -76 72 -208c0 -80 -22 -165 -75 -219c-50 -52 -110 -62 -167 -62c-45 0 -103 7 -148 55v-222h-210v885zM266 248c0 -28 2 -71 26 -102c18 -23 41 -32 65 -32c27 0 46 10 61 26c29 32 31 81 31 108
c0 30 -3 79 -31 110c-11 13 -31 26 -61 26c-21 0 -43 -7 -60 -26c-28 -30 -31 -75 -31 -110z" />
    <glyph glyph-name="ydieresis" unicode="&#xff;" horiz-adv-x="588" 
d="M62 -173v135c21 -8 37 -10 56 -10c15 0 33 0 50 13c17 12 23 29 26 43l5 22l-199 478h212l101 -317l80 317h195l-179 -500c-16 -45 -36 -107 -76 -144c-27 -25 -74 -50 -156 -50c-25 0 -66 2 -115 13zM82 581v129h172v-129h-172zM351 581v129h172v-129h-172z" />
    <glyph glyph-name="Amacron" unicode="&#x100;" horiz-adv-x="710" 
d="M245 99l-32 -99h-226l259 700h215l259 -700h-226l-32 99h-217zM288 243h131l-66 210zM152 779v96h406v-96h-406z" />
    <glyph glyph-name="amacron" unicode="&#x101;" horiz-adv-x="634" 
d="M249 335h-197c4 49 24 90 51 118c57 59 147 68 214 68c49 0 152 -2 210 -59c47 -45 52 -104 52 -145v-229c0 -36 2 -49 7 -58c5 -10 16 -19 28 -23v-7h-226l-13 55h-2c-16 -19 -38 -37 -62 -49c-37 -19 -79 -24 -114 -24c-40 0 -91 5 -128 39c-20 19 -43 53 -43 110
c0 38 10 71 38 99c40 40 96 50 137 55l60 7c57 7 79 9 93 22c7 7 15 19 15 38c0 17 -7 28 -13 33c-14 13 -38 14 -44 14c-23 0 -38 -7 -47 -16c-10 -10 -17 -29 -16 -48zM369 217v13c-22 -16 -39 -19 -60 -22c-17 -3 -43 -6 -60 -24c-9 -10 -12 -20 -12 -32
c0 -15 6 -26 13 -33c11 -11 24 -13 35 -13c23 0 41 6 57 23c25 26 27 61 27 88zM120 590v96h406v-96h-406z" />
    <glyph glyph-name="Abreve" unicode="&#x102;" horiz-adv-x="710" 
d="M245 99l-32 -99h-226l259 700h215l259 -700h-226l-32 99h-217zM288 243h131l-66 210zM431 900h122c-3 -42 -22 -71 -40 -89c-47 -47 -118 -51 -158 -51s-111 4 -158 51c-18 18 -37 47 -40 89h122c-1 -19 7 -34 18 -44c18 -16 47 -17 58 -17c14 0 40 1 58 17
c8 7 19 22 18 44z" />
    <glyph glyph-name="abreve" unicode="&#x103;" horiz-adv-x="634" 
d="M249 335h-197c4 49 24 90 51 118c57 59 147 68 214 68c49 0 152 -2 210 -59c47 -45 52 -104 52 -145v-229c0 -36 2 -49 7 -58c5 -10 16 -19 28 -23v-7h-226l-13 55h-2c-16 -19 -38 -37 -62 -49c-37 -19 -79 -24 -114 -24c-40 0 -91 5 -128 39c-20 19 -43 53 -43 110
c0 38 10 71 38 99c40 40 96 50 137 55l60 7c57 7 79 9 93 22c7 7 15 19 15 38c0 17 -7 28 -13 33c-14 13 -38 14 -44 14c-23 0 -38 -7 -47 -16c-10 -10 -17 -29 -16 -48zM369 217v13c-22 -16 -39 -19 -60 -22c-17 -3 -43 -6 -60 -24c-9 -10 -12 -20 -12 -32
c0 -15 6 -26 13 -33c11 -11 24 -13 35 -13c23 0 41 6 57 23c25 26 27 61 27 88zM404 702h122c-3 -42 -22 -71 -40 -89c-47 -47 -118 -51 -158 -51s-111 4 -158 51c-18 18 -37 47 -40 89h122c-1 -19 7 -34 18 -44c18 -16 47 -17 58 -17c14 0 40 1 58 17c8 7 19 22 18 44z" />
    <glyph glyph-name="Aogonek" unicode="&#x104;" horiz-adv-x="710" 
d="M245 99l-32 -99h-226l259 700h215l259 -700c-47 -37 -71 -88 -71 -130c0 -13 4 -32 14 -42c8 -9 22 -13 34 -13c18 0 28 9 34 19c7 11 9 28 6 42h107c-1 -41 -18 -74 -36 -95c-37 -42 -86 -45 -120 -45c-32 0 -77 3 -113 33c-16 14 -40 42 -40 90c0 65 47 115 80 141
h-121l-32 99h-217zM288 243h131l-66 210z" />
    <glyph glyph-name="aogonek" unicode="&#x105;" horiz-adv-x="634" 
d="M249 335h-197c4 49 24 90 51 118c57 59 147 68 214 68c49 0 152 -2 210 -59c47 -45 52 -104 52 -145v-229c0 -36 2 -49 7 -58c5 -10 16 -19 28 -23v-7c-47 -37 -71 -88 -71 -130c0 -13 4 -32 14 -42c8 -9 22 -13 34 -13c18 0 28 9 34 19c7 11 9 28 6 42h107
c-1 -41 -18 -74 -36 -95c-37 -42 -86 -45 -120 -45c-31 0 -78 4 -113 34c-16 14 -40 42 -40 90c0 65 47 114 80 140h-121l-13 55h-2c-16 -19 -38 -37 -62 -49c-37 -19 -79 -24 -114 -24c-40 0 -91 5 -128 39c-20 19 -43 53 -43 110c0 38 10 71 38 99c40 40 96 50 137 55
l60 7c57 7 79 9 93 22c7 7 15 19 15 38c0 17 -7 28 -13 33c-14 13 -38 14 -44 14c-23 0 -38 -7 -47 -16c-10 -10 -17 -29 -16 -48zM369 217v13c-22 -16 -39 -19 -60 -22c-17 -3 -43 -6 -60 -24c-9 -10 -12 -20 -12 -32c0 -15 6 -26 13 -33c11 -11 24 -13 35 -13
c23 0 41 6 57 23c25 26 27 61 27 88z" />
    <glyph glyph-name="Cacute" unicode="&#x106;" horiz-adv-x="759" 
d="M526 258h213c-7 -81 -43 -154 -87 -197c-78 -77 -195 -81 -259 -81c-72 0 -174 7 -252 80c-49 46 -101 136 -101 283c0 132 43 224 104 283c80 78 180 92 263 92c115 0 194 -33 245 -85c9 -9 70 -73 81 -186h-211c-4 26 -17 49 -33 63c-24 20 -57 22 -75 22
c-33 0 -68 -6 -97 -35c-40 -40 -45 -105 -45 -148c0 -45 6 -103 39 -142c31 -37 67 -40 97 -40s58 4 84 27c25 22 32 49 34 64zM377 908h199l-112 -142h-153z" />
    <glyph glyph-name="cacute" unicode="&#x107;" horiz-adv-x="626" 
d="M400 200h196c-7 -66 -37 -115 -68 -146c-66 -66 -152 -72 -217 -72s-146 8 -208 67c-35 33 -73 94 -73 193c0 95 38 167 82 211c63 61 144 76 213 76c107 0 169 -36 205 -72c31 -32 58 -82 62 -146h-193c0 20 -5 49 -24 68c-13 13 -30 18 -48 18c-21 0 -37 -6 -51 -21
c-26 -28 -30 -77 -30 -117c0 -28 1 -92 31 -124c15 -17 32 -21 51 -21c15 0 33 2 48 17c16 17 24 48 24 69zM302 700h189l-112 -132h-143z" />
    <glyph glyph-name="Ccircumflex" unicode="&#x108;" horiz-adv-x="759" 
d="M526 258h213c-7 -81 -43 -154 -87 -197c-78 -77 -195 -81 -259 -81c-72 0 -174 7 -252 80c-49 46 -101 136 -101 283c0 132 43 224 104 283c80 78 180 92 263 92c115 0 194 -33 245 -85c9 -9 70 -73 81 -186h-211c-4 26 -17 49 -33 63c-24 20 -57 22 -75 22
c-33 0 -68 -6 -97 -35c-40 -40 -45 -105 -45 -148c0 -45 6 -103 39 -142c31 -37 67 -40 97 -40s58 4 84 27c25 22 32 49 34 64zM407 849l-77 -83h-160l125 132h224l125 -132h-160z" />
    <glyph glyph-name="ccircumflex" unicode="&#x109;" horiz-adv-x="626" 
d="M400 200h196c-7 -66 -37 -115 -68 -146c-66 -66 -152 -72 -217 -72s-146 8 -208 67c-35 33 -73 94 -73 193c0 95 38 167 82 211c63 61 144 76 213 76c107 0 169 -36 205 -72c31 -32 58 -82 62 -146h-193c0 20 -5 49 -24 68c-13 13 -30 18 -48 18c-21 0 -37 -6 -51 -21
c-26 -28 -30 -77 -30 -117c0 -28 1 -92 31 -124c15 -17 32 -21 51 -21c15 0 33 2 48 17c16 17 24 48 24 69zM327 656l-77 -88h-160l125 132h224l125 -132h-160z" />
    <glyph glyph-name="Ccaron" unicode="&#x10c;" horiz-adv-x="759" 
d="M526 258h213c-7 -81 -43 -154 -87 -197c-78 -77 -195 -81 -259 -81c-72 0 -174 7 -252 80c-49 46 -101 136 -101 283c0 132 43 224 104 283c80 78 180 92 263 92c115 0 194 -33 245 -85c9 -9 70 -73 81 -186h-211c-4 26 -17 49 -33 63c-24 20 -57 22 -75 22
c-33 0 -68 -6 -97 -35c-40 -40 -45 -105 -45 -148c0 -45 6 -103 39 -142c31 -37 67 -40 97 -40s58 4 84 27c25 22 32 49 34 64zM407 815l77 83h160l-125 -132h-224l-125 132h160z" />
    <glyph glyph-name="ccaron" unicode="&#x10d;" horiz-adv-x="626" 
d="M400 200h196c-7 -66 -37 -115 -68 -146c-66 -66 -152 -72 -217 -72s-146 8 -208 67c-35 33 -73 94 -73 193c0 95 38 167 82 211c63 61 144 76 213 76c107 0 169 -36 205 -72c31 -32 58 -82 62 -146h-193c0 20 -5 49 -24 68c-13 13 -30 18 -48 18c-21 0 -37 -6 -51 -21
c-26 -28 -30 -77 -30 -117c0 -28 1 -92 31 -124c15 -17 32 -21 51 -21c15 0 33 2 48 17c16 17 24 48 24 69zM327 612l77 88h160l-125 -132h-224l-125 132h160z" />
    <glyph glyph-name="Dcaron" unicode="&#x10e;" horiz-adv-x="800" 
d="M85 700h336c82 0 170 -9 243 -78c67 -63 101 -170 101 -282c0 -158 -69 -237 -102 -267c-77 -70 -160 -73 -242 -73h-336v700zM303 516v-328h78c32 0 77 2 110 33c36 33 42 89 42 129c0 26 -1 94 -38 131c-33 33 -82 35 -115 35h-77zM387 815l77 83h160l-125 -132h-224
l-125 132h160z" />
    <glyph glyph-name="dcaron" unicode="&#x10f;" horiz-adv-x="832" 
d="M630 0h-200v49h-4c-49 -59 -117 -67 -160 -67c-49 0 -113 9 -166 64c-37 39 -70 103 -70 196c0 88 29 168 74 216c47 50 104 68 170 68c87 0 125 -35 146 -61v235h210v-700zM428 255c0 35 -4 75 -30 103c-12 13 -32 26 -63 26c-20 0 -40 -6 -57 -23
c-29 -30 -32 -84 -32 -112c0 -61 18 -94 36 -112c13 -12 31 -23 57 -23c24 0 44 8 59 25c26 30 30 77 30 116zM691 552v148h163v-121c0 -38 -3 -94 -39 -133c-35 -37 -92 -45 -124 -46v73c24 1 53 4 68 20c13 13 18 37 18 55v4h-86z" />
    <glyph glyph-name="Dcroat" unicode="&#x110;" horiz-adv-x="823" 
d="M108 700h336c81 0 170 -9 243 -78c68 -65 101 -172 101 -281c0 -151 -59 -230 -102 -268c-77 -68 -167 -73 -242 -73h-336v324h-98v99h98v277zM326 516v-93h134v-104h-134v-131h78c32 0 77 2 110 33c36 33 42 89 42 129c0 26 -1 94 -38 131c-33 33 -82 35 -115 35h-77z
" />
    <glyph glyph-name="dcroat" unicode="&#x111;" horiz-adv-x="695" 
d="M630 0h-200v45h-2c-18 -20 -40 -35 -61 -45c-30 -13 -62 -18 -93 -18c-53 0 -118 8 -172 64c-42 43 -72 115 -72 207c0 81 26 154 71 200c54 56 123 65 178 65c26 0 52 -2 83 -14c22 -9 41 -20 58 -41v100h-207v75h207v62h210v-62h88v-75h-88v-563zM428 255
c0 26 -1 73 -29 103c-12 13 -32 26 -63 26c-24 0 -42 -8 -57 -23c-11 -11 -33 -41 -33 -109c0 -35 8 -87 36 -115c12 -12 31 -23 59 -23c22 0 41 8 57 25c26 29 30 76 30 116z" />
    <glyph glyph-name="Emacron" unicode="&#x112;" horiz-adv-x="719" 
d="M303 436h311v-165h-311v-86h371v-185h-589v700h581v-185h-363v-79zM170 779v96h406v-96h-406z" />
    <glyph glyph-name="emacron" unicode="&#x113;" horiz-adv-x="648" 
d="M404 147h206c-14 -43 -41 -92 -101 -127c-64 -37 -132 -38 -185 -38c-79 0 -162 7 -225 70c-39 39 -69 102 -69 187c0 81 28 155 76 205c62 65 142 82 220 82c116 0 183 -35 222 -75c69 -71 70 -167 70 -227v-12h-373c-1 -27 6 -59 19 -77c13 -17 33 -29 64 -29
c15 0 36 2 50 10c16 9 23 21 26 31zM246 312h156c0 22 -8 53 -22 68c-15 17 -35 21 -52 21c-21 0 -42 -5 -57 -22c-16 -17 -24 -46 -25 -67zM125 590v96h406v-96h-406z" />
    <glyph glyph-name="Edotaccent" unicode="&#x116;" horiz-adv-x="719" 
d="M303 436h311v-165h-311v-86h371v-185h-589v700h581v-185h-363v-79zM285 779v129h172v-129h-172z" />
    <glyph glyph-name="edotaccent" unicode="&#x117;" horiz-adv-x="648" 
d="M404 147h206c-14 -43 -41 -92 -101 -127c-64 -37 -132 -38 -185 -38c-79 0 -162 7 -225 70c-39 39 -69 102 -69 187c0 81 28 155 76 205c62 65 142 82 220 82c116 0 183 -35 222 -75c69 -71 70 -167 70 -227v-12h-373c-1 -27 6 -59 19 -77c13 -17 33 -29 64 -29
c15 0 36 2 50 10c16 9 23 21 26 31zM246 312h156c0 22 -8 53 -22 68c-15 17 -35 21 -52 21c-21 0 -42 -5 -57 -22c-16 -17 -24 -46 -25 -67zM245 581v129h172v-129h-172z" />
    <glyph glyph-name="Eogonek" unicode="&#x118;" horiz-adv-x="719" 
d="M303 436h311v-165h-311v-86h371v-185c-39 -31 -71 -79 -71 -129c0 -16 4 -34 14 -44c5 -6 14 -12 30 -12c10 0 27 1 38 19c7 11 9 28 6 42h107c-1 -41 -18 -74 -36 -95c-33 -37 -77 -45 -114 -45c-44 0 -90 10 -119 34c-22 18 -40 48 -40 90c0 65 47 114 80 140h-484v700
h581v-185h-363v-79z" />
    <glyph glyph-name="eogonek" unicode="&#x119;" horiz-adv-x="648" 
d="M472 -124h107c-1 -41 -18 -74 -36 -95c-37 -42 -86 -45 -120 -45c-30 0 -78 3 -113 32c-17 14 -40 42 -40 90c0 45 21 86 59 124c-12 -1 -22 -1 -33 -1c-100 0 -163 36 -197 71c-39 39 -69 102 -69 187c0 81 28 155 76 205c62 65 142 82 220 82c116 0 183 -35 222 -75
c69 -71 70 -167 70 -227v-12h-373c-1 -27 6 -59 19 -77c13 -17 33 -29 64 -29c15 0 36 2 50 10c16 9 23 21 26 31h206c-15 -52 -41 -85 -81 -117c-36 -29 -85 -52 -112 -81c-21 -22 -33 -50 -33 -76c0 -29 13 -44 14 -45c5 -6 16 -13 34 -13c13 0 25 5 34 19c7 11 9 28 6 42
zM246 312h156c0 22 -8 53 -22 68c-15 17 -35 21 -52 21c-21 0 -42 -5 -57 -22c-16 -17 -24 -46 -25 -67z" />
    <glyph glyph-name="Ecaron" unicode="&#x11a;" horiz-adv-x="719" 
d="M303 436h311v-165h-311v-86h371v-185h-589v700h581v-185h-363v-79zM377 815l77 83h160l-125 -132h-224l-125 132h160z" />
    <glyph glyph-name="ecaron" unicode="&#x11b;" horiz-adv-x="648" 
d="M404 147h206c-14 -43 -41 -92 -101 -127c-64 -37 -132 -38 -185 -38c-79 0 -162 7 -225 70c-39 39 -69 102 -69 187c0 81 28 155 76 205c62 65 142 82 220 82c116 0 183 -35 222 -75c69 -71 70 -167 70 -227v-12h-373c-1 -27 6 -59 19 -77c13 -17 33 -29 64 -29
c15 0 36 2 50 10c16 9 23 21 26 31zM246 312h156c0 22 -8 53 -22 68c-15 17 -35 21 -52 21c-21 0 -42 -5 -57 -22c-16 -17 -24 -46 -25 -67zM332 612l77 88h160l-125 -132h-224l-125 132h160z" />
    <glyph glyph-name="Gcircumflex" unicode="&#x11c;" horiz-adv-x="800" 
d="M449 386h306v-386h-160l-13 59c-39 -48 -93 -80 -206 -80c-71 0 -162 9 -235 77c-61 57 -101 153 -101 276c0 148 59 238 106 286c80 81 175 99 259 99c81 0 178 -17 240 -66c46 -36 92 -104 103 -193h-225c-3 24 -13 45 -26 58c-26 27 -63 30 -82 30
c-46 0 -75 -18 -93 -37c-34 -36 -46 -103 -46 -159c0 -55 12 -128 54 -167c28 -27 60 -32 93 -32c28 0 54 5 80 25c26 21 39 49 42 56h-96v154zM412 849l-77 -83h-160l125 132h224l125 -132h-160z" />
    <glyph glyph-name="gcircumflex" unicode="&#x11d;" horiz-adv-x="684" 
d="M76 -25h194c0 -19 11 -30 17 -34c11 -8 29 -12 46 -12c29 0 46 10 56 19c18 18 20 41 20 60v56h-5c-44 -37 -91 -44 -143 -44s-115 6 -166 56c-31 30 -65 85 -65 180c0 102 36 163 69 198c44 48 99 68 163 68c53 0 112 -14 155 -61h5v47h197v-432
c0 -71 -10 -147 -70 -205c-64 -61 -149 -65 -218 -65c-56 0 -132 5 -186 43c-58 40 -67 95 -69 126zM247 267c0 -27 3 -61 24 -88c15 -20 35 -29 59 -29c29 0 48 11 60 25c25 29 27 78 27 93c0 49 -14 76 -29 92c-14 14 -33 24 -56 24c-21 0 -41 -8 -55 -23
c-28 -28 -30 -76 -30 -94zM342 656l-77 -88h-160l125 132h224l125 -132h-160z" />
    <glyph glyph-name="Gbreve" unicode="&#x11e;" horiz-adv-x="800" 
d="M449 386h306v-386h-160l-13 59c-39 -48 -93 -80 -206 -80c-71 0 -162 9 -235 77c-61 57 -101 153 -101 276c0 148 59 238 106 286c80 81 175 99 259 99c81 0 178 -17 240 -66c46 -36 92 -104 103 -193h-225c-3 24 -13 45 -26 58c-26 27 -63 30 -82 30
c-46 0 -75 -18 -93 -37c-34 -36 -46 -103 -46 -159c0 -55 12 -128 54 -167c28 -27 60 -32 93 -32c28 0 54 5 80 25c26 21 39 49 42 56h-96v154zM476 900h122c-3 -42 -22 -71 -40 -89c-47 -47 -118 -51 -158 -51s-111 4 -158 51c-18 18 -37 47 -40 89h122
c-1 -19 7 -34 18 -44c18 -16 47 -17 58 -17c14 0 40 1 58 17c8 7 19 22 18 44z" />
    <glyph glyph-name="gbreve" unicode="&#x11f;" horiz-adv-x="684" 
d="M76 -25h194c0 -19 11 -30 17 -34c11 -8 29 -12 46 -12c29 0 46 10 56 19c18 18 20 41 20 60v56h-5c-44 -37 -91 -44 -143 -44s-115 6 -166 56c-31 30 -65 85 -65 180c0 102 36 163 69 198c44 48 99 68 163 68c53 0 112 -14 155 -61h5v47h197v-432
c0 -71 -10 -147 -70 -205c-64 -61 -149 -65 -218 -65c-56 0 -132 5 -186 43c-58 40 -67 95 -69 126zM247 267c0 -27 3 -61 24 -88c15 -20 35 -29 59 -29c29 0 48 11 60 25c25 29 27 78 27 93c0 49 -14 76 -29 92c-14 14 -33 24 -56 24c-21 0 -41 -8 -55 -23
c-28 -28 -30 -76 -30 -94zM418 702h122c-3 -42 -22 -71 -40 -89c-47 -47 -118 -51 -158 -51s-111 4 -158 51c-18 18 -37 47 -40 89h122c-1 -19 7 -34 18 -44c18 -16 47 -17 58 -17c14 0 40 1 58 17c8 7 19 22 18 44z" />
    <glyph glyph-name="Gcommaaccent" unicode="&#x122;" horiz-adv-x="800" 
d="M449 386h306v-386h-160l-13 59c-39 -48 -93 -80 -206 -80c-71 0 -162 9 -235 77c-61 57 -101 153 -101 276c0 148 59 238 106 286c80 81 175 99 259 99c81 0 178 -17 240 -66c46 -36 92 -104 103 -193h-225c-3 24 -13 45 -26 58c-26 27 -63 30 -82 30
c-46 0 -75 -18 -93 -37c-34 -36 -46 -103 -46 -159c0 -55 12 -128 54 -167c28 -27 60 -32 93 -32c28 0 54 5 80 25c26 21 39 49 42 56h-96v154zM316 -195v132h167v-103c0 -44 -3 -102 -45 -143c-32 -31 -82 -42 -122 -43v75c20 -1 53 2 73 23c16 17 17 37 17 55v4h-90z" />
    <glyph glyph-name="gcommaaccent" unicode="&#x123;" horiz-adv-x="684" 
d="M76 -25h194c0 -19 11 -30 17 -34c11 -8 29 -12 46 -12c29 0 46 10 56 19c18 18 20 41 20 60v56h-5c-44 -37 -91 -44 -143 -44s-115 6 -166 56c-31 30 -65 85 -65 180c0 102 36 163 69 198c44 48 99 68 163 68c53 0 112 -14 155 -61h5v47h197v-432
c0 -71 -10 -147 -70 -205c-64 -61 -149 -65 -218 -65c-56 0 -132 5 -186 43c-58 40 -67 95 -69 126zM247 267c0 -27 3 -61 24 -88c15 -20 35 -29 59 -29c29 0 48 11 60 25c25 29 27 78 27 93c0 49 -14 76 -29 92c-14 14 -33 24 -56 24c-21 0 -41 -8 -55 -23
c-28 -28 -30 -76 -30 -94zM417 684v-122h-167v89c0 51 5 102 45 139c19 17 54 39 122 41v-69c-16 1 -53 -1 -73 -23c-12 -13 -17 -33 -17 -51v-4h90z" />
    <glyph glyph-name="Hcircumflex" unicode="&#x124;" horiz-adv-x="801" 
d="M303 275v-275h-218v700h218v-241h195v241h218v-700h-218v275h-195zM400 849l-77 -83h-160l125 132h224l125 -132h-160z" />
    <glyph glyph-name="hcircumflex" unicode="&#x125;" horiz-adv-x="690" 
d="M275 700v-235c28 25 78 58 160 58c68 0 111 -23 136 -47c47 -44 54 -107 54 -171v-305h-210v272c0 16 -1 53 -16 75c-10 15 -25 26 -49 26c-23 0 -41 -9 -55 -29c-13 -19 -20 -47 -20 -74v-270h-210v700h210zM169 816l-77 -88h-160l125 132h224l125 -132h-160z" />
    <glyph glyph-name="Imacron" unicode="&#x12a;" horiz-adv-x="388" 
d="M85 700h218v-700h-218v700zM-15 779v96h406v-96h-406z" />
    <glyph glyph-name="imacron" unicode="&#x12b;" horiz-adv-x="340" 
d="M65 508h210v-508h-210v508zM-37 590v96h406v-96h-406z" />
    <glyph glyph-name="Iogonek" unicode="&#x12e;" horiz-adv-x="388" 
d="M85 700h218v-700c-18 -15 -37 -35 -51 -58c-15 -25 -20 -49 -20 -71c0 -15 4 -33 14 -43c8 -9 22 -13 34 -13c18 0 28 9 34 19c7 11 8 28 6 42h107c-1 -41 -18 -74 -36 -95c-37 -42 -86 -45 -120 -45c-31 0 -78 4 -113 34c-17 14 -40 42 -40 90c0 29 8 84 80 140h-113
v700z" />
    <glyph glyph-name="iogonek" unicode="&#x12f;" horiz-adv-x="340" 
d="M65 508h210v-508c-47 -37 -71 -88 -71 -130c0 -13 4 -32 14 -42c8 -9 22 -13 34 -13c18 0 28 9 34 19c7 11 9 28 6 42h107c-1 -41 -18 -74 -36 -95c-37 -42 -86 -45 -120 -45c-32 0 -77 3 -113 33c-16 14 -40 42 -40 90c0 65 47 115 80 141h-105v508zM65 568v132h210
v-132h-210z" />
    <glyph glyph-name="Idotaccent" unicode="&#x130;" horiz-adv-x="388" 
d="M85 700h218v-700h-218v700zM108 779v129h172v-129h-172z" />
    <glyph glyph-name="dotlessi" unicode="&#x131;" horiz-adv-x="340" 
d="M65 508h210v-508h-210v508z" />
    <glyph glyph-name="Jcircumflex" unicode="&#x134;" horiz-adv-x="648" 
d="M20 276h214v-41c0 -21 1 -43 14 -60c9 -11 23 -20 44 -20c17 0 30 5 40 19c12 16 13 36 13 54v472h218v-440c0 -72 -7 -156 -70 -217c-59 -57 -140 -63 -199 -63c-68 0 -149 8 -207 67c-65 65 -67 154 -67 215v14zM324 849l-77 -83h-160l125 132h224l125 -132h-160z" />
    <glyph glyph-name="jcircumflex" unicode="&#x135;" horiz-adv-x="348" 
d="M72 508h211v-507c0 -47 -3 -103 -44 -144c-42 -42 -108 -45 -147 -45c-53 0 -88 5 -112 10v142c11 -2 21 -3 32 -3c10 0 32 0 45 13c14 14 15 36 15 55v479zM175 656l-77 -88h-160l125 132h224l125 -132h-160z" />
    <glyph glyph-name="Kcommaaccent" unicode="&#x136;" horiz-adv-x="779" 
d="M303 471l220 229h255l-279 -291l295 -409h-263l-174 266l-54 -57v-209h-218v700h218v-229zM335 -195v132h167v-103c0 -44 -3 -102 -45 -143c-32 -31 -82 -42 -122 -43v75c20 -1 53 2 73 23c16 17 17 37 17 55v4h-90z" />
    <glyph glyph-name="kcommaaccent" unicode="&#x137;" horiz-adv-x="640" 
d="M275 350l137 158h233l-203 -205l208 -303h-233l-105 180l-37 -38v-142h-210v700h210v-350zM265 -185v122h167v-89c0 -51 -5 -102 -45 -139c-19 -17 -54 -39 -122 -41v69c16 -1 53 1 73 23c12 13 17 33 17 51v4h-90z" />
    <glyph glyph-name="Lacute" unicode="&#x139;" horiz-adv-x="611" 
d="M606 185v-185h-521v700h218v-515h303zM187 908h199l-112 -142h-153z" />
    <glyph glyph-name="lacute" unicode="&#x13a;" horiz-adv-x="340" 
d="M65 700h210v-700h-210v700zM142 870h189l-112 -132h-143z" />
    <glyph glyph-name="Lcommaaccent" unicode="&#x13b;" horiz-adv-x="611" 
d="M606 185v-185h-521v700h218v-515h303zM270 -195v132h167v-103c0 -44 -3 -102 -45 -143c-32 -31 -82 -42 -122 -43v75c20 -1 53 2 73 23c16 17 17 37 17 55v4h-90z" />
    <glyph glyph-name="lcommaaccent" unicode="&#x13c;" horiz-adv-x="340" 
d="M65 700h210v-700h-210v700zM84 -185v122h167v-89c0 -51 -5 -102 -45 -139c-19 -17 -54 -39 -122 -41v69c16 -1 53 1 73 23c12 13 17 33 17 51v4h-90z" />
    <glyph glyph-name="Lcaron" unicode="&#x13d;" horiz-adv-x="611" 
d="M606 185v-185h-521v700h218v-515h303zM390 544v156h171v-127c0 -41 -2 -98 -41 -140c-37 -40 -95 -48 -130 -49v77c26 1 54 4 71 21c7 7 19 24 19 58v4h-90z" />
    <glyph glyph-name="lcaron" unicode="&#x13e;" horiz-adv-x="466" 
d="M65 700h210v-700h-210v700zM321 552v148h163v-121c0 -38 -3 -94 -39 -133c-35 -37 -92 -45 -124 -46v73c24 1 53 4 68 20c13 13 18 37 18 55v4h-86z" />
    <glyph glyph-name="Lslash" unicode="&#x141;" horiz-adv-x="637" 
d="M637 185v-185h-521v212l-106 -87v142l106 89v344h218v-204l147 134v-141l-147 -134v-170h303z" />
    <glyph glyph-name="lslash" unicode="&#x142;" horiz-adv-x="490" 
d="M140 700h210v-203l140 98v-104l-140 -101v-390h-210v287l-140 -92v104l140 94v307z" />
    <glyph glyph-name="Nacute" unicode="&#x143;" horiz-adv-x="820" 
d="M303 388h-5l5 -53v-335h-218v700h218l214 -388h5l-5 53v335h218v-700h-218zM384 908h199l-112 -142h-153z" />
    <glyph glyph-name="nacute" unicode="&#x144;" horiz-adv-x="690" 
d="M266 508v-54h4c16 19 37 36 65 49c34 16 67 20 98 20c45 0 98 -7 140 -47c46 -44 52 -100 52 -171v-305h-210v272c0 47 -11 67 -16 75c-11 18 -27 26 -48 26c-18 0 -40 -6 -56 -29c-20 -28 -20 -68 -20 -74v-270h-210v508h201zM342 700h189l-112 -132h-143z" />
    <glyph glyph-name="Ncommaaccent" unicode="&#x145;" horiz-adv-x="820" 
d="M303 388h-5l5 -53v-335h-218v700h218l214 -388h5l-5 53v335h218v-700h-218zM330 -195v132h167v-103c0 -44 -3 -102 -45 -143c-32 -31 -82 -42 -122 -43v75c20 -1 53 2 73 23c16 17 17 37 17 55v4h-90z" />
    <glyph glyph-name="ncommaaccent" unicode="&#x146;" horiz-adv-x="690" 
d="M266 508v-54h4c16 19 37 36 65 49c34 16 67 20 98 20c45 0 98 -7 140 -47c46 -44 52 -100 52 -171v-305h-210v272c0 47 -11 67 -16 75c-11 18 -27 26 -48 26c-18 0 -40 -6 -56 -29c-20 -28 -20 -68 -20 -74v-270h-210v508h201zM280 -185v122h167v-89
c0 -51 -5 -102 -45 -139c-19 -17 -54 -39 -122 -41v69c16 -1 53 1 73 23c12 13 17 33 17 51v4h-90z" />
    <glyph glyph-name="Ncaron" unicode="&#x147;" horiz-adv-x="820" 
d="M303 388h-5l5 -53v-335h-218v700h218l214 -388h5l-5 53v335h218v-700h-218zM410 815l77 83h160l-125 -132h-224l-125 132h160z" />
    <glyph glyph-name="ncaron" unicode="&#x148;" horiz-adv-x="690" 
d="M266 508v-54h4c16 19 37 36 65 49c34 16 67 20 98 20c45 0 98 -7 140 -47c46 -44 52 -100 52 -171v-305h-210v272c0 47 -11 67 -16 75c-11 18 -27 26 -48 26c-18 0 -40 -6 -56 -29c-20 -28 -20 -68 -20 -74v-270h-210v508h201zM345 612l77 88h160l-125 -132h-224
l-125 132h160z" />
    <glyph glyph-name="Omacron" unicode="&#x14c;" 
d="M40 348c0 129 47 218 99 273c83 87 182 98 265 98c90 0 200 -15 281 -99c79 -81 93 -187 93 -264c0 -135 -41 -221 -91 -275c-81 -87 -184 -100 -275 -100c-92 0 -200 14 -282 102c-32 34 -90 116 -90 265zM272 350c0 -38 5 -106 44 -148c26 -27 58 -37 93 -37
c34 0 68 8 94 37c32 35 43 97 43 148s-7 110 -43 148c-26 27 -56 37 -90 37c-35 0 -68 -9 -95 -37c-40 -42 -46 -110 -46 -148zM206 779v96h406v-96h-406z" />
    <glyph glyph-name="omacron" unicode="&#x14d;" horiz-adv-x="654" 
d="M329 394c-21 0 -37 -5 -51 -20c-12 -13 -32 -43 -32 -120c0 -42 9 -96 31 -120c14 -16 31 -20 48 -20c19 0 36 5 50 20c33 35 33 111 33 120c0 35 -5 92 -32 121c-14 15 -29 19 -47 19zM624 255c0 -100 -40 -164 -77 -200c-70 -68 -163 -73 -230 -73
c-72 0 -151 7 -212 63c-37 33 -75 94 -75 198c0 102 40 164 76 202c69 71 154 81 223 81c62 0 151 -8 219 -73c41 -39 76 -102 76 -198zM124 590v96h406v-96h-406z" />
    <glyph glyph-name="Obreve" unicode="&#x14e;" 
d="M40 348c0 129 47 218 99 273c83 87 182 98 265 98c90 0 200 -15 281 -99c79 -81 93 -187 93 -264c0 -135 -41 -221 -91 -275c-81 -87 -184 -100 -275 -100c-92 0 -200 14 -282 102c-32 34 -90 116 -90 265zM272 350c0 -38 5 -106 44 -148c26 -27 58 -37 93 -37
c34 0 68 8 94 37c32 35 43 97 43 148s-7 110 -43 148c-26 27 -56 37 -90 37c-35 0 -68 -9 -95 -37c-40 -42 -46 -110 -46 -148zM485 900h122c-3 -42 -22 -71 -40 -89c-47 -47 -118 -51 -158 -51s-111 4 -158 51c-18 18 -37 47 -40 89h122c-1 -19 7 -34 18 -44
c18 -16 47 -17 58 -17c14 0 40 1 58 17c8 7 19 22 18 44z" />
    <glyph glyph-name="obreve" unicode="&#x14f;" horiz-adv-x="654" 
d="M329 394c-21 0 -37 -5 -51 -20c-12 -13 -32 -43 -32 -120c0 -42 9 -96 31 -120c14 -16 31 -20 48 -20c19 0 36 5 50 20c33 35 33 111 33 120c0 35 -5 92 -32 121c-14 15 -29 19 -47 19zM624 255c0 -100 -40 -164 -77 -200c-70 -68 -163 -73 -230 -73
c-72 0 -151 7 -212 63c-37 33 -75 94 -75 198c0 102 40 164 76 202c69 71 154 81 223 81c62 0 151 -8 219 -73c41 -39 76 -102 76 -198zM403 702h122c-3 -42 -22 -71 -40 -89c-47 -47 -118 -51 -158 -51s-111 4 -158 51c-18 18 -37 47 -40 89h122c-1 -19 7 -34 18 -44
c18 -16 47 -17 58 -17c14 0 40 1 58 17c8 7 19 22 18 44z" />
    <glyph glyph-name="Ohungarumlaut" unicode="&#x150;" 
d="M40 348c0 129 47 218 99 273c83 87 182 98 265 98c90 0 200 -15 281 -99c79 -81 93 -187 93 -264c0 -135 -41 -221 -91 -275c-81 -87 -184 -100 -275 -100c-92 0 -200 14 -282 102c-32 34 -90 116 -90 265zM272 350c0 -38 5 -106 44 -148c26 -27 58 -37 93 -37
c34 0 68 8 94 37c32 35 43 97 43 148s-7 110 -43 148c-26 27 -56 37 -90 37c-35 0 -68 -9 -95 -37c-40 -42 -46 -110 -46 -148zM247 908h187l-97 -132h-147zM480 908h188l-98 -132h-147z" />
    <glyph glyph-name="ohungarumlaut" unicode="&#x151;" horiz-adv-x="654" 
d="M329 394c-21 0 -37 -5 -51 -20c-12 -13 -32 -43 -32 -120c0 -42 9 -96 31 -120c14 -16 31 -20 48 -20c19 0 36 5 50 20c33 35 33 111 33 120c0 35 -5 92 -32 121c-14 15 -29 19 -47 19zM624 255c0 -100 -40 -164 -77 -200c-70 -68 -163 -73 -230 -73
c-72 0 -151 7 -212 63c-37 33 -75 94 -75 198c0 102 40 164 76 202c69 71 154 81 223 81c62 0 151 -8 219 -73c41 -39 76 -102 76 -198zM165 710h187l-97 -132h-147zM398 710h188l-98 -132h-147z" />
    <glyph glyph-name="OE" unicode="&#x152;" horiz-adv-x="1208" 
d="M580 0v46c-34 -31 -89 -65 -207 -65c-68 0 -161 11 -234 84c-60 60 -99 157 -99 282c0 142 49 232 99 284c73 75 161 88 234 88c103 0 164 -30 207 -73v54h575v-185h-363v-79h311v-165h-311v-86h371v-185h-583zM272 350c0 -38 5 -106 44 -148c26 -27 58 -37 93 -37
c34 0 68 8 94 37c32 35 43 97 43 148s-7 110 -43 148c-26 27 -56 37 -90 37c-35 0 -68 -9 -95 -37c-40 -42 -46 -110 -46 -148z" />
    <glyph glyph-name="oe" unicode="&#x153;" horiz-adv-x="1015" 
d="M771 147h206c-20 -77 -71 -115 -101 -131c-46 -25 -119 -35 -176 -35c-119 0 -167 36 -196 70c-44 -45 -102 -69 -200 -69c-59 0 -140 7 -201 67c-38 37 -73 101 -73 205c0 66 14 141 76 200c46 45 113 72 205 72c120 0 171 -50 195 -85c26 33 80 85 201 85
c109 0 172 -41 204 -74c30 -31 74 -97 74 -228v-12h-373c0 -26 7 -59 23 -79c17 -21 39 -27 62 -27c14 0 32 1 47 10c16 9 23 22 27 31zM242 254c0 -77 21 -107 33 -120c13 -13 27 -20 48 -20c20 0 36 7 48 20c28 30 32 87 32 120c0 61 -13 100 -32 120
c-12 13 -28 20 -48 20c-21 0 -35 -7 -48 -20c-27 -29 -33 -81 -33 -120zM613 312h156c-1 23 -10 54 -24 69c-14 16 -33 20 -51 20c-19 0 -39 -4 -55 -21c-15 -16 -25 -47 -26 -68z" />
    <glyph glyph-name="Racute" unicode="&#x154;" horiz-adv-x="770" 
d="M85 0v700h395c44 0 118 -6 173 -57c48 -45 60 -104 60 -160c0 -44 -9 -89 -46 -126c-16 -15 -37 -29 -63 -36v-5c30 -8 55 -26 71 -47c26 -35 27 -70 28 -109l2 -57c1 -37 3 -65 25 -103h-223c-22 33 -23 56 -24 86l-2 42c-1 29 1 69 -25 93c-20 19 -53 21 -77 21h-76
v-242h-218zM303 530v-138h123c15 0 40 1 58 17c11 9 22 26 22 54c0 15 -3 34 -19 49c-19 17 -46 18 -62 18h-122zM359 908h199l-112 -142h-153z" />
    <glyph glyph-name="racute" unicode="&#x155;" horiz-adv-x="488" 
d="M473 519v-161c-17 3 -39 5 -55 5c-61 0 -93 -25 -106 -38c-35 -36 -37 -89 -37 -137v-188h-210v508h201v-72c22 34 49 53 69 64c34 18 71 22 104 22c12 0 22 -1 34 -3zM237 700h189l-112 -132h-143z" />
    <glyph glyph-name="Rcommaaccent" unicode="&#x156;" horiz-adv-x="770" 
d="M85 0v700h395c44 0 118 -6 173 -57c48 -45 60 -104 60 -160c0 -44 -9 -89 -46 -126c-16 -15 -37 -29 -63 -36v-5c30 -8 55 -26 71 -47c26 -35 27 -70 28 -109l2 -57c1 -37 3 -65 25 -103h-223c-22 33 -23 56 -24 86l-2 42c-1 29 1 69 -25 93c-20 19 -53 21 -77 21h-76
v-242h-218zM303 530v-138h123c15 0 40 1 58 17c11 9 22 26 22 54c0 15 -3 34 -19 49c-19 17 -46 18 -62 18h-122zM320 -195v132h167v-103c0 -44 -3 -102 -45 -143c-32 -31 -82 -42 -122 -43v75c20 -1 53 2 73 23c16 17 17 37 17 55v4h-90z" />
    <glyph glyph-name="rcommaaccent" unicode="&#x157;" horiz-adv-x="488" 
d="M473 519v-161c-17 3 -39 5 -55 5c-61 0 -93 -25 -106 -38c-35 -36 -37 -89 -37 -137v-188h-210v508h201v-72c22 34 49 53 69 64c34 18 71 22 104 22c12 0 22 -1 34 -3zM87 -185v122h167v-89c0 -51 -5 -102 -45 -139c-19 -17 -54 -39 -122 -41v69c16 -1 53 1 73 23
c12 13 17 33 17 51v4h-90z" />
    <glyph glyph-name="Rcaron" unicode="&#x158;" horiz-adv-x="770" 
d="M85 0v700h395c44 0 118 -6 173 -57c48 -45 60 -104 60 -160c0 -44 -9 -89 -46 -126c-16 -15 -37 -29 -63 -36v-5c30 -8 55 -26 71 -47c26 -35 27 -70 28 -109l2 -57c1 -37 3 -65 25 -103h-223c-22 33 -23 56 -24 86l-2 42c-1 29 1 69 -25 93c-20 19 -53 21 -77 21h-76
v-242h-218zM303 530v-138h123c15 0 40 1 58 17c11 9 22 26 22 54c0 15 -3 34 -19 49c-19 17 -46 18 -62 18h-122zM385 815l77 83h160l-125 -132h-224l-125 132h160z" />
    <glyph glyph-name="rcaron" unicode="&#x159;" horiz-adv-x="488" 
d="M473 519v-161c-17 3 -39 5 -55 5c-61 0 -93 -25 -106 -38c-35 -36 -37 -89 -37 -137v-188h-210v508h201v-72c22 34 49 53 69 64c34 18 71 22 104 22c12 0 22 -1 34 -3zM232 612l77 88h160l-125 -132h-224l-125 132h160z" />
    <glyph glyph-name="Sacute" unicode="&#x15a;" horiz-adv-x="684" 
d="M30 231h219c-2 -30 9 -60 24 -76c25 -27 64 -28 85 -28s43 2 62 15c15 10 26 26 26 50c0 21 -7 37 -26 50s-59 23 -82 28l-70 14c-99 20 -148 51 -173 74c-37 33 -54 75 -54 132c0 91 48 142 82 169c67 52 152 59 215 59c54 0 154 -5 218 -60c35 -30 69 -86 72 -158h-206
c0 17 -5 36 -16 48c-10 11 -30 22 -68 22c-18 0 -45 -3 -60 -12c-13 -8 -24 -24 -24 -41c0 -10 2 -23 14 -34c17 -17 49 -22 101 -33l68 -15c47 -10 116 -27 163 -74c24 -24 54 -68 54 -136c0 -65 -29 -132 -66 -170c-70 -71 -183 -77 -247 -77c-69 0 -176 7 -245 79
c-36 37 -65 101 -66 174zM312 908h199l-112 -142h-153z" />
    <glyph glyph-name="sacute" unicode="&#x15b;" horiz-adv-x="589" 
d="M25 167h205c-3 -18 2 -41 15 -54c10 -10 28 -17 51 -17c18 0 34 1 51 11c12 7 22 17 22 35c0 17 -8 29 -25 37s-39 11 -67 15l-52 8c-48 7 -104 18 -139 49c-19 17 -42 47 -42 99c0 71 37 112 70 134c55 37 129 43 187 43c86 0 139 -15 173 -38c25 -17 65 -56 69 -126
h-179c1 14 -4 34 -15 45c-12 12 -35 16 -52 16c-27 0 -41 -9 -45 -12c-11 -8 -18 -21 -18 -34c0 -19 11 -26 22 -31c23 -12 42 -13 63 -16l70 -10c35 -5 94 -16 132 -52c23 -22 43 -58 43 -108c0 -66 -34 -112 -68 -136s-92 -44 -200 -44c-92 0 -170 9 -222 63
c-23 24 -48 65 -49 123zM292 700h189l-112 -132h-143z" />
    <glyph glyph-name="Scircumflex" unicode="&#x15c;" horiz-adv-x="684" 
d="M30 231h219c-2 -30 9 -60 24 -76c25 -27 64 -28 85 -28s43 2 62 15c15 10 26 26 26 50c0 21 -7 37 -26 50s-59 23 -82 28l-70 14c-99 20 -148 51 -173 74c-37 33 -54 75 -54 132c0 91 48 142 82 169c67 52 152 59 215 59c54 0 154 -5 218 -60c35 -30 69 -86 72 -158h-206
c0 17 -5 36 -16 48c-10 11 -30 22 -68 22c-18 0 -45 -3 -60 -12c-13 -8 -24 -24 -24 -41c0 -10 2 -23 14 -34c17 -17 49 -22 101 -33l68 -15c47 -10 116 -27 163 -74c24 -24 54 -68 54 -136c0 -65 -29 -132 -66 -170c-70 -71 -183 -77 -247 -77c-69 0 -176 7 -245 79
c-36 37 -65 101 -66 174zM342 849l-77 -83h-160l125 132h224l125 -132h-160z" />
    <glyph glyph-name="scircumflex" unicode="&#x15d;" horiz-adv-x="589" 
d="M25 167h205c-3 -18 2 -41 15 -54c10 -10 28 -17 51 -17c18 0 34 1 51 11c12 7 22 17 22 35c0 17 -8 29 -25 37s-39 11 -67 15l-52 8c-48 7 -104 18 -139 49c-19 17 -42 47 -42 99c0 71 37 112 70 134c55 37 129 43 187 43c86 0 139 -15 173 -38c25 -17 65 -56 69 -126
h-179c1 14 -4 34 -15 45c-12 12 -35 16 -52 16c-27 0 -41 -9 -45 -12c-11 -8 -18 -21 -18 -34c0 -19 11 -26 22 -31c23 -12 42 -13 63 -16l70 -10c35 -5 94 -16 132 -52c23 -22 43 -58 43 -108c0 -66 -34 -112 -68 -136s-92 -44 -200 -44c-92 0 -170 9 -222 63
c-23 24 -48 65 -49 123zM302 656l-77 -88h-160l125 132h224l125 -132h-160z" />
    <glyph glyph-name="Scedilla" unicode="&#x15e;" horiz-adv-x="684" 
d="M30 231h219c-2 -30 9 -60 24 -76c25 -27 64 -28 85 -28s43 2 62 15c15 10 26 26 26 50c0 21 -7 37 -26 50s-59 23 -82 28l-70 14c-99 20 -148 51 -173 74c-37 33 -54 75 -54 132c0 91 48 142 82 169c67 52 152 59 215 59c54 0 154 -5 218 -60c35 -30 69 -86 72 -158h-206
c0 17 -5 36 -16 48c-10 11 -30 22 -68 22c-18 0 -45 -3 -60 -12c-13 -8 -24 -24 -24 -41c0 -10 2 -23 14 -34c17 -17 49 -22 101 -33l68 -15c47 -10 116 -27 163 -74c24 -24 54 -68 54 -136c0 -65 -29 -132 -66 -170c-70 -71 -183 -77 -247 -77c-69 0 -176 7 -245 79
c-36 37 -65 101 -66 174zM219 -234l24 70c21 -6 43 -10 63 -10c8 0 30 0 41 5c15 6 18 17 18 25c0 17 -11 23 -23 26c-6 1 -20 4 -68 4h-14l23 67c19 2 36 2 51 2c63 0 91 -13 103 -20c29 -18 42 -44 42 -77c0 -48 -26 -74 -43 -85c-32 -22 -75 -23 -102 -23
c-62 0 -92 7 -115 16z" />
    <glyph glyph-name="Scedilla" unicode="&#xf6c1;" horiz-adv-x="684" 
d="M30 231h219c-2 -30 9 -60 24 -76c25 -27 64 -28 85 -28s43 2 62 15c15 10 26 26 26 50c0 21 -7 37 -26 50s-59 23 -82 28l-70 14c-99 20 -148 51 -173 74c-37 33 -54 75 -54 132c0 91 48 142 82 169c67 52 152 59 215 59c54 0 154 -5 218 -60c35 -30 69 -86 72 -158h-206
c0 17 -5 36 -16 48c-10 11 -30 22 -68 22c-18 0 -45 -3 -60 -12c-13 -8 -24 -24 -24 -41c0 -10 2 -23 14 -34c17 -17 49 -22 101 -33l68 -15c47 -10 116 -27 163 -74c24 -24 54 -68 54 -136c0 -65 -29 -132 -66 -170c-70 -71 -183 -77 -247 -77c-69 0 -176 7 -245 79
c-36 37 -65 101 -66 174zM219 -234l24 70c21 -6 43 -10 63 -10c8 0 30 0 41 5c15 6 18 17 18 25c0 17 -11 23 -23 26c-6 1 -20 4 -68 4h-14l23 67c19 2 36 2 51 2c63 0 91 -13 103 -20c29 -18 42 -44 42 -77c0 -48 -26 -74 -43 -85c-32 -22 -75 -23 -102 -23
c-62 0 -92 7 -115 16z" />
    <glyph glyph-name="scedilla" unicode="&#x15f;" horiz-adv-x="589" 
d="M25 167h205c-3 -18 2 -41 15 -54c10 -10 28 -17 51 -17c18 0 34 1 51 11c12 7 22 17 22 35c0 17 -8 29 -25 37s-39 11 -67 15l-52 8c-48 7 -104 18 -139 49c-19 17 -42 47 -42 99c0 71 37 112 70 134c55 37 129 43 187 43c86 0 139 -15 173 -38c25 -17 65 -56 69 -126
h-179c1 14 -4 34 -15 45c-12 12 -35 16 -52 16c-27 0 -41 -9 -45 -12c-11 -8 -18 -21 -18 -34c0 -19 11 -26 22 -31c23 -12 42 -13 63 -16l70 -10c35 -5 94 -16 132 -52c23 -22 43 -58 43 -108c0 -66 -34 -112 -68 -136s-92 -44 -200 -44c-92 0 -170 9 -222 63
c-23 24 -48 65 -49 123zM170 -234l24 70c21 -6 43 -10 63 -10c8 0 30 0 41 5c15 6 18 17 18 25c0 17 -11 23 -23 26c-6 1 -20 4 -68 4h-14l23 67c19 2 36 2 51 2c63 0 91 -13 103 -20c29 -18 42 -44 42 -77c0 -48 -26 -74 -43 -85c-32 -22 -75 -23 -102 -23
c-62 0 -92 7 -115 16z" />
    <glyph glyph-name="scedilla" unicode="&#xf6c2;" horiz-adv-x="589" 
d="M25 167h205c-3 -18 2 -41 15 -54c10 -10 28 -17 51 -17c18 0 34 1 51 11c12 7 22 17 22 35c0 17 -8 29 -25 37s-39 11 -67 15l-52 8c-48 7 -104 18 -139 49c-19 17 -42 47 -42 99c0 71 37 112 70 134c55 37 129 43 187 43c86 0 139 -15 173 -38c25 -17 65 -56 69 -126
h-179c1 14 -4 34 -15 45c-12 12 -35 16 -52 16c-27 0 -41 -9 -45 -12c-11 -8 -18 -21 -18 -34c0 -19 11 -26 22 -31c23 -12 42 -13 63 -16l70 -10c35 -5 94 -16 132 -52c23 -22 43 -58 43 -108c0 -66 -34 -112 -68 -136s-92 -44 -200 -44c-92 0 -170 9 -222 63
c-23 24 -48 65 -49 123zM170 -234l24 70c21 -6 43 -10 63 -10c8 0 30 0 41 5c15 6 18 17 18 25c0 17 -11 23 -23 26c-6 1 -20 4 -68 4h-14l23 67c19 2 36 2 51 2c63 0 91 -13 103 -20c29 -18 42 -44 42 -77c0 -48 -26 -74 -43 -85c-32 -22 -75 -23 -102 -23
c-62 0 -92 7 -115 16z" />
    <glyph glyph-name="Scaron" unicode="&#x160;" horiz-adv-x="684" 
d="M30 231h219c-2 -30 9 -60 24 -76c25 -27 64 -28 85 -28s43 2 62 15c15 10 26 26 26 50c0 21 -7 37 -26 50s-59 23 -82 28l-70 14c-99 20 -148 51 -173 74c-37 33 -54 75 -54 132c0 91 48 142 82 169c67 52 152 59 215 59c54 0 154 -5 218 -60c35 -30 69 -86 72 -158h-206
c0 17 -5 36 -16 48c-10 11 -30 22 -68 22c-18 0 -45 -3 -60 -12c-13 -8 -24 -24 -24 -41c0 -10 2 -23 14 -34c17 -17 49 -22 101 -33l68 -15c47 -10 116 -27 163 -74c24 -24 54 -68 54 -136c0 -65 -29 -132 -66 -170c-70 -71 -183 -77 -247 -77c-69 0 -176 7 -245 79
c-36 37 -65 101 -66 174zM342 815l77 83h160l-125 -132h-224l-125 132h160z" />
    <glyph glyph-name="scaron" unicode="&#x161;" horiz-adv-x="589" 
d="M25 167h205c-3 -18 2 -41 15 -54c10 -10 28 -17 51 -17c18 0 34 1 51 11c12 7 22 17 22 35c0 17 -8 29 -25 37s-39 11 -67 15l-52 8c-48 7 -104 18 -139 49c-19 17 -42 47 -42 99c0 71 37 112 70 134c55 37 129 43 187 43c86 0 139 -15 173 -38c25 -17 65 -56 69 -126
h-179c1 14 -4 34 -15 45c-12 12 -35 16 -52 16c-27 0 -41 -9 -45 -12c-11 -8 -18 -21 -18 -34c0 -19 11 -26 22 -31c23 -12 42 -13 63 -16l70 -10c35 -5 94 -16 132 -52c23 -22 43 -58 43 -108c0 -66 -34 -112 -68 -136s-92 -44 -200 -44c-92 0 -170 9 -222 63
c-23 24 -48 65 -49 123zM302 612l77 88h160l-125 -132h-224l-125 132h160z" />
    <glyph glyph-name="Tcedilla" unicode="&#x162;" horiz-adv-x="634" 
d="M208 508h-198v192h614v-192h-198v-508h-218v508zM180 -234l24 70c21 -6 43 -10 63 -10c8 0 30 0 41 5c15 6 18 17 18 25c0 17 -11 23 -23 26c-6 1 -20 4 -68 4h-14l23 67c19 2 36 2 51 2c63 0 91 -13 103 -20c29 -18 42 -44 42 -77c0 -48 -26 -74 -43 -85
c-32 -22 -75 -23 -102 -23c-62 0 -92 7 -115 16z" />
    <glyph glyph-name="tcedilla" unicode="&#x163;" horiz-adv-x="441" 
d="M5 370v138h92v150h210v-150h108v-138h-108v-168c0 -15 0 -40 14 -55c7 -7 20 -14 47 -14c15 0 32 3 47 7v-141c-45 -10 -85 -14 -129 -14c-43 0 -112 4 -150 42c-34 34 -39 89 -39 125v218h-92zM137 -234l24 70c21 -6 43 -10 63 -10c8 0 30 0 41 5c15 6 18 17 18 25
c0 17 -11 23 -23 26c-6 1 -20 4 -68 4h-14l23 67c19 2 36 2 51 2c63 0 91 -13 103 -20c29 -18 42 -44 42 -77c0 -48 -26 -74 -43 -85c-32 -22 -75 -23 -102 -23c-62 0 -92 7 -115 16z" />
    <glyph glyph-name="Tcaron" unicode="&#x164;" horiz-adv-x="634" 
d="M208 508h-198v192h614v-192h-198v-508h-218v508zM317 815l77 83h160l-125 -132h-224l-125 132h160z" />
    <glyph glyph-name="tcaron" unicode="&#x165;" horiz-adv-x="490" 
d="M5 370v138h92v150h210v-150h108v-138h-108v-168c0 -15 0 -40 14 -55c7 -7 20 -14 47 -14c15 0 32 3 47 7v-141c-45 -10 -85 -14 -129 -14c-43 0 -112 4 -150 42c-34 34 -39 89 -39 125v218h-92zM356 712v148h163v-121c0 -38 -3 -94 -39 -133c-35 -37 -92 -45 -124 -46v73
c24 1 53 4 68 20c13 13 18 37 18 55v4h-86z" />
    <glyph glyph-name="Utilde" unicode="&#x168;" 
d="M733 700v-438c0 -67 -5 -135 -68 -199s-153 -82 -255 -82c-101 0 -194 18 -257 82c-60 61 -68 129 -68 200v437h219v-428c0 -28 4 -64 27 -88c24 -25 57 -27 78 -27s54 2 78 27c23 24 27 60 27 88v428h219zM521 901h106c-5 -38 -23 -81 -47 -105c-23 -24 -48 -30 -76 -30
c-33 0 -57 11 -79 21l-30 14c-18 9 -35 16 -56 16c-9 0 -20 -2 -29 -11c-6 -7 -11 -18 -12 -29h-107c5 30 19 67 41 93c25 29 52 40 89 40c33 0 52 -9 74 -19l26 -12c24 -11 43 -20 61 -20c10 0 21 3 27 10c7 8 11 23 12 32z" />
    <glyph glyph-name="utilde" unicode="&#x169;" horiz-adv-x="689" 
d="M429 0v56h-5c-55 -59 -120 -70 -173 -70c-43 0 -94 7 -133 45c-52 51 -53 131 -53 173v304h210v-273c0 -45 9 -66 17 -77c13 -18 32 -22 50 -22c23 0 38 7 51 25c19 25 21 58 21 77v270h210v-508h-195zM456 703h106c-5 -38 -23 -81 -46 -105c-22 -23 -46 -30 -76 -30
c-38 0 -58 11 -80 21l-30 14c-18 9 -35 16 -56 16c-9 0 -20 -2 -29 -11c-6 -7 -11 -18 -12 -29h-107c5 30 19 67 41 93c24 29 51 40 87 40c32 0 55 -9 76 -19l26 -12c24 -11 43 -20 61 -20c10 0 21 3 27 10c7 8 11 23 12 32z" />
    <glyph glyph-name="Umacron" unicode="&#x16a;" 
d="M733 700v-438c0 -67 -5 -135 -68 -199s-153 -82 -255 -82c-101 0 -194 18 -257 82c-60 61 -68 129 -68 200v437h219v-428c0 -28 4 -64 27 -88c24 -25 57 -27 78 -27s54 2 78 27c23 24 27 60 27 88v428h219zM206 779v96h406v-96h-406z" />
    <glyph glyph-name="umacron" unicode="&#x16b;" horiz-adv-x="689" 
d="M429 0v56h-5c-55 -59 -120 -70 -173 -70c-43 0 -94 7 -133 45c-52 51 -53 131 -53 173v304h210v-273c0 -45 9 -66 17 -77c13 -18 32 -22 50 -22c23 0 38 7 51 25c19 25 21 58 21 77v270h210v-508h-195zM141 590v96h406v-96h-406z" />
    <glyph glyph-name="Ubreve" unicode="&#x16c;" 
d="M733 700v-438c0 -67 -5 -135 -68 -199s-153 -82 -255 -82c-101 0 -194 18 -257 82c-60 61 -68 129 -68 200v437h219v-428c0 -28 4 -64 27 -88c24 -25 57 -27 78 -27s54 2 78 27c23 24 27 60 27 88v428h219zM485 900h122c-3 -42 -22 -71 -40 -89
c-47 -47 -118 -51 -158 -51s-111 4 -158 51c-18 18 -37 47 -40 89h122c-1 -19 7 -34 18 -44c18 -16 47 -17 58 -17c14 0 40 1 58 17c8 7 19 22 18 44z" />
    <glyph glyph-name="ubreve" unicode="&#x16d;" horiz-adv-x="689" 
d="M429 0v56h-5c-55 -59 -120 -70 -173 -70c-43 0 -94 7 -133 45c-52 51 -53 131 -53 173v304h210v-273c0 -45 9 -66 17 -77c13 -18 32 -22 50 -22c23 0 38 7 51 25c19 25 21 58 21 77v270h210v-508h-195zM420 702h122c-3 -42 -22 -71 -40 -89c-47 -47 -118 -51 -158 -51
s-111 4 -158 51c-18 18 -37 47 -40 89h122c-1 -19 7 -34 18 -44c18 -16 47 -17 58 -17c14 0 40 1 58 17c8 7 19 22 18 44z" />
    <glyph glyph-name="Uring" unicode="&#x16e;" 
d="M733 700v-438c0 -67 -5 -135 -68 -199s-153 -82 -255 -82c-101 0 -194 18 -257 82c-60 61 -68 129 -68 200v437h219v-428c0 -28 4 -64 27 -88c24 -25 57 -27 78 -27s54 2 78 27c23 24 27 60 27 88v428h219zM298 872c0 62 48 112 111 112s111 -50 111 -112
c0 -61 -47 -111 -111 -111s-111 50 -111 111zM363 872c0 -26 20 -46 46 -46s46 20 46 46c0 30 -26 47 -46 47s-46 -17 -46 -47z" />
    <glyph glyph-name="uring" unicode="&#x16f;" horiz-adv-x="689" 
d="M429 0v56h-5c-55 -59 -120 -70 -173 -70c-43 0 -94 7 -133 45c-52 51 -53 131 -53 173v304h210v-273c0 -45 9 -66 17 -77c13 -18 32 -22 50 -22c23 0 38 7 51 25c19 25 21 58 21 77v270h210v-508h-195zM238 670c0 59 47 106 106 106s106 -47 106 -106s-47 -106 -106 -106
s-106 47 -106 106zM300 670c0 -24 20 -44 44 -44s44 20 44 44s-20 44 -44 44s-44 -20 -44 -44z" />
    <glyph glyph-name="Uhungarumlaut" unicode="&#x170;" 
d="M733 700v-438c0 -67 -5 -135 -68 -199s-153 -82 -255 -82c-101 0 -194 18 -257 82c-60 61 -68 129 -68 200v437h219v-428c0 -28 4 -64 27 -88c24 -25 57 -27 78 -27s54 2 78 27c23 24 27 60 27 88v428h219zM247 908h187l-97 -132h-147zM480 908h188l-98 -132h-147z" />
    <glyph glyph-name="uhungarumlaut" unicode="&#x171;" horiz-adv-x="689" 
d="M429 0v56h-5c-55 -59 -120 -70 -173 -70c-43 0 -94 7 -133 45c-52 51 -53 131 -53 173v304h210v-273c0 -45 9 -66 17 -77c13 -18 32 -22 50 -22c23 0 38 7 51 25c19 25 21 58 21 77v270h210v-508h-195zM182 710h187l-97 -132h-147zM415 710h188l-98 -132h-147z" />
    <glyph glyph-name="Uogonek" unicode="&#x172;" 
d="M575 -124h107c-1 -41 -18 -74 -36 -95c-37 -42 -86 -45 -120 -45c-31 0 -78 4 -113 34c-27 23 -40 53 -40 92c0 56 29 95 58 119c-11 -1 -24 -1 -37 -1c-66 0 -155 11 -218 62c-77 61 -91 143 -91 221v437h219v-428c0 -28 4 -64 27 -88c24 -25 57 -27 78 -27s54 2 78 27
c23 24 27 60 27 88v428h219v-438c0 -66 -5 -136 -68 -199c-22 -22 -48 -38 -66 -49c-27 -16 -52 -30 -71 -49c-27 -27 -41 -64 -41 -95c0 -13 4 -32 14 -42c8 -9 22 -13 34 -13c18 0 28 9 34 19c7 11 9 28 6 42z" />
    <glyph glyph-name="uogonek" unicode="&#x173;" horiz-adv-x="689" 
d="M429 0v56h-5c-55 -59 -120 -70 -173 -70c-43 0 -94 7 -133 45c-52 51 -53 131 -53 173v304h210v-273c0 -45 9 -66 17 -77c13 -18 32 -22 50 -22c23 0 38 7 51 25c19 25 21 58 21 77v270h210v-508c-47 -37 -71 -88 -71 -130c0 -13 4 -32 14 -42c8 -9 22 -13 34 -13
c20 0 30 12 34 19c7 12 8 30 7 42h106c-1 -41 -18 -74 -36 -95c-37 -42 -86 -45 -120 -45c-31 0 -78 4 -113 34c-17 14 -40 42 -40 90c0 61 39 108 80 140h-90z" />
    <glyph glyph-name="Ydieresis" unicode="&#x178;" horiz-adv-x="685" 
d="M344 416l116 284h235l-244 -455v-245h-218v245l-243 455h235zM122 779v129h172v-129h-172zM391 779v129h172v-129h-172z" />
    <glyph glyph-name="Zacute" unicode="&#x179;" horiz-adv-x="696" 
d="M356 508h-302v192h575v-155l-340 -353h367v-192h-616v189zM322 908h199l-112 -142h-153z" />
    <glyph glyph-name="zacute" unicode="&#x17a;" horiz-adv-x="542" 
d="M47 370v138h457v-140l-264 -230l277 1v-139h-492v140l268 230h-246zM257 700h189l-112 -132h-143z" />
    <glyph glyph-name="Zdotaccent" unicode="&#x17b;" horiz-adv-x="696" 
d="M356 508h-302v192h575v-155l-340 -353h367v-192h-616v189zM262 779v129h172v-129h-172z" />
    <glyph glyph-name="zdotaccent" unicode="&#x17c;" horiz-adv-x="542" 
d="M47 370v138h457v-140l-264 -230l277 1v-139h-492v140l268 230h-246zM200 581v129h172v-129h-172z" />
    <glyph glyph-name="Zcaron" unicode="&#x17d;" horiz-adv-x="696" 
d="M356 508h-302v192h575v-155l-340 -353h367v-192h-616v189zM348 815l77 83h160l-125 -132h-224l-125 132h160z" />
    <glyph glyph-name="zcaron" unicode="&#x17e;" horiz-adv-x="542" 
d="M47 370v138h457v-140l-264 -230l277 1v-139h-492v140l268 230h-246zM282 612l77 88h160l-125 -132h-224l-125 132h160z" />
    <glyph glyph-name="florin" unicode="&#x192;" horiz-adv-x="720" 
d="M590 508l-29 -138h-118l-80 -378c-10 -45 -25 -94 -61 -130c-54 -53 -123 -54 -187 -54c-35 0 -62 2 -103 10l26 124c15 -5 25 -5 39 -5c16 0 33 1 48 12c19 13 24 34 28 51l78 370h-93l29 138h93l2 8c9 38 25 89 61 125c50 50 126 59 183 59c42 0 87 -4 123 -10
l-27 -127c-24 7 -45 8 -58 8c-18 0 -37 -3 -51 -17c-13 -13 -17 -28 -20 -42l-1 -4h118z" />
    <glyph glyph-name="Icaron" unicode="&#x1cf;" horiz-adv-x="388" 
d="M85 700h218v-700h-218v700zM193 815l77 83h160l-125 -132h-224l-125 132h160z" />
    <glyph glyph-name="icaron" unicode="&#x1d0;" horiz-adv-x="340" 
d="M65 508h210v-508h-210v508zM167 612l77 88h160l-125 -132h-224l-125 132h160z" />
    <glyph glyph-name="Gcaron" unicode="&#x1e6;" horiz-adv-x="800" 
d="M449 386h306v-386h-160l-13 59c-39 -48 -93 -80 -206 -80c-71 0 -162 9 -235 77c-61 57 -101 153 -101 276c0 148 59 238 106 286c80 81 175 99 259 99c81 0 178 -17 240 -66c46 -36 92 -104 103 -193h-225c-3 24 -13 45 -26 58c-26 27 -63 30 -82 30
c-46 0 -75 -18 -93 -37c-34 -36 -46 -103 -46 -159c0 -55 12 -128 54 -167c28 -27 60 -32 93 -32c28 0 54 5 80 25c26 21 39 49 42 56h-96v154zM400 815l77 83h160l-125 -132h-224l-125 132h160z" />
    <glyph glyph-name="gcaron" unicode="&#x1e7;" horiz-adv-x="684" 
d="M76 -25h194c0 -19 11 -30 17 -34c11 -8 29 -12 46 -12c29 0 46 10 56 19c18 18 20 41 20 60v56h-5c-44 -37 -91 -44 -143 -44s-115 6 -166 56c-31 30 -65 85 -65 180c0 102 36 163 69 198c44 48 99 68 163 68c53 0 112 -14 155 -61h5v47h197v-432
c0 -71 -10 -147 -70 -205c-64 -61 -149 -65 -218 -65c-56 0 -132 5 -186 43c-58 40 -67 95 -69 126zM247 267c0 -27 3 -61 24 -88c15 -20 35 -29 59 -29c29 0 48 11 60 25c25 29 27 78 27 93c0 49 -14 76 -29 92c-14 14 -33 24 -56 24c-21 0 -41 -8 -55 -23
c-28 -28 -30 -76 -30 -94zM342 612l77 88h160l-125 -132h-224l-125 132h160z" />
    <glyph glyph-name="Scommaaccent" unicode="&#x218;" horiz-adv-x="684" 
d="M30 231h219c-2 -30 9 -60 24 -76c25 -27 64 -28 85 -28s43 2 62 15c15 10 26 26 26 50c0 21 -7 37 -26 50s-59 23 -82 28l-70 14c-99 20 -148 51 -173 74c-37 33 -54 75 -54 132c0 91 48 142 82 169c67 52 152 59 215 59c54 0 154 -5 218 -60c35 -30 69 -86 72 -158h-206
c0 17 -5 36 -16 48c-10 11 -30 22 -68 22c-18 0 -45 -3 -60 -12c-13 -8 -24 -24 -24 -41c0 -10 2 -23 14 -34c17 -17 49 -22 101 -33l68 -15c47 -10 116 -27 163 -74c24 -24 54 -68 54 -136c0 -65 -29 -132 -66 -170c-70 -71 -183 -77 -247 -77c-69 0 -176 7 -245 79
c-36 37 -65 101 -66 174zM270 -195v132h167v-103c0 -44 -3 -102 -45 -143c-32 -31 -82 -42 -122 -43v75c20 -1 53 2 73 23c16 17 17 37 17 55v4h-90z" />
    <glyph glyph-name="scommaaccent" unicode="&#x219;" horiz-adv-x="589" 
d="M25 167h205c-3 -18 2 -41 15 -54c10 -10 28 -17 51 -17c18 0 34 1 51 11c12 7 22 17 22 35c0 17 -8 29 -25 37s-39 11 -67 15l-52 8c-48 7 -104 18 -139 49c-19 17 -42 47 -42 99c0 71 37 112 70 134c55 37 129 43 187 43c86 0 139 -15 173 -38c25 -17 65 -56 69 -126
h-179c1 14 -4 34 -15 45c-12 12 -35 16 -52 16c-27 0 -41 -9 -45 -12c-11 -8 -18 -21 -18 -34c0 -19 11 -26 22 -31c23 -12 42 -13 63 -16l70 -10c35 -5 94 -16 132 -52c23 -22 43 -58 43 -108c0 -66 -34 -112 -68 -136s-92 -44 -200 -44c-92 0 -170 9 -222 63
c-23 24 -48 65 -49 123zM211 -185v122h167v-89c0 -51 -5 -102 -45 -139c-19 -17 -54 -39 -122 -41v69c16 -1 53 1 73 23c12 13 17 33 17 51v4h-90z" />
    <glyph glyph-name="Tcommaaccent" unicode="&#x21a;" horiz-adv-x="634" 
d="M208 508h-198v192h614v-192h-198v-508h-218v508zM233 -195v132h167v-103c0 -44 -3 -102 -45 -143c-32 -31 -82 -42 -122 -43v75c20 -1 53 2 73 23c16 17 17 37 17 55v4h-90z" />
    <glyph glyph-name="tcommaaccent" unicode="&#x21b;" horiz-adv-x="441" 
d="M5 370v138h92v150h210v-150h108v-138h-108v-168c0 -15 0 -40 14 -55c7 -7 20 -14 47 -14c15 0 32 3 47 7v-141c-45 -10 -85 -14 -129 -14c-43 0 -112 4 -150 42c-34 34 -39 89 -39 125v218h-92zM200 -185v122h167v-89c0 -51 -5 -102 -45 -139c-19 -17 -54 -39 -122 -41
v69c16 -1 53 1 73 23c12 13 17 33 17 51v4h-90z" />
    <glyph glyph-name="Ecedilla" unicode="&#x228;" horiz-adv-x="719" 
d="M303 436h311v-165h-311v-86h371v-185h-589v700h581v-185h-363v-79zM269 -234l24 70c21 -6 43 -10 63 -10c8 0 30 0 41 5c15 6 18 17 18 25c0 17 -11 23 -23 26c-6 1 -20 4 -68 4h-14l23 67c19 2 36 2 51 2c63 0 91 -13 103 -20c29 -18 42 -44 42 -77
c0 -48 -26 -74 -43 -85c-32 -22 -75 -23 -102 -23c-62 0 -92 7 -115 16z" />
    <glyph glyph-name="ecedilla" unicode="&#x229;" horiz-adv-x="648" 
d="M404 147h206c-14 -43 -41 -92 -101 -127c-64 -37 -132 -38 -185 -38c-79 0 -162 7 -225 70c-39 39 -69 102 -69 187c0 81 28 155 76 205c62 65 142 82 220 82c116 0 183 -35 222 -75c69 -71 70 -167 70 -227v-12h-373c-1 -27 6 -59 19 -77c13 -17 33 -29 64 -29
c15 0 36 2 50 10c16 9 23 21 26 31zM246 312h156c0 22 -8 53 -22 68c-15 17 -35 21 -52 21c-21 0 -42 -5 -57 -22c-16 -17 -24 -46 -25 -67zM200 -234l24 70c21 -6 43 -10 63 -10c8 0 30 0 41 5c15 6 18 17 18 25c0 17 -11 23 -23 26c-6 1 -20 4 -68 4h-14l23 67
c19 2 36 2 51 2c63 0 91 -13 103 -20c29 -18 42 -44 42 -77c0 -48 -26 -74 -43 -85c-32 -22 -75 -23 -102 -23c-62 0 -92 7 -115 16z" />
    <glyph glyph-name="afii57929" unicode="&#x2bc;" horiz-adv-x="303" 
d="M136 552v148h163v-121c0 -38 -3 -94 -39 -133c-35 -37 -92 -45 -124 -46v73c24 1 53 4 68 20c13 13 18 37 18 55v4h-86z" />
    <glyph glyph-name="circumflex" unicode="&#x2c6;" horiz-adv-x="574" 
d="M287 656l-77 -88h-160l125 132h224l125 -132h-160z" />
    <glyph glyph-name="caron" unicode="&#x2c7;" horiz-adv-x="574" 
d="M287 612l77 88h160l-125 -132h-224l-125 132h160z" />
    <glyph glyph-name="breve" unicode="&#x2d8;" horiz-adv-x="496" 
d="M324 702h122c-3 -42 -22 -71 -40 -89c-47 -47 -118 -51 -158 -51s-111 4 -158 51c-18 18 -37 47 -40 89h122c-1 -19 7 -34 18 -44c18 -16 47 -17 58 -17c14 0 40 1 58 17c8 7 19 22 18 44z" />
    <glyph glyph-name="dotaccent" unicode="&#x2d9;" horiz-adv-x="272" 
d="M50 581v129h172v-129h-172z" />
    <glyph glyph-name="ring" unicode="&#x2da;" horiz-adv-x="312" 
d="M50 670c0 59 47 106 106 106s106 -47 106 -106s-47 -106 -106 -106s-106 47 -106 106zM112 670c0 -24 20 -44 44 -44s44 20 44 44s-20 44 -44 44s-44 -20 -44 -44z" />
    <glyph glyph-name="ogonek" unicode="&#x2db;" horiz-adv-x="408" 
d="M155 0h105c-47 -37 -71 -88 -71 -130c0 -13 4 -32 14 -42c8 -9 22 -13 34 -13c18 0 28 9 34 19c7 11 9 28 6 42h107c-1 -41 -18 -74 -36 -95c-37 -42 -86 -45 -120 -45c-31 0 -78 4 -113 34c-16 14 -40 42 -40 90c0 65 47 114 80 140z" />
    <glyph glyph-name="tilde" unicode="&#x2dc;" horiz-adv-x="536" 
d="M380 703h106c-5 -38 -23 -81 -46 -105c-22 -23 -46 -30 -76 -30c-38 0 -58 11 -80 21l-30 14c-18 9 -35 16 -56 16c-9 0 -20 -2 -29 -11c-6 -7 -11 -18 -12 -29h-107c5 30 19 67 41 93c24 29 51 40 87 40c32 0 55 -9 76 -19l26 -12c24 -11 43 -20 61 -20c10 0 21 3 27 10
c7 8 11 23 12 32z" />
    <glyph glyph-name="hungarumlaut" unicode="&#x2dd;" horiz-adv-x="568" 
d="M122 710h187l-97 -132h-147zM355 710h188l-98 -132h-147z" />
    <glyph glyph-name="accent" unicode="&#x301;" horiz-adv-x="2" 
d="M-318 700h189l-112 -132h-143z" />
    <glyph glyph-name="accent" unicode="&#xf400;" horiz-adv-x="2" 
d="M-318 700h189l-112 -132h-143z" />
    <glyph glyph-name="uni0313" unicode="&#x313;" horiz-adv-x="303" 
d="M136 552v148h163v-121c0 -38 -3 -94 -39 -133c-35 -37 -92 -45 -124 -46v73c24 1 53 4 68 20c13 13 18 37 18 55v4h-86z" />
    <glyph glyph-name="uni0315" unicode="&#x315;" horiz-adv-x="303" 
d="M136 552v148h163v-121c0 -38 -3 -94 -39 -133c-35 -37 -92 -45 -124 -46v73c24 1 53 4 68 20c13 13 18 37 18 55v4h-86z" />
    <glyph glyph-name="uni0326" unicode="&#x326;" horiz-adv-x="307" 
d="M70 -185v122h167v-89c0 -51 -5 -102 -45 -139c-19 -17 -54 -39 -122 -41v69c16 -1 53 1 73 23c12 13 17 33 17 51v4h-90z" />
    <glyph glyph-name="anoteleia" unicode="&#x387;" horiz-adv-x="353" 
d="M70 264v206h213v-206h-213z" />
    <glyph glyph-name="Delta" unicode="&#x394;" horiz-adv-x="777" 
d="M787 0h-797l331 700h132zM207 144h297l-148 325z" />
    <glyph glyph-name="Delta" unicode="&#x2206;" horiz-adv-x="777" 
d="M787 0h-797l331 700h132zM207 144h297l-148 325z" />
    <glyph glyph-name="Omega" unicode="&#x3a9;" horiz-adv-x="762" 
d="M439 0v284c31 7 54 24 69 41c26 30 31 62 31 91c0 31 -7 73 -40 105c-28 27 -71 40 -115 40c-51 0 -92 -17 -117 -41c-27 -26 -44 -68 -44 -108c0 -36 11 -67 29 -88c5 -6 28 -31 71 -40v-284h-300v166h164v23c-36 5 -78 21 -115 61c-45 48 -57 105 -57 162
c0 97 36 169 90 219c79 73 184 90 275 90c73 0 192 -10 278 -89c44 -40 89 -109 89 -213c0 -74 -26 -137 -65 -175c-29 -28 -71 -47 -107 -55v-23h164v-166h-300z" />
    <glyph glyph-name="Omega" unicode="&#x2126;" horiz-adv-x="762" 
d="M439 0v284c31 7 54 24 69 41c26 30 31 62 31 91c0 31 -7 73 -40 105c-28 27 -71 40 -115 40c-51 0 -92 -17 -117 -41c-27 -26 -44 -68 -44 -108c0 -36 11 -67 29 -88c5 -6 28 -31 71 -40v-284h-300v166h164v23c-36 5 -78 21 -115 61c-45 48 -57 105 -57 162
c0 97 36 169 90 219c79 73 184 90 275 90c73 0 192 -10 278 -89c44 -40 89 -109 89 -213c0 -74 -26 -137 -65 -175c-29 -28 -71 -47 -107 -55v-23h164v-166h-300z" />
    <glyph glyph-name="pi" unicode="&#x3c0;" horiz-adv-x="705" 
d="M94 0v376c-17 1 -33 -1 -49 -6c-11 -3 -24 -8 -35 -13v128c14 9 28 14 45 18c21 4 42 5 63 5h572v-132h-70v-206c0 -12 1 -29 11 -39c9 -9 25 -9 35 -9h10v-120c-38 -6 -61 -6 -93 -6c-46 0 -95 2 -129 35c-33 33 -34 77 -34 105v240h-126v-376h-200z" />
    <glyph glyph-name="afii10023" unicode="&#x401;" horiz-adv-x="734" 
d="M304 437h325v-165h-325v-87h385v-185h-604v700h595v-185h-376v-78zM175 773v118h166v-118h-166zM433 773v118h167v-118h-167z" />
    <glyph glyph-name="afii10051" unicode="&#x402;" horiz-adv-x="864" 
d="M5 700h614v-188h-198v-102c43 6 94 11 140 11c104 0 160 -23 192 -43c75 -48 91 -118 91 -180c0 -51 -10 -109 -56 -156c-58 -60 -131 -62 -188 -62c-42 0 -74 2 -119 19v141c18 -4 41 -8 61 -8c14 0 40 1 59 17c18 15 20 33 20 46c0 18 -4 40 -30 54
c-19 11 -55 13 -75 13c-11 0 -29 -1 -95 -8v-254h-218v512h-198v188z" />
    <glyph glyph-name="afii10052" unicode="&#x403;" horiz-adv-x="597" 
d="M303 508v-508h-218v700h497v-192h-279zM312 908h199l-112 -142h-153z" />
    <glyph glyph-name="afii10053" unicode="&#x404;" horiz-adv-x="784" 
d="M760 461h-220c-5 30 -21 52 -38 65c-28 22 -63 25 -89 25c-32 0 -72 -7 -101 -37c-22 -23 -36 -61 -39 -93h219v-141h-219c-2 -37 10 -83 36 -110c32 -33 79 -35 103 -35c27 0 67 4 97 30c25 22 34 52 36 59h219c-16 -100 -74 -156 -108 -181c-78 -57 -184 -63 -261 -63
c-91 0 -189 13 -263 85c-46 44 -92 122 -92 261c0 152 53 242 103 291c83 83 195 98 278 98c54 0 168 -5 244 -66c48 -38 88 -104 95 -188z" />
    <glyph glyph-name="afii10054" unicode="&#x405;" horiz-adv-x="684" 
d="M30 231h219c-2 -30 9 -60 24 -76c25 -27 64 -28 85 -28s43 2 62 15c15 10 26 26 26 50c0 21 -7 37 -26 50s-59 23 -82 28l-70 14c-99 20 -148 51 -173 74c-37 33 -54 75 -54 132c0 91 48 142 82 169c67 52 152 59 215 59c54 0 154 -5 218 -60c35 -30 69 -86 72 -158h-206
c0 17 -5 36 -16 48c-10 11 -30 22 -68 22c-18 0 -45 -3 -60 -12c-13 -8 -24 -24 -24 -41c0 -10 2 -23 14 -34c17 -17 49 -22 101 -33l68 -15c47 -10 116 -27 163 -74c24 -24 54 -68 54 -136c0 -65 -29 -132 -66 -170c-70 -71 -183 -77 -247 -77c-69 0 -176 7 -245 79
c-36 37 -65 101 -66 174z" />
    <glyph glyph-name="afii10055" unicode="&#x406;" horiz-adv-x="388" 
d="M85 700h218v-700h-218v700z" />
    <glyph glyph-name="afii10056" unicode="&#x407;" horiz-adv-x="388" 
d="M85 700h218v-700h-218v700zM13 779v119h153v-119h-153zM223 779v119h152v-119h-152z" />
    <glyph glyph-name="afii10057" unicode="&#x408;" horiz-adv-x="648" 
d="M20 276h214v-41c0 -21 1 -43 14 -60c9 -11 23 -20 44 -20c17 0 30 5 40 19c12 16 13 36 13 54v472h218v-440c0 -72 -7 -156 -70 -217c-59 -57 -140 -63 -199 -63c-68 0 -149 8 -207 67c-65 65 -67 154 -67 215v14z" />
    <glyph glyph-name="afii10058" unicode="&#x409;" horiz-adv-x="1148" 
d="M722 700v-237h150c63 0 151 -10 211 -70c28 -28 60 -78 60 -163c0 -74 -25 -135 -61 -170c-60 -58 -157 -60 -209 -60h-363v508h-154l-5 -231c-1 -62 0 -163 -60 -227c-54 -57 -130 -60 -182 -60c-37 0 -69 3 -109 11v180c13 -3 27 -5 45 -5c22 0 51 2 70 20
c30 27 31 87 32 147l5 357h570zM722 297v-125h114c22 0 47 5 61 18s16 32 16 46c0 17 -4 33 -21 46c-16 12 -39 15 -56 15h-114z" />
    <glyph glyph-name="afii10059" unicode="&#x40a;" horiz-adv-x="1135" 
d="M714 700v-237h145c63 0 151 -10 211 -70c28 -28 60 -78 60 -163c0 -74 -25 -135 -61 -170c-60 -58 -157 -60 -209 -60h-362v297h-195v-297h-218v700h218v-237h195v237h216zM714 297v-131h114c11 0 39 1 58 18c16 15 19 36 19 50c0 15 -2 34 -21 48c-16 12 -39 15 -56 15
h-114z" />
    <glyph glyph-name="afii10060" unicode="&#x40b;" horiz-adv-x="899" 
d="M839 0h-219v134c0 22 1 66 -22 90s-72 26 -94 26s-52 -2 -78 -6v-244h-218v512h-198v188h614v-188h-198v-104c41 5 99 10 147 10c59 0 118 -6 169 -31c91 -43 97 -123 97 -194v-193z" />
    <glyph glyph-name="afii10061" unicode="&#x40c;" horiz-adv-x="750" 
d="M308 411l187 289h249l-248 -326l269 -374h-259l-198 338h-5v-338h-218v700h218v-289h5zM367 908h199l-112 -142h-153z" />
    <glyph glyph-name="afii10062" unicode="&#x40e;" horiz-adv-x="661" 
d="M352 392l95 308h227l-221 -535c-19 -46 -45 -97 -91 -133c-53 -41 -103 -41 -145 -41c-48 0 -84 1 -136 20v174c19 -10 44 -17 74 -17c19 0 63 4 80 49l-235 483h239zM419 900h122c-3 -42 -22 -71 -40 -89c-47 -47 -118 -51 -158 -51s-111 4 -158 51
c-18 18 -37 47 -40 89h122c-1 -19 7 -34 18 -44c18 -16 47 -17 58 -17c14 0 40 1 58 17c8 7 19 22 18 44z" />
    <glyph glyph-name="afii10145" unicode="&#x40f;" horiz-adv-x="803" 
d="M303 192h197v508h218v-700h-226v-224h-181v224h-226v700h218v-508z" />
    <glyph glyph-name="afii10017" unicode="&#x410;" horiz-adv-x="710" 
d="M245 99l-32 -99h-226l259 700h215l259 -700h-226l-32 99h-217zM288 243h131l-66 210z" />
    <glyph glyph-name="afii10018" unicode="&#x411;" horiz-adv-x="766" 
d="M303 528v-87h162c66 0 147 -6 203 -60c28 -27 58 -76 58 -159c0 -77 -26 -128 -61 -161c-55 -53 -130 -61 -190 -61h-390v700h590v-172h-372zM303 291v-126h105c28 0 56 3 70 16c12 11 17 29 17 46c0 19 -7 37 -18 47c-17 16 -45 17 -67 17h-107z" />
    <glyph glyph-name="afii10019" unicode="&#x412;" horiz-adv-x="778" 
d="M85 700h396c46 0 116 -1 166 -42c28 -23 56 -65 56 -133c0 -41 -11 -75 -43 -108c-23 -24 -47 -36 -71 -42v-4c58 -11 93 -43 99 -49c26 -25 50 -66 50 -131c0 -78 -36 -121 -66 -143c-55 -42 -142 -48 -194 -48h-393v700zM303 542v-112h112c18 0 40 1 54 14
c7 6 16 18 16 42c0 23 -9 36 -18 43c-16 12 -44 13 -55 13h-109zM303 285v-127h132c19 0 41 1 57 15c10 9 19 24 19 49c0 29 -12 43 -20 49c-15 12 -39 14 -57 14h-131z" />
    <glyph glyph-name="afii10020" unicode="&#x413;" horiz-adv-x="597" 
d="M303 508v-508h-218v700h497v-192h-279z" />
    <glyph glyph-name="afii10021" unicode="&#x414;" horiz-adv-x="826" 
d="M713 192h98l-9 -338h-176v146h-441v-146h-178l-7 340h86c24 41 47 94 58 144c7 29 15 80 15 187v175h554v-508zM501 522h-145v-74c0 -35 -4 -98 -11 -133c-8 -43 -27 -96 -47 -137h203v344z" />
    <glyph glyph-name="afii10022" unicode="&#x415;" horiz-adv-x="719" 
d="M303 436h311v-165h-311v-86h371v-185h-589v700h581v-185h-363v-79z" />
    <glyph glyph-name="afii10024" unicode="&#x416;" horiz-adv-x="1024" 
d="M414 0v298l-173 -298h-251l254 379l-242 321h245l167 -262v262h196v-262l167 262h245l-241 -321l253 -379h-251l-173 298v-298h-196z" />
    <glyph glyph-name="afii10025" unicode="&#x417;" horiz-adv-x="761" 
d="M35 249h211c1 -49 29 -77 33 -81c29 -27 69 -30 95 -30c56 0 80 14 86 18c21 13 34 37 34 64c0 25 -12 40 -33 50c-20 9 -57 13 -84 13h-62v138h70c40 0 57 9 66 15c15 11 23 31 23 50c0 20 -9 42 -28 57c-23 18 -55 20 -75 20c-25 0 -57 -3 -81 -29
c-17 -19 -23 -44 -22 -74h-212c-1 91 36 145 63 172c71 72 188 84 268 84c113 0 208 -16 269 -75c26 -25 53 -66 53 -127c0 -43 -15 -80 -36 -103c-18 -20 -47 -37 -82 -41v-6c39 -7 72 -26 93 -48c32 -32 42 -71 42 -110c0 -66 -22 -122 -82 -164
c-78 -56 -178 -60 -263 -60c-79 0 -178 4 -251 61c-70 54 -93 140 -95 206z" />
    <glyph glyph-name="afii10026" unicode="&#x418;" horiz-adv-x="805" 
d="M297 325l211 375h212v-700h-212v379l-211 -379h-212v700h212v-375z" />
    <glyph glyph-name="afii10027" unicode="&#x419;" horiz-adv-x="805" 
d="M297 325l211 375h212v-700h-212v379l-211 -379h-212v700h212v-375zM474 907h141c-2 -49 -23 -83 -42 -103c-44 -45 -113 -51 -172 -51s-128 6 -172 51c-19 20 -40 54 -42 103h141c0 -16 5 -35 15 -45c15 -16 41 -17 58 -17s43 1 58 17c10 10 15 29 15 45z" />
    <glyph glyph-name="afii10028" unicode="&#x41a;" horiz-adv-x="750" 
d="M308 411l187 289h249l-248 -326l269 -374h-259l-198 338h-5v-338h-218v700h218v-289h5z" />
    <glyph glyph-name="afii10029" unicode="&#x41b;" horiz-adv-x="815" 
d="M0 1v180c13 -3 27 -5 45 -5c22 0 51 2 70 20c30 27 31 87 32 147l5 357h578v-700h-220v508h-154l-5 -231c-1 -62 0 -163 -60 -227c-54 -57 -130 -60 -182 -60c-37 0 -69 3 -109 11z" />
    <glyph glyph-name="afii10030" unicode="&#x41c;" horiz-adv-x="1005" 
d="M423 0l-140 465l-5 -1l5 -53v-411h-198v700h296l113 -396l6 -48h5l7 48l112 396h296v-700h-198v411l5 53l-5 1l-140 -465h-159z" />
    <glyph glyph-name="afii10031" unicode="&#x41d;" horiz-adv-x="801" 
d="M303 275v-275h-218v700h218v-241h195v241h218v-700h-218v275h-195z" />
    <glyph glyph-name="afii10032" unicode="&#x41e;" 
d="M40 348c0 129 47 219 99 273c84 87 186 98 267 98c93 0 198 -16 279 -99c78 -81 93 -187 93 -266c0 -133 -41 -219 -91 -273c-81 -87 -184 -100 -275 -100c-92 0 -200 14 -282 102c-32 34 -90 116 -90 265zM272 350c0 -38 5 -106 44 -148c26 -27 58 -37 93 -37
c34 0 68 8 94 37c32 35 43 97 43 148s-7 110 -43 148c-26 27 -56 37 -90 37c-35 0 -68 -9 -95 -37c-40 -42 -46 -110 -46 -148z" />
    <glyph glyph-name="afii10033" unicode="&#x41f;" horiz-adv-x="812" 
d="M303 515v-515h-218v700h642v-700h-218v515h-206z" />
    <glyph glyph-name="afii10034" unicode="&#x420;" horiz-adv-x="740" 
d="M85 700h356c64 0 147 -9 207 -66s67 -132 67 -181c0 -46 -5 -129 -66 -188c-66 -64 -154 -63 -208 -63h-138v-202h-218v700zM303 511v-141h104c18 0 48 0 69 20c11 10 20 29 20 56c0 24 -9 39 -18 47c-19 17 -51 18 -71 18h-104z" />
    <glyph glyph-name="afii10035" unicode="&#x421;" horiz-adv-x="759" 
d="M526 258h213c-7 -81 -43 -154 -87 -197c-73 -73 -167 -81 -253 -81c-80 0 -180 7 -258 80c-49 46 -101 136 -101 283c0 132 43 224 104 283c80 78 180 92 263 92c115 0 194 -33 245 -85c9 -9 70 -73 81 -186h-211c-4 26 -17 49 -33 63c-24 20 -57 22 -75 22
c-33 0 -68 -6 -97 -35c-40 -40 -45 -105 -45 -148c0 -45 6 -103 39 -142c31 -37 67 -40 97 -40s58 4 84 27c25 22 32 49 34 64z" />
    <glyph glyph-name="afii10036" unicode="&#x422;" horiz-adv-x="634" 
d="M208 508h-198v192h614v-192h-198v-508h-218v508z" />
    <glyph glyph-name="afii10037" unicode="&#x423;" horiz-adv-x="661" 
d="M352 392l95 308h227l-221 -535c-19 -46 -45 -97 -91 -133c-53 -41 -103 -41 -145 -41c-48 0 -84 1 -136 20v174c19 -10 44 -17 74 -17c19 0 63 4 80 49l-235 483h239z" />
    <glyph glyph-name="afii10038" unicode="&#x424;" horiz-adv-x="1026" 
d="M404 -24v93h-17c-111 0 -202 14 -269 80c-32 32 -78 95 -78 206c0 101 42 165 80 204c65 66 150 86 270 86h14v89h218v-89h14c115 0 208 -21 271 -84c50 -50 79 -127 79 -204c0 -95 -35 -166 -78 -208c-67 -66 -159 -80 -269 -80h-17v-93h-218zM421 232v250h-18
c-24 0 -71 -1 -104 -25c-12 -9 -45 -38 -45 -103c0 -62 32 -90 47 -100c27 -18 66 -22 100 -22h20zM606 232h20c34 0 73 4 100 22c15 10 47 38 47 100c0 65 -33 94 -45 103c-33 24 -80 25 -104 25h-18v-250z" />
    <glyph glyph-name="afii10039" unicode="&#x425;" horiz-adv-x="750" 
d="M379 204l-119 -204h-270l260 366l-225 334h240l114 -195l116 195h246l-233 -334l252 -366h-265z" />
    <glyph glyph-name="afii10040" unicode="&#x426;" horiz-adv-x="841" 
d="M303 192h211v508h218v-508h99l-6 -338h-190v146h-550v700h218v-508z" />
    <glyph glyph-name="afii10041" unicode="&#x427;" horiz-adv-x="741" 
d="M35 700h209v-162c0 -29 1 -68 23 -90c24 -25 67 -25 86 -25c27 0 58 3 85 7v270h218v-700h-218v271c-42 -4 -94 -8 -129 -8c-127 0 -181 30 -198 42c-64 43 -76 111 -76 182v213z" />
    <glyph glyph-name="afii10042" unicode="&#x428;" horiz-adv-x="1088" 
d="M283 178h162v522h198v-522h162v522h198v-700h-918v700h198v-522z" />
    <glyph glyph-name="afii10043" unicode="&#x429;" horiz-adv-x="1115" 
d="M283 178h164v522h198v-522h164v522h198v-508h97l-5 -338h-189v146h-825v700h198v-522z" />
    <glyph glyph-name="afii10044" unicode="&#x42a;" horiz-adv-x="828" 
d="M393 700v-237h149c63 0 151 -10 211 -70c28 -28 60 -78 60 -163c0 -74 -25 -135 -61 -170c-60 -58 -157 -60 -209 -60h-366v508h-162v192h378zM393 297v-125h114c22 0 47 5 61 18s16 32 16 46c0 17 -4 33 -21 46c-16 12 -39 15 -56 15h-114z" />
    <glyph glyph-name="afii10045" unicode="&#x42b;" horiz-adv-x="1062" 
d="M759 700h218v-700h-218v700zM302 700v-237h139c63 0 151 -10 211 -70c28 -28 60 -78 60 -163c0 -74 -25 -135 -61 -170c-60 -58 -157 -60 -209 -60h-357v700h217zM302 297v-125h114c22 0 47 5 61 18s16 32 16 46c0 17 -4 33 -21 46c-16 12 -39 15 -56 15h-114z" />
    <glyph glyph-name="afii10046" unicode="&#x42c;" horiz-adv-x="737" 
d="M302 700v-237h149c63 0 151 -10 211 -70c28 -28 60 -78 60 -163c0 -74 -25 -135 -61 -170c-60 -58 -157 -60 -209 -60h-367v700h217zM302 297v-125h114c22 0 47 5 61 18s16 32 16 46c0 17 -4 33 -21 46c-16 12 -39 15 -56 15h-114z" />
    <glyph glyph-name="afii10047" unicode="&#x42d;" horiz-adv-x="789" 
d="M246 450h-218c9 81 47 138 87 176c78 73 178 89 270 89c86 0 196 -12 275 -94c76 -78 89 -183 89 -263c0 -65 -8 -193 -94 -282c-87 -90 -209 -96 -280 -96c-83 0 -198 11 -275 88c-44 44 -73 110 -80 177h219c3 -30 17 -57 35 -75c30 -29 68 -35 101 -35
c31 0 71 5 99 32c26 25 42 74 42 113h-219v141h219c1 36 -13 73 -35 95c-23 23 -63 35 -101 35s-70 -10 -92 -27c-9 -7 -35 -30 -42 -74z" />
    <glyph glyph-name="afii10048" unicode="&#x42e;" horiz-adv-x="1153" 
d="M385 276h-82v-276h-218v700h218v-246h88c12 62 41 121 83 165c78 82 180 100 272 100c87 0 193 -17 274 -101c46 -48 93 -130 93 -262c0 -129 -47 -223 -102 -279c-84 -85 -187 -96 -273 -96c-83 0 -182 9 -260 84c-46 44 -88 117 -93 211zM607 350c0 -38 5 -106 44 -148
c26 -27 58 -37 93 -37c34 0 68 8 94 37c32 35 43 97 43 148s-7 110 -43 148c-26 27 -56 37 -90 37c-35 0 -68 -9 -95 -37c-40 -42 -46 -110 -46 -148z" />
    <glyph glyph-name="afii10049" unicode="&#x42f;" horiz-adv-x="741" 
d="M457 230h-40l-139 -230h-252l181 248c-47 8 -88 29 -116 56c-48 46 -58 104 -58 154c0 91 37 144 62 170c37 38 100 72 205 72h375v-700h-218v230zM457 526h-124c-15 0 -44 -2 -63 -21c-8 -8 -17 -22 -17 -46s9 -41 19 -50c14 -13 43 -20 67 -20h118v137z" />
    <glyph glyph-name="afii10065" unicode="&#x430;" horiz-adv-x="634" 
d="M249 335h-197c4 49 24 90 51 118c57 59 147 68 214 68c49 0 152 -2 210 -59c47 -45 52 -104 52 -145v-229c0 -36 2 -49 7 -58c5 -10 16 -19 28 -23v-7h-226l-13 55h-2c-16 -19 -38 -37 -62 -49c-37 -19 -79 -24 -114 -24c-40 0 -91 5 -128 39c-20 19 -43 53 -43 110
c0 38 10 71 38 99c40 40 96 50 137 55l60 7c57 7 79 9 93 22c7 7 15 19 15 38c0 17 -7 28 -13 33c-14 13 -38 14 -44 14c-23 0 -38 -7 -47 -16c-10 -10 -17 -29 -16 -48zM369 217v13c-22 -16 -39 -19 -60 -22c-17 -3 -43 -6 -60 -24c-9 -10 -12 -20 -12 -32
c0 -15 6 -26 13 -33c11 -11 24 -13 35 -13c23 0 41 6 57 23c25 26 27 61 27 88z" />
    <glyph glyph-name="afii10066" unicode="&#x431;" horiz-adv-x="664" 
d="M450 757h160c-1 -46 -21 -89 -46 -114c-41 -41 -110 -49 -177 -58c-85 -11 -136 -23 -169 -45c-44 -30 -73 -88 -74 -160h8c16 36 40 59 58 73c50 38 110 47 161 47c48 0 131 -7 193 -67c34 -32 70 -90 70 -182c0 -81 -29 -148 -74 -194c-66 -67 -145 -75 -215 -75
c-76 0 -159 12 -221 75c-79 79 -84 209 -84 278c0 78 7 214 90 296c44 43 100 62 146 73c89 22 79 6 143 25c16 5 27 10 31 28zM263 245c0 -76 24 -105 33 -115c13 -13 29 -20 51 -20c14 0 31 3 46 17c29 28 31 98 31 118c0 35 -3 87 -31 115c-7 6 -22 19 -48 19
c-19 0 -37 -8 -50 -21c-25 -25 -32 -69 -32 -113z" />
    <glyph glyph-name="afii10067" unicode="&#x432;" horiz-adv-x="638" 
d="M65 508h353c40 0 98 -4 133 -35c17 -15 36 -44 36 -89c0 -40 -15 -65 -30 -80c-19 -19 -50 -32 -75 -36v-6c33 -1 71 -13 96 -37c28 -27 34 -61 34 -89c0 -31 -7 -64 -32 -91c-40 -44 -102 -45 -147 -45h-368v508zM271 403v-98h51c16 0 36 2 49 12c8 6 17 18 17 39
c0 8 -2 25 -16 36c-13 10 -30 11 -43 11h-58zM271 211v-105h74c11 0 32 1 46 13c9 7 16 20 16 39c0 18 -7 31 -15 38c-13 12 -35 15 -53 15h-68z" />
    <glyph glyph-name="afii10068" unicode="&#x433;" horiz-adv-x="502" 
d="M279 371v-371h-214v508h432v-137h-218z" />
    <glyph glyph-name="afii10069" unicode="&#x434;" horiz-adv-x="716" 
d="M0 132h67c11 16 41 64 58 126c15 55 16 106 16 150l1 100h480v-376h81l-10 -263h-161v131h-361v-131h-161zM420 376h-101l-1 -40c-1 -35 -2 -66 -12 -105c-11 -43 -28 -76 -42 -99h156v244z" />
    <glyph glyph-name="afii10070" unicode="&#x435;" horiz-adv-x="648" 
d="M404 147h206c-14 -43 -41 -92 -101 -127c-64 -37 -132 -38 -185 -38c-79 0 -162 7 -225 70c-39 39 -69 102 -69 187c0 81 28 155 76 205c62 65 142 82 220 82c116 0 183 -35 222 -75c69 -71 70 -167 70 -227v-12h-373c-1 -27 6 -59 19 -77c13 -17 33 -29 64 -29
c15 0 36 2 50 10c16 9 23 21 26 31zM246 312h156c0 22 -8 53 -22 68c-15 17 -35 21 -52 21c-21 0 -42 -5 -57 -22c-16 -17 -24 -46 -25 -67z" />
    <glyph glyph-name="afii10072" unicode="&#x436;" horiz-adv-x="849" 
d="M329 508h190v-197l125 197h201l-176 -241l190 -267h-215l-125 210v-210h-190v210l-124 -210h-215l187 265l-174 243h202l124 -197v197z" />
    <glyph glyph-name="afii10073" unicode="&#x437;" horiz-adv-x="614" 
d="M25 181h190c0 -21 7 -41 19 -54c20 -22 50 -23 69 -23c21 0 45 1 62 17c10 10 16 23 16 37c0 16 -9 30 -19 37c-16 12 -39 12 -53 12h-46v103h33c19 0 41 1 55 12c5 4 15 15 15 35c0 16 -8 29 -19 37c-13 9 -36 13 -52 13c-23 0 -45 -7 -58 -20c-8 -9 -19 -26 -18 -58
h-183c3 60 29 104 53 129c50 52 127 69 220 69c89 0 171 -14 216 -55c28 -25 43 -60 43 -95c0 -28 -9 -56 -28 -75c-16 -16 -40 -27 -63 -30v-6c30 -4 62 -18 80 -36c18 -17 32 -45 32 -80c0 -47 -24 -99 -78 -131c-26 -15 -79 -37 -192 -37c-80 0 -182 4 -243 66
c-25 26 -52 70 -51 133z" />
    <glyph glyph-name="afii10074" unicode="&#x438;" horiz-adv-x="717" 
d="M265 222l179 286h208v-508h-200v260l4 27h-4l-179 -287h-208v508h200v-260l-4 -26h4z" />
    <glyph glyph-name="afii10075" unicode="&#x439;" horiz-adv-x="717" 
d="M426 731h145c0 -53 -24 -90 -45 -111c-46 -46 -113 -54 -166 -54c-37 0 -118 3 -169 54c-22 22 -44 59 -44 111h145c-1 -17 2 -46 21 -62c11 -9 29 -13 46 -13s35 4 46 13c19 16 22 45 21 62zM265 222l179 286h208v-508h-200v260l4 27h-4l-179 -287h-208v508h200v-260
l-4 -26h4z" />
    <glyph glyph-name="afii10076" unicode="&#x43a;" horiz-adv-x="637" 
d="M275 298h2l140 210h215l-181 -241l196 -267h-238l-132 221h-2v-221h-210v508h210v-210z" />
    <glyph glyph-name="afii10077" unicode="&#x43b;" horiz-adv-x="683" 
d="M0 0v139c10 -2 21 -3 31 -3c30 0 47 9 55 17c24 23 25 80 25 139v216h507v-508h-210v370h-103v-95c0 -92 -3 -180 -60 -235c-45 -43 -104 -49 -150 -49c-35 0 -66 3 -95 9z" />
    <glyph glyph-name="afii10078" unicode="&#x43c;" horiz-adv-x="857" 
d="M363 0l-106 300h-4l4 -26v-274h-192v508h263l99 -319h3l99 319h263v-508h-192v274l4 26h-4l-105 -300h-132z" />
    <glyph glyph-name="afii10079" unicode="&#x43d;" horiz-adv-x="683" 
d="M275 199v-199h-210v508h210v-177h133v177h210v-508h-210v199h-133z" />
    <glyph glyph-name="afii10080" unicode="&#x43e;" horiz-adv-x="654" 
d="M327 394c-21 0 -35 -7 -48 -20c-22 -23 -33 -60 -33 -120c0 -58 10 -97 34 -121c14 -14 29 -19 47 -19c21 0 35 7 48 20c22 23 33 60 33 120s-11 97 -33 120c-13 13 -27 20 -48 20zM624 255c0 -95 -34 -159 -76 -199c-68 -65 -160 -74 -221 -74c-63 0 -154 10 -221 74
c-30 29 -76 91 -76 199c0 92 36 158 77 197c67 65 160 74 221 74c52 0 149 -5 221 -74c44 -42 75 -105 75 -197z" />
    <glyph glyph-name="afii10081" unicode="&#x43f;" horiz-adv-x="690" 
d="M275 370v-370h-210v508h560v-508h-210v370h-140z" />
    <glyph glyph-name="afii10082" unicode="&#x440;" horiz-adv-x="695" 
d="M65 508h200v-56h4c47 66 115 74 164 74c43 0 108 -5 160 -55c16 -15 72 -76 72 -208c0 -80 -22 -165 -75 -219c-50 -52 -110 -62 -167 -62c-45 0 -103 7 -148 55v-222h-210v693zM266 248c0 -28 2 -71 26 -102c18 -23 41 -32 65 -32c27 0 46 10 61 26c29 32 31 81 31 108
c0 30 -3 79 -31 110c-11 13 -31 26 -61 26c-21 0 -43 -7 -60 -26c-28 -30 -31 -75 -31 -110z" />
    <glyph glyph-name="afii10083" unicode="&#x441;" horiz-adv-x="626" 
d="M400 200h196c-7 -66 -37 -115 -68 -146c-66 -66 -152 -72 -217 -72s-146 8 -208 67c-35 33 -73 94 -73 193c0 95 38 167 82 211c63 61 144 76 213 76c107 0 169 -36 205 -72c31 -32 58 -82 62 -146h-193c0 20 -5 49 -24 68c-13 13 -30 18 -48 18c-21 0 -37 -6 -51 -21
c-26 -28 -30 -77 -30 -117c0 -28 1 -92 31 -124c15 -17 32 -21 51 -21c15 0 33 2 48 17c16 17 24 48 24 69z" />
    <glyph glyph-name="afii10084" unicode="&#x442;" horiz-adv-x="552" 
d="M169 371h-164v137h542v-139h-164v-369h-214v371z" />
    <glyph glyph-name="afii10085" unicode="&#x443;" horiz-adv-x="588" 
d="M62 -173v135c21 -8 37 -10 56 -10c15 0 33 0 50 13c17 12 23 29 26 43l5 22l-199 478h212l101 -317l80 317h195l-179 -500c-16 -45 -36 -107 -76 -144c-27 -25 -74 -50 -156 -50c-25 0 -66 2 -115 13z" />
    <glyph glyph-name="afii10086" unicode="&#x444;" horiz-adv-x="882" 
d="M336 -185v171h-8c-59 0 -152 2 -223 68c-68 63 -75 151 -75 198c0 62 13 135 73 192c68 66 158 75 228 75h5v181h210v-181h6c65 0 159 -9 227 -74c59 -57 73 -131 73 -193c0 -106 -41 -166 -75 -198c-71 -66 -165 -68 -223 -68h-8v-171h-210zM527 387v-269h10
c41 0 73 16 91 34c34 33 36 80 36 105c0 31 -7 73 -39 101c-18 15 -47 29 -91 29h-7zM355 387h-7c-25 0 -62 -4 -91 -30c-32 -29 -39 -69 -39 -100c0 -25 2 -72 36 -105c18 -18 50 -34 91 -34h10v269z" />
    <glyph glyph-name="afii10087" unicode="&#x445;" horiz-adv-x="581" 
d="M293 369l78 140h210l-182 -246l182 -263h-203l-86 139l-84 -139h-208l187 263l-177 245h206z" />
    <glyph glyph-name="afii10088" unicode="&#x446;" horiz-adv-x="717" 
d="M275 139h135v369h210v-369h82l-6 -268h-161v129h-470v508h210v-369z" />
    <glyph glyph-name="afii10089" unicode="&#x447;" horiz-adv-x="620" 
d="M26 508h198v-133c0 -17 0 -41 13 -56c16 -18 48 -19 63 -19s29 1 45 4v204h210v-508h-210v183c-34 -5 -65 -7 -96 -7c-59 0 -136 6 -181 49c-36 34 -42 80 -42 139v144z" />
    <glyph glyph-name="afii10090" unicode="&#x448;" horiz-adv-x="980" 
d="M263 139h128v369h198v-371h128v371h198v-508h-850v508h198v-369z" />
    <glyph glyph-name="afii10091" unicode="&#x449;" horiz-adv-x="1009" 
d="M263 139h128v369h198v-369h128v369h198v-369h79l-8 -268h-161v129h-760v508h198v-369z" />
    <glyph glyph-name="afii10092" unicode="&#x44a;" horiz-adv-x="686" 
d="M0 370v138h351v-174h113c36 0 119 -2 167 -47c22 -21 45 -59 45 -119c0 -58 -20 -99 -45 -123c-44 -42 -113 -45 -147 -45h-343v370h-141zM351 224v-117h52c17 0 39 4 51 14c13 11 18 31 18 47c0 23 -11 36 -20 43c-12 9 -32 13 -50 13h-51z" />
    <glyph glyph-name="afii10093" unicode="&#x44b;" horiz-adv-x="908" 
d="M635 508h208v-508h-208v508zM275 508v-174h102c36 0 119 -2 167 -47c22 -21 45 -59 45 -119c0 -58 -20 -99 -45 -123c-44 -42 -113 -45 -147 -45h-332v508h210zM275 224v-117h52c17 0 39 4 51 14c13 11 18 31 18 47c0 23 -11 36 -20 43c-12 9 -32 13 -50 13h-51z" />
    <glyph glyph-name="afii10094" unicode="&#x44c;" horiz-adv-x="610" 
d="M275 508v-174h113c36 0 119 -2 167 -47c22 -21 45 -59 45 -119c0 -58 -20 -99 -45 -123c-44 -42 -113 -45 -147 -45h-343v508h210zM275 224v-117h52c17 0 39 4 51 14c13 11 18 31 18 47c0 23 -11 36 -20 43c-12 9 -32 13 -50 13h-51z" />
    <glyph glyph-name="afii10095" unicode="&#x44d;" horiz-adv-x="646" 
d="M262 204v103h144c-1 27 -12 50 -26 64c-22 22 -49 25 -70 25c-25 0 -51 -3 -73 -26c-15 -16 -24 -38 -26 -58h-179c7 61 35 111 65 141c65 66 163 72 218 72c60 0 167 -7 237 -81c53 -57 64 -131 64 -187c0 -112 -42 -173 -74 -205c-65 -63 -154 -71 -226 -71
c-66 0 -153 8 -212 58c-34 29 -69 83 -74 155h181c2 -19 11 -41 25 -56c23 -24 55 -26 75 -26c21 0 47 4 67 23c17 16 27 43 28 69h-144z" />
    <glyph glyph-name="afii10096" unicode="&#x44e;" horiz-adv-x="943" 
d="M616 394c-21 0 -35 -7 -48 -20c-22 -23 -33 -60 -33 -120c0 -58 10 -97 34 -121c14 -14 29 -19 47 -19c21 0 35 7 48 20c22 23 33 60 33 120s-11 97 -33 120c-13 13 -27 20 -48 20zM273 331h66c13 71 52 113 70 129c59 55 133 66 204 66c57 0 153 -5 225 -74
c33 -32 75 -93 75 -196c0 -112 -50 -173 -72 -196c-70 -72 -167 -78 -226 -78c-65 0 -152 11 -211 66c-38 35 -64 91 -70 151h-61v-199h-208v508h208v-177z" />
    <glyph glyph-name="afii10097" unicode="&#x44f;" horiz-adv-x="631" 
d="M338 166l-98 -166h-215l131 175c-27 6 -60 21 -81 41c-35 33 -43 76 -43 110c0 62 22 106 49 132c49 47 123 50 160 50h325v-508h-210v166h-18zM356 396h-44c-21 0 -41 -1 -59 -15c-17 -14 -21 -32 -21 -49c0 -14 3 -30 18 -43c19 -16 46 -17 68 -17h38v124z" />
    <glyph glyph-name="afii10071" unicode="&#x451;" horiz-adv-x="648" 
d="M83 581v125h195v-125h-195zM364 581v125h195v-125h-195zM404 147h206c-10 -32 -35 -89 -102 -128c-62 -36 -131 -37 -184 -37c-79 0 -162 7 -225 70c-39 39 -69 102 -69 187c0 81 28 155 76 205c62 65 142 82 221 82c67 0 158 -11 221 -75c69 -71 70 -166 70 -227v-12
h-373c-1 -27 6 -59 19 -77c13 -17 33 -29 64 -29c15 0 36 2 50 10c16 9 23 21 26 31zM246 312h156c0 22 -8 53 -22 68c-15 17 -35 21 -52 21c-21 0 -42 -5 -57 -22c-16 -17 -24 -46 -25 -67z" />
    <glyph glyph-name="afii10099" unicode="&#x452;" horiz-adv-x="699" 
d="M284 700v-63h221v-100h-221v-100c19 18 41 32 62 42c31 14 64 19 99 19c38 0 94 -5 135 -47c55 -57 59 -163 59 -265c0 -112 -3 -245 -78 -316c-58 -55 -143 -60 -190 -60h-38v129h8c21 0 40 7 51 17c35 30 34 116 34 208c0 109 -2 152 -18 176c-10 15 -22 23 -42 23
c-22 0 -45 -10 -60 -29c-13 -17 -22 -43 -22 -78v-256h-210v537h-94v100h94v63h210z" />
    <glyph glyph-name="afii10100" unicode="&#x453;" horiz-adv-x="502" 
d="M279 371v-371h-214v508h432v-137h-218zM247 700h189l-112 -132h-143z" />
    <glyph glyph-name="afii10101" unicode="&#x454;" horiz-adv-x="640" 
d="M373 204h-144c1 -23 10 -51 25 -68c22 -24 54 -26 72 -26c35 0 56 11 69 22c15 13 25 32 29 51h186c-12 -61 -45 -113 -85 -145c-60 -48 -140 -57 -204 -57c-65 0 -155 8 -219 71c-24 24 -72 84 -72 200c0 105 43 165 76 197c72 69 172 76 223 76c111 0 169 -33 196 -53
c30 -23 70 -68 80 -142h-181c-4 26 -18 43 -31 52c-17 13 -43 18 -67 18c-27 0 -51 -7 -70 -27c-14 -15 -25 -40 -27 -66h144v-103z" />
    <glyph glyph-name="afii10102" unicode="&#x455;" horiz-adv-x="589" 
d="M25 167h205c-3 -18 2 -41 15 -54c10 -10 28 -17 51 -17c18 0 34 1 51 11c12 7 22 17 22 35c0 17 -8 29 -25 37s-39 11 -67 15l-52 8c-48 7 -104 18 -139 49c-19 17 -42 47 -42 99c0 71 37 112 70 134c55 37 129 43 187 43c86 0 139 -15 173 -38c25 -17 65 -56 69 -126
h-179c1 14 -4 34 -15 45c-12 12 -35 16 -52 16c-27 0 -41 -9 -45 -12c-11 -8 -18 -21 -18 -34c0 -19 11 -26 22 -31c23 -12 42 -13 63 -16l70 -10c35 -5 94 -16 132 -52c23 -22 43 -58 43 -108c0 -66 -34 -112 -68 -136s-92 -44 -200 -44c-92 0 -170 9 -222 63
c-23 24 -48 65 -49 123z" />
    <glyph glyph-name="afii10103" unicode="&#x456;" horiz-adv-x="340" 
d="M65 508h210v-508h-210v508zM65 568v132h210v-132h-210z" />
    <glyph glyph-name="afii10104" unicode="&#x457;" horiz-adv-x="340" 
d="M65 508h210v-508h-210v508zM9 581v119h143v-119h-143zM189 581v119h142v-119h-142z" />
    <glyph glyph-name="afii10105" unicode="&#x458;" horiz-adv-x="349" 
d="M72 561v139h212v-139h-212zM72 508h211v-507c0 -47 -3 -103 -44 -144c-42 -42 -108 -45 -147 -45c-53 0 -88 5 -112 10v142c11 -2 21 -3 32 -3c10 0 32 0 45 13c14 14 15 36 15 55v479z" />
    <glyph glyph-name="afii10106" unicode="&#x459;" horiz-adv-x="934" 
d="M612 334h108c56 0 120 -3 166 -50c37 -37 43 -86 43 -119c0 -36 -7 -85 -45 -121c-41 -39 -97 -44 -147 -44h-329v370h-103v-95c0 -92 -3 -180 -60 -235c-45 -43 -104 -49 -150 -49c-35 0 -66 3 -95 9v139c10 -2 21 -3 31 -3c30 0 47 9 55 17c24 23 25 80 25 139v216h501
v-174zM612 225v-120h52c16 0 34 2 49 15c8 7 17 21 17 45c0 29 -12 42 -15 45c-14 15 -34 15 -47 15h-56z" />
    <glyph glyph-name="afii10107" unicode="&#x45a;" horiz-adv-x="940" 
d="M408 508h210v-174h108c37 0 119 -1 166 -46c22 -22 43 -60 43 -119c0 -64 -23 -102 -45 -123c-45 -44 -112 -46 -147 -46h-335v220h-133v-220h-210v508h210v-174h133v174zM618 220v-115h52c15 0 36 2 50 15s16 32 16 44c0 23 -7 35 -14 42c-14 13 -38 14 -48 14h-56z" />
    <glyph glyph-name="afii10108" unicode="&#x45b;" horiz-adv-x="694" 
d="M284 700v-65h236v-95h-236v-100c28 25 78 58 160 58c68 0 111 -23 136 -47c47 -44 54 -107 54 -171v-280h-210v262c0 16 -1 53 -16 75c-10 15 -25 26 -49 26c-23 0 -41 -9 -55 -29c-13 -19 -20 -47 -20 -74v-260h-210v540h-94v95h94v65h210z" />
    <glyph glyph-name="afii10109" unicode="&#x45c;" horiz-adv-x="637" 
d="M275 298h2l140 210h215l-181 -241l196 -267h-238l-132 221h-2v-221h-210v508h210v-210zM322 700h189l-112 -132h-143z" />
    <glyph glyph-name="afii10110" unicode="&#x45e;" horiz-adv-x="588" 
d="M62 -173v135c21 -8 37 -10 56 -10c15 0 33 0 50 13c17 12 23 29 26 43l5 22l-199 478h212l101 -317l80 317h195l-179 -500c-16 -45 -36 -107 -76 -144c-27 -25 -74 -50 -156 -50c-25 0 -66 2 -115 13zM369 702h122c-3 -42 -22 -71 -40 -89c-47 -47 -118 -51 -158 -51
s-111 4 -158 51c-18 18 -37 47 -40 89h122c-1 -19 7 -34 18 -44c18 -16 47 -17 58 -17c14 0 40 1 58 17c8 7 19 22 18 44z" />
    <glyph glyph-name="afii10193" unicode="&#x45f;" horiz-adv-x="685" 
d="M275 139h135v369h210v-508h-195v-170h-155v170h-205v508h210v-369z" />
    <glyph glyph-name="afii10146" unicode="&#x462;" horiz-adv-x="775" 
d="M132 520h-132v130h132v50h216v-50h180v-130h-180v-79h147c59 0 148 -7 209 -66c35 -34 61 -85 61 -159c0 -94 -40 -146 -72 -171c-56 -42 -143 -45 -196 -45h-365v520zM348 287v-125h122c18 0 43 6 54 17s15 32 15 47c0 16 -5 33 -16 44c-16 16 -42 17 -61 17h-114z" />
    <glyph glyph-name="afii10194" unicode="&#x463;" horiz-adv-x="669" 
d="M132 508v192h210v-192h150v-116h-150v-63h113c50 0 109 -3 155 -39c47 -37 54 -87 54 -124c0 -67 -25 -106 -49 -127c-40 -35 -94 -39 -143 -39h-340v392h-132v116h132zM342 219v-111h52c9 0 34 1 50 14c14 12 16 28 16 42c0 13 -2 30 -15 42c-14 12 -36 13 -47 13h-56z
" />
    <glyph glyph-name="afii10147" unicode="&#x472;" 
d="M281 425h255c-2 36 -17 68 -36 89c-26 28 -58 36 -90 36c-34 0 -65 -9 -90 -35c-21 -22 -35 -57 -39 -90zM537 281h-260c1 -33 12 -69 33 -93c28 -32 66 -38 95 -38c48 0 76 18 92 35c23 24 37 65 40 96zM40 348c0 129 47 219 99 273c84 87 186 98 268 98
c92 0 197 -15 278 -99c78 -81 93 -187 93 -266c0 -133 -41 -219 -91 -273c-81 -87 -184 -100 -275 -100c-92 0 -200 14 -282 102c-32 34 -90 116 -90 265z" />
    <glyph glyph-name="afii10195" unicode="&#x473;" horiz-adv-x="654" 
d="M244 310h166c-1 23 -9 52 -20 67c-17 23 -41 27 -61 27c-28 0 -48 -11 -61 -27c-12 -15 -22 -42 -24 -67zM412 207h-170c0 -23 7 -57 22 -76c13 -16 34 -27 59 -27c26 0 50 12 63 27c16 19 25 53 26 76zM624 251c0 -99 -40 -160 -77 -196c-68 -65 -156 -73 -231 -73
c-69 0 -151 8 -211 62c-37 34 -75 97 -75 196c0 92 34 161 76 205c66 69 152 81 223 81c61 0 151 -8 219 -73c30 -29 76 -92 76 -202z" />
    <glyph glyph-name="afii10148" unicode="&#x474;" horiz-adv-x="746" 
d="M350 256l8 52l53 206c11 44 28 103 70 144c49 47 113 55 166 55c43 0 81 -4 119 -13v-161c-23 8 -42 10 -56 10c-33 0 -53 -9 -65 -20c-20 -17 -31 -46 -36 -64l-141 -465h-233l-235 700h235l101 -392l9 -52h5z" />
    <glyph glyph-name="afii10196" unicode="&#x475;" horiz-adv-x="588" 
d="M-10 508h198l84 -309l43 156c12 43 24 82 56 114c43 43 99 48 140 48c20 0 53 -2 92 -9v-127c-12 3 -28 5 -39 5c-29 0 -46 -10 -55 -18c-15 -14 -24 -35 -32 -58l-107 -310h-200z" />
    <glyph glyph-name="afii10050" unicode="&#x490;" horiz-adv-x="623" 
d="M303 508v-508h-218v700h355l1 158h160l12 -350h-310z" />
    <glyph glyph-name="afii10098" unicode="&#x491;" horiz-adv-x="522" 
d="M279 371v-371h-214v508h303v133h135l14 -270h-238z" />
    <glyph glyph-name="cyrEndesc" unicode="&#x4a2;" horiz-adv-x="813" 
d="M303 275v-275h-218v700h218v-241h195v241h218v-508h97l-10 -338h-184v146h-121v275h-195z" />
    <glyph glyph-name="cyrendesc" unicode="&#x4a3;" horiz-adv-x="700" 
d="M275 199v-199h-210v508h210v-177h133v177h210v-369h82l-12 -268h-155v129h-125v199h-133z" />
    <glyph glyph-name="cyrstraightU" unicode="&#x4ae;" horiz-adv-x="685" 
d="M342 416l118 284h235l-244 -455v-245h-218v245l-243 455h235z" />
    <glyph glyph-name="cyrstraightu" unicode="&#x4af;" horiz-adv-x="560" 
d="M370 508h195l-180 -487v-234h-210v234l-180 487h195l90 -343z" />
    <glyph glyph-name="cyrH" unicode="&#x4ba;" horiz-adv-x="776" 
d="M716 0h-219v153c0 22 1 66 -22 90c-20 21 -58 26 -89 26c-26 0 -71 -5 -83 -6v-263h-218v700h218v-277c42 5 98 10 143 10c64 0 122 -7 173 -31c88 -42 97 -113 97 -194v-208z" />
    <glyph glyph-name="cyrh" unicode="&#x4bb;" horiz-adv-x="690" 
d="M275 700v-235c28 25 78 58 160 58c68 0 111 -23 136 -47c47 -44 54 -107 54 -171v-305h-210v272c0 16 -1 53 -16 75c-10 15 -25 26 -49 26c-23 0 -41 -9 -55 -29c-13 -19 -20 -47 -20 -74v-270h-210v700h210z" />
    <glyph glyph-name="cyrZhecyrbreve" unicode="&#x4c1;" horiz-adv-x="1024" 
d="M414 0v298l-173 -298h-251l254 379l-242 321h245l167 -262v262h196v-262l167 262h245l-241 -321l253 -379h-251l-173 298v-298h-196zM585 907h141c-2 -49 -23 -83 -42 -103c-44 -45 -113 -51 -172 -51s-128 6 -172 51c-19 20 -40 54 -42 103h141c0 -16 5 -35 15 -45
c15 -16 41 -17 58 -17s43 1 58 17c10 10 15 29 15 45z" />
    <glyph glyph-name="cyrzhecyrbreve" unicode="&#x4c2;" horiz-adv-x="849" 
d="M329 508h190v-197l125 197h201l-176 -241l190 -267h-215l-125 210v-210h-190v210l-124 -210h-215l187 265l-174 243h202l124 -197v197zM491 731h145c0 -53 -24 -90 -45 -111c-46 -46 -113 -54 -166 -54c-37 0 -118 3 -169 54c-22 22 -44 59 -44 111h145
c-1 -17 2 -46 21 -62c11 -9 29 -13 46 -13s35 4 46 13c19 16 22 45 21 62z" />
    <glyph glyph-name="cyrAcyrbreve" unicode="&#x4d0;" horiz-adv-x="710" 
d="M245 99l-32 -99h-226l259 700h215l259 -700h-226l-32 99h-217zM288 243h131l-66 210zM431 900h122c-3 -42 -22 -71 -40 -89c-47 -47 -118 -51 -158 -51s-111 4 -158 51c-18 18 -37 47 -40 89h122c-1 -19 7 -34 18 -44c18 -16 47 -17 58 -17c14 0 40 1 58 17
c8 7 19 22 18 44z" />
    <glyph glyph-name="cyracyrbreve" unicode="&#x4d1;" horiz-adv-x="634" 
d="M249 335h-197c4 49 24 90 51 118c57 59 147 68 214 68c49 0 152 -2 210 -59c47 -45 52 -104 52 -145v-229c0 -36 2 -49 7 -58c5 -10 16 -19 28 -23v-7h-226l-13 55h-2c-16 -19 -38 -37 -62 -49c-37 -19 -79 -24 -114 -24c-40 0 -91 5 -128 39c-20 19 -43 53 -43 110
c0 38 10 71 38 99c40 40 96 50 137 55l60 7c57 7 79 9 93 22c7 7 15 19 15 38c0 17 -7 28 -13 33c-14 13 -38 14 -44 14c-23 0 -38 -7 -47 -16c-10 -10 -17 -29 -16 -48zM369 217v13c-22 -16 -39 -19 -60 -22c-17 -3 -43 -6 -60 -24c-9 -10 -12 -20 -12 -32
c0 -15 6 -26 13 -33c11 -11 24 -13 35 -13c23 0 41 6 57 23c25 26 27 61 27 88zM393 702h122c-3 -42 -22 -71 -40 -89c-47 -47 -118 -51 -158 -51s-111 4 -158 51c-18 18 -37 47 -40 89h122c-1 -19 7 -34 18 -44c18 -16 47 -17 58 -17c14 0 40 1 58 17c8 7 19 22 18 44z" />
    <glyph glyph-name="cyrAdieresis" unicode="&#x4d2;" horiz-adv-x="710" 
d="M245 99l-32 -99h-226l259 700h215l259 -700h-226l-32 99h-217zM288 243h131l-66 210zM134 779v129h172v-129h-172zM403 779v129h172v-129h-172z" />
    <glyph glyph-name="cyradieresis" unicode="&#x4d3;" horiz-adv-x="634" 
d="M249 335h-197c4 49 24 90 51 118c57 59 147 68 214 68c49 0 152 -2 210 -59c47 -45 52 -104 52 -145v-229c0 -36 2 -49 7 -58c5 -10 16 -19 28 -23v-7h-226l-13 55h-2c-16 -19 -38 -37 -62 -49c-37 -19 -79 -24 -114 -24c-40 0 -91 5 -128 39c-20 19 -43 53 -43 110
c0 38 10 71 38 99c40 40 96 50 137 55l60 7c57 7 79 9 93 22c7 7 15 19 15 38c0 17 -7 28 -13 33c-14 13 -38 14 -44 14c-23 0 -38 -7 -47 -16c-10 -10 -17 -29 -16 -48zM369 217v13c-22 -16 -39 -19 -60 -22c-17 -3 -43 -6 -60 -24c-9 -10 -12 -20 -12 -32
c0 -15 6 -26 13 -33c11 -11 24 -13 35 -13c23 0 41 6 57 23c25 26 27 61 27 88zM96 581v129h172v-129h-172zM365 581v129h172v-129h-172z" />
    <glyph glyph-name="cyrAE" unicode="&#x4d4;" horiz-adv-x="1135" 
d="M265 99l-60 -99h-230l426 700h681v-185h-363v-79h311v-165h-311v-86h371v-185h-585v99h-240zM345 243h160v232h-25z" />
    <glyph glyph-name="cyrae" unicode="&#x4d5;" horiz-adv-x="982" 
d="M738 147h206c-18 -70 -61 -109 -100 -131c-56 -32 -123 -34 -167 -34c-68 0 -113 10 -145 26c-41 20 -62 50 -74 72c-19 -30 -47 -58 -79 -74c-25 -13 -65 -24 -140 -24c-90 0 -138 18 -165 40c-28 23 -48 62 -48 110c0 52 24 89 49 110c37 31 89 39 126 43l79 9
c47 5 64 14 71 19c11 8 18 21 18 37c0 14 -7 29 -17 37c-12 9 -32 12 -45 12c-28 0 -42 -10 -48 -16c-11 -11 -17 -32 -18 -48h-189c4 63 34 103 55 124c54 54 126 62 188 62c100 0 149 -25 187 -67c26 30 74 72 186 72c96 0 163 -31 204 -71c73 -71 80 -174 80 -231v-12
h-373c0 -25 7 -61 26 -82c20 -21 47 -24 62 -24c17 0 34 3 48 11c13 8 20 17 23 30zM365 222c-19 -13 -33 -17 -54 -20c-25 -4 -46 -5 -61 -15c-7 -5 -20 -17 -20 -41c0 -18 9 -29 15 -34c13 -11 30 -12 43 -12c16 0 36 4 52 22c20 23 25 70 25 100zM580 312h156
c0 24 -9 54 -23 69c-15 16 -35 20 -52 20c-16 0 -40 -2 -57 -21c-14 -15 -23 -43 -24 -68z" />
    <glyph glyph-name="cyrIecyrbreve" unicode="&#x4d6;" horiz-adv-x="719" 
d="M303 436h311v-165h-311v-86h371v-185h-589v700h581v-185h-363v-79zM459 900h122c-3 -42 -22 -71 -40 -89c-47 -47 -118 -51 -158 -51s-111 4 -158 51c-18 18 -37 47 -40 89h122c-1 -19 7 -34 18 -44c18 -16 47 -17 58 -17c14 0 40 1 58 17c8 7 19 22 18 44z" />
    <glyph glyph-name="cyriecyrbreve" unicode="&#x4d7;" horiz-adv-x="648" 
d="M404 147h206c-14 -43 -41 -92 -101 -127c-64 -37 -132 -38 -185 -38c-79 0 -162 7 -225 70c-39 39 -69 102 -69 187c0 81 28 155 76 205c62 65 142 82 220 82c116 0 183 -35 222 -75c69 -71 70 -167 70 -227v-12h-373c-1 -27 6 -59 19 -77c13 -17 33 -29 64 -29
c15 0 36 2 50 10c16 9 23 21 26 31zM246 312h156c0 22 -8 53 -22 68c-15 17 -35 21 -52 21c-21 0 -42 -5 -57 -22c-16 -17 -24 -46 -25 -67zM400 702h122c-3 -42 -22 -71 -40 -89c-47 -47 -118 -51 -158 -51s-111 4 -158 51c-18 18 -37 47 -40 89h122c-1 -19 7 -34 18 -44
c18 -16 47 -17 58 -17c14 0 40 1 58 17c8 7 19 22 18 44z" />
    <glyph glyph-name="cyrZhedieresis" unicode="&#x4dc;" horiz-adv-x="1024" 
d="M414 0v298l-173 -298h-251l254 379l-242 321h245l167 -262v262h196v-262l167 262h245l-241 -321l253 -379h-251l-173 298v-298h-196zM291 779v129h172v-129h-172zM560 779v129h172v-129h-172z" />
    <glyph glyph-name="cyrzhedieresis" unicode="&#x4dd;" horiz-adv-x="849" 
d="M329 508h190v-197l125 197h201l-176 -241l190 -267h-215l-125 210v-210h-190v210l-124 -210h-215l187 265l-174 243h202l124 -197v197zM200 581v129h172v-129h-172zM469 581v129h172v-129h-172z" />
    <glyph glyph-name="cyrZedieresis" unicode="&#x4de;" horiz-adv-x="761" 
d="M35 249h211c1 -49 29 -77 33 -81c29 -27 69 -30 95 -30c56 0 80 14 86 18c21 13 34 37 34 64c0 25 -12 40 -33 50c-20 9 -57 13 -84 13h-62v138h70c40 0 57 9 66 15c15 11 23 31 23 50c0 20 -9 42 -28 57c-23 18 -55 20 -75 20c-25 0 -57 -3 -81 -29
c-17 -19 -23 -44 -22 -74h-212c-1 91 36 145 63 172c71 72 188 84 268 84c113 0 208 -16 269 -75c26 -25 53 -66 53 -127c0 -43 -15 -80 -36 -103c-18 -20 -47 -37 -82 -41v-6c39 -7 72 -26 93 -48c32 -32 42 -71 42 -110c0 -66 -22 -122 -82 -164
c-78 -56 -178 -60 -263 -60c-79 0 -178 4 -251 61c-70 54 -93 140 -95 206zM162 779v129h172v-129h-172zM431 779v129h172v-129h-172z" />
    <glyph glyph-name="cyrzedieresis" unicode="&#x4df;" horiz-adv-x="614" 
d="M25 181h190c0 -21 7 -41 19 -54c20 -22 50 -23 69 -23c21 0 45 1 62 17c10 10 16 23 16 37c0 16 -9 30 -19 37c-16 12 -39 12 -53 12h-46v103h33c19 0 41 1 55 12c5 4 15 15 15 35c0 16 -8 29 -19 37c-13 9 -36 13 -52 13c-23 0 -45 -7 -58 -20c-8 -9 -19 -26 -18 -58
h-183c3 60 29 104 53 129c50 52 127 69 220 69c89 0 171 -14 216 -55c28 -25 43 -60 43 -95c0 -28 -9 -56 -28 -75c-16 -16 -40 -27 -63 -30v-6c30 -4 62 -18 80 -36c18 -17 32 -45 32 -80c0 -47 -24 -99 -78 -131c-26 -15 -79 -37 -192 -37c-80 0 -182 4 -243 66
c-25 26 -52 70 -51 133zM86 581v129h172v-129h-172zM355 581v129h172v-129h-172z" />
    <glyph glyph-name="cyrImacron" unicode="&#x4e2;" horiz-adv-x="805" 
d="M297 325l211 375h212v-700h-212v379l-211 -379h-212v700h212v-375zM199 779v96h406v-96h-406z" />
    <glyph glyph-name="cyrimacron" unicode="&#x4e3;" horiz-adv-x="717" 
d="M265 222l179 286h208v-508h-200v260l4 27h-4l-179 -287h-208v508h200v-260l-4 -26h4zM155 590v96h406v-96h-406z" />
    <glyph glyph-name="cyrIdieresis" unicode="&#x4e4;" horiz-adv-x="805" 
d="M297 325l211 375h212v-700h-212v379l-211 -379h-212v700h212v-375zM182 779v129h172v-129h-172zM451 779v129h172v-129h-172z" />
    <glyph glyph-name="cyridieresis" unicode="&#x4e5;" horiz-adv-x="717" 
d="M265 222l179 286h208v-508h-200v260l4 27h-4l-179 -287h-208v508h200v-260l-4 -26h4zM138 581v129h172v-129h-172zM407 581v129h172v-129h-172z" />
    <glyph glyph-name="cyrOdieresis" unicode="&#x4e6;" 
d="M40 348c0 129 47 219 99 273c84 87 186 98 267 98c93 0 198 -16 279 -99c78 -81 93 -187 93 -266c0 -133 -41 -219 -91 -273c-81 -87 -184 -100 -275 -100c-92 0 -200 14 -282 102c-32 34 -90 116 -90 265zM272 350c0 -38 5 -106 44 -148c26 -27 58 -37 93 -37
c34 0 68 8 94 37c32 35 43 97 43 148s-7 110 -43 148c-26 27 -56 37 -90 37c-35 0 -68 -9 -95 -37c-40 -42 -46 -110 -46 -148zM188 779v129h172v-129h-172zM457 779v129h172v-129h-172z" />
    <glyph glyph-name="cyrodieresis" unicode="&#x4e7;" horiz-adv-x="654" 
d="M327 394c-21 0 -35 -7 -48 -20c-22 -23 -33 -60 -33 -120c0 -58 10 -97 34 -121c14 -14 29 -19 47 -19c21 0 35 7 48 20c22 23 33 60 33 120s-11 97 -33 120c-13 13 -27 20 -48 20zM624 255c0 -95 -34 -159 -76 -199c-68 -65 -160 -74 -221 -74c-63 0 -154 10 -221 74
c-30 29 -76 91 -76 199c0 92 36 158 77 197c67 65 160 74 221 74c52 0 149 -5 221 -74c44 -42 75 -105 75 -197zM106 581v129h172v-129h-172zM375 581v129h172v-129h-172z" />
    <glyph glyph-name="cyrObar" unicode="&#x4e8;" 
d="M281 425h255c-2 36 -17 68 -36 89c-26 28 -58 36 -90 36c-34 0 -65 -9 -90 -35c-21 -22 -35 -57 -39 -90zM537 281h-260c1 -33 12 -69 33 -93c28 -32 66 -38 95 -38c48 0 76 18 92 35c23 24 37 65 40 96zM40 348c0 129 47 219 99 273c84 87 186 98 268 98
c92 0 197 -15 278 -99c78 -81 93 -187 93 -266c0 -133 -41 -219 -91 -273c-81 -87 -184 -100 -275 -100c-92 0 -200 14 -282 102c-32 34 -90 116 -90 265z" />
    <glyph glyph-name="cyrobar" unicode="&#x4e9;" horiz-adv-x="654" 
d="M244 310h166c-1 23 -9 52 -20 67c-17 23 -41 27 -61 27c-28 0 -48 -11 -61 -27c-12 -15 -22 -42 -24 -67zM412 207h-170c0 -23 7 -57 22 -76c13 -16 34 -27 59 -27c26 0 50 12 63 27c16 19 25 53 26 76zM624 251c0 -99 -40 -160 -77 -196c-68 -65 -156 -73 -231 -73
c-69 0 -151 8 -211 62c-37 34 -75 97 -75 196c0 92 34 161 76 205c66 69 152 81 223 81c61 0 151 -8 219 -73c30 -29 76 -92 76 -202z" />
    <glyph glyph-name="cyrObardieresis" unicode="&#x4ea;" 
d="M281 425h255c-2 36 -17 68 -36 89c-26 28 -58 36 -90 36c-34 0 -65 -9 -90 -35c-21 -22 -35 -57 -39 -90zM537 281h-260c1 -33 12 -69 33 -93c28 -32 66 -38 95 -38c48 0 76 18 92 35c23 24 37 65 40 96zM40 348c0 129 47 219 99 273c84 87 186 98 268 98
c92 0 197 -15 278 -99c78 -81 93 -187 93 -266c0 -133 -41 -219 -91 -273c-81 -87 -184 -100 -275 -100c-92 0 -200 14 -282 102c-32 34 -90 116 -90 265zM188 779v129h172v-129h-172zM457 779v129h172v-129h-172z" />
    <glyph glyph-name="cyrobardieresis" unicode="&#x4eb;" horiz-adv-x="654" 
d="M244 310h166c-1 23 -9 52 -20 67c-17 23 -41 27 -61 27c-28 0 -48 -11 -61 -27c-12 -15 -22 -42 -24 -67zM412 207h-170c0 -23 7 -57 22 -76c13 -16 34 -27 59 -27c26 0 50 12 63 27c16 19 25 53 26 76zM624 251c0 -99 -40 -160 -77 -196c-68 -65 -156 -73 -231 -73
c-69 0 -151 8 -211 62c-37 34 -75 97 -75 196c0 92 34 161 76 205c66 69 152 81 223 81c61 0 151 -8 219 -73c30 -29 76 -92 76 -202zM106 581v129h172v-129h-172zM375 581v129h172v-129h-172z" />
    <glyph glyph-name="cyrUmacron" unicode="&#x4ee;" horiz-adv-x="661" 
d="M352 392l95 308h227l-221 -535c-19 -46 -45 -97 -91 -133c-53 -41 -103 -41 -145 -41c-48 0 -84 1 -136 20v174c19 -10 44 -17 74 -17c19 0 63 4 80 49l-235 483h239zM140 779v96h406v-96h-406z" />
    <glyph glyph-name="cyrumacron" unicode="&#x4ef;" horiz-adv-x="588" 
d="M62 -173v135c21 -8 37 -10 56 -10c15 0 33 0 50 13c17 12 23 29 26 43l5 22l-199 478h212l101 -317l80 317h195l-179 -500c-16 -45 -36 -107 -76 -144c-27 -25 -74 -50 -156 -50c-25 0 -66 2 -115 13zM90 590v96h406v-96h-406z" />
    <glyph glyph-name="cyrUdieresis" unicode="&#x4f0;" horiz-adv-x="661" 
d="M352 392l95 308h227l-221 -535c-19 -46 -45 -97 -91 -133c-53 -41 -103 -41 -145 -41c-48 0 -84 1 -136 20v174c19 -10 44 -17 74 -17c19 0 63 4 80 49l-235 483h239zM112 779v129h172v-129h-172zM381 779v129h172v-129h-172z" />
    <glyph glyph-name="cyrudieresis" unicode="&#x4f1;" horiz-adv-x="588" 
d="M62 -173v135c21 -8 37 -10 56 -10c15 0 33 0 50 13c17 12 23 29 26 43l5 22l-199 478h212l101 -317l80 317h195l-179 -500c-16 -45 -36 -107 -76 -144c-27 -25 -74 -50 -156 -50c-25 0 -66 2 -115 13zM72 581v129h172v-129h-172zM341 581v129h172v-129h-172z" />
    <glyph glyph-name="cyrUdblacute" unicode="&#x4f2;" horiz-adv-x="661" 
d="M352 392l95 308h227l-221 -535c-19 -46 -45 -97 -91 -133c-53 -41 -103 -41 -145 -41c-48 0 -84 1 -136 20v174c19 -10 44 -17 74 -17c19 0 63 4 80 49l-235 483h239zM192 908h187l-97 -132h-147zM425 908h188l-98 -132h-147z" />
    <glyph glyph-name="cyrudblacute" unicode="&#x4f3;" horiz-adv-x="588" 
d="M62 -173v135c21 -8 37 -10 56 -10c15 0 33 0 50 13c17 12 23 29 26 43l5 22l-199 478h212l101 -317l80 317h195l-179 -500c-16 -45 -36 -107 -76 -144c-27 -25 -74 -50 -156 -50c-25 0 -66 2 -115 13zM131 710h187l-97 -132h-147zM364 710h188l-98 -132h-147z" />
    <glyph glyph-name="cyrChedieresis" unicode="&#x4f4;" horiz-adv-x="741" 
d="M35 700h209v-162c0 -29 1 -68 23 -90c24 -25 67 -25 86 -25c27 0 58 3 85 7v270h218v-700h-218v271c-42 -4 -94 -8 -129 -8c-127 0 -181 30 -198 42c-64 43 -76 111 -76 182v213zM125 779v129h172v-129h-172zM394 779v129h172v-129h-172z" />
    <glyph glyph-name="cyrchedieresis" unicode="&#x4f5;" horiz-adv-x="620" 
d="M26 508h198v-133c0 -17 0 -41 13 -56c16 -18 48 -19 63 -19s29 1 45 4v204h210v-508h-210v183c-34 -5 -65 -7 -96 -7c-59 0 -136 6 -181 49c-36 34 -42 80 -42 139v144zM75 581v129h172v-129h-172zM344 581v129h172v-129h-172z" />
    <glyph glyph-name="cyrYerudieresis" unicode="&#x4f8;" horiz-adv-x="1062" 
d="M759 700h218v-700h-218v700zM302 700v-237h139c63 0 151 -10 211 -70c28 -28 60 -78 60 -163c0 -74 -25 -135 -61 -170c-60 -58 -157 -60 -209 -60h-357v700h217zM302 297v-125h114c22 0 47 5 61 18s16 32 16 46c0 17 -4 33 -21 46c-16 12 -39 15 -56 15h-114zM310 779
v129h172v-129h-172zM579 779v129h172v-129h-172z" />
    <glyph glyph-name="cyryerudieresis" unicode="&#x4f9;" horiz-adv-x="908" 
d="M635 508h208v-508h-208v508zM275 508v-174h102c36 0 119 -2 167 -47c22 -21 45 -59 45 -119c0 -58 -20 -99 -45 -123c-44 -42 -113 -45 -147 -45h-332v508h210zM275 224v-117h52c17 0 39 4 51 14c13 11 18 31 18 47c0 23 -11 36 -20 43c-12 9 -32 13 -50 13h-51zM233 581
v129h172v-129h-172zM502 581v129h172v-129h-172z" />
    <glyph glyph-name="endash" unicode="&#x2013;" horiz-adv-x="672" 
d="M53 310h566v-85h-566v85z" />
    <glyph glyph-name="emdash" unicode="&#x2014;" horiz-adv-x="766" 
d="M53 258v85h660v-85h-660z" />
    <glyph glyph-name="quoteleft" unicode="&#x2018;" horiz-adv-x="332" 
d="M262 682v-180h-192v155c0 46 7 111 55 156c44 42 100 45 132 45h5v-91h-4c-26 0 -53 -1 -74 -23c-14 -15 -23 -38 -23 -62h101z" />
    <glyph glyph-name="quoteright" unicode="&#x2019;" horiz-adv-x="337" 
d="M92 678v180h192v-155c0 -46 -7 -111 -55 -156c-44 -42 -100 -45 -132 -45h-5v91h4c26 0 53 1 74 23c14 15 23 38 23 62h-101z" />
    <glyph glyph-name="quotesinglbase" unicode="&#x201a;" horiz-adv-x="332" 
d="M70 14v180h192v-155c0 -46 -7 -111 -55 -156c-44 -42 -100 -45 -132 -45h-5v91h4c26 0 53 1 74 23c14 15 23 38 23 62h-101z" />
    <glyph glyph-name="quotedblleft" unicode="&#x201c;" horiz-adv-x="572" 
d="M502 682v-180h-192v157c0 48 8 110 54 154c44 42 100 45 132 45h6v-91h-4c-20 0 -51 1 -75 -23c-14 -15 -23 -38 -23 -62h102zM262 682v-180h-192v155c0 46 7 111 55 156c44 42 100 45 132 45h5v-91h-4c-26 0 -53 -1 -74 -23c-14 -15 -23 -38 -23 -62h101z" />
    <glyph glyph-name="quotedblright" unicode="&#x201d;" horiz-adv-x="572" 
d="M70 678v180h192v-157c0 -48 -8 -110 -54 -154c-44 -42 -100 -45 -132 -45h-6v91h4c20 0 51 -1 75 23c14 15 23 38 23 62h-102zM310 678v180h192v-155c0 -46 -7 -111 -55 -156c-44 -42 -100 -45 -132 -45h-5v91h4c26 0 53 1 74 23c14 15 23 38 23 62h-101z" />
    <glyph glyph-name="quotedblbase" unicode="&#x201e;" horiz-adv-x="572" 
d="M70 0v180h192v-157c0 -48 -8 -110 -54 -154c-44 -42 -100 -45 -132 -45h-6v91h4c20 0 51 -1 75 23c14 15 23 38 23 62h-102zM310 0v180h192v-155c0 -46 -7 -111 -55 -156c-44 -42 -100 -45 -132 -45h-5v91h4c26 0 53 1 74 23c14 15 23 38 23 62h-101z" />
    <glyph glyph-name="dagger" unicode="&#x2020;" horiz-adv-x="661" 
d="M232 700h198v-182h206v-186h-206v-517h-198v517h-207v186h207v182z" />
    <glyph glyph-name="daggerdbl" unicode="&#x2021;" horiz-adv-x="661" 
d="M232 700h198v-182h206v-182h-206v-143h206v-182h-206v-196h-198v196h-207v182h207v143h-207v182h207v182z" />
    <glyph glyph-name="bullet" unicode="&#x2022;" horiz-adv-x="711" 
d="M155 365c0 110 88 200 198 200c111 0 198 -90 198 -200c0 -107 -86 -198 -198 -198c-111 0 -198 90 -198 198z" />
    <glyph glyph-name="ellipsis" unicode="&#x2026;" horiz-adv-x="1119" 
d="M70 0v206h213v-206h-213zM453 0v206h213v-206h-213zM836 0v206h213v-206h-213z" />
    <glyph glyph-name="perthousand" unicode="&#x2030;" horiz-adv-x="1325" 
d="M400 522c0 -77 -30 -124 -59 -151c-24 -23 -67 -49 -133 -49c-58 0 -104 20 -134 48c-29 27 -59 76 -59 152c0 77 31 124 59 151c24 22 67 49 134 49c66 0 109 -26 133 -49c29 -27 59 -74 59 -151zM206 607c-23 0 -36 -12 -43 -22c-12 -16 -15 -41 -15 -63
c0 -13 1 -45 17 -65c9 -12 24 -20 41 -20c19 0 33 9 41 20c12 16 17 43 17 65c0 14 0 45 -16 65c-6 8 -19 20 -42 20zM161 0l472 713h101l-467 -713h-106zM870 178c0 -77 -30 -124 -59 -151c-24 -23 -67 -49 -133 -49c-58 0 -104 20 -134 48c-29 27 -59 76 -59 152
c0 77 31 124 59 151c24 22 67 49 134 49c66 0 109 -26 133 -49c29 -27 59 -74 59 -151zM676 263c-23 0 -36 -12 -43 -22c-12 -16 -15 -41 -15 -63c0 -13 1 -45 17 -65c9 -12 24 -20 41 -20c19 0 33 9 41 20c12 16 17 43 17 65c0 14 0 45 -16 65c-6 8 -19 20 -42 20z
M1310 178c0 -77 -30 -124 -59 -151c-24 -23 -67 -49 -133 -49c-58 0 -104 20 -134 48c-29 27 -59 76 -59 152c0 77 31 124 59 151c24 22 67 49 134 49c66 0 109 -26 133 -49c29 -27 59 -74 59 -151zM1116 263c-23 0 -36 -12 -43 -22c-12 -16 -15 -41 -15 -63
c0 -13 1 -45 17 -65c9 -12 24 -20 41 -20c19 0 33 9 41 20c12 16 17 43 17 65c0 14 0 45 -16 65c-6 8 -19 20 -42 20z" />
    <glyph glyph-name="guilsinglleft" unicode="&#x2039;" horiz-adv-x="270" 
d="M40 356l150 139v-177l-65 -53l65 -55v-179l-150 140v185z" />
    <glyph glyph-name="guilsinglright" unicode="&#x203a;" horiz-adv-x="271" 
d="M231 356v-185l-151 -140v177l66 54l-66 55v179z" />
    <glyph glyph-name="fraction" unicode="&#x2044;" horiz-adv-x="788" 
d="M35 0l600 700h108l-600 -700h-108z" />
    <glyph glyph-name="Euro" unicode="&#x20ac;" horiz-adv-x="720" 
d="M650 222v-186c-31 -18 -60 -29 -84 -36c-46 -14 -96 -20 -138 -20c-150 0 -226 54 -255 81c-53 49 -85 125 -94 193h-99l40 78h54c-2 14 -3 29 0 46h-91l40 78h58c18 83 61 144 104 181c58 50 145 82 269 82c85 0 165 -19 236 -79l-94 -149c-53 55 -114 61 -148 61
c-31 0 -68 -5 -98 -31c-15 -12 -32 -33 -39 -65h263l-40 -78h-238c-3 -15 -3 -31 0 -46h220l-40 -78h-172c7 -34 25 -59 49 -76c23 -16 56 -29 104 -29c38 0 70 8 108 24c34 14 61 31 85 49z" />
    <glyph glyph-name="afii61352" unicode="&#x2116;" horiz-adv-x="1264" 
d="M808 0v137h390v-137h-390zM1006 608c42 0 98 -6 143 -51c19 -19 55 -64 55 -146c0 -74 -28 -122 -57 -151c-46 -46 -103 -53 -148 -53c-48 0 -103 11 -145 53c-27 27 -53 72 -53 143c0 66 24 124 63 159c44 39 99 46 142 46zM1005 506c-17 0 -31 -4 -44 -18
c-16 -17 -25 -47 -25 -78c0 -29 7 -61 21 -79c11 -14 26 -22 47 -22c22 0 36 11 47 27c6 9 18 32 18 75c0 13 -1 55 -22 78c-12 14 -26 17 -42 17zM303 392h-5l5 -53v-339h-218v700h218l214 -392h5l-5 53v339h218v-700h-218z" />
    <glyph glyph-name="published" unicode="&#x2117;" horiz-adv-x="720" 
d="M10 350c0 89 35 180 103 248c74 73 168 102 247 102s173 -29 247 -102c68 -68 103 -159 103 -248s-35 -180 -103 -248c-67 -67 -157 -102 -247 -102c-52 0 -156 12 -247 103s-103 195 -103 247zM90 350c0 -67 27 -140 78 -191c52 -52 125 -79 192 -79c68 0 139 26 192 80
c56 57 78 128 78 190c0 68 -26 139 -81 193c-56 55 -127 77 -189 77c-69 0 -139 -26 -192 -80c-56 -57 -78 -128 -78 -190zM228 522h172c29 0 71 -3 102 -33c28 -27 31 -63 31 -89c0 -28 -5 -63 -32 -89c-32 -31 -71 -30 -101 -30h-67v-99h-105v340zM333 430v-68h51
c18 0 26 3 31 6c11 7 12 20 12 27c0 3 0 18 -8 26c-9 10 -25 9 -35 9h-51z" />
    <glyph glyph-name="trademark" unicode="&#x2122;" horiz-adv-x="1010" 
d="M135 606h-115v94h376v-97h-114v-255h-147v258zM658 348l-73 217h-4l4 -22v-195h-133v352h182l68 -221h3l68 221h182v-352h-133v195l4 22h-4l-72 -217h-92z" />
    <glyph glyph-name="partialdiff" unicode="&#x2202;" horiz-adv-x="664" 
d="M235 680l31 90c81 -5 212 -31 292 -111c74 -74 86 -169 86 -231c0 -111 -37 -269 -124 -359c-79 -81 -166 -88 -241 -88c-65 0 -136 8 -193 61c-35 32 -66 85 -66 169c0 92 37 163 85 210c61 60 136 81 218 81c25 0 90 -3 138 -33c25 -16 51 -41 64 -80h8v7
c0 65 -4 126 -66 189c-64 65 -165 87 -232 95zM347 374c-29 0 -56 -13 -75 -34c-30 -33 -52 -101 -52 -156c0 -16 2 -37 15 -53s30 -22 49 -22c20 0 43 6 65 26c38 35 63 115 63 163c0 30 -9 48 -19 58c-11 11 -27 18 -46 18z" />
    <glyph glyph-name="product" unicode="&#x220f;" horiz-adv-x="772" 
d="M299 516v-701h-214v701h-55v184h712v-184h-55v-701h-214v701h-174z" />
    <glyph glyph-name="summation" unicode="&#x2211;" horiz-adv-x="604" 
d="M10 700h581v-185h-363l210 -250l-220 -287h381v-185h-589v170l234 302l-234 270v165z" />
    <glyph glyph-name="minus" unicode="&#x2212;" horiz-adv-x="675" 
d="M53 390h566v-85h-566v85z" />
    <glyph glyph-name="division" unicode="&#x2215;" horiz-adv-x="452" 
d="M0 -185l367 885h85l-367 -885h-85z" />
    <glyph glyph-name="radical" unicode="&#x221a;" horiz-adv-x="765" 
d="M286 515l114 -383l116 717h229v-91h-133l-152 -858h-136l-168 524h-136v91h266z" />
    <glyph glyph-name="infinity" unicode="&#x221e;" horiz-adv-x="1015" 
d="M486 287c-19 -24 -58 -66 -89 -87c-41 -28 -90 -43 -135 -43c-65 0 -114 25 -144 58c-21 23 -48 64 -48 129c0 55 15 104 57 145c45 44 96 57 155 57c58 0 101 -13 146 -41c36 -22 70 -53 98 -94c22 29 61 70 92 92c41 28 90 43 135 43c65 0 114 -25 144 -58
c21 -23 48 -64 48 -129c0 -55 -15 -104 -57 -145c-45 -44 -96 -57 -155 -57c-58 0 -102 13 -146 41c-33 21 -72 56 -101 89zM444 336c-19 30 -60 82 -89 105c-24 19 -58 35 -103 35c-32 0 -64 -8 -89 -36c-26 -29 -30 -64 -30 -91c0 -28 5 -61 32 -88c28 -28 63 -34 96 -34
c44 0 74 11 106 33c28 19 55 46 77 76zM566 366c23 -35 62 -83 90 -104c30 -23 64 -35 103 -35c32 0 64 8 89 36c26 29 30 64 30 91c0 28 -5 61 -32 88c-28 28 -63 34 -96 34c-44 0 -74 -11 -106 -33c-42 -28 -70 -66 -78 -77z" />
    <glyph glyph-name="integral" unicode="&#x222b;" horiz-adv-x="415" 
d="M172 130l-85 207c-17 41 -47 125 -47 197c0 63 20 105 42 130c24 27 69 57 143 57c32 0 72 -5 106 -27c34 -23 44 -52 44 -74c0 -17 -5 -28 -16 -38c-13 -12 -26 -14 -40 -14c-16 0 -31 2 -44 15s-12 25 -15 38c-4 16 -15 32 -39 32c-12 0 -22 -4 -31 -14
c-13 -14 -15 -32 -15 -45c0 -29 9 -60 22 -95c3 -7 11 -29 46 -114l85 -207c14 -35 47 -122 47 -197c0 -63 -20 -105 -42 -130c-24 -27 -69 -57 -143 -57c-32 0 -72 5 -106 27c-34 23 -44 52 -44 74c0 17 5 28 16 38c13 12 26 14 40 14c16 0 31 -2 44 -15s12 -25 15 -38
c4 -16 15 -32 39 -32c12 0 22 4 31 14c13 14 15 32 15 45c0 29 -9 60 -22 95c-3 7 -11 29 -46 114z" />
    <glyph glyph-name="approxequal" unicode="&#x2248;" horiz-adv-x="661" 
d="M125 356l-75 46c15 33 38 68 58 89c30 31 60 45 106 45c43 0 76 -12 112 -33l48 -28c24 -14 53 -28 80 -28c22 0 39 9 49 20c8 8 20 30 24 37l74 -45c-10 -30 -30 -70 -55 -96c-29 -29 -59 -39 -95 -39c-46 0 -84 17 -113 33l-57 32c-24 13 -45 24 -74 24
c-22 0 -40 -6 -55 -21c-9 -9 -20 -24 -27 -36zM135 145l-75 46c14 28 37 66 57 87c29 30 65 47 110 47c44 0 77 -17 103 -31l64 -36c16 -9 41 -22 66 -22c24 0 40 10 48 17c10 9 22 27 29 40l74 -45c-10 -28 -35 -76 -59 -100c-30 -29 -61 -35 -93 -35c-43 0 -71 11 -102 28
l-73 41c-20 11 -41 20 -68 20c-22 0 -40 -7 -54 -20c-9 -9 -20 -23 -27 -37z" />
    <glyph glyph-name="notequal" unicode="&#x2260;" horiz-adv-x="666" 
d="M50 462h295l46 110h85l-46 -110h186v-85h-221l-40 -95h261v-85h-296l-46 -110h-85l46 110h-185v85h220l40 95h-260v85z" />
    <glyph glyph-name="lessequal" unicode="&#x2264;" horiz-adv-x="658" 
d="M41 178l41 75l506 -293l-41 -75zM142 413l456 -255l-41 -80l-506 283v104l506 283l41 -80z" />
    <glyph glyph-name="greaterequal" unicode="&#x2265;" horiz-adv-x="658" 
d="M617 178l-506 -293l-41 75l506 293zM516 413l-456 255l41 80l506 -283v-104l-506 -283l-41 80z" />
    <glyph glyph-name="lozenge" unicode="&#x25ca;" horiz-adv-x="481" 
d="M431 350l-190 -350l-191 350l191 350zM321 350l-80 165l-80 -165l82 -165z" />
    <glyph glyph-name="openbullet" unicode="&#x25e6;" horiz-adv-x="328" 
d="M40 605c0 68 56 124 124 124s124 -56 124 -124s-56 -124 -124 -124s-124 56 -124 124zM110 605c0 -30 24 -54 54 -54s54 24 54 54s-24 54 -54 54s-54 -24 -54 -54z" />
    <glyph glyph-name="star" unicode="&#x2606;" horiz-adv-x="1092" 
d="M319 560v-10c-71 -41 -122 -44 -148 -44c-47 0 -74 10 -87 15c12 68 35 117 55 151c131 49 256 69 401 69s278 -19 413 -69c20 -34 43 -83 55 -151c-13 -5 -40 -15 -87 -15c-26 0 -77 3 -148 44v10c-9 37 -31 72 -227 72s-218 -35 -227 -72zM319 521v-18
c0 -56 -19 -111 -142 -111c-89 0 -93 34 -93 85v21c49 -15 70 -16 90 -16c73 0 121 25 145 39zM773 503v18c24 -14 72 -39 145 -39c20 0 41 1 90 16v-21c0 -51 -4 -85 -93 -85c-123 0 -142 55 -142 111zM473 494h146v66h108v-91l126 -204c41 -66 49 -114 49 -151v-114h-712
v114c0 37 8 85 49 151l126 204v91h108v-66z" />
    <glyph glyph-name="Accent" unicode="&#xf401;" horiz-adv-x="2" 
d="M-378 908h199l-112 -142h-153z" />
    <glyph glyph-name="Breve" unicode="&#xf406;" horiz-adv-x="496" 
d="M324 900h122c-3 -42 -22 -71 -40 -89c-47 -47 -118 -51 -158 -51s-111 4 -158 51c-18 18 -37 47 -40 89h122c-1 -19 7 -34 18 -44c18 -16 47 -17 58 -17c14 0 40 1 58 17c8 7 19 22 18 44z" />
    <glyph glyph-name="Cedilla" unicode="&#xf407;" horiz-adv-x="333" 
d="M37 -234l24 70c21 -6 43 -10 63 -10c8 0 30 0 41 5c15 6 18 17 18 25c0 17 -11 23 -23 26c-6 1 -20 4 -68 4h-14l23 67c19 2 36 2 51 2c63 0 91 -13 103 -20c29 -18 42 -44 42 -77c0 -48 -26 -74 -43 -85c-32 -22 -75 -23 -102 -23c-62 0 -92 7 -115 16z" />
    <glyph glyph-name="Circumflex" unicode="&#xf408;" horiz-adv-x="574" 
d="M287 849l-77 -83h-160l125 132h224l125 -132h-160z" />
    <glyph glyph-name="Commaaccent" unicode="&#xf409;" horiz-adv-x="307" 
d="M70 -195v132h167v-103c0 -44 -3 -102 -45 -143c-32 -31 -82 -42 -122 -43v75c20 -1 53 2 73 23c16 17 17 37 17 55v4h-90z" />
    <glyph glyph-name="Apostrophe" unicode="&#xf40a;" horiz-adv-x="311" 
d="M70 544v156h171v-127c0 -41 -2 -98 -41 -140c-37 -40 -95 -48 -130 -49v77c26 1 54 4 71 21c7 7 19 24 19 58v4h-90z" />
    <glyph glyph-name="Dotaccent" unicode="&#xf40b;" horiz-adv-x="272" 
d="M50 779v129h172v-129h-172z" />
    <glyph glyph-name="Ring" unicode="&#xf40c;" horiz-adv-x="322" 
d="M50 872c0 62 48 112 111 112s111 -50 111 -112c0 -61 -47 -111 -111 -111s-111 50 -111 111zM115 872c0 -26 20 -46 46 -46s46 20 46 46c0 30 -26 47 -46 47s-46 -17 -46 -47z" />
    <glyph glyph-name="Tilde" unicode="&#xf40d;" horiz-adv-x="536" 
d="M380 901h106c-5 -38 -23 -81 -47 -105c-23 -24 -48 -30 -76 -30c-33 0 -57 11 -79 21l-30 14c-18 9 -35 16 -56 16c-9 0 -20 -2 -29 -11c-6 -7 -11 -18 -12 -29h-107c5 30 19 67 41 93c25 29 52 40 89 40c33 0 52 -9 74 -19l26 -12c24 -11 43 -20 61 -20c10 0 21 3 27 10
c7 8 11 23 12 32z" />
    <glyph glyph-name="Ogonek" unicode="&#xf40e;" horiz-adv-x="408" 
d="M155 0h105c-47 -37 -71 -88 -71 -130c0 -13 4 -32 14 -42c8 -9 22 -13 34 -13c18 0 28 9 34 19c7 11 9 28 6 42h107c-1 -41 -18 -74 -36 -95c-37 -42 -86 -45 -120 -45c-31 0 -78 4 -113 34c-16 14 -40 42 -40 90c0 65 47 114 80 140z" />
    <glyph glyph-name="Udotaccent" unicode="&#xf47e;" 
d="M733 700v-438c0 -67 -5 -135 -68 -199s-153 -82 -255 -82c-101 0 -194 18 -257 82c-60 61 -68 129 -68 200v437h219v-428c0 -28 4 -64 27 -88c24 -25 57 -27 78 -27s54 2 78 27c23 24 27 60 27 88v428h219zM323 779v129h172v-129h-172z" />
    <glyph glyph-name="udotaccent" unicode="&#xf47f;" horiz-adv-x="689" 
d="M429 0v56h-5c-55 -59 -120 -70 -173 -70c-43 0 -94 7 -133 45c-52 51 -53 131 -53 173v304h210v-273c0 -45 9 -66 17 -77c13 -18 32 -22 50 -22c23 0 38 7 51 25c19 25 21 58 21 77v270h210v-508h-195zM258 581v129h172v-129h-172z" />
    <glyph glyph-name="Acedilla" unicode="&#xf481;" horiz-adv-x="710" 
d="M245 99l-32 -99h-226l259 700h215l259 -700h-226l-32 99h-217zM288 243h131l-66 210zM226 -234l24 70c21 -6 43 -10 63 -10c8 0 30 0 41 5c15 6 18 17 18 25c0 17 -11 23 -23 26c-6 1 -20 4 -68 4h-14l23 67c19 2 36 2 51 2c63 0 91 -13 103 -20c29 -18 42 -44 42 -77
c0 -48 -26 -74 -43 -85c-32 -22 -75 -23 -102 -23c-62 0 -92 7 -115 16z" />
    <glyph glyph-name="acedilla" unicode="&#xf482;" horiz-adv-x="634" 
d="M249 335h-197c4 49 24 90 51 118c57 59 147 68 214 68c49 0 152 -2 210 -59c47 -45 52 -104 52 -145v-229c0 -36 2 -49 7 -58c5 -10 16 -19 28 -23v-7h-226l-13 55h-2c-16 -19 -38 -37 -62 -49c-37 -19 -79 -24 -114 -24c-40 0 -91 5 -128 39c-20 19 -43 53 -43 110
c0 38 10 71 38 99c40 40 96 50 137 55l60 7c57 7 79 9 93 22c7 7 15 19 15 38c0 17 -7 28 -13 33c-14 13 -38 14 -44 14c-23 0 -38 -7 -47 -16c-10 -10 -17 -29 -16 -48zM369 217v13c-22 -16 -39 -19 -60 -22c-17 -3 -43 -6 -60 -24c-9 -10 -12 -20 -12 -32
c0 -15 6 -26 13 -33c11 -11 24 -13 35 -13c23 0 41 6 57 23c25 26 27 61 27 88zM189 -234l24 70c21 -6 43 -10 63 -10c8 0 30 0 41 5c15 6 18 17 18 25c0 17 -11 23 -23 26c-6 1 -20 4 -68 4h-14l23 67c19 2 36 2 51 2c63 0 91 -13 103 -20c29 -18 42 -44 42 -77
c0 -48 -26 -74 -43 -85c-32 -22 -75 -23 -102 -23c-62 0 -92 7 -115 16z" />
    <glyph glyph-name="Zring" unicode="&#xf483;" horiz-adv-x="696" 
d="M356 508h-302v192h575v-155l-340 -353h367v-192h-616v189zM237 872c0 62 48 112 111 112s111 -50 111 -112c0 -61 -47 -111 -111 -111s-111 50 -111 111zM302 872c0 -26 20 -46 46 -46s46 20 46 46c0 30 -26 47 -46 47s-46 -17 -46 -47z" />
    <glyph glyph-name="zring" unicode="&#xf484;" horiz-adv-x="542" 
d="M47 370v138h457v-140l-264 -230l277 1v-139h-492v140l268 230h-246zM180 670c0 59 47 106 106 106s106 -47 106 -106s-47 -106 -106 -106s-106 47 -106 106zM242 670c0 -24 20 -44 44 -44s44 20 44 44s-20 44 -44 44s-44 -20 -44 -44z" />
    <glyph glyph-name="Germandbls" unicode="&#xf485;" horiz-adv-x="1354" 
d="M703 231h219c-2 -30 9 -60 24 -76c25 -27 64 -28 85 -28s43 2 62 15c15 10 26 26 26 50c0 21 -7 37 -26 50s-59 23 -82 28l-70 14c-99 20 -148 51 -173 74c-37 33 -54 75 -54 132c0 91 48 142 82 169c67 52 152 59 215 59c54 0 154 -5 218 -60c35 -30 69 -86 72 -158
h-206c0 17 -5 36 -16 48c-10 11 -30 22 -68 22c-18 0 -45 -3 -60 -12c-13 -8 -24 -24 -24 -41c0 -10 2 -23 14 -34c17 -17 49 -22 101 -33l68 -15c47 -10 116 -27 163 -74c24 -24 54 -68 54 -136c0 -65 -29 -132 -66 -170c-70 -71 -183 -77 -247 -77c-69 0 -176 7 -245 79
c-36 37 -65 101 -66 174zM30 231h219c-2 -30 9 -60 24 -76c25 -27 64 -28 85 -28s43 2 62 15c15 10 26 26 26 50c0 21 -7 37 -26 50s-59 23 -82 28l-70 14c-99 20 -148 51 -173 74c-37 33 -54 75 -54 132c0 91 48 142 82 169c67 52 152 59 215 59c54 0 154 -5 218 -60
c35 -30 69 -86 72 -158h-206c0 17 -5 36 -16 48c-10 11 -30 22 -68 22c-18 0 -45 -3 -60 -12c-13 -8 -24 -24 -24 -41c0 -10 2 -23 14 -34c17 -17 49 -22 101 -33l68 -15c47 -10 116 -27 163 -74c24 -24 54 -68 54 -136c0 -65 -29 -132 -66 -170c-70 -71 -183 -77 -247 -77
c-69 0 -176 7 -245 79c-36 37 -65 101 -66 174z" />
    <glyph glyph-name="cyrTecedilla" unicode="&#xf4c4;" horiz-adv-x="634" 
d="M208 508h-198v192h614v-192h-198v-508h-218v508zM179 -234l24 70c21 -6 43 -10 63 -10c8 0 30 0 41 5c15 6 18 17 18 25c0 17 -11 23 -23 26c-6 1 -20 4 -68 4h-14l23 67c19 2 36 2 51 2c63 0 91 -13 103 -20c29 -18 42 -44 42 -77c0 -48 -26 -74 -43 -85
c-32 -22 -75 -23 -102 -23c-62 0 -92 7 -115 16z" />
    <glyph glyph-name="cyrtecedilla" unicode="&#xf4c5;" horiz-adv-x="552" 
d="M169 371h-164v137h542v-139h-164v-369h-214v371zM146 -234l24 70c21 -6 43 -10 63 -10c8 0 30 0 41 5c15 6 18 17 18 25c0 17 -11 23 -23 26c-6 1 -20 4 -68 4h-14l23 67c19 2 36 2 51 2c63 0 91 -13 103 -20c29 -18 42 -44 42 -77c0 -48 -26 -74 -43 -85
c-32 -22 -75 -23 -102 -23c-62 0 -92 7 -115 16z" />
    <glyph glyph-name="cyrEscedilla" unicode="&#xf4c8;" horiz-adv-x="759" 
d="M526 258h213c-7 -81 -43 -154 -87 -197c-78 -77 -195 -81 -259 -81c-72 0 -174 7 -252 80c-49 46 -101 136 -101 283c0 132 43 224 104 283c80 78 180 92 263 92c115 0 194 -33 245 -85c9 -9 70 -73 81 -186h-211c-4 26 -17 49 -33 63c-24 20 -57 22 -75 22
c-33 0 -68 -6 -97 -35c-40 -40 -45 -105 -45 -148c0 -45 6 -103 39 -142c31 -37 67 -40 97 -40s58 4 84 27c25 22 32 49 34 64zM281 -234l24 70c21 -6 43 -10 63 -10c8 0 30 0 41 5c15 6 18 17 18 25c0 17 -11 23 -23 26c-6 1 -20 4 -68 4h-14l23 67c19 2 36 2 51 2
c63 0 91 -13 103 -20c29 -18 42 -44 42 -77c0 -48 -26 -74 -43 -85c-32 -22 -75 -23 -102 -23c-62 0 -92 7 -115 16z" />
    <glyph glyph-name="cyrescedilla" unicode="&#xf4c9;" horiz-adv-x="626" 
d="M400 200h196c-7 -66 -37 -115 -68 -146c-66 -66 -152 -72 -217 -72s-146 8 -208 67c-35 33 -73 94 -73 193c0 95 38 167 82 211c63 61 144 76 213 76c107 0 169 -36 205 -72c31 -32 58 -82 62 -146h-193c0 20 -5 49 -24 68c-13 13 -30 18 -48 18c-21 0 -37 -6 -51 -21
c-26 -28 -30 -77 -30 -117c0 -28 1 -92 31 -124c15 -17 32 -21 51 -21c15 0 33 2 48 17c16 17 24 48 24 69zM190 -234l24 70c21 -6 43 -10 63 -10c8 0 30 0 41 5c15 6 18 17 18 25c0 17 -11 23 -23 26c-6 1 -20 4 -68 4h-14l23 67c19 2 36 2 51 2c63 0 91 -13 103 -20
c29 -18 42 -44 42 -77c0 -48 -26 -74 -43 -85c-32 -22 -75 -23 -102 -23c-62 0 -92 7 -115 16z" />
    <glyph glyph-name="cyrUacute" unicode="&#xf4cc;" horiz-adv-x="661" 
d="M352 392l95 308h227l-221 -535c-19 -46 -45 -97 -91 -133c-53 -41 -103 -41 -145 -41c-48 0 -84 1 -136 20v174c19 -10 44 -17 74 -17c19 0 63 4 80 49l-235 483h239zM307 908h199l-112 -142h-153z" />
    <glyph glyph-name="cyruacute" unicode="&#xf4cd;" horiz-adv-x="588" 
d="M62 -173v135c21 -8 37 -10 56 -10c15 0 33 0 50 13c17 12 23 29 26 43l5 22l-199 478h212l101 -317l80 317h195l-179 -500c-16 -45 -36 -107 -76 -144c-27 -25 -74 -50 -156 -50c-25 0 -66 2 -115 13zM272 700h189l-112 -132h-143z" />
    <glyph glyph-name="uniF639" unicode="&#xf639;" horiz-adv-x="724" 
d="M363 -10c-83 0 -163 16 -227 79c-57 56 -99 150 -99 285c0 148 50 233 97 278c35 33 105 81 229 81c64 0 157 -10 230 -81c81 -79 93 -185 93 -278c0 -99 -13 -207 -100 -288c-71 -66 -154 -76 -223 -76zM363 141c27 0 50 10 65 24c40 36 48 117 48 191
c0 59 -6 142 -49 182c-15 14 -37 24 -64 24c-30 0 -54 -13 -70 -30c-38 -41 -43 -122 -43 -173c0 -75 7 -156 45 -193c14 -14 38 -25 68 -25z" />
    <glyph glyph-name="uniF63A" unicode="&#xf63a;" horiz-adv-x="679" 
d="M620 171v-171h-579v9c0 82 10 145 73 210c36 37 74 61 116 84l88 49c22 12 58 34 75 50c29 27 37 56 37 83c0 23 -8 45 -22 59c-19 20 -47 23 -68 23c-26 0 -50 -4 -70 -23c-24 -23 -29 -59 -25 -97h-199c-7 74 21 145 74 193c70 63 162 74 232 74c117 0 187 -34 227 -74
c27 -27 59 -76 59 -153c0 -57 -17 -103 -54 -142c-15 -16 -46 -42 -116 -76l-23 -11c-26 -12 -46 -20 -77 -36c-42 -22 -54 -32 -63 -51h315z" />
    <glyph glyph-name="uniF63B" unicode="&#xf63b;" horiz-adv-x="677" 
d="M32 253h199v-5c0 -29 1 -61 24 -85c22 -24 56 -29 76 -29c17 0 50 0 73 20c13 11 27 31 27 64c0 21 -6 45 -30 61c-21 14 -57 17 -80 17h-39v131h48c28 0 59 5 77 17s30 35 30 59c0 25 -13 44 -27 54c-20 15 -48 16 -63 16c-20 0 -56 -2 -81 -30c-22 -24 -25 -59 -25 -78
h-192c-1 84 38 149 87 187c47 36 119 59 218 59c68 0 145 -12 196 -47c40 -28 77 -77 77 -147c0 -50 -20 -86 -43 -109c-17 -17 -43 -35 -80 -43v-5c37 -6 69 -23 90 -44c22 -21 44 -57 44 -112c0 -69 -31 -129 -84 -166c-59 -42 -141 -50 -216 -50c-70 0 -172 7 -238 73
c-24 24 -68 82 -68 189v3z" />
    <glyph glyph-name="uniF63C" unicode="&#xf63c;" horiz-adv-x="678" 
d="M344 149h-330v164l340 387h202v-393h90v-158h-90v-149h-212v149zM174 307h180v198z" />
    <glyph glyph-name="uniF63D" unicode="&#xf63d;" horiz-adv-x="671" 
d="M39 215h202c1 -26 13 -44 24 -55c19 -19 41 -24 65 -24c23 0 50 5 70 26c21 22 30 58 30 93c0 47 -17 71 -31 83c-19 16 -44 19 -66 19s-60 -3 -81 -45h-205l42 388h496v-155h-357l-11 -102c51 40 103 44 153 44c55 0 135 -6 196 -63c57 -54 67 -124 67 -170
c0 -77 -25 -147 -70 -192c-72 -72 -179 -76 -240 -76c-65 0 -141 6 -203 56c-38 31 -80 86 -81 173z" />
    <glyph glyph-name="uniF63E" unicode="&#xf63e;" horiz-adv-x="675" 
d="M632 526h-185c-5 22 -18 34 -27 39c-16 10 -40 13 -57 13c-32 0 -64 -7 -90 -33c-23 -23 -40 -63 -43 -103c47 38 98 45 149 45c56 0 126 -9 183 -58c39 -34 76 -92 76 -174c0 -71 -26 -142 -76 -192c-70 -70 -158 -78 -226 -78c-71 0 -151 8 -218 80
c-72 77 -81 187 -81 250c0 120 33 239 105 312c64 65 146 86 231 86c32 0 120 -3 180 -49c37 -28 69 -76 79 -138zM346 360c-24 0 -57 -4 -83 -28c-16 -15 -33 -42 -33 -88c0 -47 17 -75 33 -90c14 -13 38 -29 79 -29c22 0 52 4 77 29c20 20 35 53 35 94c0 39 -14 67 -31 84
c-24 24 -54 28 -77 28z" />
    <glyph glyph-name="uniF63F" unicode="&#xf63f;" horiz-adv-x="646" 
d="M30 529v171h592v-154c-90 -92 -144 -202 -169 -269c-32 -86 -46 -179 -45 -277h-224c-1 94 34 224 78 310c36 70 95 154 151 219h-383z" />
    <glyph glyph-name="uniF640" unicode="&#xf640;" horiz-adv-x="696" 
d="M348 309c-43 0 -69 -13 -83 -26c-19 -17 -28 -41 -28 -63c0 -23 11 -49 30 -64c27 -22 71 -23 79 -23c29 0 57 7 77 21c22 16 35 43 35 71s-14 49 -30 61c-22 17 -54 23 -80 23zM349 581c-23 0 -52 -2 -75 -21c-18 -15 -31 -39 -31 -63c0 -25 9 -45 23 -58
c23 -22 55 -25 81 -25c22 0 51 2 75 21c18 14 30 35 30 64c0 32 -15 52 -31 64c-21 15 -48 18 -72 18zM348 713c60 0 140 -8 204 -52c56 -39 86 -97 86 -154c0 -36 -12 -71 -30 -94c-15 -19 -40 -37 -68 -46c21 -6 49 -19 75 -47c30 -34 43 -73 43 -116
c0 -78 -32 -127 -70 -158c-68 -55 -156 -60 -240 -60s-172 5 -240 60c-38 31 -70 80 -70 158c0 43 13 82 43 116c26 28 54 41 75 47c-28 9 -53 27 -68 46c-18 23 -30 58 -30 94c0 57 30 115 86 154c64 44 144 52 204 52z" />
    <glyph glyph-name="uniF641" unicode="&#xf641;" horiz-adv-x="675" 
d="M43 172h185c5 -22 18 -34 27 -39c16 -10 40 -13 57 -13c32 0 64 7 90 33c23 23 40 63 43 103c-47 -38 -98 -45 -149 -45c-56 0 -126 9 -183 58c-39 34 -76 92 -76 174c0 71 26 142 76 192c70 70 158 78 226 78c71 0 151 -8 218 -80c72 -77 81 -187 81 -250
c0 -120 -33 -239 -105 -312c-64 -65 -146 -86 -231 -86c-32 0 -120 3 -180 49c-37 28 -69 76 -79 138zM329 338c24 0 57 4 83 28c16 15 33 42 33 88c0 47 -17 75 -33 90c-14 13 -38 29 -79 29c-22 0 -52 -4 -77 -29c-20 -20 -35 -53 -35 -94c0 -39 14 -67 31 -84
c24 -24 54 -28 77 -28z" />
    <glyph glyph-name="dotlessj" unicode="&#xf6be;" horiz-adv-x="348" 
d="M72 508h211v-507c0 -47 -3 -103 -44 -144c-42 -42 -108 -45 -147 -45c-53 0 -88 5 -112 10v142c11 -2 21 -3 32 -3c10 0 32 0 45 13c14 14 15 36 15 55v479z" />
    <glyph glyph-name="commaaccent" unicode="&#xf6c3;" horiz-adv-x="307" 
d="M70 -185v122h167v-89c0 -51 -5 -102 -45 -139c-19 -17 -54 -39 -122 -41v69c16 -1 53 1 73 23c12 13 17 33 17 51v4h-90z" />
    <glyph glyph-name="Acute" unicode="&#xf6c9;" horiz-adv-x="385" 
d="M167 908h199l-112 -142h-153z" />
    <glyph glyph-name="Caron" unicode="&#xf6ca;" horiz-adv-x="574" 
d="M287 815l77 83h160l-125 -132h-224l-125 132h160z" />
    <glyph glyph-name="Dieresis" unicode="&#xf6cb;" horiz-adv-x="541" 
d="M50 779v129h172v-129h-172zM319 779v129h172v-129h-172z" />
    <glyph glyph-name="Grave" unicode="&#xf6ce;" horiz-adv-x="385" 
d="M218 908l66 -142h-153l-112 142h199z" />
    <glyph glyph-name="Hungarumlaut" unicode="&#xf6cf;" horiz-adv-x="568" 
d="M122 908h187l-97 -132h-147zM355 908h188l-98 -132h-147z" />
    <glyph glyph-name="Macron" unicode="&#xf6d0;" horiz-adv-x="506" 
d="M50 779v96h406v-96h-406z" />
    <glyph glyph-name="cyrBreve" unicode="&#xf6d1;" horiz-adv-x="598" 
d="M372 907h141c-2 -49 -23 -83 -42 -103c-44 -45 -113 -51 -172 -51s-128 6 -172 51c-19 20 -40 54 -42 103h141c0 -16 5 -35 15 -45c15 -16 41 -17 58 -17s43 1 58 17c10 10 15 29 15 45z" />
    <glyph glyph-name="cyrbreve" unicode="&#xf6d4;" horiz-adv-x="554" 
d="M344 731h145c0 -53 -24 -90 -45 -111c-46 -46 -113 -54 -166 -54c-37 0 -118 3 -169 54c-22 22 -44 59 -44 111h145c-1 -17 2 -46 21 -62c11 -9 29 -13 46 -13s35 4 46 13c19 16 22 45 21 62z" />
    <glyph glyph-name="uniF6DC" unicode="&#xf6dc;" horiz-adv-x="440" 
d="M6 466v110h12c44 0 90 9 122 26c52 27 70 70 78 98h171v-700h-222v466h-161z" />
    <glyph glyph-name="apple" unicode="&#xf8ff;" horiz-adv-x="833" 
d="M808 656c-72 -55 -108 -120 -108 -195c0 -95 52 -175 137 -208c-17 -47 -41 -95 -72 -144c-53 -83 -105 -124 -158 -124c-19 0 -47 6 -83 19s-67 19 -92 19c-19 0 -37 -3 -53 -9l-57 -21c-18 -7 -36 -10 -55 -10c-42 0 -84 26 -125 79c-95 120 -142 247 -142 382
c0 91 22 164 67 221s104 86 175 86c28 0 68 -8 120 -23c29 -9 51 -13 66 -13c17 0 47 7 90 22c37 13 71 19 100 19c78 0 141 -33 190 -100zM608 982c1 -9 2 -18 2 -27c0 -57 -22 -110 -67 -157c-16 -17 -31 -29 -46 -38c-21 -13 -50 -19 -87 -20c1 11 2 25 3 42
c13 96 80 180 195 200z" />
    <glyph glyph-name="dotlessi1" horiz-adv-x="340" 
d="M65 508h210v-508h-210v508z" />
    <glyph glyph-name="hyphenminus" horiz-adv-x="505" 
d="M53 205v185h399v-185h-399z" />
    <glyph glyph-name="sterling.fitted" horiz-adv-x="669" 
d="M543 215l92 -143c-77 -79 -131 -88 -180 -88c-38 0 -74 6 -109 22l-22 10c-27 12 -53 23 -86 23c-35 0 -62 -15 -89 -39l-96 149c3 3 32 27 43 38c27 28 33 55 33 73c0 7 -1 25 -11 45h-84v70h56c-17 33 -30 77 -30 118c0 61 24 124 78 165c65 50 155 55 196 55
c101 0 167 -29 207 -65c65 -59 70 -127 70 -196v-3h-194v2c0 22 2 52 -13 75c-12 18 -36 30 -64 30c-21 0 -38 -7 -50 -17c-11 -10 -24 -28 -24 -58c0 -28 11 -44 22 -62c8 -12 15 -23 22 -44h97v-70h-86c3 -25 -3 -53 -12 -71c-2 -5 -13 -25 -36 -43l2 -8c8 3 32 13 61 13
c24 0 44 -6 61 -11c21 -7 40 -14 62 -14c34 0 62 17 84 44z" />
    <glyph glyph-name="mu1" horiz-adv-x="696" 
d="M264 -185h-199v693h205v-236c0 -36 4 -82 16 -111c15 -35 41 -48 62 -48c15 0 46 6 64 52c7 19 14 49 14 107v236h205v-508h-199v77h-7c-4 -22 -14 -48 -25 -63c-17 -24 -38 -30 -53 -30c-14 0 -36 5 -53 30c-10 14 -20 42 -24 63h-6v-262z" />
    <glyph glyph-name="numbersign.fitted" horiz-adv-x="770" 
d="M502 0h-96l26 163h-161l-26 -163h-97l26 163h-152l18 103h152l33 187h-154l18 103h152l25 144h97l-24 -144h160l25 144h96l-23 -144h152l-18 -103h-151l-32 -187h153l-19 -103h-153zM451 266l33 187h-162l-33 -187h162z" />
    <glyph glyph-name="dollar.fitted" horiz-adv-x="669" 
d="M26 239h197c0 -26 9 -54 23 -71c12 -14 33 -27 61 -28v141c-38 8 -151 36 -208 93c-32 32 -52 75 -52 132c0 56 19 110 58 148c54 53 135 66 200 65v75h79v-75c52 0 126 -16 172 -53c64 -52 71 -127 71 -168v-5h-182v5c0 17 -5 40 -17 54s-31 21 -48 23v-129
c96 -24 165 -50 207 -93c45 -45 54 -99 54 -139c0 -105 -56 -161 -90 -185c-48 -33 -114 -48 -167 -48v-77h-79v77c-58 -1 -146 13 -204 65c-67 60 -75 152 -75 193zM382 269v-129c16 1 36 7 48 18c11 10 20 27 20 50c0 19 -6 33 -23 45c-11 8 -30 14 -45 16zM309 460v117
c-18 0 -36 -6 -47 -15c-13 -11 -20 -28 -20 -45c0 -19 9 -31 18 -38s32 -16 49 -19z" />
    <glyph glyph-name="cent.fitted" horiz-adv-x="604" 
d="M391 200h196c-7 -65 -37 -116 -68 -147c-29 -29 -83 -67 -165 -69v-116h-79v116c-83 3 -144 40 -180 76c-62 62 -74 138 -74 197c0 102 37 164 73 199c43 42 110 70 181 71v109h79v-109c84 -3 139 -44 166 -72c28 -28 58 -75 63 -144h-193c0 20 -5 49 -24 68
c-13 13 -30 18 -48 18c-21 0 -37 -6 -51 -21c-26 -28 -30 -79 -30 -108c0 -51 7 -108 36 -136c14 -13 29 -18 48 -18c18 0 33 3 47 17c8 8 23 26 23 69z" />
    <glyph glyph-name="nbspace" horiz-adv-x="233" 
 />
    <glyph glyph-name="yen.fitted" horiz-adv-x="753" 
d="M376 416l118 284h235l-248 -437v-26h82v-66h-82v-33h82v-66h-82v-72h-210v72h-82v66h82v33h-82v66h82v26l-247 437h235z" />
    <glyph glyph-name="florin.fitted" horiz-adv-x="647" 
d="M594 508l-29 -138h-118l-80 -378c-10 -45 -25 -94 -61 -130c-54 -53 -123 -54 -187 -54c-35 0 -62 2 -103 10l26 124c15 -5 25 -5 39 -5c16 0 33 1 48 12c19 13 24 34 28 51l78 370h-93l29 138h93l2 8c9 38 25 89 61 125c50 50 126 59 183 59c42 0 87 -4 123 -10
l-27 -127c-24 7 -45 8 -58 8c-18 0 -37 -3 -51 -17c-13 -13 -17 -28 -20 -42l-1 -4h118z" />
    <glyph glyph-name="Euro.fitted" horiz-adv-x="770" 
d="M692 222v-186c-31 -18 -60 -29 -84 -36c-46 -14 -96 -20 -138 -20c-150 0 -226 54 -255 81c-53 49 -85 125 -94 193h-99l40 78h54c-2 14 -3 29 0 46h-91l40 78h58c18 83 61 144 104 181c58 50 145 82 269 82c85 0 165 -19 236 -79l-94 -149c-53 55 -114 61 -148 61
c-31 0 -68 -5 -98 -31c-15 -12 -32 -33 -39 -65h263l-40 -78h-238c-3 -15 -3 -31 0 -46h220l-40 -78h-172c7 -34 25 -59 49 -76c23 -16 56 -29 104 -29c38 0 70 8 108 24c34 14 61 31 85 49z" />
    <glyph glyph-name="acutecomb" horiz-adv-x="2" 
d="M-318 700h189l-112 -132h-143z" />
    </font>
</defs>
</svg>
