<?xml version="1.0" encoding="UTF-8" standalone="no"?>
<!-- Created with Inkscape (http://www.inkscape.org/) -->

<svg
   xmlns:dc="http://purl.org/dc/elements/1.1/"
   xmlns:cc="http://creativecommons.org/ns#"
   xmlns:rdf="http://www.w3.org/1999/02/22-rdf-syntax-ns#"
   xmlns:svg="http://www.w3.org/2000/svg"
   xmlns="http://www.w3.org/2000/svg"
   xmlns:sodipodi="http://sodipodi.sourceforge.net/DTD/sodipodi-0.dtd"
   xmlns:inkscape="http://www.inkscape.org/namespaces/inkscape"
   version="1.1"
   id="svg2"
   xml:space="preserve"
   width="1511.8134"
   height="1095.6187"
   viewBox="0 0 1511.8134 1095.6187"
   sodipodi:docname="background.svg"
   inkscape:version="0.92.3 (2405546, 2018-03-11)"><metadata
     id="metadata8"><rdf:RDF><cc:Work
         rdf:about=""><dc:format>image/svg+xml</dc:format><dc:type
           rdf:resource="http://purl.org/dc/dcmitype/StillImage" /><dc:title></dc:title></cc:Work></rdf:RDF></metadata><defs
     id="defs6"><clipPath
       clipPathUnits="userSpaceOnUse"
       id="clipPath18"><path
         d="M 0,821.714 H 1133.858 V 0 H 0 Z"
         id="path16"
         inkscape:connector-curvature="0" /></clipPath></defs><sodipodi:namedview
     pagecolor="#ffffff"
     bordercolor="#666666"
     borderopacity="1"
     objecttolerance="10"
     gridtolerance="10"
     guidetolerance="10"
     inkscape:pageopacity="0"
     inkscape:pageshadow="2"
     inkscape:window-width="1278"
     inkscape:window-height="1008"
     id="namedview4"
     showgrid="false"
     inkscape:zoom="0.21540342"
     inkscape:cx="755.90668"
     inkscape:cy="547.80933"
     inkscape:window-x="3193"
     inkscape:window-y="0"
     inkscape:window-maximized="0"
     inkscape:current-layer="g10" /><g
     id="g10"
     inkscape:groupmode="layer"
     inkscape:label="логотип и паттерн"
     transform="matrix(1.3333333,0,0,-1.3333333,0,1095.6187)"><g
       id="g12"><g
         id="g14"
         clip-path="url(#clipPath18)"><g
           id="g20"
           transform="translate(1125.5431,740.0706)"><path
             d="M 0,0 -19.006,-19.007 -38.012,0 -19.006,19.006 Z m 0,-78.234 -19.006,-19.006 -19.006,19.006 19.006,19.005 z m 0,-78.237 -19.006,-19.005 -19.006,19.005 19.006,19.006 z m 0,-78.234 -19.006,-19.007 -19.006,19.007 19.006,19.004 z m 0,-78.236 -19.006,-19.004 -19.006,19.004 19.006,19.006 z m 0,-78.236 -19.006,-19.005 -19.006,19.005 19.006,19.006 z m 0,-78.236 -19.006,-19.004 -19.006,19.004 19.006,19.007 z m 0,-78.233 -19.006,-19.007 -19.006,19.007 19.006,19.006 z m 0,-78.237 -19.006,-19.005 -19.006,19.005 19.006,19.007 z m 0,-78.235 -19.006,-19.006 -19.006,19.006 19.006,19.007 z m -39.116,0 -18.615,-18.613 v 38.009 l 0.162,0.162 19.006,19.006 19.004,-19.006 z m -38.013,39.118 19.006,19.006 19.007,-19.006 -19.007,-19.006 z m 18.615,-57.731 -18.615,18.613 -19.559,19.558 19.005,19.006 19.006,-19.006 0.163,-0.162 z m -38.726,-0.393 -19.006,19.006 19.006,19.007 19.004,-19.007 z m -20.113,19.006 -18.613,-18.613 v 38.009 l 0.16,0.162 19.006,19.006 19.007,-19.006 z m -38.01,39.118 19.004,19.006 19.006,-19.006 -19.006,-19.006 z m 18.614,-57.731 -18.614,18.613 -19.56,19.558 19.006,19.006 19.004,-19.006 0.164,-0.162 z m -38.728,-0.393 -19.003,19.006 19.003,19.007 19.007,-19.007 z m -20.111,19.006 -18.614,-18.613 v 38.009 l 0.162,0.162 19.004,19.006 19.007,-19.006 z M -233.6,-665 l 19.006,19.006 19.006,-19.006 -19.006,-19.006 z m 18.617,-57.731 -18.617,18.613 -19.557,19.558 19.004,19.006 19.007,-19.006 0.163,-0.162 z m -38.728,-0.393 -19.006,19.006 19.006,19.007 19.006,-19.007 z m -20.11,19.006 -18.617,-18.613 v 38.009 l 0.164,0.162 19.005,19.006 19.007,-19.006 z m -38.011,39.118 19.004,19.006 19.007,-19.006 -19.007,-19.006 z m 18.612,-57.731 -18.612,18.613 -19.56,19.558 19.006,19.006 19.006,-19.006 0.16,-0.162 z m -38.725,-0.393 -19.006,19.006 19.006,19.007 19.007,-19.007 z m -20.112,19.006 -18.616,-18.613 v 38.009 l 0.164,0.162 19.004,19.006 19.007,-19.006 z m -38.011,39.118 19.006,19.006 19.005,-19.006 -19.005,-19.006 z m 18.614,-57.731 -18.614,18.613 -19.56,19.558 19.006,19.006 19.007,-19.006 0.161,-0.162 z m -38.726,-0.393 -19.006,19.006 19.006,19.007 19.005,-19.007 z m -20.113,19.006 -18.614,-18.613 v 38.009 l 0.162,0.162 19.006,19.006 19.006,-19.006 z m -38.01,39.118 19.004,19.006 19.006,-19.006 -19.006,-19.006 z m 18.613,-57.731 -18.613,18.613 -19.559,19.558 19.006,19.006 19.004,-19.006 0.162,-0.162 z m -38.726,-0.393 -19.004,19.006 19.004,19.007 19.006,-19.007 z m -20.11,19.006 -18.616,-18.613 v 38.009 l 0.163,0.162 19.003,19.006 19.006,-19.006 z m -30.803,31.908 v 0.002 l -7.208,7.208 7.208,7.207 v 0.003 l 11.796,11.796 19.007,-19.006 -19.007,-19.006 z m 11.404,-50.521 -11.404,11.404 v 0.002 l -7.208,7.207 -19.56,19.558 19.005,19.005 19.005,-19.005 0.162,-0.162 z m -49.973,10.855 -7.758,7.758 7.758,7.758 11.248,11.249 19.004,-19.007 -19.004,-19.006 z m -8.863,7.758 -18.615,-18.613 v 38.009 l 0.162,0.162 19.007,19.006 8.309,-8.309 v -0.002 l 10.694,-10.695 -10.694,-10.694 v -0.002 z m -38.012,39.118 19.005,19.006 19.007,-19.006 -19.007,-19.006 z m 18.615,-57.731 -18.615,18.613 -19.56,19.558 19.006,19.006 19.006,-19.006 0.163,-0.162 z m -38.727,-0.393 -19.006,19.006 19.006,19.007 19.004,-19.007 z m -20.112,19.006 -18.613,-18.613 v 38.009 l 0.16,0.162 19.006,19.006 19.007,-19.006 z m -38.011,39.118 19.004,19.006 19.007,-19.006 -19.007,-19.006 z m 18.614,-57.731 -18.614,18.613 -19.559,19.558 19.005,19.006 19.004,-19.006 0.164,-0.162 z m -38.727,-0.393 -19.004,19.006 19.004,19.007 19.007,-19.007 z m -20.11,19.006 -18.616,-18.613 v 38.009 l 0.162,0.162 19.004,19.006 19.007,-19.006 z m -38.013,39.118 19.006,19.006 19.007,-19.006 -19.007,-19.006 z m 18.616,-57.731 -18.616,18.613 -19.558,19.558 19.004,19.006 19.007,-19.006 0.163,-0.162 z m -38.727,-0.393 -19.006,19.006 19.006,19.007 19.005,-19.007 z m -20.111,19.006 -18.617,-18.613 v 38.009 l 0.164,0.162 19.006,19.006 19.007,-19.006 z m -38.011,39.118 19.004,19.006 19.007,-19.006 -19.007,-19.006 z m 18.613,-57.731 -18.613,18.613 -19.559,19.558 19.006,19.006 19.006,-19.006 0.16,-0.162 z m -38.726,-0.393 -19.006,19.006 19.006,19.007 19.007,-19.007 z m -20.111,19.006 -18.616,-18.613 v 38.009 l 0.164,0.162 19.004,19.006 19.006,-19.006 z m -38.012,39.118 19.006,19.006 19.006,-19.006 -19.006,-19.006 z m 18.614,-57.731 -18.614,18.613 -19.559,19.558 19.005,19.006 19.007,-19.006 0.161,-0.162 z m -38.725,-0.393 -19.006,19.006 19.006,19.007 19.005,-19.007 z m -20.113,19.006 -18.615,-18.613 v 38.009 l 0.162,0.162 19.006,19.006 19.006,-19.006 z m -38.01,39.118 19.004,19.006 19.006,-19.006 -19.006,-19.006 z m 18.612,-57.731 -18.612,18.613 -19.56,19.558 19.006,19.006 19.005,-19.006 0.161,-0.162 z m -38.726,-0.393 -19.003,19.006 19.003,19.007 19.006,-19.007 z m -20.11,19.006 -18.615,-18.613 v 38.009 l 0.162,0.162 19.004,19.006 19.006,-19.006 z m -38.013,39.118 19.007,19.006 19.006,-19.006 -19.006,-19.006 z m 18.615,-57.731 -18.615,18.613 -19.557,19.558 19.004,19.006 19.006,-19.006 0.162,-0.162 z m -38.336,77.129 19.168,19.165 19.006,-19.004 -19.56,-19.559 -18.614,-18.615 z m 0.164,39.278 19.004,19.007 19.168,-19.169 v -38.009 l -18.615,18.612 z m -0.164,38.956 19.168,19.167 19.006,-19.006 -19.56,-19.557 -18.614,-18.615 z m 0.164,39.279 19.004,19.006 19.168,-19.166 v -38.013 l -18.615,18.616 z m -0.164,38.957 19.168,19.166 19.006,-19.004 -19.56,-19.56 -18.614,-18.614 z m 0.164,39.279 19.004,19.006 19.168,-19.168 v -38.01 l -18.615,18.612 z m -0.164,38.957 19.168,19.167 19.006,-19.006 -19.56,-19.559 -18.614,-18.613 z m 0.164,39.28 19.004,19.004 19.168,-19.166 v -38.012 l -18.615,18.613 z m -0.164,38.955 19.168,19.166 19.006,-19.005 -19.56,-19.559 -18.614,-18.612 z m 0.164,39.279 19.004,19.006 19.168,-19.169 v -38.01 l -18.615,18.614 z m -0.164,38.955 19.168,19.168 19.006,-19.006 -19.56,-19.557 -18.614,-18.615 z m 0.164,39.281 19.004,19.004 19.006,-19.004 0.162,-0.164 v -38.01 l -18.615,18.615 z m -0.164,38.956 19.168,19.166 19.006,-19.004 -19.56,-19.561 -18.614,-18.613 z m 0.164,39.279 19.004,19.006 19.168,-19.168 v -38.011 l -18.615,18.613 z m -0.164,38.955 19.168,19.168 19.006,-19.006 -19.56,-19.559 -18.614,-18.616 z m 0.164,39.279 19.004,19.006 19.168,-19.166 v -38.015 l -18.615,18.618 z m -0.164,38.955 19.168,19.169 19.006,-19.005 -19.56,-19.559 -18.614,-18.615 z m 0.164,39.282 19.004,19.006 19.168,-19.17 v -38.01 L -1094.184,0 Z m -0.164,38.953 19.168,19.171 19.006,-19.006 -19.56,-19.559 -18.614,-18.616 z m 38.728,-0.39 19.006,-19.004 -19.006,-19.009 -19.007,19.009 z m 19.557,19.561 19.169,-19.171 v -38.01 l -18.613,18.616 -19.56,19.559 z m 26.479,-65.598 V 12.03 l 12.067,-12.051 -18.987,-18.986 -19.003,19.007 19.003,19.006 z m -6.528,46.427 6.528,6.529 v -0.078 l 12.636,12.619 18.97,-18.944 -19.52,-19.52 -18.614,-18.616 z m 38.723,-0.501 18.964,-18.939 -18.961,-18.963 -18.961,18.966 7.162,7.152 v 0.002 z m 19.558,19.572 19.083,-19.057 h -0.041 l 0.128,-0.127 V 20.506 l -18.612,18.613 -19.524,19.523 z m 38.566,-77.621 -19.007,-18.982 -4.719,4.714 0.009,0.015 -14.274,14.273 18.984,18.961 z m -18.611,58.441 0.123,0.123 h -0.041 l 19.082,19.057 18.969,-18.946 -19.519,-19.519 -18.614,-18.616 z m 38.722,-0.392 18.964,-18.94 -14.376,-14.376 c 0.004,-0.005 0.009,-0.009 0.014,-0.012 l -0.936,-0.935 h 0.039 l -3.705,-3.7 -3.705,3.7 h 0.04 l -5.704,5.696 c 0.006,0.008 0.012,0.015 0.018,0.022 l -9.608,9.609 9.402,9.39 z m 19.56,19.572 19.081,-19.057 h -0.041 l 0.128,-0.127 V 20.505 l -18.613,18.614 -19.522,19.523 z m 38.547,-77.605 -18.986,-18.986 -18.988,18.989 18.986,18.962 z M -879.2,23.749 V 58.4 l 0.128,0.127 h -0.041 l 19.079,19.057 18.971,-18.946 -19.52,-19.519 -18.617,-18.616 z m 38.725,34.263 8.685,-8.673 v -10e-4 l 10.278,-10.265 -18.961,-18.963 -18.962,18.966 z m 8.685,8.711 10.875,10.861 19.08,-19.057 h -0.04 -10e-4 l 0.128,-0.127 V 20.441 l -2.134,2.131 c 0.009,0.013 0.02,0.026 0.028,0.038 l -16.507,16.509 -19.522,19.522 z m 49.422,-66.743 -18.987,-18.987 -8.729,8.729 -0.013,-0.013 -10.266,10.254 19.006,18.981 z m -18.598,23.769 v 2.729 c 10e-4,10e-4 10e-4,10e-4 0.002,0.002 v 31.922 l 0.126,0.125 h -0.041 l 1.06,1.059 18.02,17.997 18.97,-18.944 -19.521,-19.52 -8.745,-8.745 c 0.007,-0.006 0.013,-0.012 0.02,-0.018 l -6.615,-6.607 h 0.038 l -3.314,-3.31 z m 38.726,34.263 18.963,-18.939 -18.961,-18.963 -18.962,18.964 7.164,7.154 v 0.002 z m 19.558,19.572 19.084,-19.057 h -0.042 l 0.128,-0.127 V 20.504 l -18.613,18.615 -19.523,19.522 z m 38.548,-77.604 -18.987,-18.987 -18.987,18.989 18.986,18.962 z m -18.595,58.421 0.125,0.126 h -0.041 l 19.083,19.057 18.966,-18.945 -19.518,-19.52 -18.615,-18.616 z m 38.724,-0.389 18.963,-18.939 -18.962,-18.963 -18.961,18.965 9.403,9.391 z m 19.56,19.572 19.081,-19.057 h -0.041 l 0.128,-0.127 V 20.504 l -18.614,18.615 -19.522,19.522 z m 38.546,-77.604 -18.986,-18.987 -18.988,18.989 18.987,18.962 z m -18.594,58.421 0.127,0.126 h -0.041 l 19.079,19.057 17.746,-17.723 v 0.077 l 1.261,-1.26 -19.56,-19.559 -18.612,-18.616 z m 38.725,-0.278 19.007,-19.004 -19.007,-19.009 -18.961,18.965 17.147,17.125 v 0.109 z m 19.561,19.561 8.309,-8.311 v -0.002 l 10.856,-10.858 v -38.01 l -18.614,18.616 -19.558,19.559 z m 38.561,-38.565 -18.613,-18.614 v 38.008 l 19.167,19.169 19.005,-19.004 z m 20.113,19.004 19.007,-19.004 -19.007,-19.009 -11.796,11.798 v 0.002 l -7.208,7.209 7.208,7.208 v 0.001 z m 19.557,19.561 19.169,-19.171 v -38.01 l -18.613,18.616 -19.559,19.559 z m 26.48,-65.598 V 12.03 L -469.43,-0.021 -488.416,-19.007 -507.42,0 l 19.004,19.006 z m -6.528,46.427 6.528,6.529 v -0.078 l 12.636,12.619 18.969,-18.944 -19.519,-19.52 -18.614,-18.616 z m 38.722,-0.501 18.963,-18.939 -18.96,-18.963 -18.961,18.966 7.162,7.152 v 0.002 z m 19.559,19.572 19.083,-19.057 h -0.041 l 0.128,-0.127 V 20.506 l -18.613,18.613 -19.523,19.523 z m 38.565,-77.621 -19.007,-18.982 -4.718,4.714 0.008,0.015 -14.274,14.273 18.984,18.961 z m -18.61,58.441 0.123,0.123 h -0.041 l 19.082,19.057 18.969,-18.946 -19.52,-19.519 -18.613,-18.616 z m 38.722,-0.392 18.963,-18.94 -14.376,-14.376 c 0.004,-0.005 0.009,-0.009 0.014,-0.012 l -0.935,-0.935 h 0.039 l -3.705,-3.7 -3.705,3.7 h 0.04 l -5.705,5.696 c 0.006,0.008 0.012,0.015 0.018,0.022 l -9.607,9.609 9.402,9.39 z m 19.559,19.572 19.081,-19.057 h -0.041 l 0.128,-0.127 V 20.505 l -18.612,18.614 -19.523,19.523 z m 38.547,-77.605 -18.985,-18.986 -18.99,18.989 18.988,18.962 z m -18.596,23.77 V 58.4 l 0.127,0.127 h -0.04 l 19.079,19.057 18.971,-18.946 -19.519,-19.519 -18.618,-18.616 z m 38.726,34.263 8.684,-8.673 v -10e-4 l 10.279,-10.265 -18.961,-18.963 -18.962,18.966 z m 8.684,8.711 10.875,10.861 19.081,-19.057 h -0.04 -0.001 l 0.127,-0.127 V 20.441 l -2.134,2.131 0.029,0.038 -16.508,16.509 -19.521,19.522 z m 49.421,-66.743 -18.986,-18.987 -8.728,8.729 -0.013,-0.013 -10.268,10.254 19.007,18.981 z m -18.596,23.769 v 2.729 c 0.001,10e-4 0.001,10e-4 0.002,0.002 v 31.922 l 0.126,0.125 h -0.042 l 1.06,1.059 18.021,17.997 18.968,-18.944 -19.519,-19.52 -8.745,-8.745 c 0.007,-0.006 0.013,-0.012 0.019,-0.018 l -6.615,-6.607 h 0.038 l -3.313,-3.31 z m 38.725,34.263 18.963,-18.939 -18.961,-18.963 -18.962,18.964 7.164,7.154 v 0.002 z m 19.559,19.572 19.083,-19.057 h -0.041 l 0.128,-0.127 V 20.504 l -18.613,18.615 -19.524,19.522 z m 38.548,-77.604 -18.988,-18.987 -18.987,18.989 18.985,18.962 z m -18.596,58.421 0.126,0.126 H -175 l 19.082,19.057 18.967,-18.945 -19.519,-19.52 -18.615,-18.616 z m 38.725,-0.389 18.963,-18.939 -18.962,-18.963 -18.961,18.965 9.403,9.391 z m 19.559,19.572 19.081,-19.057 h -0.041 L -97.633,58.4 V 20.504 l -18.613,18.615 -19.523,19.522 z m 38.546,-77.604 -18.985,-18.987 -18.989,18.989 18.988,18.962 z m -18.594,58.421 0.126,0.126 h -0.04 l 19.079,19.057 17.746,-17.723 v 0.077 l 1.261,-1.26 L -78.236,39.119 -96.849,20.503 Z M -58.123,58.123 -39.116,39.119 -58.123,20.11 -77.085,39.075 -59.938,56.2 v 0.109 z M -39.116,0 -57.731,-18.614 v 38.01 l 19.168,19.17 19.004,-19.006 z m 1.104,-39.117 -19.557,19.559 19.006,19.005 19.166,-19.169 v -38.01 z m -1.104,-39.117 -18.615,-18.618 v 38.015 l 19.168,19.166 19.004,-19.006 z m 1.104,-39.119 -19.557,19.559 19.006,19.006 19.166,-19.168 v -38.013 z m -1.104,-39.118 -18.615,-18.613 v 38.011 l 19.168,19.168 19.004,-19.006 z m 1.104,-39.118 -19.557,19.561 19.006,19.004 19.166,-19.166 v -38.012 z m -1.104,-39.116 -18.615,-18.615 v 38.01 l 0.162,0.164 19.006,19.004 19.004,-19.004 z m 1.104,-39.117 -19.557,19.557 19.006,19.006 19.166,-19.168 v -38.01 z m -1.104,-39.119 -18.615,-18.614 v 38.01 l 19.168,19.169 19.004,-19.006 z m 1.104,-39.118 -19.557,19.559 19.006,19.005 19.166,-19.166 v -38.01 z m -1.104,-39.118 -18.615,-18.613 v 38.012 l 19.168,19.166 19.004,-19.004 z m 1.104,-39.117 -19.557,19.559 19.006,19.006 19.166,-19.167 v -38.011 z m -1.104,-39.119 -18.615,-18.612 v 38.01 l 19.168,19.168 19.004,-19.006 z m 1.104,-39.117 -19.557,19.56 19.006,19.004 19.166,-19.166 v -38.012 z m -1.104,-39.116 -18.615,-18.616 v 38.013 l 19.168,19.166 19.004,-19.006 z m 1.104,-39.118 -19.557,19.557 19.006,19.006 19.166,-19.167 v -38.011 z m -39.117,0 19.006,19.004 19.007,-19.004 -19.007,-19.006 z m 0,-39.119 -19.559,19.559 19.005,19.007 19.169,-19.169 v -38.009 z m -19.72,-19.719 19.166,19.165 19.006,-19.004 -19.559,-19.559 -18.613,-18.615 z m -19.397,19.719 19.006,19.007 19.004,-19.007 -19.004,-19.005 z m -0.554,-0.554 19.168,-19.165 v -38.013 l -18.614,18.615 -19.56,19.559 z m -19.166,19.951 19.166,19.169 19.007,-19.007 -19.56,-19.559 -18.613,-18.612 z m -19.397,19.722 19.004,19.004 19.006,-19.004 -19.006,-19.006 z m 0,-39.119 -19.56,19.559 19.006,19.007 19.168,-19.169 v -38.009 z m -19.722,-19.719 19.168,19.165 19.004,-19.004 -19.557,-19.559 -18.615,-18.615 z m -19.395,19.719 19.003,19.007 19.007,-19.007 -19.007,-19.005 z m -0.556,-0.554 19.17,-19.165 v -38.013 l -18.614,18.615 -19.56,19.559 z m -19.166,19.951 19.166,19.169 19.007,-19.007 -19.559,-19.559 -18.614,-18.612 z m -19.398,19.722 19.006,19.004 19.006,-19.004 -19.006,-19.006 z m 0,-39.119 -19.557,19.559 19.004,19.007 19.17,-19.169 v -38.009 z m -19.719,-19.719 19.166,19.165 19.007,-19.004 -19.559,-19.559 -18.614,-18.615 z m -19.398,19.719 19.006,19.007 19.006,-19.007 -19.006,-19.005 z m -0.552,-0.554 19.168,-19.165 v -38.013 l -18.616,18.615 -19.557,19.559 z m -19.169,19.951 19.169,19.169 19.007,-19.007 -19.559,-19.559 -18.617,-18.612 z m -19.394,19.722 19.004,19.004 19.007,-19.004 -19.007,-19.006 z m 0,-39.119 -19.56,19.559 19.006,19.007 19.166,-19.169 v -38.009 z m -19.724,-19.719 19.17,19.165 19.006,-19.004 -19.558,-19.559 -18.618,-18.615 z m -19.395,19.719 19.006,19.007 19.007,-19.007 -19.007,-19.005 z m -0.554,-0.554 19.168,-19.165 v -38.013 l -18.614,18.615 -19.558,19.559 z m -19.168,19.951 19.168,19.169 19.007,-19.007 -19.559,-19.559 -18.616,-18.612 z m -19.395,19.722 19.006,19.004 19.005,-19.004 -19.005,-19.006 z m 0,-39.119 -19.56,19.559 19.006,19.007 19.168,-19.169 v -38.009 z m -19.72,-19.719 19.166,19.165 19.007,-19.004 -19.56,-19.559 -18.613,-18.615 z m -19.398,19.719 19.006,19.007 19.005,-19.007 -19.005,-19.005 z m -0.553,-0.554 19.168,-19.165 v -38.013 l -18.615,18.615 -19.559,19.559 z m -19.168,19.951 19.168,19.169 19.006,-19.007 -19.56,-19.559 -18.614,-18.612 z m -19.396,19.722 19.004,19.004 19.006,-19.004 -19.006,-19.006 z m 0,-39.119 -19.559,19.559 19.006,19.007 19.166,-19.169 v -38.009 z m -19.721,-19.719 19.168,19.165 19.004,-19.004 -19.558,-19.559 -18.614,-18.615 z m -19.396,19.719 19.004,19.007 19.006,-19.007 -19.006,-19.005 z m -0.556,-0.554 19.169,-19.165 v -38.013 l -18.613,18.615 -19.559,19.559 z m -19.166,19.951 19.166,19.169 19.006,-19.007 -19.556,-19.559 -18.616,-18.612 z m -12.187,12.512 v 0.002 l -7.208,7.208 7.208,7.207 v 0.002 l 11.796,11.795 19.007,-19.004 -19.007,-19.006 z m 0,-39.118 v 10e-4 l -7.208,7.208 -19.56,19.559 19.005,19.005 19.167,-19.167 v -38.009 z m -8.317,-31.908 -18.613,-18.612 v 38.01 l 19.167,19.164 19.005,-19.003 z m -30.252,31.36 v 0 l -7.758,7.757 7.758,7.758 11.248,11.249 19.004,-19.007 -19.004,-19.005 z m -8.309,7.203 8.309,-8.308 v -0.002 l 10.856,-10.855 v -38.012 l -18.614,18.614 -19.558,19.559 z m -19.169,19.951 19.169,19.169 8.309,-8.31 v -0.002 l 10.694,-10.695 -10.694,-10.695 v -10e-4 l -8.863,-8.863 -18.615,-18.612 z m -19.397,19.722 19.005,19.004 19.007,-19.004 -19.007,-19.006 z m 0,-39.119 -19.56,19.559 19.006,19.007 19.169,-19.169 v -38.009 z m -19.72,-19.719 19.166,19.165 19.006,-19.004 -19.56,-19.559 -18.612,-18.615 z m -19.398,19.719 19.006,19.007 19.004,-19.007 -19.004,-19.005 z m -0.553,-0.554 19.168,-19.165 v -38.013 l -18.615,18.615 -19.559,19.559 z m -19.166,19.951 19.166,19.169 19.007,-19.007 -19.56,-19.559 -18.613,-18.612 z m -19.398,19.722 19.004,19.004 19.007,-19.004 -19.007,-19.006 z m 0,-39.119 -19.559,19.559 19.005,19.007 19.168,-19.169 v -38.009 z m -19.721,-19.719 19.167,19.165 19.004,-19.004 -19.556,-19.559 -18.615,-18.615 z m -19.396,19.719 19.004,19.007 19.007,-19.007 -19.007,-19.005 z m -0.556,-0.554 19.171,-19.165 v -38.013 l -18.615,18.615 -19.56,19.559 z m -19.166,19.951 19.166,19.169 19.007,-19.007 -19.557,-19.559 -18.616,-18.612 z m -19.397,19.722 19.006,19.004 19.007,-19.004 -19.007,-19.006 z m 0,-39.119 -19.558,19.559 19.004,19.007 19.17,-19.169 v -38.009 z m -19.72,-19.719 19.166,19.165 19.007,-19.004 -19.559,-19.559 -18.614,-18.615 z m -19.397,19.719 19.006,19.007 19.005,-19.007 -19.005,-19.005 z m -0.552,-0.554 19.168,-19.165 v -38.013 l -18.616,18.615 -19.558,19.559 z m -19.17,19.951 19.17,19.169 19.007,-19.007 -19.56,-19.559 -18.617,-18.612 z m -19.394,19.722 19.004,19.004 19.007,-19.004 -19.007,-19.006 z m 0,-39.119 -19.559,19.559 19.006,19.007 19.166,-19.169 v -38.009 z m -19.723,-19.719 19.17,19.165 19.006,-19.004 -19.559,-19.559 -18.617,-18.615 z m -19.396,19.719 19.006,19.007 19.007,-19.007 -19.007,-19.005 z m -0.553,-0.554 19.168,-19.165 v -38.013 l -18.615,18.615 -19.557,19.559 z m -19.168,19.951 19.168,19.169 19.006,-19.007 -19.558,-19.559 -18.616,-18.612 z m -19.396,19.722 19.006,19.004 19.006,-19.004 -19.006,-19.006 z m 0,-39.119 -19.559,19.559 19.005,19.007 19.168,-19.169 v -38.009 z m -19.72,-19.719 19.166,19.165 19.007,-19.004 -19.559,-19.559 -18.614,-18.615 z m -19.397,19.719 19.006,19.007 19.005,-19.007 -19.005,-19.005 z m -0.554,-0.554 19.169,-19.165 v -38.013 l -18.615,18.615 -19.56,19.559 z m -19.168,19.951 19.168,19.169 19.006,-19.007 -19.559,-19.559 -18.615,-18.612 z m -19.395,19.722 19.004,19.004 19.006,-19.004 -19.006,-19.006 z m 0,-39.119 -19.56,19.559 19.006,19.007 19.166,-19.169 v -38.009 z m -19.722,-19.719 19.168,19.165 19.005,-19.004 -19.559,-19.559 -18.614,-18.615 z m -19.395,19.719 19.003,19.007 19.006,-19.007 -19.006,-19.005 z m -0.556,-0.554 19.169,-19.165 v -38.013 l -18.613,18.615 -19.56,19.559 z m -19.166,19.951 19.166,19.169 19.006,-19.007 -19.557,-19.559 -18.615,-18.612 z m 18.615,19.722 -19.006,-19.006 -19.007,19.006 19.007,19.004 z m 0,78.234 -19.006,-19.003 -19.007,19.003 19.007,19.007 z m 0,78.236 -19.006,-19.006 -19.007,19.006 19.007,19.005 z m 0,78.235 -19.006,-19.005 -19.007,19.005 19.007,19.006 z m 0,78.237 -19.006,-19.006 -19.007,19.006 19.007,19.004 z m 0,78.233 -19.006,-19.006 -19.007,19.006 19.007,19.007 z m 0,78.236 -19.006,-19.005 -19.007,19.005 19.007,19.006 z m 0,78.236 -19.006,-19.007 -19.007,19.007 19.007,19.007 z m 0,39.117 -18.615,-18.614 v 38.01 l 19.166,19.17 19.006,-19.006 z m 19.72,-57.732 -18.613,18.615 -19.56,19.559 19.004,19.005 19.169,-19.169 z m 19.396,-20.502 -19.006,-19.006 -19.003,19.006 19.003,19.005 z m 39.095,39.111 -18.986,-18.961 -11.796,11.78 v 0.004 l -7.189,7.177 7.189,7.178 v 0.003 l 11.796,11.781 z M -977.937,0 -996.552,-18.614 V 19.34 l 4.416,4.409 14.748,14.728 18.976,-18.952 z m 23.238,-62.354 15.88,-15.88 -19.005,-19.006 -19.006,19.006 19.004,19.004 z m 54.974,23.231 -18.986,-18.961 -18.985,18.961 18.985,18.962 z M -899.701,0 -918.317,-18.614 v 29.046 8.904 l 4.419,4.413 14.747,14.728 18.975,-18.951 z m 21.881,-60.998 17.237,-17.236 -19.007,-19.006 -19.006,19.006 19.005,19.005 z m 36.954,42.386 -18.611,18.612 -19.529,19.529 4.225,4.22 14.747,14.728 19.168,-19.141 z m 9.076,-10.222 v -0.001 l 10.302,-10.288 -18.987,-18.961 -18.986,18.961 18.986,18.962 z m 10.322,28.797 -1.297,-1.295 c 0.051,0.062 0.104,0.127 0.155,0.188 l -17.473,-17.47 v 37.951 l 7.979,7.968 10.196,10.18 0.993,0.992 19.005,-18.981 z m 21.534,-60.613 17.584,-17.584 -19.005,-19.006 -19.006,19.006 19.005,19.005 z m 37.304,42.038 -18.614,18.612 -9.127,9.128 c -0.009,-0.008 -0.018,-0.017 -0.026,-0.024 l -9.377,9.364 -1.03,1.028 1.056,1.054 3.203,3.199 h 10e-4 l 14.745,14.728 19.169,-19.141 z m 19.376,-20.511 -18.986,-18.961 -11.796,11.78 v 0.004 l -7.189,7.177 7.189,7.178 v 0.003 l 11.796,11.781 z M -743.231,0 -761.847,-18.614 v 37.953 l 4.417,4.41 h 10e-4 l 14.747,14.728 18.975,-18.95 z m 21.511,-60.629 17.606,-17.605 -19.007,-19.006 -19.004,19.006 19.004,19.005 z m 37.325,42.016 -4.051,4.051 c -0.003,-0.003 -0.007,-0.006 -0.01,-0.01 l -10.617,10.604 0.014,0.018 -3.949,3.95 -19.528,19.528 4.226,4.221 14.748,14.728 19.167,-19.141 z m 19.376,-20.51 -18.986,-18.961 -18.985,18.961 18.985,18.962 z M -664.997,0 -683.61,-18.614 v 8.974 c 0,0 -10e-4,0 -10e-4,-10e-4 v 24.944 l 10e-4,10e-4 v 4.034 l 4.418,4.411 14.747,14.728 18.974,-18.95 z m 21.001,-60.116 18.115,-18.118 -19.004,-19.006 -19.006,19.006 19.006,19.005 z m 37.838,41.502 -18.615,18.614 -19.528,19.528 4.226,4.221 14.747,14.728 17.746,-17.721 v 0.063 l 1.424,-1.423 z m 19.397,-20.503 -19.007,-19.007 -1.814,1.815 v 0.036 l -17.173,17.15 17.173,17.15 v 0.047 l 1.814,1.816 z M -567.204,19.56 -577.898,8.864 V 8.863 L -586.761,0 -605.376,-18.614 v 38.01 l 19.169,19.17 8.309,-8.31 V 30.255 Z M -547.646,0 -566.65,-19.007 -577.898,-7.758 -585.656,0 -566.65,19.006 Z m 19.721,-18.614 -11.404,11.404 v 0.003 l -7.208,7.207 -19.56,19.56 19.005,19.004 19.167,-19.168 z m 19.399,-20.503 -19.007,-19.007 -11.796,11.797 v 0.002 l -7.208,7.208 7.208,7.208 v 0.002 l 11.796,11.797 z m 0,39.117 -18.616,-18.614 v 38.01 l 19.166,19.17 19.006,-19.006 z m 19.719,-57.732 -18.613,18.615 -19.559,19.559 19.003,19.005 19.169,-19.169 z m 19.397,-20.502 -19.006,-19.006 -19.004,19.006 19.004,19.005 z m 39.095,39.111 -18.987,-18.961 -11.796,11.78 v 0.004 l -7.188,7.177 7.188,7.178 v 0.003 l 11.796,11.781 z M -430.293,0 -448.907,-18.614 V 19.34 l 4.416,4.409 14.748,14.728 18.975,-18.952 z m 23.238,-62.354 15.88,-15.88 -19.005,-19.006 -19.006,19.006 19.004,19.004 z m 54.975,23.231 -18.986,-18.961 -18.986,18.961 18.986,18.962 z M -352.057,0 -370.673,-18.614 v 29.046 8.904 l 4.419,4.413 14.747,14.728 18.975,-18.951 z m 21.881,-60.998 17.238,-17.236 -19.007,-19.006 -19.006,19.006 19.005,19.005 z m 36.954,42.386 -18.61,18.612 -19.529,19.529 4.224,4.22 14.747,14.728 19.168,-19.141 z m 9.076,-10.222 v -0.001 l 10.302,-10.288 -18.986,-18.961 -18.986,18.961 18.986,18.962 z m 10.323,28.797 -1.297,-1.295 c 0.051,0.062 0.103,0.127 0.154,0.188 l -17.472,-17.47 v 37.951 l 7.979,7.968 10.195,10.18 0.993,0.992 19.004,-18.981 z m 21.534,-60.613 17.584,-17.584 -19.006,-19.006 -19.006,19.006 19.005,19.005 z m 37.304,42.038 L -233.6,0 l -9.128,9.128 c -0.007,-0.008 -0.016,-0.017 -0.025,-0.024 l -9.377,9.364 -1.029,1.028 1.055,1.054 3.204,3.199 14.746,14.728 19.169,-19.141 z m 19.376,-20.511 -18.987,-18.961 -11.796,11.78 v 0.004 l -7.188,7.177 7.188,7.178 v 0.003 l 11.796,11.781 z M -195.588,0 -214.202,-18.614 v 37.953 l 4.417,4.41 14.748,14.728 18.975,-18.95 z m 21.513,-60.629 17.605,-17.605 -19.007,-19.006 -19.003,19.006 19.002,19.005 z m 37.325,42.016 -4.052,4.051 c -0.003,-0.003 -0.007,-0.006 -0.01,-0.01 l -10.618,10.604 c 0.006,0.006 0.011,0.012 0.016,0.018 l -3.949,3.95 -19.529,19.528 4.226,4.221 14.748,14.728 19.168,-19.141 z m 19.376,-20.51 -18.986,-18.961 -18.986,18.961 18.986,18.962 z M -117.353,0 -135.966,-18.614 v 8.974 c 0,0 -0.001,0 -0.001,-10e-4 v 24.944 l 0.001,10e-4 v 4.034 l 4.418,4.411 14.747,14.728 18.975,-18.95 z m 21.001,-60.116 18.116,-18.118 -19.004,-19.006 -19.006,19.006 19.006,19.005 z M -58.514,-18.614 -77.129,0 l -19.528,19.528 4.226,4.221 14.747,14.728 17.746,-17.721 v 0.063 l 1.424,-1.423 z m -1.424,-37.695 v 0.036 l -17.172,17.15 17.172,17.15 v 0.047 l 1.815,1.816 19.007,-19.007 -19.007,-19.007 z m -17.191,-61.044 19.006,19.006 19.007,-19.006 -19.007,-19.005 z m 0,-78.236 19.006,19.007 19.007,-19.007 -19.007,-19.006 z m 0,-78.233 19.006,19.004 19.007,-19.004 -19.007,-19.006 z m 0,-78.237 19.006,19.006 19.007,-19.006 -19.007,-19.005 z m 0,-78.235 19.006,19.005 19.007,-19.005 -19.007,-19.006 z m 0,-78.236 19.006,19.007 19.007,-19.007 -19.007,-19.003 z m 0,-39.116 -19.559,19.557 19.005,19.006 19.169,-19.166 v -38.013 z m -19.72,-19.722 19.166,19.167 19.006,-19.006 -19.559,-19.557 -18.613,-18.615 z m -19.397,19.722 19.006,19.006 19.004,-19.006 -19.004,-19.007 z m -0.554,-0.555 19.168,-19.167 v -38.011 l -18.614,18.615 -19.56,19.557 z m -19.166,19.952 19.166,19.166 19.007,-19.006 -19.56,-19.557 -18.613,-18.616 z m -19.397,19.719 19.004,19.007 19.006,-19.007 -19.006,-19.003 z m 0,-39.116 -19.56,19.557 19.006,19.006 19.168,-19.166 v -38.013 z m -19.722,-19.722 19.168,19.167 19.004,-19.006 -19.557,-19.557 -18.615,-18.615 z m -19.395,19.722 19.003,19.006 19.007,-19.006 -19.007,-19.007 z m -0.556,-0.555 19.17,-19.167 v -38.011 l -18.614,18.615 -19.56,19.557 z m -19.166,19.952 19.166,19.166 19.007,-19.006 -19.559,-19.557 -18.614,-18.616 z m -19.398,19.719 19.006,19.007 19.006,-19.007 -19.006,-19.003 z m 0,-39.116 -19.557,19.557 19.004,19.006 19.17,-19.166 v -38.013 z m -19.719,-19.722 19.166,19.167 19.007,-19.006 -19.559,-19.557 -18.614,-18.615 z m -19.398,19.722 19.006,19.006 19.006,-19.006 -19.006,-19.007 z m -0.552,-0.555 19.168,-19.167 v -38.011 l -18.616,18.615 -19.557,19.557 z m -19.169,19.952 19.169,19.166 19.007,-19.006 -19.559,-19.557 -18.617,-18.616 z m -19.394,19.719 19.004,19.007 19.007,-19.007 -19.007,-19.003 z m 0,-39.116 -19.56,19.557 19.006,19.006 19.166,-19.166 v -38.013 z m -19.724,-19.722 19.17,19.167 19.006,-19.006 -19.558,-19.557 -18.618,-18.615 z m -19.395,19.722 19.006,19.006 19.007,-19.006 -19.007,-19.007 z m -0.554,-0.555 19.168,-19.167 v -38.011 l -18.614,18.615 -19.558,19.557 z m -19.168,19.952 19.168,19.166 19.007,-19.006 -19.559,-19.557 -18.616,-18.616 z m -19.395,19.719 19.006,19.007 19.005,-19.007 -19.005,-19.003 z m 0,-39.116 -19.56,19.557 19.006,19.006 19.168,-19.166 v -38.013 z m -19.72,-19.722 19.166,19.167 19.007,-19.006 -19.56,-19.557 -18.613,-18.615 z m -19.398,19.722 19.006,19.006 19.005,-19.006 -19.005,-19.007 z m -0.553,-0.555 19.168,-19.167 v -38.011 l -18.615,18.615 -19.559,19.557 z m -19.168,19.952 19.168,19.166 19.006,-19.006 -19.56,-19.557 -18.614,-18.616 z m -19.396,19.719 19.004,19.007 19.006,-19.007 -19.006,-19.003 z m 0,-39.116 -19.559,19.557 19.006,19.006 19.166,-19.166 v -38.013 z m -19.721,-19.722 19.168,19.167 19.004,-19.006 -19.558,-19.557 -18.614,-18.615 z m -19.396,19.722 19.004,19.006 19.006,-19.006 -19.006,-19.007 z m -0.556,-0.555 19.169,-19.167 v -38.011 l -18.613,18.615 -19.559,19.557 z m -19.166,19.952 19.166,19.166 19.006,-19.006 -19.556,-19.557 -18.616,-18.616 z m -12.187,12.51 v 0.002 l -7.208,7.207 7.208,7.208 v 0.002 l 11.796,11.797 19.007,-19.007 -19.007,-19.003 z m 0,-39.117 v 0.002 l -7.208,7.208 -19.56,19.557 19.005,19.005 19.167,-19.165 v -38.013 z m -8.317,-31.908 -18.613,-18.612 v 38.008 l 19.167,19.166 19.005,-19.005 z m -30.252,31.36 v 0 l -7.758,7.758 7.758,7.757 11.248,11.249 19.004,-19.006 -19.004,-19.007 z m -27.478,27.155 19.169,19.166 8.309,-8.31 v -10e-4 l 10.694,-10.695 -10.694,-10.694 v -10e-4 l -8.863,-8.862 -18.615,-18.616 z m -19.397,19.719 19.005,19.007 19.007,-19.007 -19.007,-19.003 z m 0,-39.116 -19.56,19.557 19.006,19.006 19.169,-19.166 v -38.013 z m -19.72,-19.722 19.166,19.167 19.006,-19.006 -19.56,-19.557 -18.612,-18.615 z m -19.398,19.722 19.006,19.006 19.004,-19.006 -19.004,-19.007 z m -0.553,-0.555 19.168,-19.167 v -38.011 l -18.615,18.615 -19.559,19.557 z m -19.166,19.952 19.166,19.166 19.007,-19.006 -19.56,-19.557 -18.613,-18.616 z m -19.398,19.719 19.004,19.007 19.007,-19.007 -19.007,-19.003 z m 0,-39.116 -19.559,19.557 19.005,19.006 19.168,-19.166 v -38.013 z m -19.721,-19.722 19.167,19.167 19.004,-19.006 -19.556,-19.557 -18.615,-18.615 z m -19.396,19.722 19.004,19.006 19.007,-19.006 -19.007,-19.007 z m -0.556,-0.555 19.171,-19.167 v -38.011 l -18.615,18.615 -19.56,19.557 z m -19.166,19.952 19.166,19.166 19.007,-19.006 -19.557,-19.557 -18.616,-18.616 z m -19.397,19.719 19.006,19.007 19.007,-19.007 -19.007,-19.003 z m 0,-39.116 -19.558,19.557 19.004,19.006 19.17,-19.166 v -38.013 z m -19.72,-19.722 19.166,19.167 19.007,-19.006 -19.559,-19.557 -18.614,-18.615 z m -19.397,19.722 19.006,19.006 19.005,-19.006 -19.005,-19.007 z m -0.552,-0.555 19.168,-19.167 v -38.011 l -18.616,18.615 -19.558,19.557 z m -19.17,19.952 19.17,19.166 19.007,-19.006 -19.56,-19.557 -18.617,-18.616 z m -19.394,19.719 19.004,19.007 19.007,-19.007 -19.007,-19.003 z m 0,-39.116 -19.559,19.557 19.006,19.006 19.166,-19.166 v -38.013 z m -19.723,-19.722 19.17,19.167 19.006,-19.006 -19.559,-19.557 -18.617,-18.615 z m -19.396,19.722 19.006,19.006 19.007,-19.006 -19.007,-19.007 z m -0.553,-0.555 19.168,-19.167 v -38.011 l -18.615,18.615 -19.557,19.557 z m -19.168,19.952 19.168,19.166 19.006,-19.006 -19.558,-19.557 -18.616,-18.616 z m -19.396,19.719 19.006,19.007 19.006,-19.007 -19.006,-19.003 z m 0,-39.116 -19.559,19.557 19.005,19.006 19.168,-19.166 v -38.013 z m -19.72,-19.722 19.166,19.167 19.007,-19.006 -19.559,-19.557 -18.614,-18.615 z m -19.397,19.722 19.006,19.006 19.005,-19.006 -19.005,-19.007 z m -0.554,-0.555 19.169,-19.167 v -38.011 l -18.615,18.615 -19.56,19.557 z m -19.168,19.952 19.168,19.166 19.006,-19.006 -19.559,-19.557 -18.615,-18.616 z m -19.395,19.719 19.004,19.007 19.006,-19.007 -19.006,-19.003 z m 0,-39.116 -19.56,19.557 19.006,19.006 19.166,-19.166 v -38.013 z m -19.722,-19.722 19.168,19.167 19.005,-19.006 -19.559,-19.557 -18.614,-18.615 z m -19.395,19.722 19.003,19.006 19.006,-19.006 -19.006,-19.007 z m -0.556,-0.555 19.169,-19.167 v -38.011 l -18.613,18.615 -19.56,19.557 z m 19.006,20.112 -19.557,-19.557 -18.615,-18.616 v 38.013 l 19.166,19.166 z m -19.006,58.123 19.169,-19.166 v -38.012 l -18.613,18.614 -19.56,19.56 z m 19.006,20.113 -19.557,-19.56 -18.615,-18.612 v 38.01 l 19.166,19.168 z m -19.006,58.124 19.169,-19.167 v -38.011 l -18.613,18.613 -19.56,19.559 z m 19.006,20.113 -19.557,-19.561 -18.615,-18.613 v 38.012 l 19.166,19.166 z m -19.006,58.121 19.169,-19.166 v -38.01 l -18.613,18.612 -19.56,19.559 z m 19.006,20.113 -19.557,-19.559 -18.615,-18.614 v 38.01 l 19.166,19.169 z m -19.006,58.123 19.169,-19.168 v -38.01 l -18.613,18.615 -19.56,19.557 z m 19.006,20.113 -19.557,-19.559 -18.615,-18.615 v 38.01 l 0.162,0.164 19.004,19.004 z m -19.006,58.122 19.169,-19.166 v -38.012 l -18.613,18.613 -19.56,19.561 z m 19.006,20.113 -19.557,-19.56 -18.615,-18.613 v 38.011 l 19.166,19.168 z m 19.559,-19.56 -19.006,-19.005 -19.003,19.005 19.003,19.006 z m 19.559,58.677 -19.559,-19.559 -18.614,-18.616 v 38.013 l 19.168,19.168 z m 19.559,-19.559 -19.006,-19.005 -19.004,19.005 19.004,19.006 z m 19.722,-18.616 -18.615,18.616 -19.56,19.559 19.006,19.006 19.169,-19.168 z m 19.396,-20.502 -19.005,-19.005 -19.006,19.005 19.006,19.006 z m 19.559,58.677 -19.559,-19.559 -18.614,-18.616 v 38.013 l 19.166,19.168 z m 19.559,-19.559 -19.006,-19.005 -19.006,19.005 19.006,19.006 z m 19.72,-18.616 -18.615,18.616 -19.557,19.559 19.004,19.006 19.168,-19.168 z m 19.398,-20.502 -19.007,-19.005 -19.006,19.005 19.006,19.006 z m 19.559,58.677 -19.559,-19.559 -18.617,-18.616 v 38.013 l 19.17,19.168 z m 19.558,-19.559 -19.007,-19.005 -19.004,19.005 19.004,19.006 z m 19.721,-18.616 -18.616,18.616 -19.558,19.559 19.006,19.006 19.168,-19.168 z m 19.395,-20.502 -19.005,-19.005 -19.006,19.005 19.006,19.006 z m 19.559,58.677 -19.559,-19.559 -18.614,-18.616 v 38.013 l 19.166,19.168 z m 19.56,-19.559 -19.007,-19.005 -19.006,19.005 19.006,19.006 z m 19.721,-18.616 -18.615,18.616 -19.56,19.559 19.004,19.006 19.171,-19.168 z m 19.396,-20.502 -19.007,-19.005 -19.004,19.005 19.004,19.006 z m 19.556,58.677 -19.556,-19.559 -18.615,-18.616 v 38.013 l 19.167,19.168 z m 19.561,-19.559 -19.007,-19.005 -19.004,19.005 19.004,19.006 z m 19.721,-18.616 -18.615,18.616 -19.559,19.559 19.006,19.006 19.168,-19.168 z m 19.395,-20.502 -19.004,-19.005 -19.006,19.005 19.006,19.006 z m 19.56,58.677 -19.56,-19.559 -18.612,-18.616 v 38.013 l 19.166,19.168 z m 19.56,-19.559 -19.007,-19.005 -19.005,19.005 19.005,19.006 z m 8.863,69.373 v -0.001 l 10.694,-10.696 -10.694,-10.694 v -0.001 l -8.863,-8.862 -18.615,-18.618 v 38.015 l 19.169,19.166 z m 10.856,28.258 v -38.009 l -18.614,18.614 -19.558,19.559 19.007,19.005 8.309,-8.309 v -0.002 z m 19.396,-58.512 -19.004,-19.006 -11.248,11.248 -7.758,7.758 7.758,7.757 11.248,11.248 z m 0,39.117 -18.613,-18.612 v 38.007 l 19.167,19.167 19.005,-19.003 z m 19.721,-57.735 -11.404,11.407 v 0.002 l -7.208,7.209 -19.56,19.557 19.005,19.005 19.167,-19.165 z m 19.399,-20.501 -19.007,-19.005 -11.796,11.795 v 0.004 l -7.208,7.206 7.208,7.209 v 0.001 l 11.796,11.796 z m 0,39.119 -18.616,-18.618 v 38.015 l 19.166,19.166 19.006,-19.006 z m 19.719,-57.735 -18.613,18.616 -19.559,19.559 19.003,19.006 19.169,-19.168 z m 19.397,-20.502 -19.006,-19.005 -19.004,19.005 19.004,19.006 z m 19.558,58.677 -19.558,-19.559 -18.614,-18.616 v 38.013 l 19.168,19.168 z m 19.559,-19.559 -19.006,-19.005 -19.004,19.005 19.004,19.006 z m 19.722,-18.616 -18.615,18.616 -19.559,19.559 19.006,19.006 19.168,-19.168 z m 19.396,-20.502 -19.005,-19.005 -19.006,19.005 19.006,19.006 z m 19.56,58.677 -19.56,-19.559 -18.613,-18.616 v 38.013 l 19.166,19.168 z m 19.558,-19.559 -19.005,-19.005 -19.006,19.005 19.006,19.006 z m 19.72,-18.616 -18.614,18.616 -19.558,19.559 19.004,19.006 19.168,-19.168 z m 19.399,-20.502 -19.007,-19.005 -19.006,19.005 19.006,19.006 z m 19.558,58.677 -19.558,-19.559 -18.618,-18.616 v 38.013 l 19.17,19.168 z m 19.559,-19.559 -19.007,-19.005 -19.004,19.005 19.004,19.006 z m 19.72,-18.616 -18.616,18.616 -19.557,19.559 19.005,19.006 19.168,-19.168 z m 19.396,-20.502 -19.006,-19.005 -19.006,19.005 19.006,19.006 z m 19.559,58.677 -19.559,-19.559 -18.614,-18.616 v 38.013 l 19.166,19.168 z m 19.558,-19.559 -19.006,-19.005 -19.006,19.005 19.006,19.006 z m 19.722,-18.616 -18.614,18.616 -19.56,19.559 19.004,19.006 19.17,-19.168 z m 19.396,-20.502 -19.007,-19.005 -19.003,19.005 19.003,19.006 z m 19.557,58.677 -19.557,-19.559 -18.615,-18.616 v 38.013 l 19.168,19.168 z m 19.56,-19.559 -19.006,-19.005 -19.004,19.005 19.004,19.006 z m 19.721,-18.616 -18.614,18.616 -19.56,19.559 19.006,19.006 19.168,-19.168 z m 19.396,-20.502 -19.004,-19.005 -19.006,19.005 19.006,19.006 z m 1.107,0 -19.559,19.56 19.005,19.006 19.169,-19.168 v -38.011 z m -1.107,-39.118 -18.613,-18.613 v 38.012 l 19.166,19.166 19.006,-19.004 z m 1.107,-39.116 -19.559,19.559 19.005,19.004 19.006,-19.004 0.163,-0.164 v -38.01 z m -1.107,-39.117 -18.613,-18.615 v 38.01 l 19.166,19.168 19.006,-19.006 z m 1.107,-39.119 -19.559,19.559 19.005,19.006 19.169,-19.169 v -38.01 z m -1.107,-39.118 -18.613,-18.612 v 38.01 l 19.166,19.166 19.006,-19.005 z m 1.107,-39.118 -19.559,19.561 19.005,19.004 19.169,-19.166 v -38.012 z m -1.107,-39.117 -18.613,-18.613 v 38.011 l 19.166,19.167 19.006,-19.006 z m 1.107,-39.119 -19.559,19.56 19.005,19.006 19.169,-19.168 v -38.01 z m -19.72,-19.719 19.166,19.166 19.006,-19.004 -19.559,-19.56 -18.613,-18.614 z m -19.397,19.719 19.006,19.007 19.004,-19.007 -19.004,-19.004 z m -0.554,-0.553 19.168,-19.166 v -38.012 l -18.614,18.614 -19.56,19.56 z m -19.166,19.951 19.166,19.168 19.007,-19.006 -19.56,-19.56 -18.613,-18.612 z m -19.397,19.721 19.004,19.005 19.006,-19.005 -19.006,-19.006 z m 0,-39.119 -19.56,19.56 19.006,19.006 19.168,-19.168 v -38.01 z m -19.722,-19.719 19.168,19.166 19.004,-19.004 -19.557,-19.56 -18.615,-18.614 z m -19.395,19.719 19.003,19.007 19.007,-19.007 -19.007,-19.004 z m -0.556,-0.553 19.17,-19.166 v -38.012 l -18.614,18.614 -19.56,19.56 z m -19.166,19.951 19.166,19.168 19.007,-19.006 -19.559,-19.56 -18.614,-18.612 z m -19.398,19.721 19.006,19.005 19.006,-19.005 -19.006,-19.006 z m 0,-39.119 -19.557,19.56 19.004,19.006 19.17,-19.168 v -38.01 z m -19.719,-19.719 19.166,19.166 19.007,-19.004 -19.559,-19.56 -18.614,-18.614 z m -19.398,19.719 19.006,19.007 19.006,-19.007 -19.006,-19.004 z m -0.552,-0.553 19.168,-19.166 v -38.012 l -18.616,18.614 -19.557,19.56 z m -19.169,19.951 19.169,19.168 19.007,-19.006 -19.559,-19.56 -18.617,-18.612 z m -19.394,19.721 19.004,19.005 19.007,-19.005 -19.007,-19.006 z m 0,-39.119 -19.56,19.56 19.006,19.006 19.166,-19.168 v -38.01 z m -19.724,-19.719 19.17,19.166 19.006,-19.004 -19.558,-19.56 -18.618,-18.614 z m -19.395,19.719 19.006,19.007 19.007,-19.007 -19.007,-19.004 z m -0.554,-0.553 19.168,-19.166 v -38.012 l -18.614,18.614 -19.558,19.56 z m -19.168,19.951 19.168,19.168 19.007,-19.006 -19.559,-19.56 -18.616,-18.612 z m -19.395,19.721 19.006,19.005 19.005,-19.005 -19.005,-19.006 z m 0,-39.119 -19.56,19.56 19.006,19.006 19.168,-19.168 v -38.01 z m -19.72,-19.719 19.166,19.166 19.007,-19.004 -19.56,-19.56 -18.613,-18.614 z m -19.398,19.719 19.006,19.007 19.005,-19.007 -19.005,-19.004 z m -0.553,-0.553 19.168,-19.166 v -38.012 l -18.615,18.614 -19.559,19.56 z m -19.168,19.951 19.168,19.168 19.006,-19.006 -19.56,-19.56 -18.614,-18.612 z m -19.396,19.721 19.004,19.005 19.006,-19.005 -19.006,-19.006 z m 0,-39.119 -19.559,19.56 19.006,19.006 19.166,-19.168 v -38.01 z m -19.721,-19.719 19.168,19.166 19.004,-19.004 -19.558,-19.56 -18.614,-18.614 z m -19.396,19.719 19.004,19.007 19.006,-19.007 -19.006,-19.004 z m -0.556,-0.553 19.169,-19.166 v -38.012 l -18.613,18.614 -19.559,19.56 z m -19.166,19.951 19.166,19.168 19.006,-19.006 -19.556,-19.56 -18.616,-18.612 z m -12.187,12.511 v 0.003 l -7.208,7.207 7.208,7.208 v 0.002 l 11.796,11.795 19.007,-19.005 -19.007,-19.006 z m 0,-39.118 v 0.002 l -7.208,7.207 -19.56,19.56 19.005,19.005 19.167,-19.167 v -38.01 z m -8.317,-31.908 -18.613,-18.612 v 38.01 l 19.167,19.165 19.005,-19.003 z m -38.01,39.117 7.758,7.758 11.248,11.249 19.004,-19.007 -19.004,-19.004 z m -19.72,19.398 19.169,19.168 8.309,-8.309 v -10e-4 l 10.694,-10.696 -10.694,-10.695 v -0.002 l -8.863,-8.863 -18.615,-18.612 z m -19.397,19.721 19.005,19.005 19.007,-19.005 -19.007,-19.006 z m 0,-39.119 -19.56,19.56 19.006,19.006 19.169,-19.168 v -38.01 z m -19.72,-19.719 19.166,19.166 19.006,-19.004 -19.56,-19.56 -18.612,-18.614 z m -19.398,19.719 19.006,19.007 19.004,-19.007 -19.004,-19.004 z m -0.553,-0.553 19.168,-19.166 v -38.012 l -18.615,18.614 -19.559,19.56 z m -19.166,19.951 19.166,19.168 19.007,-19.006 -19.56,-19.56 -18.613,-18.612 z m -19.398,19.721 19.004,19.005 19.007,-19.005 -19.007,-19.006 z m 0,-39.119 -19.559,19.56 19.005,19.006 19.168,-19.168 v -38.01 z m -19.721,-19.719 19.167,19.166 19.004,-19.004 -19.556,-19.56 -18.615,-18.614 z m -19.396,19.719 19.004,19.007 19.007,-19.007 -19.007,-19.004 z m -0.556,-0.553 19.171,-19.166 v -38.012 l -18.615,18.614 -19.56,19.56 z m -19.166,19.951 19.166,19.168 19.007,-19.006 -19.557,-19.56 -18.616,-18.612 z m -19.397,19.721 19.006,19.005 19.007,-19.005 -19.007,-19.006 z m 0,-39.119 -19.558,19.56 19.004,19.006 19.17,-19.168 v -38.01 z m -19.72,-19.719 19.166,19.166 19.007,-19.004 -19.559,-19.56 -18.614,-18.614 z m -19.397,19.719 19.006,19.007 19.005,-19.007 -19.005,-19.004 z m -0.552,-0.553 19.168,-19.166 v -38.012 l -18.616,18.614 -19.558,19.56 z m -19.17,19.951 19.17,19.168 19.007,-19.006 -19.56,-19.56 -18.617,-18.612 z m -19.394,19.721 19.004,19.005 19.007,-19.005 -19.007,-19.006 z m 0,-39.119 -19.559,19.56 19.006,19.006 19.166,-19.168 v -38.01 z m -19.723,-19.719 19.17,19.166 19.006,-19.004 -19.559,-19.56 -18.617,-18.614 z m -19.396,19.719 19.006,19.007 19.007,-19.007 -19.007,-19.004 z m -0.553,-0.553 19.168,-19.166 v -38.012 l -18.615,18.614 -19.557,19.56 z m -19.168,19.951 19.168,19.168 19.006,-19.006 -19.558,-19.56 -18.616,-18.612 z m -19.396,19.721 19.006,19.005 19.006,-19.005 -19.006,-19.006 z m 0,-39.119 -19.559,19.56 19.005,19.006 19.168,-19.168 v -38.01 z m -19.72,-19.719 19.166,19.166 19.007,-19.004 -19.559,-19.56 -18.614,-18.614 z m -19.397,19.719 19.006,19.007 19.005,-19.007 -19.005,-19.004 z m -0.554,-0.553 19.169,-19.166 v -38.012 l -18.615,18.614 -19.56,19.56 z m -19.168,19.951 19.168,19.168 19.006,-19.006 -19.559,-19.56 -18.615,-18.612 z m -19.395,19.721 19.004,19.005 19.006,-19.005 -19.006,-19.006 z m 0,-39.119 -19.56,19.56 19.006,19.006 19.166,-19.168 v -38.01 z m -19.722,-19.719 19.168,19.166 19.005,-19.004 -19.559,-19.56 -18.614,-18.614 z m 18.614,19.719 -19.006,-19.004 -19.003,19.004 19.003,19.007 z m 0,78.236 -19.006,-19.005 -19.003,19.005 19.003,19.006 z m 0,78.236 -19.006,-19.004 -19.003,19.004 19.003,19.006 z m 0,78.236 -19.006,-19.007 -19.003,19.007 19.003,19.004 z m 19.559,58.677 -19.559,-19.561 -18.614,-18.613 v 38.012 l 19.168,19.166 z m 0.161,0.944 -18.612,18.613 -19.56,19.56 19.006,19.006 19.166,-19.168 z m 19.398,-20.505 -19.006,-19.006 -19.004,19.006 19.004,19.007 z m 0,39.118 -18.615,-18.613 v 38.011 l 19.168,19.168 19.006,-19.006 z m 19.722,-57.731 -18.615,18.613 -19.56,19.561 19.006,19.004 19.169,-19.166 z m 19.396,-20.503 -19.005,-19.007 -19.006,19.007 19.006,19.004 z m 19.559,58.677 -19.559,-19.561 -18.614,-18.613 v 38.012 l 19.166,19.166 z m 0.161,0.944 -18.614,18.613 -19.559,19.56 19.005,19.006 19.168,-19.168 z m 19.398,-20.505 -19.006,-19.006 -19.006,19.006 19.006,19.007 z m 0,39.118 -18.616,-18.613 v 38.011 l 19.168,19.168 19.006,-19.006 z m 19.72,-57.731 -18.615,18.613 -19.557,19.561 19.004,19.004 19.168,-19.166 z m 19.398,-20.503 -19.007,-19.007 -19.006,19.007 19.006,19.004 z m 19.559,58.677 -19.559,-19.561 -18.617,-18.613 v 38.012 l 19.17,19.166 z m 0.16,0.944 -18.613,18.613 -19.559,19.56 19.006,19.006 19.166,-19.168 z m 19.398,-20.505 -19.007,-19.006 -19.004,19.006 19.004,19.007 z m 0,39.118 -18.617,-18.613 v 38.011 l 19.17,19.168 19.007,-19.006 z m 19.721,-57.731 -18.616,18.613 -19.558,19.561 19.006,19.004 19.168,-19.166 z m 19.395,-20.503 -19.005,-19.007 -19.006,19.007 19.006,19.004 z m 19.559,58.677 -19.559,-19.561 -18.614,-18.613 v 38.012 l 19.166,19.166 z m 0.163,0.944 -18.616,18.613 -19.558,19.56 19.004,19.006 19.17,-19.168 z m 19.397,-20.505 -19.007,-19.006 -19.006,19.006 19.006,19.007 z m 0,39.118 -18.616,-18.613 v 38.011 l 19.166,19.168 19.007,-19.006 z m 19.721,-57.731 -18.615,18.613 -19.56,19.561 19.004,19.004 19.171,-19.166 z m 19.396,-20.503 -19.007,-19.007 -19.004,19.007 19.004,19.004 z m 19.556,58.677 -19.556,-19.561 -18.615,-18.613 v 38.012 l 19.167,19.166 z m 0.164,0.944 -18.614,18.613 -19.559,19.56 19.005,19.006 19.168,-19.168 z m 19.397,-20.505 -19.007,-19.006 -19.004,19.006 19.004,19.007 z m 0,39.118 -18.613,-18.613 v 38.011 l 19.166,19.168 19.007,-19.006 z m 19.721,-57.731 -18.615,18.613 -19.559,19.561 19.006,19.004 19.168,-19.166 z m 19.395,-20.503 -19.004,-19.007 -19.006,19.007 19.006,19.004 z m 19.56,58.677 -19.56,-19.561 -18.612,-18.613 v 38.012 l 19.166,19.166 z m 0.163,0.944 -18.615,18.613 -19.56,19.56 19.006,19.006 19.169,-19.168 z m 19.397,-20.505 -19.007,-19.006 -19.005,19.006 19.005,19.007 z m 8.863,69.374 v -10e-4 l 10.694,-10.695 -10.694,-10.695 v -0.001 l -8.863,-8.864 -18.615,-18.613 v 38.011 l 19.169,19.168 z m 10.856,28.259 v -38.012 l -18.614,18.615 -19.558,19.559 19.007,19.006 8.309,-8.31 V -87.1 Z m 19.396,-58.515 -19.004,-19.005 -19.006,19.005 7.758,7.758 11.248,11.248 z m 0,39.118 -18.613,-18.613 v 38.01 l 19.167,19.166 19.005,-19.004 z m 19.721,-57.731 -11.404,11.404 v 0.002 l -7.208,7.207 -19.56,19.56 19.005,19.005 19.167,-19.167 z m 19.399,-20.505 -19.007,-19.006 -11.796,11.796 v 0.004 l -7.208,7.206 7.208,7.209 v 0.001 l 11.796,11.797 z m 0,39.118 -18.616,-18.613 v 38.011 l 19.166,19.168 19.006,-19.006 z m 19.719,-57.731 -18.613,18.613 -19.559,19.561 19.003,19.004 19.169,-19.166 z m 19.397,-20.503 -19.006,-19.007 -19.004,19.007 19.004,19.004 z m 19.558,58.677 -19.558,-19.561 -18.614,-18.613 v 38.012 l 19.168,19.166 z m 0.162,0.944 -18.613,18.613 -19.559,19.56 19.006,19.006 19.166,-19.168 z m 19.397,-20.505 -19.006,-19.006 -19.004,19.006 19.004,19.007 z m 0,39.118 -18.614,-18.613 v 38.011 l 19.168,19.168 19.006,-19.006 z m 19.722,-57.731 -18.615,18.613 -19.559,19.561 19.006,19.004 19.168,-19.166 z m 19.396,-20.503 -19.005,-19.007 -19.006,19.007 19.006,19.004 z m 19.56,58.677 -19.56,-19.561 -18.613,-18.613 v 38.012 l 19.166,19.166 z m 0.161,0.944 -18.614,18.613 -19.56,19.56 19.006,19.006 19.168,-19.168 z m 19.397,-20.505 -19.005,-19.006 -19.006,19.006 19.006,19.007 z m 0,39.118 -18.616,-18.613 v 38.011 l 19.168,19.168 19.007,-19.006 z m 19.72,-57.731 -18.614,18.613 -19.558,19.561 19.004,19.004 19.168,-19.166 z m 19.399,-20.503 -19.007,-19.007 -19.006,19.007 19.006,19.004 z m 19.558,58.677 -19.558,-19.561 -18.618,-18.613 v 38.012 l 19.17,19.166 z m 0.16,0.944 -18.612,18.613 -19.56,19.56 19.006,19.006 19.166,-19.168 z m 19.399,-20.505 -19.007,-19.006 -19.004,19.006 19.004,19.007 z m 0,39.118 -18.617,-18.613 v 38.011 l 19.169,19.168 19.007,-19.006 z m 19.72,-57.731 -18.616,18.613 -19.557,19.561 19.005,19.004 19.168,-19.166 z m 19.396,-20.503 -19.006,-19.007 -19.006,19.007 19.006,19.004 z m 19.559,58.677 -19.559,-19.561 -18.614,-18.613 v 38.012 l 19.166,19.166 z m 0.163,0.944 -18.617,18.613 -19.557,19.56 19.004,19.006 19.17,-19.168 z m 19.395,-20.505 -19.006,-19.006 -19.006,19.006 19.006,19.007 z m 0,39.118 -18.614,-18.613 v 38.011 l 19.166,19.168 19.007,-19.006 z m 19.722,-57.731 -18.614,18.613 -19.56,19.561 19.004,19.004 19.17,-19.166 z m 19.396,-20.503 -19.007,-19.007 -19.003,19.007 19.003,19.004 z m 19.557,58.677 -19.557,-19.561 -18.615,-18.613 v 38.012 l 19.168,19.166 z m 0.164,0.944 -18.614,18.613 -19.56,19.56 19.006,19.006 19.168,-19.168 z m 19.396,-20.505 -19.006,-19.006 -19.004,19.006 19.004,19.007 z m 0,39.118 -18.613,-18.613 v 38.011 l 19.166,19.168 19.007,-19.006 z m 19.721,-57.731 -18.614,18.613 -19.56,19.561 19.006,19.004 19.168,-19.166 z m -18.614,-20.503 19.006,19.004 19.004,-19.004 -19.004,-19.007 z m 0,-78.236 19.006,19.006 19.004,-19.006 -19.004,-19.004 z m 0,-78.236 19.006,19.006 19.004,-19.006 -19.004,-19.005 z m -0.554,-0.552 19.168,-19.167 v -38.011 l -18.614,18.613 -19.56,19.559 z m -19.166,19.951 19.166,19.166 19.007,-19.004 -19.56,-19.561 -18.613,-18.613 z m -19.397,19.719 19.004,19.006 19.006,-19.006 -19.006,-19.005 z m 0,-39.118 -19.56,19.561 19.006,19.004 19.168,-19.166 v -38.012 z m -19.722,-19.719 19.168,19.167 19.004,-19.006 -19.557,-19.559 -18.615,-18.613 z m -19.395,19.719 19.003,19.006 19.007,-19.006 -19.007,-19.005 z m -0.556,-0.552 19.17,-19.167 v -38.011 l -18.614,18.613 -19.56,19.559 z m -19.166,19.951 19.166,19.166 19.007,-19.004 -19.559,-19.561 -18.614,-18.613 z m -19.398,19.719 19.006,19.006 19.006,-19.006 -19.006,-19.005 z m 0,-39.118 -19.557,19.561 19.004,19.004 19.17,-19.166 v -38.012 z m -19.719,-19.719 19.166,19.167 19.007,-19.006 -19.559,-19.559 -18.614,-18.613 z m -19.398,19.719 19.006,19.006 19.006,-19.006 -19.006,-19.005 z m -0.552,-0.552 19.168,-19.167 v -38.011 l -18.616,18.613 -19.557,19.559 z m -19.169,19.951 19.169,19.166 19.007,-19.004 -19.559,-19.561 -18.617,-18.613 z m -19.394,19.719 19.004,19.006 19.007,-19.006 -19.007,-19.005 z m 0,-39.118 -19.56,19.561 19.006,19.004 19.166,-19.166 v -38.012 z m -19.724,-19.719 19.17,19.167 19.006,-19.006 -19.558,-19.559 -18.618,-18.613 z m -19.395,19.719 19.006,19.006 19.007,-19.006 -19.007,-19.005 z m -0.554,-0.552 19.168,-19.167 v -38.011 l -18.614,18.613 -19.558,19.559 z m -19.168,19.951 19.168,19.166 19.007,-19.004 -19.559,-19.561 -18.616,-18.613 z m -19.395,19.719 19.006,19.006 19.005,-19.006 -19.005,-19.005 z m 0,-39.118 -19.56,19.561 19.006,19.004 19.168,-19.166 v -38.012 z m -19.72,-19.719 19.166,19.167 19.007,-19.006 -19.56,-19.559 -18.613,-18.613 z m -19.398,19.719 19.006,19.006 19.005,-19.006 -19.005,-19.005 z m -0.553,-0.552 19.168,-19.167 v -38.011 l -18.615,18.613 -19.559,19.559 z m -19.168,19.951 19.168,19.166 19.006,-19.004 -19.56,-19.561 -18.614,-18.613 z m -19.396,19.719 19.004,19.006 19.006,-19.006 -19.006,-19.005 z m 0,-39.118 -19.559,19.561 19.006,19.004 19.166,-19.166 v -38.012 z m -19.721,-19.719 19.168,19.167 19.004,-19.006 -19.558,-19.559 -18.614,-18.613 z m -19.396,19.719 19.004,19.006 19.006,-19.006 -19.006,-19.005 z m -0.556,-0.552 19.169,-19.167 v -38.011 l -18.613,18.613 -19.559,19.559 z m -19.166,19.951 19.166,19.166 19.006,-19.004 -19.556,-19.561 -18.616,-18.613 z m -12.187,12.509 v 0.002 l -7.208,7.208 7.208,7.207 v 0.003 l 11.796,11.796 19.007,-19.006 -19.007,-19.005 z m 0,-39.117 v 0.002 l -7.208,7.207 -19.56,19.561 19.005,19.002 19.167,-19.164 v -38.012 z m -8.317,-31.908 -18.613,-18.611 v 38.009 l 19.167,19.165 19.005,-19.004 z m -30.252,31.36 v 0 l -7.758,7.757 19.006,19.006 19.004,-19.006 -19.004,-19.005 z m -8.309,7.205 8.309,-8.31 v -0.001 l 10.856,-10.856 v -38.011 l -18.614,18.613 -19.558,19.559 z m -19.169,19.951 19.169,19.166 8.309,-8.309 v -0.002 l 10.694,-10.693 -10.694,-10.696 v 0 l -8.863,-8.865 -18.615,-18.613 z m -19.397,19.719 19.005,19.006 19.007,-19.006 -19.007,-19.005 z m 0,-39.118 -19.56,19.561 19.006,19.004 19.169,-19.166 v -38.012 z m -19.72,-19.719 19.166,19.167 19.006,-19.006 -19.56,-19.559 -18.612,-18.613 z m -19.398,19.719 19.006,19.006 19.004,-19.006 -19.004,-19.005 z m -0.553,-0.552 19.168,-19.167 v -38.011 l -18.615,18.613 -19.559,19.559 z m -19.166,19.951 19.166,19.166 19.007,-19.004 -19.56,-19.561 -18.613,-18.613 z m -19.398,19.719 19.004,19.006 19.007,-19.006 -19.007,-19.005 z m 0,-39.118 -19.559,19.561 19.005,19.004 19.168,-19.166 v -38.012 z m -19.721,-19.719 19.167,19.167 19.004,-19.006 -19.556,-19.559 -18.615,-18.613 z m -19.396,19.719 19.004,19.006 19.007,-19.006 -19.007,-19.005 z m -0.556,-0.552 19.171,-19.167 v -38.011 l -18.615,18.613 -19.56,19.559 z m -19.166,19.951 19.166,19.166 19.007,-19.004 -19.557,-19.561 -18.616,-18.613 z m -19.397,19.719 19.006,19.006 19.007,-19.006 -19.007,-19.005 z m 0,-39.118 -19.558,19.561 19.004,19.004 19.17,-19.166 v -38.012 z m -19.72,-19.719 19.166,19.167 19.007,-19.006 -19.559,-19.559 -18.614,-18.613 z m -19.397,19.719 19.006,19.006 19.005,-19.006 -19.005,-19.005 z m -0.552,-0.552 19.168,-19.167 v -38.011 l -18.616,18.613 -19.558,19.559 z m -19.17,19.951 19.17,19.166 19.007,-19.004 -19.56,-19.561 -18.617,-18.613 z m -19.394,19.719 19.004,19.006 19.007,-19.006 -19.007,-19.005 z m 0,-39.118 -19.559,19.561 19.006,19.004 19.166,-19.166 v -38.012 z m -19.723,-19.719 19.17,19.167 19.006,-19.006 -19.559,-19.559 -18.617,-18.613 z m -19.396,19.719 19.006,19.006 19.007,-19.006 -19.007,-19.005 z m -0.553,-0.552 19.168,-19.167 v -38.011 l -18.615,18.613 -19.557,19.559 z m -19.168,19.951 19.168,19.166 19.006,-19.004 -19.558,-19.561 -18.616,-18.613 z m -19.396,19.719 19.006,19.006 19.006,-19.006 -19.006,-19.005 z m 0,-39.118 -19.559,19.561 19.005,19.004 19.168,-19.166 v -38.012 z m -19.72,-19.719 19.166,19.167 19.007,-19.006 -19.559,-19.559 -18.614,-18.613 z m -19.397,19.719 19.006,19.006 19.005,-19.006 -19.005,-19.005 z m -0.554,-0.552 19.169,-19.167 v -38.011 l -18.615,18.613 -19.56,19.559 z m -19.168,19.951 19.168,19.166 19.006,-19.004 -19.559,-19.561 -18.615,-18.613 z m -19.395,19.719 19.004,19.006 19.006,-19.006 -19.006,-19.005 z m 18.451,19.559 -19.559,-19.559 -18.614,-18.612 v 38.01 l 19.168,19.166 z m -19.005,58.124 19.166,-19.169 v -38.01 l -18.612,18.614 -19.56,19.559 z m 19.005,20.111 -19.559,-19.557 -18.614,-18.615 v 38.01 l 19.168,19.168 z m 0.161,0.945 -18.612,18.615 -19.56,19.559 19.006,19.004 19.005,-19.004 0.161,-0.164 z m 19.398,-20.502 -19.006,-19.006 -19.004,19.006 19.004,19.004 z m 0,39.117 -18.615,-18.615 v 38.01 l 0.162,0.164 19.006,19.004 19.006,-19.004 z m 19.722,-57.732 -18.615,18.615 -19.56,19.557 19.006,19.006 19.169,-19.168 z m -38.337,-39.118 v 38.01 l 19.168,19.169 19.006,-19.006 -19.559,-19.559 z m 19.168,18.06 19.169,-19.166 v -38.01 l -18.615,18.612 -19.56,19.559 z m 38.565,0.554 -19.005,-19.004 -19.006,19.004 19.006,19.006 z m 19.559,58.676 -19.559,-19.557 -18.614,-18.615 v 38.01 l 19.166,19.168 z m 0.161,0.945 -18.614,18.615 -19.559,19.559 19.005,19.004 19.007,-19.004 0.161,-0.164 z m -0.161,-79.18 -19.559,-19.559 -18.614,-18.612 v 38.01 l 19.166,19.166 z m -18.453,19.559 -19.559,19.559 19.005,19.006 19.168,-19.169 v -38.01 z m 38.012,39.119 -19.006,-19.006 -19.006,19.006 19.006,19.004 z m 0,39.117 -18.616,-18.615 v 38.01 l 0.164,0.164 19.004,19.004 19.006,-19.004 z m 19.72,-57.732 -18.615,18.615 -19.557,19.557 19.004,19.006 19.168,-19.168 z m -38.336,-39.118 v 38.01 l 19.168,19.169 19.006,-19.006 -19.558,-19.559 z m 19.168,18.06 19.168,-19.166 v -38.01 l -18.615,18.612 -19.557,19.559 z m 38.566,0.554 -19.007,-19.004 -19.006,19.004 19.006,19.006 z m 19.559,58.676 -19.559,-19.557 -18.617,-18.615 v 38.01 l 19.17,19.168 z m 0.16,0.945 -18.613,18.615 -19.559,19.559 19.006,19.004 19.006,-19.004 0.16,-0.164 z m -0.16,-79.18 -19.559,-19.559 -18.617,-18.612 v 38.01 l 19.17,19.166 z m -18.453,19.559 -19.559,19.559 19.006,19.006 19.166,-19.169 v -38.01 z m 38.011,39.119 -19.007,-19.006 -19.004,19.006 19.004,19.004 z m 0,39.117 -18.617,-18.615 v 38.01 l 0.164,0.164 19.006,19.004 19.007,-19.004 z m 19.721,-57.732 -18.616,18.615 -19.558,19.557 19.006,19.006 19.168,-19.168 z m -38.338,-39.118 v 38.01 l 19.17,19.169 19.007,-19.006 -19.56,-19.559 z m 19.17,18.06 19.168,-19.166 v -38.01 l -18.616,18.612 -19.558,19.559 z m 38.563,0.554 -19.005,-19.004 -19.006,19.004 19.006,19.006 z m 19.559,58.676 -19.559,-19.557 -18.614,-18.615 v 38.01 l 19.166,19.168 z m 0.163,0.945 -18.616,18.615 -19.558,19.559 19.004,19.004 19.007,-19.004 0.163,-0.164 z m -0.163,-79.18 -19.559,-19.559 -18.614,-18.612 v 38.01 l 19.166,19.166 z m -18.453,19.559 -19.558,19.559 19.004,19.006 19.17,-19.169 v -38.01 z m 38.013,39.119 -19.007,-19.006 -19.006,19.006 19.006,19.004 z m 0,39.117 -18.616,-18.615 v 38.01 l 0.162,0.164 19.004,19.004 19.007,-19.004 z m 19.721,-57.732 -18.615,18.615 -19.56,19.557 19.004,19.006 19.171,-19.168 z m -38.337,-39.118 v 38.01 l 19.166,19.169 19.007,-19.006 -19.557,-19.559 z m 19.166,18.06 19.171,-19.166 v -38.01 l -18.615,18.612 -19.56,19.559 z m 38.567,0.554 -19.007,-19.004 -19.004,19.004 19.004,19.006 z m 19.556,58.676 -19.556,-19.557 -18.615,-18.615 v 38.01 l 19.167,19.168 z m 0.164,0.945 -18.614,18.615 -19.559,19.559 19.005,19.004 19.004,-19.004 0.164,-0.164 z m -0.164,-79.18 -19.556,-19.559 -18.615,-18.612 v 38.01 l 19.167,19.166 z m -18.45,19.559 -19.559,19.559 19.005,19.006 19.168,-19.169 v -38.01 z m 38.011,39.119 -19.007,-19.006 -19.004,19.006 19.004,19.004 z m 0,39.117 -18.613,-18.615 v 38.01 l 0.16,0.164 19.006,19.004 19.007,-19.004 z m 19.721,-57.732 -18.615,18.615 -19.559,19.557 19.006,19.006 19.168,-19.168 z m -38.334,-39.118 v 38.01 l 19.166,19.169 19.007,-19.006 -19.56,-19.559 z m 19.166,18.06 19.168,-19.166 v -38.01 l -18.615,18.612 -19.559,19.559 z m 38.563,0.554 -19.004,-19.004 -19.006,19.004 19.006,19.006 z m 19.56,58.676 -19.56,-19.557 -18.612,-18.615 v 38.01 l 19.166,19.168 z m 0.163,0.945 -18.615,18.615 -19.56,19.559 19.006,19.004 19.006,-19.004 0.163,-0.164 z m -0.163,-79.18 -19.56,-19.559 -18.612,-18.612 v 38.01 l 19.166,19.166 z m -18.452,19.559 -19.56,19.559 19.006,19.006 19.169,-19.169 v -38.01 z m 38.012,39.119 -19.007,-19.006 -19.005,19.006 19.005,19.004 z m 8.863,69.372 v -0.001 l 10.694,-10.695 -10.694,-10.695 v -0.001 l -8.863,-8.863 -18.615,-18.615 v 38.01 l 0.162,0.164 19.007,19.004 z m 10.856,28.26 v -38.012 l -18.614,18.613 -19.558,19.561 19.007,19.004 8.309,-8.309 v -0.002 z m 19.396,-58.515 -19.004,-19.007 -19.006,19.007 7.758,7.757 11.248,11.247 z m 0,39.116 -18.613,-18.611 v 38.01 l 19.167,19.165 19.005,-19.003 z m 19.721,-57.731 -11.404,11.405 v 0.003 l -7.208,7.207 -19.56,19.559 19.005,19.003 19.005,-19.003 0.162,-0.164 z m -11.404,-66.83 v 10e-4 l -7.208,7.208 -19.56,19.559 19.005,19.004 19.167,-19.167 v -38.01 z m -8.317,-31.909 -18.613,-18.61 v 38.008 l 19.167,19.164 19.005,-19.003 z m 0,78.237 -18.613,-18.613 v 38.008 l 19.167,19.167 19.005,-19.005 z m -30.252,-46.876 v 0 l -7.758,7.757 7.758,7.757 11.248,11.249 19.004,-19.006 -19.004,-19.004 z m -8.309,7.203 8.309,-8.309 v -0.002 l 10.856,-10.855 v -38.01 l -18.614,18.612 -19.558,19.559 z m 8.309,30.809 v -0.001 l 10.694,-10.695 -10.694,-10.695 v -10e-4 l -8.863,-8.863 -18.615,-18.614 v 38.01 l 19.169,19.169 z m 10.856,28.259 v -38.01 l -18.614,18.615 -19.558,19.557 19.007,19.006 8.309,-8.309 v -0.002 z m 58.516,-19.395 -19.007,-19.006 -11.796,11.796 v 0.002 l -7.208,7.208 7.208,7.206 v 0.003 l 11.796,11.795 z m 0,39.117 -18.616,-18.615 v 38.01 l 0.163,0.164 19.003,19.004 19.006,-19.004 z m 19.719,-57.732 -18.613,18.615 -19.559,19.557 19.003,19.006 19.169,-19.168 z m -38.335,-39.118 v 38.01 l 19.166,19.169 19.006,-19.006 -19.556,-19.559 z m 19.166,18.06 19.169,-19.166 v -38.01 l -18.613,18.612 -19.559,19.559 z m 38.566,0.554 -19.006,-19.004 -19.004,19.004 19.004,19.006 z m 19.558,58.676 -19.558,-19.557 -18.614,-18.615 v 38.01 l 19.168,19.168 z m 0.162,0.945 -18.613,18.615 -19.559,19.559 19.006,19.004 19.004,-19.004 0.162,-0.164 z m -0.162,-79.18 -19.558,-19.559 -18.614,-18.612 v 38.01 l 19.168,19.166 z m -18.451,19.559 -19.559,19.559 19.006,19.006 19.166,-19.169 v -38.01 z m 38.01,39.119 -19.006,-19.006 -19.004,19.006 19.004,19.004 z m 0,39.117 -18.614,-18.615 v 38.01 l 0.162,0.164 19.006,19.004 19.006,-19.004 z m 19.722,-57.732 -18.615,18.615 -19.559,19.557 19.006,19.006 19.168,-19.168 z m -38.336,-39.118 v 38.01 l 19.168,19.169 19.006,-19.006 -19.56,-19.559 z m 19.168,18.06 19.168,-19.166 v -38.01 l -18.615,18.612 -19.559,19.559 z m 38.564,0.554 -19.005,-19.004 -19.006,19.004 19.006,19.006 z m 19.56,58.676 -19.56,-19.557 -18.613,-18.615 v 38.01 l 19.166,19.168 z m 0.161,0.945 -18.614,18.615 -19.56,19.559 19.006,19.004 19.007,-19.004 0.161,-0.164 z m -0.161,-79.18 -19.56,-19.559 -18.613,-18.612 v 38.01 l 19.166,19.166 z m -18.453,19.559 -19.56,19.559 19.006,19.006 19.168,-19.169 v -38.01 z m 38.011,39.119 -19.005,-19.006 -19.006,19.006 19.006,19.004 z m 0,39.117 -18.616,-18.615 v 38.01 l 0.164,0.164 19.004,19.004 19.007,-19.004 z m 19.72,-57.732 -18.614,18.615 -19.558,19.557 19.004,19.006 19.168,-19.168 z m -38.336,-39.118 v 38.01 l 19.168,19.169 19.007,-19.006 -19.559,-19.559 z m 19.168,18.06 19.168,-19.166 v -38.01 l -18.614,18.612 -19.558,19.559 z m 38.567,0.554 -19.007,-19.004 -19.006,19.004 19.006,19.006 z m 19.558,58.676 -19.558,-19.557 -18.618,-18.615 v 38.01 l 19.17,19.168 z m 0.16,0.945 -18.612,18.615 -19.56,19.559 19.006,19.004 19.006,-19.004 0.16,-0.164 z m -0.16,-79.18 -19.558,-19.559 -18.618,-18.612 v 38.01 l 19.17,19.166 z m -18.452,19.559 -19.56,19.559 19.006,19.006 19.166,-19.169 v -38.01 z m 38.011,39.119 -19.007,-19.006 -19.004,19.006 19.004,19.004 z m 0,39.117 -18.617,-18.615 v 38.01 l 0.164,0.164 19.005,19.004 19.007,-19.004 z m 19.72,-57.732 -18.616,18.615 -19.557,19.557 19.005,19.006 19.168,-19.168 z m -38.337,-39.118 v 38.01 l 19.169,19.169 19.007,-19.006 -19.559,-19.559 z m 19.169,18.06 19.168,-19.166 v -38.01 l -18.616,18.612 -19.557,19.559 z m 38.564,0.554 -19.006,-19.004 -19.006,19.004 19.006,19.006 z m 19.559,58.676 -19.559,-19.557 -18.614,-18.615 v 38.01 l 19.166,19.168 z m 0.163,0.945 -18.617,18.615 -19.557,19.559 19.004,19.004 19.007,-19.004 0.163,-0.164 z m -0.163,-79.18 -19.559,-19.559 -18.614,-18.612 v 38.01 l 19.166,19.166 z m -18.454,19.559 -19.557,19.559 19.004,19.006 19.17,-19.169 v -38.01 z m 38.012,39.119 -19.006,-19.006 -19.006,19.006 19.006,19.004 z m 0,39.117 -18.614,-18.615 v 38.01 l 0.162,0.164 19.004,19.004 19.007,-19.004 z m 19.722,-57.732 -18.614,18.615 -19.56,19.557 19.004,19.006 19.17,-19.168 z m -38.336,-39.118 v 38.01 l 19.166,19.169 19.007,-19.006 -19.559,-19.559 z m 19.166,18.06 19.17,-19.166 v -38.01 l -18.614,18.612 -19.56,19.559 z m 38.566,0.554 -19.007,-19.004 -19.003,19.004 19.003,19.006 z m 19.557,58.676 -19.557,-19.557 -18.615,-18.615 v 38.01 l 19.168,19.168 z m 0.164,0.945 -18.614,18.615 -19.56,19.559 19.006,19.004 19.004,-19.004 0.164,-0.164 z m -0.164,-79.18 -19.557,-19.559 -18.615,-18.612 v 38.01 l 19.168,19.166 z m -18.45,19.559 -19.56,19.559 19.006,19.006 19.168,-19.169 v -38.01 z m 38.01,39.119 -19.006,-19.006 -19.004,19.006 19.004,19.004 z m 0,39.117 -18.613,-18.615 v 38.01 l 0.16,0.164 19.006,19.004 19.007,-19.004 z m 1.107,-39.117 -19.56,19.557 19.006,19.006 19.168,-19.168 v -38.01 z m -0.554,-39.673 19.168,-19.166 v -38.01 l -18.614,18.612 -19.56,19.559 z m -0.553,0.554 -18.613,-18.614 v 38.01 l 19.166,19.169 19.007,-19.006 z m -880.143,-97.794 -19.559,-19.559 -18.614,-18.613 v 38.011 l 19.168,19.167 z m -18.451,19.558 -19.56,19.561 19.006,19.004 19.166,-19.166 v -38.012 z m 430.291,-117.353 -19.558,19.56 19.007,19.004 8.309,-8.308 v -0.002 l 10.856,-10.856 v -38.012 z m 526.979,410.736 -19.559,-19.559 -18.613,-18.616 v 38.013 l 19.166,19.168 z m -36.224,37.331 -1.497,1.496 h 0.039 l -0.31,0.31 0.716,0.716 18.269,18.246 17.746,-17.721 v 0.002 l 1.424,-1.423 v -38.015 l -18.615,18.618 -7.505,7.504 h 0.014 z m -3.183,1.496 -11.78,-11.763 h 0.015 l -7.504,-7.504 -18.613,-18.618 v 38.015 l 1.064,1.064 18.101,18.078 18.986,-18.962 -0.31,-0.31 z m -75.113,-1.434 -1.436,1.434 h 0.038 l -0.309,0.31 0.891,0.89 18.095,18.072 19.168,-19.141 v -0.131 -11.763 h 0.001 v -26.122 l -18.614,18.618 -7.505,7.504 h 0.014 z m -3.124,1.434 -11.78,-11.763 h 0.017 l -7.504,-7.504 -18.614,-18.618 v 38.015 l 1.653,1.653 17.512,17.489 18.985,-18.962 -0.309,-0.31 z m -74.747,-1.798 -1.799,1.798 h 0.038 l -0.31,0.31 1.073,1.071 17.912,17.89 19.169,-19.14 v -0.131 -11.763 h 0.002 v -26.122 l -18.617,18.618 -7.504,7.504 h 0.015 z m -3.527,1.798 h 0.038 l -11.778,-11.763 h 0.018 l -7.504,-7.504 -18.617,-18.618 v 38.015 l 0.475,0.476 17.699,17.673 0.993,0.993 18.985,-18.962 -0.311,-0.31 z m -73.214,-3.293 -3.293,3.293 h 0.037 l -0.309,0.309 2.579,2.579 16.405,16.384 19.168,-19.141 v -0.131 -11.763 h 0.002 v -26.122 l -18.612,18.618 -7.505,7.504 h 0.011 z m -4.981,3.293 -11.78,-11.763 h 0.017 l -7.504,-7.504 -18.616,-18.618 v 26.122 11.763 0.13 l 0.098,0.099 19.068,19.043 18.986,-18.962 -0.31,-0.31 z m -74.405,-2.142 -2.143,2.142 h 0.037 l -0.308,0.309 1.595,1.596 17.39,17.367 19.167,-19.141 v -0.131 -11.763 h 0.003 v -26.122 l -18.614,18.618 -7.505,7.504 h 0.012 z m -3.832,2.142 -11.78,-11.763 h 0.019 l -7.505,-7.504 -18.614,-18.618 v 38.015 l 2.521,2.522 16.643,16.62 18.985,-18.962 -0.31,-0.31 z m -70.469,-6.07 v -0.005 l -6.366,6.365 6.366,6.366 v -0.005 l 12.636,12.62 19.169,-19.14 v -0.131 -11.763 h 10e-4 v -26.122 l -18.613,18.618 -7.505,7.504 h 0.013 z m -161.05,4.574 -1.497,1.496 h 0.039 l -0.309,0.31 0.715,0.716 18.27,18.246 17.746,-17.721 v 0.002 l 1.424,-1.423 v -38.015 l -18.615,18.618 -7.504,7.504 h 0.012 z m -3.183,1.496 -11.78,-11.763 h 0.017 l -7.505,-7.504 -18.613,-18.618 v 38.015 l 1.063,1.064 18.102,18.078 18.985,-18.962 -0.31,-0.31 z m -75.113,-1.434 -1.435,1.434 h 0.039 l -0.311,0.31 0.892,0.89 18.095,18.072 19.167,-19.141 v -0.131 -11.763 h 10e-4 v -26.122 l -18.614,18.618 -7.505,7.504 h 0.014 z m -3.123,1.434 -11.78,-11.763 h 0.017 l -7.503,-7.504 -18.616,-18.618 v 38.015 l 1.654,1.653 17.511,17.489 18.986,-18.962 -0.31,-0.31 z m -74.748,-1.798 -1.799,1.798 h 0.038 0.001 l -0.309,0.31 1.071,1.071 17.912,17.89 19.169,-19.14 v -0.131 -11.763 h 0.002 v -26.122 l -18.616,18.618 -7.504,7.504 h 0.015 z m -3.526,1.798 h 0.039 l -11.779,-11.763 h 0.018 l -7.505,-7.504 -18.617,-18.618 v 38.015 l 0.476,0.476 17.699,17.673 0.993,0.993 18.984,-18.962 -0.31,-0.31 z m -73.214,-3.293 -3.293,3.293 h 0.036 l -0.309,0.309 2.581,2.579 16.404,16.384 19.168,-19.141 v -0.131 -11.763 h 0.002 v -26.122 l -18.613,18.618 -7.504,7.504 h 0.01 z m -4.982,3.293 -11.78,-11.763 h 0.018 l -7.504,-7.504 -18.616,-18.618 v 26.122 11.763 0.13 l 0.097,0.099 19.069,19.043 18.986,-18.962 -0.311,-0.31 z m -74.405,-2.142 -2.142,2.142 h 0.037 l -0.309,0.309 1.596,1.596 17.389,17.367 19.168,-19.141 v -0.131 -11.763 h 0.002 v -26.122 l -18.614,18.618 -7.505,7.504 h 0.013 z m -3.832,2.142 -11.779,-11.763 h 0.018 l -7.504,-7.504 -18.615,-18.618 v 38.015 l 2.522,2.522 16.642,16.62 18.986,-18.962 -0.31,-0.31 z m -70.469,-6.07 v -0.005 l -6.366,6.365 6.366,6.366 v -0.005 l 12.636,12.62 19.169,-19.14 v -0.131 -11.763 h 10e-4 v -26.122 l -18.612,18.618 -7.505,7.504 h 0.013 z m -45.645,-31.815 v 38.015 l 19.166,19.166 19.006,-19.006 -19.557,-19.557 z m 19.166,18.064 19.169,-19.168 v -38.013 l -18.613,18.616 -19.56,19.559 z m 469.964,-507.976 -19.558,19.557 19.007,19.006 8.309,-8.31 v -10e-4 l 10.856,-10.856 v -38.01 z m 488.893,567.118 19.079,19.057 17.746,-17.723 v 0.014 l 1.261,-1.26 -8.219,-8.219 -11.341,-11.327 -18.612,-18.589 v 37.922 l 0.126,0.125 z m -0.87,-0.126 v -37.923 l -18.614,18.591 -9.344,9.332 -10.209,10.209 18.999,18.974 19.081,-19.057 h -0.041 z m -77.367,0.126 19.082,19.057 18.998,-18.976 -7.852,-7.853 -11.7,-11.686 -18.613,-18.589 v 37.922 l 0.126,0.125 z m -0.867,-0.126 v -37.923 l -18.615,18.591 -8.955,8.943 -10.598,10.598 18.998,18.974 19.083,-19.057 h -0.041 z m -77.368,0.126 1.06,1.059 18.021,17.997 19,-18.975 -7.579,-7.58 -11.222,-11.208 -0.752,-0.751 -18.612,-18.588 v 37.921 l 0.126,0.125 z m -0.869,-0.126 v -37.921 l -18.616,18.589 -8.009,8 -2.133,2.134 c -0.002,0 -0.003,0.002 -0.005,0.002 l -7.355,7.346 0.003,0.009 -2.051,2.05 8.124,8.113 10.875,10.861 19.081,-19.057 h -0.04 -0.001 z m -77.365,0.126 19.079,19.057 19.002,-18.977 -5.974,-5.975 -13.581,-13.563 -18.613,-18.591 v 37.923 l 0.127,0.126 z m -0.87,-0.126 v -37.923 l -18.615,18.591 -8.054,8.043 -11.497,11.499 18.998,18.973 19.081,-19.057 h -0.041 z m -77.259,39.301 4.226,4.22 14.748,14.728 19.167,-19.141 v -37.948 l -14.359,14.359 c -0.006,-0.006 -0.012,-0.011 -0.017,-0.017 l -4.238,4.233 -7.385,7.375 c 0.007,0.01 0.015,0.018 0.022,0.028 z m -0.108,-39.175 19.082,19.057 19,-18.977 -5.97,-5.97 -13.584,-13.568 -18.61,-18.586 v 30.529 l -0.005,-0.005 v 7.394 l 0.128,0.126 z m -0.867,-0.126 v -37.923 l -18.615,18.591 -8.208,8.198 -11.345,11.344 18.998,18.973 19.083,-19.057 h -0.041 z m -58.287,58.249 19.169,-19.141 v -37.95 L -468.303,0 l -19.559,19.56 6.366,6.367 v -0.071 z m 0,-39.067 19.001,-18.975 -6.876,-6.877 -11.926,-11.911 -0.752,-0.751 -12.083,-12.068 v -0.031 l -6.528,-6.529 v 38.01 l 6.528,6.53 v -0.017 z m -175.547,-19.056 19.079,19.057 17.746,-17.723 v 0.014 l 1.261,-1.26 -8.22,-8.219 -11.341,-11.327 -18.611,-18.589 v 37.922 l 0.127,0.125 z m -0.87,-0.126 v -37.923 l -18.615,18.591 -9.343,9.332 -10.209,10.209 18.999,18.974 19.081,-19.057 h -0.041 z m -77.368,0.126 19.083,19.057 18.998,-18.976 -7.853,-7.853 -11.699,-11.686 -18.613,-18.589 v 37.922 l 0.125,0.125 z m -0.867,-0.126 v -37.923 l -18.615,18.591 -8.954,8.943 -10.599,10.598 18.998,18.974 19.084,-19.057 h -0.042 z m -77.367,0.126 1.06,1.059 18.02,17.997 19.001,-18.975 -7.58,-7.58 -11.222,-11.208 -0.752,-0.751 -18.612,-18.588 v 37.921 l 0.126,0.125 z m -0.869,-0.126 v -37.921 l -18.615,18.589 -8.01,8 -2.134,2.134 c -0.001,0 -0.003,0.002 -0.004,0.002 l -7.355,7.346 0.003,0.009 -2.051,2.05 8.124,8.113 10.875,10.861 19.08,-19.057 h -0.04 -10e-4 z m -77.365,0.126 19.079,19.057 19.002,-18.977 -5.975,-5.975 -13.581,-13.563 -18.612,-18.591 v 37.923 l 0.128,0.126 z m -0.87,-0.126 v -37.923 l -18.615,18.591 -8.054,8.043 -11.497,11.499 18.998,18.973 19.081,-19.057 h -0.041 z m -77.259,39.301 4.225,4.22 14.748,14.728 19.168,-19.141 v -37.948 l -14.36,14.359 -0.017,-0.017 -4.238,4.233 -7.385,7.375 c 0.007,0.01 0.015,0.018 0.023,0.028 z m -0.109,-39.175 19.082,19.057 19,-18.977 -5.969,-5.97 -13.584,-13.568 -18.611,-18.586 v 30.529 l -0.004,-0.005 v 7.394 l 0.127,0.126 z m -0.867,-0.126 v -37.923 l -18.615,18.591 -8.208,8.198 -11.344,11.344 18.997,18.973 19.083,-19.057 h -0.041 z m -58.287,58.249 19.169,-19.141 v -37.95 L -1015.947,0 l -19.56,19.56 6.366,6.367 v -0.071 z m 0,-39.067 19.001,-18.975 -6.876,-6.877 -11.926,-11.911 -0.752,-0.751 -12.083,-12.068 v -0.031 l -6.528,-6.529 v 38.01 l 6.528,6.53 v -0.017 z m 977.942,-625.847 19.166,-19.165 v -38.013 l -18.615,18.615 -19.557,19.559 z m -0.553,0.554 -18.615,-18.612 v 38.009 l 19.168,19.169 19.004,-19.007 z m 0.553,703.567 19.166,-19.171 v -38.01 l -18.615,18.616 -19.557,19.559 z m 39.118,0 7.76,-7.761 v 1.103 l -7.208,7.21 -3.409,3.408 H -3.408 L 0,78.236 -19.006,59.229 l -19.006,19.007 3.409,3.408 h -1.106 l -3.407,-3.408 -18.615,-18.617 v 22.025 h -0.783 V 59.619 l -18.615,18.617 -3.407,3.408 h -1.107 l 0.101,-0.102 h -0.105 l 3.36,-3.356 -18.953,-18.957 -18.956,18.958 3.359,3.355 h -0.103 l 0.101,0.102 h -1.105 l -3.409,-3.408 -18.613,-18.617 v 22.025 h -0.783 v -0.102 h -0.001 V 59.621 l -18.613,18.615 -3.409,3.408 h -1.107 l 0.101,-0.102 h -0.104 l 3.361,-3.356 -18.956,-18.957 -18.955,18.958 3.36,3.355 h -0.103 l 0.102,0.102 h -1.108 l -3.407,-3.408 -18.614,-18.617 v 22.025 h -0.781 v -0.102 h -0.002 v -21.92 l -18.615,18.614 -3.407,3.408 h -1.104 l 0.1,-0.102 h -0.106 l 3.361,-3.357 -18.955,-18.956 -18.957,18.958 3.359,3.355 h -0.1 l 0.101,0.102 h -1.105 l -3.408,-3.408 -18.617,-18.617 v 22.025 h -0.782 v -0.102 h -0.002 V 59.621 l -18.61,18.615 -3.409,3.408 h -1.107 l 0.101,-0.102 h -0.107 l 3.363,-3.358 -18.954,-18.955 -18.957,18.959 3.359,3.354 h -0.101 l 0.102,0.102 h -1.107 l -3.408,-3.408 -18.616,-18.617 v 21.923 0.102 h -0.781 v -0.102 h -0.003 v -21.92 l -18.611,18.614 -3.41,3.408 h -1.104 l 0.102,-0.102 h -0.108 l 3.361,-3.357 -18.953,-18.956 -18.958,18.959 3.36,3.354 h -0.102 l 0.102,0.102 h -1.106 l -3.409,-3.408 -18.614,-18.617 v 22.025 h -0.783 v -0.102 h -10e-4 V 59.62 l -18.612,18.616 -3.409,3.408 h -1.107 l 0.101,-0.102 h -0.105 l 3.361,-3.357 -18.954,-18.956 -19.004,19.007 3.406,3.408 h -1.106 l -3.406,-3.408 -18.616,-18.617 v 22.025 h -0.783 V 59.619 l -11.404,11.406 v 10e-4 l -7.208,7.21 -3.409,3.408 h -1.107 -10e-4 l 3.408,-3.408 -19.004,-19.007 -11.248,11.249 -7.758,7.758 3.409,3.408 h -1.107 l -3.407,-3.408 -18.615,-18.617 v 22.025 h -0.782 V 59.619 l -18.615,18.617 -3.408,3.408 h -1.106 l 0.1,-0.102 h -0.105 l 3.36,-3.356 -18.953,-18.957 -18.956,18.958 3.36,3.355 h -0.104 l 0.102,0.102 h -1.106 l -3.408,-3.408 -18.613,-18.617 v 22.025 h -0.784 v -0.102 h -10e-4 V 59.621 l -18.613,18.615 -3.409,3.408 h -1.106 l 0.101,-0.102 h -0.104 l 3.361,-3.356 -18.956,-18.957 -18.955,18.958 3.359,3.355 h -0.102 l 0.101,0.102 h -1.107 l -3.406,-3.408 -18.616,-18.617 v 22.025 h -0.781 v -0.102 h -0.002 v -21.92 l -18.614,18.614 -3.407,3.408 h -1.105 l 0.101,-0.102 h -0.107 l 3.362,-3.357 -18.955,-18.956 -18.957,18.958 3.359,3.355 h -0.101 l 0.102,0.102 h -1.106 l -3.408,-3.408 -18.617,-18.617 v 22.025 h -0.781 v -0.102 h -0.002 V 59.621 l -18.611,18.615 -3.409,3.408 h -1.106 l 0.1,-0.102 h -0.106 l 3.362,-3.358 -18.954,-18.955 -18.957,18.959 3.36,3.354 h -0.101 l 0.101,0.102 h -1.107 l -3.407,-3.408 -18.616,-18.617 v 21.923 0.102 h -0.782 v -0.102 h -0.002 v -21.92 l -18.612,18.614 -3.409,3.408 h -1.105 l 0.102,-0.102 h -0.107 l 3.361,-3.357 -18.953,-18.956 -18.958,18.959 3.359,3.354 h -0.101 l 0.101,0.102 h -1.105 l -3.409,-3.408 -18.615,-18.617 v 22.025 h -0.783 v -0.102 h -10e-4 V 59.62 l -18.611,18.616 -3.409,3.408 h -1.108 l 0.102,-0.102 h -0.106 l 3.363,-3.357 -18.956,-18.956 -19.003,19.007 3.407,3.408 h -1.108 l -3.406,-3.408 -18.615,-18.617 v 22.025 h -0.783 V 59.619 l -18.615,18.617 -3.407,3.408 h -1.106 l 3.406,-3.408 -19.004,-19.007 -11.248,11.249 v -1.107 l 10.856,-10.858 v -38.01 l -10.856,10.857 v -1.105 l 10.695,-10.695 -10.695,-10.696 V 7.758 l 11.248,11.248 19.004,-19.006 -19.004,-19.007 -11.248,11.249 v -1.106 l 10.856,-10.858 v -38.01 l -10.856,10.857 v -1.106 l 10.695,-10.696 -10.695,-10.694 v -1.106 l 11.248,11.248 19.004,-19.005 -19.004,-19.006 -11.248,11.248 V -87.1 l 10.856,-10.856 v -38.013 l -10.856,10.859 v -1.106 l 10.695,-10.695 -10.695,-10.695 v -1.107 l 11.248,11.248 19.004,-19.006 -19.004,-19.005 -11.248,11.248 v -1.107 l 10.856,-10.855 v -38.012 l -10.856,10.856 v -1.105 l 10.695,-10.695 -10.695,-10.695 v -1.107 l 11.248,11.247 19.004,-19.004 -19.004,-19.007 -11.248,11.249 v -1.107 l 10.856,-10.857 v -38.01 l -10.856,10.857 v -1.107 l 10.695,-10.695 -10.695,-10.695 v -1.107 l 11.248,11.249 19.004,-19.006 -19.004,-19.004 -11.248,11.247 v -1.108 l 10.856,-10.855 v -38.01 l -10.856,10.856 v -1.108 l 10.695,-10.693 -10.695,-10.696 v -1.107 l 11.248,11.248 19.004,-19.006 -19.004,-19.005 -11.248,11.248 v -1.106 l 10.856,-10.856 v -38.011 l -10.856,10.855 v -1.105 l 10.695,-10.696 -10.695,-10.695 v -1.107 l 11.248,11.249 19.004,-19.007 -19.004,-19.004 -11.248,11.247 v -1.106 l 10.856,-10.856 v -38.012 l -10.856,10.857 v -1.107 l 10.695,-10.695 -10.695,-10.694 v -1.106 l 11.248,11.249 19.004,-19.006 -19.004,-19.007 -11.248,11.249 v -1.108 l 10.856,-10.856 v -38.011 l -10.856,10.858 v -1.108 l 10.695,-10.695 -10.695,-10.695 v -1.106 l 11.248,11.249 19.004,-19.007 -19.004,-19.005 -11.248,11.248 v -1.107 l 10.856,-10.855 v -38.013 l -10.856,10.857 v -1.107 l 10.695,-10.695 -10.695,-10.694 v -1.106 l 11.248,11.249 19.004,-19.007 -19.004,-19.006 -11.248,11.248 v -1.105 l 10.856,-10.857 v -16.232 h 0.782 v 16.232 l 19.168,19.168 19.006,-19.006 -16.396,-16.394 h 1.107 l 15.843,15.841 15.841,-15.841 h 1.107 l -16.395,16.394 19.004,19.006 19.169,-19.168 v -16.232 h 0.782 v 16.232 l 19.168,19.168 19.005,-19.006 -16.396,-16.394 h 1.107 l 15.842,15.841 15.843,-15.841 h 1.106 l -16.396,16.394 19.006,19.006 19.169,-19.168 v -16.232 h 0.782 v 16.232 l 19.166,19.168 19.007,-19.006 -16.395,-16.394 h 1.104 l 15.844,15.841 15.842,-15.841 h 1.107 l -16.395,16.394 19.004,19.006 19.168,-19.168 v -16.232 h 0.781 v 16.232 l 19.17,19.168 19.006,-19.006 -16.397,-16.394 h 1.107 l 15.841,15.841 15.844,-15.841 h 1.106 l -16.396,16.394 19.006,19.006 19.168,-19.168 v -16.232 h 0.781 v 16.232 l 19.166,19.168 19.007,-19.006 -16.394,-16.394 h 1.104 l 15.843,15.841 15.842,-15.841 h 1.107 l -16.396,16.394 19.004,19.006 19.171,-19.168 v -16.232 h 0.781 v 16.232 l 19.167,19.168 19.004,-19.006 -16.394,-16.394 h 1.106 l 15.842,15.841 15.845,-15.841 h 1.104 l -16.395,16.394 19.006,19.006 19.168,-19.168 v -16.232 h 0.783 v 16.232 l 19.166,19.168 19.006,-19.006 -16.395,-16.394 h 1.107 l 15.841,15.841 15.842,-15.841 h 1.108 l -16.396,16.394 19.007,19.006 8.309,-8.309 v -0.002 l 10.856,-10.857 v -16.232 h 10e-4 0.78 0.002 v 16.232 l 19.167,19.167 19.005,-19.005 -16.395,-16.394 h 1.107 l 15.842,15.841 15.842,-15.841 h 1.107 l -16.395,16.394 19.003,19.006 19.169,-19.168 v -16.232 h 0.783 v 16.232 l 19.168,19.168 19.004,-19.006 -16.395,-16.394 h 1.106 l 15.842,15.841 15.844,-15.841 h 1.105 l -16.395,16.394 19.006,19.006 19.168,-19.168 v -16.232 h 0.783 v 16.232 l 19.166,19.168 19.007,-19.006 -16.396,-16.394 h 1.105 l 15.844,15.841 15.841,-15.841 h 1.108 l -16.396,16.394 19.004,19.006 19.168,-19.168 v -16.232 h 0.781 v 16.232 l 19.17,19.168 19.006,-19.006 -16.397,-16.394 h 1.107 l 15.842,15.841 15.844,-15.841 h 1.105 l -16.395,16.394 19.005,19.006 19.168,-19.168 v -16.232 h 0.782 v 16.232 l 19.166,19.168 19.007,-19.006 -16.394,-16.394 h 1.103 l 15.843,15.841 15.842,-15.841 h 1.107 l -16.395,16.394 19.004,19.006 19.17,-19.168 v -16.232 h 0.781 v 16.232 l 19.168,19.168 19.004,-19.006 -16.396,-16.394 h 1.108 l 15.842,15.841 15.843,-15.841 h 1.106 l -16.396,16.394 19.006,19.006 19.168,-19.168 v -16.232 h 0.783 v 16.232 l 19.166,19.168 19.006,-19.006 -16.394,-16.394 h 1.106 l 15.842,15.841 15.842,-15.841 h 1.107 l -16.395,16.394 19.006,19.006 19.166,-19.168 v -16.232 h 0.783 v 16.232 l 19.169,19.168 7.76,-7.761 v 1.106 l -7.208,7.207 -19.559,19.558 19.007,19.006 7.76,-7.76 v 1.106 l -7.208,7.208 7.208,7.207 v 1.106 L 0,-665 -18.614,-683.615 v 38.013 l 19.169,19.165 7.76,-7.758 v 1.104 l -7.208,7.208 -19.559,19.559 19.007,19.007 7.76,-7.761 v 1.106 l -7.208,7.208 7.208,7.207 v 1.106 L 0,-586.764 -18.614,-605.379 v 38.011 l 19.169,19.167 7.76,-7.761 v 1.108 l -7.208,7.208 -19.559,19.557 19.007,19.006 7.76,-7.761 v 1.107 l -7.208,7.207 7.208,7.208 v 1.107 L 0,-508.53 -18.614,-527.144 v 38.012 l 19.169,19.166 7.76,-7.76 v 1.106 l -7.208,7.207 -19.559,19.56 19.007,19.006 7.76,-7.76 v 1.106 l -7.208,7.207 7.208,7.208 v 1.105 L 0,-430.294 -18.614,-448.907 v 38.011 l 19.169,19.167 7.76,-7.761 v 1.106 l -7.208,7.207 -19.559,19.561 19.007,19.004 7.76,-7.761 v 1.106 l -7.208,7.208 7.208,7.207 v 1.107 L 0,-352.059 -18.614,-370.671 v 38.01 l 19.169,19.166 7.76,-7.759 v 1.105 l -7.208,7.208 -19.559,19.559 19.007,19.006 7.76,-7.761 v 1.107 l -7.208,7.208 7.208,7.206 v 1.106 L 0,-273.822 -18.614,-292.437 v 38.01 l 19.169,19.168 7.76,-7.762 v 1.109 l -7.208,7.207 -19.559,19.559 19.007,19.004 7.76,-7.76 v 1.107 l -7.208,7.206 7.208,7.209 v 1.107 L 0,-195.589 -18.614,-214.202 v 38.012 l 19.169,19.166 7.76,-7.759 v 1.105 l -7.208,7.207 -19.559,19.56 19.007,19.006 7.76,-7.761 v 1.107 l -7.208,7.206 7.208,7.209 v 1.104 L 0,-117.353 -18.614,-135.969 v 38.013 l 19.169,19.168 7.76,-7.761 v 1.106 l -7.208,7.209 -19.559,19.557 19.007,19.006 7.76,-7.761 v 1.107 l -7.208,7.208 7.208,7.208 v 1.105 L 0,-39.117 -18.614,-57.732 v 38.01 l 19.169,19.169 7.76,-7.76 v 1.106 L 1.107,0 -18.452,19.56 0.555,38.566 8.315,30.803 v 1.107 l -7.208,7.209 7.208,7.208 v 1.105 L 0,39.119 -18.614,20.503 v 38.01 z"
             style="fill:#dad1c1;fill-opacity:1;fill-rule:nonzero;stroke:none"
             id="path22"
             inkscape:connector-curvature="0" /></g></g></g></g></svg>