<svg xmlns="http://www.w3.org/2000/svg" viewBox="0 0 73.67 71.7"><defs><style>.cls-1{fill:#58595b;}.cls-2{fill:#fff;}</style></defs><title>Asset 7</title><g id="Layer_2" data-name="Layer 2"><g id="Layer_1-2" data-name="Layer 1"><path class="cls-1" d="M63.63,47.94,57.17,67.81H15.39L8.93,47.94,2.48,28.07l16.9-12.28L36.28,3.51l16.9,12.28L70.09,28.07Zm-18.12-.17c0-.64,0-1.18,0-1.7h1l0,1h0a2.17,2.17,0,0,1,2-1.16,1.85,1.85,0,0,1,1.77,1.26h0a2.73,2.73,0,0,1,.7-.82,2.18,2.18,0,0,1,1.39-.44c.83,0,2.06.55,2.06,2.73v3.7H53.37V48.8c0-1.21-.44-1.94-1.37-1.94a1.51,1.51,0,0,0-1.35,1,2,2,0,0,0-.09.58v3.88H49.45V48.59c0-1-.44-1.73-1.31-1.73A1.57,1.57,0,0,0,46.72,48a1.69,1.69,0,0,0-.09.56v3.79H45.51ZM43,48.6a1.63,1.63,0,0,0-1.58-1.85,1.89,1.89,0,0,0-1.76,1.85Zm-3.35.82A2,2,0,0,0,41.8,51.6a4.13,4.13,0,0,0,1.74-.32l.2.82a5.11,5.11,0,0,1-2.09.39,2.92,2.92,0,0,1-3.09-3.17c0-1.9,1.12-3.39,2.95-3.39,2.05,0,2.59,1.81,2.59,3a3.17,3.17,0,0,1,0,.53Zm-3.48-5.15v1.8h1.64v.87H36.17v3.39c0,.78.22,1.22.86,1.22a2.44,2.44,0,0,0,.66-.08l.05.86a2.79,2.79,0,0,1-1,.16A1.58,1.58,0,0,1,35.5,52a2.32,2.32,0,0,1-.44-1.64V46.94h-1v-.87h1v-1.5ZM29.5,51.19a3,3,0,0,0,1.51.45c.83,0,1.22-.41,1.22-.93s-.32-.85-1.17-1.16c-1.13-.4-1.66-1-1.66-1.78a1.94,1.94,0,0,1,2.17-1.84,3.11,3.11,0,0,1,1.54.39l-.28.83a2.42,2.42,0,0,0-1.29-.36c-.67,0-1.05.39-1.05.85s.38.76,1.19,1.07c1.1.41,1.65,1,1.65,1.89,0,1.11-.85,1.89-2.35,1.89a3.58,3.58,0,0,1-1.76-.43ZM24,46.07l1.38,3.72c.14.41.3.9.4,1.28h0c.11-.38.24-.86.4-1.31l1.24-3.69H28.7L27,50.55c-.82,2.16-1.38,3.26-2.16,3.93a3.14,3.14,0,0,1-1.4.75l-.28-1a3.15,3.15,0,0,0,1-.55,3.5,3.5,0,0,0,1-1.28.77.77,0,0,0,.09-.27,1.21,1.21,0,0,0-.08-.3L22.8,46.07Zm-5.71,5.12a3,3,0,0,0,1.51.45c.83,0,1.22-.41,1.22-.93s-.33-.85-1.17-1.16c-1.13-.4-1.66-1-1.66-1.78a1.94,1.94,0,0,1,2.17-1.84,3.11,3.11,0,0,1,1.54.39l-.29.83a2.38,2.38,0,0,0-1.28-.36c-.68,0-1.05.39-1.05.85s.37.76,1.19,1.07c1.09.41,1.65,1,1.65,1.89,0,1.11-.86,1.89-2.35,1.89a3.55,3.55,0,0,1-1.76-.43ZM46.24,39.25a1.63,1.63,0,0,0-1.59-1.86,1.9,1.9,0,0,0-1.75,1.86Zm-3.35.82A2,2,0,0,0,45,42.25a4.15,4.15,0,0,0,1.74-.33l.2.82a5.14,5.14,0,0,1-2.09.39A2.91,2.91,0,0,1,41.8,40c0-1.89,1.11-3.39,2.94-3.39a2.67,2.67,0,0,1,2.6,3,5.05,5.05,0,0,1,0,.54Zm-4.75-1.39c0-.74,0-1.38,0-2h1l0,1.23h.06a1.89,1.89,0,0,1,1.74-1.38,1.47,1.47,0,0,1,.32,0v1.08a1.51,1.51,0,0,0-.39,0,1.61,1.61,0,0,0-1.53,1.47,2.81,2.81,0,0,0,0,.53V43H38.14Zm-3,1.11c-1.24,0-2.66.2-2.66,1.42a1,1,0,0,0,1.08,1.09,1.56,1.56,0,0,0,1.52-1,1.19,1.19,0,0,0,.06-.37ZM35.36,43l-.09-.79h0a2.34,2.34,0,0,1-1.92.93,1.79,1.79,0,0,1-1.92-1.8c0-1.52,1.35-2.35,3.78-2.34v-.13a1.29,1.29,0,0,0-1.43-1.45,3.23,3.23,0,0,0-1.64.46l-.25-.75a3.84,3.84,0,0,1,2.06-.56c1.92,0,2.39,1.31,2.39,2.57v2.35A8.69,8.69,0,0,0,36.4,43Zm-4.81-.23a4.32,4.32,0,0,1-1.81.36,3,3,0,0,1-3.12-3.21A3.19,3.19,0,0,1,29,36.59a4,4,0,0,1,1.59.32l-.26.88A2.79,2.79,0,0,0,29,37.5a2.37,2.37,0,0,0,0,4.72,3.26,3.26,0,0,0,1.4-.31ZM49.86,30.44c-1.25,0-2.66.19-2.66,1.41a1,1,0,0,0,1.07,1.09,1.56,1.56,0,0,0,1.52-1,1.21,1.21,0,0,0,.07-.36Zm.17,3.2-.1-.79h0a2.38,2.38,0,0,1-1.93.94A1.79,1.79,0,0,1,46.05,32c0-1.52,1.35-2.35,3.78-2.34v-.13a1.29,1.29,0,0,0-1.43-1.45,3.08,3.08,0,0,0-1.63.47l-.26-.75a3.87,3.87,0,0,1,2.06-.56c1.92,0,2.39,1.31,2.39,2.57v2.35a9.75,9.75,0,0,0,.1,1.5Zm-6.4-8.08v1.8h1.63v.87H43.63v3.39c0,.78.22,1.22.85,1.22a2.58,2.58,0,0,0,.67-.08l.05.86a2.85,2.85,0,0,1-1,.15A1.58,1.58,0,0,1,43,33.29a2.34,2.34,0,0,1-.44-1.63V28.23h-1v-.87h1V25.85Zm-8.53,3.5c0-.65,0-1.18-.05-1.7h1l.07,1h0a2.31,2.31,0,0,1,2.08-1.18c.87,0,2.22.52,2.22,2.67v3.75H39.31V30c0-1-.38-1.86-1.46-1.86a1.64,1.64,0,0,0-1.53,1.17,1.75,1.75,0,0,0-.08.54v3.77H35.1Zm-2.51.83A1.63,1.63,0,0,0,31,28a1.9,1.9,0,0,0-1.75,1.86Zm-3.35.82a2,2,0,0,0,2.15,2.18,4.17,4.17,0,0,0,1.74-.32l.2.81a5.14,5.14,0,0,1-2.09.39,2.91,2.91,0,0,1-3.09-3.17c0-1.89,1.11-3.38,2.94-3.38,2.05,0,2.6,1.8,2.6,3a5,5,0,0,1,0,.53Zm-6-1.49a4.1,4.1,0,0,0,.94.09c1.36,0,2.19-.67,2.19-1.87s-.82-1.72-2.06-1.72a4.92,4.92,0,0,0-1.07.09ZM22.06,25a13.23,13.23,0,0,1,2.17-.17,3.62,3.62,0,0,1,2.45.72,2.38,2.38,0,0,1,.77,1.84,2.52,2.52,0,0,1-.68,1.86,3.59,3.59,0,0,1-2.67,1,4.21,4.21,0,0,1-.91-.07v3.5H22.06ZM56.33,15,39,.34l-19.3,12-19.3,12L5.8,46.32l5.42,22.05L33.86,70,56.51,71.7l8.58-21,8.58-21Z"/><path class="cls-2" d="M63.24,47.6,56.79,67.47H15L8.55,47.6,2.09,27.73,19,15.45,35.89,3.17,52.8,15.45,69.7,27.73Zm-7.3-32.94L38.6,0,19.3,12,0,23.93,5.41,46,10.83,68,33.47,69.7l22.65,1.66,8.58-21,8.58-21Z"/><path class="cls-2" d="M22.8,28.88a4.1,4.1,0,0,0,.94.09c1.36,0,2.19-.67,2.19-1.87s-.82-1.72-2.06-1.72a4.23,4.23,0,0,0-1.07.1Zm-1.13-4.22a13.23,13.23,0,0,1,2.17-.17,3.55,3.55,0,0,1,2.45.73,2.35,2.35,0,0,1,.77,1.83,2.55,2.55,0,0,1-.67,1.86,3.62,3.62,0,0,1-2.68,1,4.16,4.16,0,0,1-.91-.08v3.5H21.67Z"/><path class="cls-2" d="M32.2,29.55a1.63,1.63,0,0,0-1.59-1.86,1.9,1.9,0,0,0-1.75,1.86Zm-3.35.82A2,2,0,0,0,31,32.55a4.17,4.17,0,0,0,1.74-.32l.2.81a5.11,5.11,0,0,1-2.09.39,2.91,2.91,0,0,1-3.09-3.17c0-1.89,1.11-3.38,2.95-3.38,2,0,2.59,1.8,2.59,3a5,5,0,0,1,0,.53Z"/><path class="cls-2" d="M34.71,28.72c0-.65,0-1.18-.05-1.7h1l.07,1h0a2.32,2.32,0,0,1,2.08-1.18c.87,0,2.22.52,2.22,2.67V33.3H38.92V29.68c0-1-.38-1.86-1.45-1.86A1.64,1.64,0,0,0,35.93,29a1.77,1.77,0,0,0-.07.54V33.3H34.71Z"/><path class="cls-2" d="M43.24,25.22V27h1.63v.87H43.24v3.39c0,.78.22,1.22.86,1.22a2.56,2.56,0,0,0,.66-.08l.05.86a2.82,2.82,0,0,1-1,.15A1.6,1.6,0,0,1,42.56,33a2.34,2.34,0,0,1-.44-1.63V27.89h-1V27h1V25.51Z"/><path class="cls-2" d="M49.47,30.1c-1.25,0-2.66.19-2.66,1.41a1,1,0,0,0,1.07,1.09,1.56,1.56,0,0,0,1.52-1.05,1.21,1.21,0,0,0,.07-.36Zm.17,3.2-.09-.79h0a2.36,2.36,0,0,1-1.93.94,1.79,1.79,0,0,1-1.92-1.81c0-1.52,1.35-2.35,3.78-2.33v-.13A1.3,1.3,0,0,0,48,27.72a3.08,3.08,0,0,0-1.63.47l-.26-.75a3.87,3.87,0,0,1,2.06-.56c1.92,0,2.39,1.31,2.39,2.57V31.8a9.75,9.75,0,0,0,.1,1.5Z"/><path class="cls-2" d="M30.16,42.43a4.31,4.31,0,0,1-1.8.36,3,3,0,0,1-3.13-3.21,3.19,3.19,0,0,1,3.37-3.33,3.93,3.93,0,0,1,1.59.32l-.26.88a2.76,2.76,0,0,0-1.33-.29,2.17,2.17,0,0,0-2.22,2.37,2.15,2.15,0,0,0,2.18,2.35A3.35,3.35,0,0,0,30,41.57Z"/><path class="cls-2" d="M34.81,39.45c-1.25,0-2.66.2-2.66,1.42A1,1,0,0,0,33.22,42a1.56,1.56,0,0,0,1.52-1.05,1.21,1.21,0,0,0,.07-.37ZM35,42.66l-.1-.79h0a2.37,2.37,0,0,1-1.93.93A1.79,1.79,0,0,1,31,41c0-1.52,1.35-2.35,3.78-2.34v-.13a1.29,1.29,0,0,0-1.43-1.45,3.08,3.08,0,0,0-1.63.47l-.26-.76a4,4,0,0,1,2.06-.56c1.92,0,2.39,1.32,2.39,2.58v2.34a8.69,8.69,0,0,0,.1,1.51Z"/><path class="cls-2" d="M37.75,38.34c0-.74,0-1.38,0-2h1l0,1.23h0a1.89,1.89,0,0,1,1.74-1.38,1.47,1.47,0,0,1,.32,0v1.08a1.51,1.51,0,0,0-.39,0,1.61,1.61,0,0,0-1.53,1.47,2.81,2.81,0,0,0,0,.53v3.35H37.75Z"/><path class="cls-2" d="M45.85,38.91a1.63,1.63,0,0,0-1.59-1.86,1.9,1.9,0,0,0-1.75,1.86Zm-3.35.82a2,2,0,0,0,2.15,2.18,4.15,4.15,0,0,0,1.74-.33l.2.82a5.11,5.11,0,0,1-2.09.39,2.91,2.91,0,0,1-3.09-3.17c0-1.89,1.12-3.39,3-3.39,2,0,2.59,1.81,2.59,3a3.31,3.31,0,0,1,0,.54Z"/><path class="cls-2" d="M17.94,50.85a3,3,0,0,0,1.51.45c.83,0,1.22-.41,1.22-.93s-.33-.85-1.17-1.16c-1.13-.4-1.66-1-1.66-1.78A1.94,1.94,0,0,1,20,45.59a3.11,3.11,0,0,1,1.54.39l-.28.83A2.45,2.45,0,0,0,20,46.45c-.67,0-1.05.39-1.05.85s.38.76,1.19,1.07c1.09.41,1.65,1,1.65,1.89,0,1.11-.85,1.89-2.35,1.89a3.58,3.58,0,0,1-1.76-.43Z"/><path class="cls-2" d="M23.65,45.73,25,49.45c.14.41.3.91.4,1.28h0c.11-.37.24-.85.4-1.31l1.25-3.69h1.2L26.6,50.21c-.82,2.16-1.38,3.26-2.15,3.94a3.22,3.22,0,0,1-1.41.74l-.28-1a3.15,3.15,0,0,0,1-.55,3.54,3.54,0,0,0,1-1.27.88.88,0,0,0,.09-.28,1.21,1.21,0,0,0-.08-.3l-2.32-5.79Z"/><path class="cls-2" d="M29.11,50.85a3,3,0,0,0,1.51.45c.83,0,1.22-.41,1.22-.93s-.32-.85-1.17-1.16c-1.13-.4-1.66-1-1.66-1.78a1.94,1.94,0,0,1,2.17-1.84,3.11,3.11,0,0,1,1.54.39l-.28.83a2.42,2.42,0,0,0-1.29-.36c-.67,0-1,.39-1,.85s.38.76,1.2,1.07c1.09.41,1.64,1,1.64,1.89,0,1.11-.85,1.89-2.35,1.89a3.58,3.58,0,0,1-1.76-.43Z"/><path class="cls-2" d="M35.78,43.93v1.8h1.64v.87H35.78V50c0,.78.23,1.22.86,1.22a3.06,3.06,0,0,0,.66-.07l.05.85a2.79,2.79,0,0,1-1,.16,1.58,1.58,0,0,1-1.23-.48A2.32,2.32,0,0,1,34.67,50V46.6h-1v-.87h1v-1.5Z"/><path class="cls-2" d="M42.61,48.27A1.63,1.63,0,0,0,41,46.41a1.89,1.89,0,0,0-1.76,1.86Zm-3.35.81a2,2,0,0,0,2.16,2.18,4.2,4.2,0,0,0,1.74-.32l.19.82a5.11,5.11,0,0,1-2.09.39A2.92,2.92,0,0,1,38.17,49c0-1.9,1.12-3.39,2.95-3.39,2.05,0,2.59,1.81,2.59,3a3.07,3.07,0,0,1,0,.53Z"/><path class="cls-2" d="M45.13,47.43c0-.64,0-1.18-.06-1.7h1l.06,1h0a2.17,2.17,0,0,1,2-1.16,1.87,1.87,0,0,1,1.78,1.26h0a2.73,2.73,0,0,1,.7-.82A2.18,2.18,0,0,1,52,45.59c.83,0,2.06.55,2.06,2.73V52H53V48.46c0-1.21-.44-1.93-1.36-1.93a1.48,1.48,0,0,0-1.35,1,1.72,1.72,0,0,0-.09.58V52H49.06V48.25c0-1-.44-1.72-1.31-1.72a1.56,1.56,0,0,0-1.42,1.14,1.69,1.69,0,0,0-.09.56V52H45.13Z"/></g></g></svg>