<svg xmlns="http://www.w3.org/2000/svg" viewBox="0 0 175.92 150.49"><defs><style>.cls-1{fill:#fff;}</style></defs><title>Asset 1</title><g id="Layer_2" data-name="Layer 2"><g id="Layer_1-2" data-name="Layer 1"><path class="cls-1" d="M43.67,132.49h-.05l0,0h-.9l-1.12,0,0,0h0a1.29,1.29,0,0,1,.17.15,1.12,1.12,0,0,1,.28.87v1.77h-4l0-1.77a1,1,0,0,1,.47-1h0l0,0h-.9l-1.13,0,0,0h0l.18.15a1.16,1.16,0,0,1,.28.87v5.1a1,1,0,0,1-.47,1h0l0,0h.9l1.13,0,0,0h0l-.18-.15a1.19,1.19,0,0,1-.28-.87V136.1l4,0,0,2.46a1,1,0,0,1-.47,1h0s0,0,0,0h.89l1.13,0,0,0h0l-.18-.15a1.17,1.17,0,0,1-.27-.87v-5.1a1,1,0,0,1,.47-1m8.61,6.95a2.26,2.26,0,0,1-.61-.89l-2.52-6.11H47.42l0,0h0l.13.07a.51.51,0,0,1,.08.6l-2.08,5.16a2.49,2.49,0,0,1-.94,1.29h0l0,0h.9l1.07,0,0,0h0a1.07,1.07,0,0,1-.16-.14.87.87,0,0,1-.06-1L47,136.9l2.79,0s.77,1.9.77,1.9a1.09,1.09,0,0,1,.07.3c0,.17-.09.34-.37.47h0l0,0h1.07l1.17,0,0,0h0a2.2,2.2,0,0,1-.25-.17m-3.79-5.81c.23.64,1,2.5,1,2.58h-.6l-1.6,0c0-.07,1-2.54,1.1-2.76Zm1,2.58s0,0,0-.07l0,.07ZM60,133.49a1,1,0,0,1,.47-1h0l0,0h-.91l-1.12,0,0,0h0l.18.15a1.15,1.15,0,0,1,.27.87v5.3l-3.83,0,0-5.28a1,1,0,0,1,.47-1l.07-.05H53.5l0,0h0l.18.15a1.16,1.16,0,0,1,.28.87v5.1a1,1,0,0,1-.47,1h0l0,0h2.64l3.26,0a.71.71,0,0,1,.54.23,2.43,2.43,0,0,1,.38,1.62h0c.13,0,.63-.2.63-.2v-2.48l-1,0Zm2.4,6.1h0l0,0h.65l.83,0,.14-.14.08-.08.17-.18L68,133.85V136l0,2.6a1,1,0,0,1-.46,1h0l0,0h.9l1.12,0,0,0h0a1.29,1.29,0,0,1-.17-.15,1.14,1.14,0,0,1-.28-.87v-5.1a1,1,0,0,1,.47-1h0l0,0h-.65l-.83,0-.14.15-.08.08-.16.18L64,138.23v-2.14l0-2.6a1,1,0,0,1,.47-1h0l0,0h-.9l-1.12,0,0,0h0l.18.15a1.15,1.15,0,0,1,.27.87v5.1a1,1,0,0,1-.47,1m12.79.2a3.76,3.76,0,1,0-4-3.75,3.74,3.74,0,0,0,4,3.75m-2.78-3.92a2.64,2.64,0,0,1,2.8-2.7,2.79,2.79,0,0,1,2.77,3,2.64,2.64,0,0,1-2.81,2.7,2.78,2.78,0,0,1-2.76-3m14.43,3.74,1.13,0,0,0h0l-.18-.15a1.19,1.19,0,0,1-.28-.87v-5.1a1,1,0,0,1,.47-1h0l0,0h-.9l-1.13,0,0,0h0l.18.15a1.12,1.12,0,0,1,.28.87v1.77h-4l0-1.77a1,1,0,0,1,.47-1h0l0,0H82l-1.13,0,0,0h0l.18.15a1.15,1.15,0,0,1,.27.87v5.1a1,1,0,0,1-.46,1h0l0,0h.9l1.12,0,0,0h0a1.29,1.29,0,0,1-.17-.15,1.14,1.14,0,0,1-.28-.87V136.1l4,0,0,2.46a1,1,0,0,1-.47,1h0l0,0Zm2.1,0h.89l1.08,0,0,0h0a.73.73,0,0,1-.16-.14.87.87,0,0,1-.07-1l.66-1.61,2.79,0s.77,1.9.77,1.9a1.09,1.09,0,0,1,.07.3c0,.17-.09.34-.38.47h.06a.05.05,0,0,0,0,0h1.07l1.17,0,0,0h0l-.24-.16a2.25,2.25,0,0,1-.62-.9l-2.52-6.11H91.74l0,0h0l.13.07a.54.54,0,0,1,.08.6l-2.08,5.16a2.45,2.45,0,0,1-1,1.29h0l0,0m3.87-6c.23.64,1,2.5,1,2.58h-.6l-1.6,0c0-.07,1-2.54,1.1-2.76Zm1,2.51,0,.07h0s0,0,0-.07m8.53,2.45a1,1,0,0,1-.47,1h0l0,0h.91l1.12,0,0,0h0l-.18-.15a1.21,1.21,0,0,1-.28-.87v-5.1a1,1,0,0,1,.48-1h0l0,0h-2.39l-3,0,0,0h0a.82.82,0,0,1,.26.14,1.9,1.9,0,0,1,.48,1.56c0,1.69-.3,4.55-1.44,4.55a1,1,0,0,1-.6-.25v0h0v.08c0,.29.09,1.1.09,1.1a3.39,3.39,0,0,0,.45.12c1.56,0,2.38-1.78,2.44-5.27l0-1.24,2.1,0Zm3.5,1h0l0,0H107l1.4,0c1.15,0,3.08-.3,3.08-2.35,0-1.39-1-2.19-2.71-2.19l-1.37.09V135l0-1.54a1,1,0,0,1,.47-1l.07-.05h-2.11l0,0h0l.18.15a1.2,1.2,0,0,1,.27.87v5.1a1,1,0,0,1-.47,1m2.65-.78-1.06-.09V136s.86,0,.86,0c1.29,0,1.94.46,1.94,1.35,0,.58-.23,1.54-1.74,1.54m11.74-6.32h0l0,0h-.9l-1.12,0,0,0h0l.17.15a1.12,1.12,0,0,1,.28.87v1.77h-4l0-1.77a1,1,0,0,1,.47-1h0l0,0h-.9l-1.13,0,0,0h0l.18.15a1.16,1.16,0,0,1,.28.87v5.1a1,1,0,0,1-.47,1h0l0,0h.9l1.13,0,0,0h0l-.18-.15a1.19,1.19,0,0,1-.28-.87V136.1l4,0,0,2.46a1,1,0,0,1-.47,1h0l0,0h.9l1.12,0,0,0h0l-.18-.15a1.17,1.17,0,0,1-.27-.87v-5.1a1,1,0,0,1,.47-1m4.83,2.6-1.36.09V135l0-1.54a1,1,0,0,1,.47-1l.07-.05h-2.11l0,0h0l.18.15a1.21,1.21,0,0,1,.28.87v5.1a1,1,0,0,1-.47,1h0l0,0h1.14l1.4,0c1.15,0,3.08-.3,3.08-2.35,0-1.39-1-2.19-2.71-2.19m-.28,3.72-1.06-.09V136s.86,0,.86,0c1.29,0,1.94.46,1.94,1.35,0,.58-.23,1.54-1.74,1.54m3.5-6.37,0,0h0l.18.15a1.2,1.2,0,0,1,.27.87v5.1a1,1,0,0,1-.47,1h0l0,0h.9l1.13,0,0,0h0a1,1,0,0,1-.18-.15,1.17,1.17,0,0,1-.28-.87v-5.1a1,1,0,0,1,.47-1l.07-.05H128.3Zm6-1.9a1.25,1.25,0,0,0,.36,1,1.78,1.78,0,0,0,2.41,0,1.37,1.37,0,0,0,.39-1l-.95,0s0,0,0,0h0a.25.25,0,0,1,0,.07.52.52,0,0,1,0,.39.84.84,0,0,1-1.35,0,.42.42,0,0,1,0-.45l0,0h-1v0Zm4.93,8.92a1.17,1.17,0,0,1-.27-.87v-5.1a1,1,0,0,1,.47-1h0l0,0h-.65l-.83,0a1.14,1.14,0,0,0-.14.15l-.08.08-.17.18-3.69,5.38v-2.15l0-2.59a1,1,0,0,1,.46-1h0l0,0h-.9l-1.13,0s0,0,0,0h0l.18.15a1.12,1.12,0,0,1,.28.87v5.1a1,1,0,0,1-.47,1h0l0,0h.66l.83,0,.14-.14.08-.08.16-.18,3.7-5.38V136l0,2.62a1,1,0,0,1-.47,1h0l0,0h.9l1.12,0,0,0h0l-.18-.15M63.41,150.17a1.2,1.2,0,0,1-.27-.87v-5.1a1.05,1.05,0,0,1,.46-1l.08,0H61.57l0,0h0l.18.14a1.22,1.22,0,0,1,.27.88v5.1a1.05,1.05,0,0,1-.47,1h0l0,0h.9l1.12,0,0,0h0l-.18-.15m4.65.15c-.16-.09-.3-.19-.45-.29a10.83,10.83,0,0,1-1.92-2.1l-1.2-1.56S67,143.19,67,143.19h-.78l-1.25,0,0,0h0l.1,0a.63.63,0,0,1,.25.45c0,.19-.14.41-.42.78L63.3,146.6s1.86,2.5,1.86,2.5l.07.1c.49.66.91,1.23,1.71,1.19l1.12,0,0,0ZM72.34,143a3.76,3.76,0,1,0,4,3.75,3.72,3.72,0,0,0-4-3.75m2.78,3.91a2.64,2.64,0,0,1-2.8,2.7,2.78,2.78,0,0,1-2.76-3,2.64,2.64,0,0,1,2.8-2.7,2.78,2.78,0,0,1,2.76,3m10-3.71h0l0,0h-.9l-1.12,0,0,0h0a.86.86,0,0,1,.18.14,1.18,1.18,0,0,1,.27.88V146h-4l0-1.77a1,1,0,0,1,.46-1h0l0,0h-.9l-1.12,0,0,0h0a.79.79,0,0,1,.17.14,1.15,1.15,0,0,1,.28.88v5.1a1,1,0,0,1-.47,1h0l0,0h.89l1.13,0,0,0h0l-.18-.15a1.17,1.17,0,0,1-.27-.87v-2.49l4,0,0,2.47a1,1,0,0,1-.47,1h0l0,0H84l1.12,0,0,0h0l-.18-.15a1.17,1.17,0,0,1-.27-.87v-5.1a1,1,0,0,1,.47-1m8.42,7.12a5,5,0,0,1-.45-.29,10.52,10.52,0,0,1-1.92-2.1L90,146.37s2.53-3.18,2.53-3.18h-.77l-1.25,0,0,0h0l.1,0a.63.63,0,0,1,.25.45c0,.19-.14.41-.42.78l-1.63,2.14s1.86,2.5,1.86,2.5l.07.1c.49.66.91,1.23,1.71,1.19l1.12,0,0,0Zm-4.65-.15a1.21,1.21,0,0,1-.28-.87v-5.1a1,1,0,0,1,.47-1l.07,0h-2.1l0,0h0a1.24,1.24,0,0,1,.18.14,1.22,1.22,0,0,1,.27.88v5.1a1.05,1.05,0,0,1-.47,1h0l0,0H88l1.12,0,0,0h0l-.18-.15m11.21-7h-.45l-1.15,0s0,0,0,0h0a.3.3,0,0,1,.11.07.63.63,0,0,1,.17.43,1.66,1.66,0,0,1-.14.65s-1.31,2.89-1.39,3.08l-.13-.27c-.42-.95-1.87-4-1.87-4H93.55l0,0h0l.12,0a2,2,0,0,1,.59.71l1.83,3.57a2,2,0,0,0,.73.85,3.35,3.35,0,0,0-.21.36,1.35,1.35,0,0,1-1.19.82.86.86,0,0,1-.56-.18s-.74.77-.74.77h0l.1.05a1.86,1.86,0,0,0,1,.26,2.28,2.28,0,0,0,2.25-1.57l2.62-5.69h0Zm3.87,0H101.4l0,0h0a.79.79,0,0,1,.17.14,1.19,1.19,0,0,1,.28.88v5.1a1,1,0,0,1-.47,1l-.07,0h2.28l0,0h0l-.14-.08a1.29,1.29,0,0,1-.48-1.11V144s.85-.07.85-.07c1,0,1.54.49,1.54,1.31a1.71,1.71,0,0,1-1.65,1.64,2.52,2.52,0,0,0,.68-.18,2.88,2.88,0,0,1-1,.24l-.08,0h0l0,0h0l.16,0a2.52,2.52,0,0,0,.73.12,2.18,2.18,0,0,0,2.38-2.07c0-1.27-.88-1.91-2.63-1.91m10.87,5.7-.21.16a4.13,4.13,0,0,1-2.24.57,2.86,2.86,0,0,1-3-3.06,2.55,2.55,0,0,1,2.71-2.6,3.64,3.64,0,0,1,2,.64l0,0V143.3a5.27,5.27,0,0,0-.61-.14l-.08,0a5.55,5.55,0,0,0-1.28-.14,3.77,3.77,0,0,0-4.08,3.8c0,1.7,1.08,3.69,4.13,3.69a5.79,5.79,0,0,0,1.83-.25s.72-1.38.72-1.38l0,0Z"/><path class="cls-1" d="M57.75,66.82,62.69,79.3l4.59-10.81a7.9,7.9,0,0,0,.51-1.67H72c-.46.28-1,.83-.78,2.41L72.83,81.4A2.68,2.68,0,0,0,74,83.53H69.28c1.2-.79,1-1.89.88-3L68.87,69.32l-6,14.44-.68-.57a5.07,5.07,0,0,1-1.3-2L56.06,69.37,54.43,80.73c-.15,1-.35,2.12,1,2.8H51.15a4.2,4.2,0,0,0,1.32-2.73l1.71-11.5c.15-1,.37-1.81-.78-2.48Zm29.64.93a3.21,3.21,0,0,1,.85-.93h3.47a2.45,2.45,0,0,0-1.12,2.38V81.14a2.48,2.48,0,0,0,1.12,2.39H87a2.49,2.49,0,0,0,1.13-2.39V69.94L79.4,82.59a3.41,3.41,0,0,1-.86.94H75.07a2.48,2.48,0,0,0,1.12-2.39V69.2a2.45,2.45,0,0,0-1.12-2.38h4.74a2.45,2.45,0,0,0-1.12,2.38V80.4ZM107.28,70a8.75,8.75,0,0,0-4.84-1.53c-3.2,0-6.41,2.08-6.41,6.16,0,3.48,2.06,7.2,7,7.2a8.56,8.56,0,0,0,5.75-1.76l-1.67,3.19a13,13,0,0,1-4.27.6c-7.33,0-9.61-4.89-9.61-8.59,0-4.58,3.33-8.83,9.51-8.83a13.43,13.43,0,0,1,3.18.38,10.75,10.75,0,0,0,1.37.26Zm16,0a8.72,8.72,0,0,0-4.84-1.53c-3.2,0-6.4,2.08-6.4,6.16,0,3.48,2,7.2,7,7.2a8.5,8.5,0,0,0,5.74-1.76l-1.66,3.19a13.12,13.12,0,0,1-4.28.6c-7.33,0-9.6-4.89-9.6-8.59,0-4.58,3.32-8.83,9.5-8.83a13.43,13.43,0,0,1,3.18.38,11.1,11.1,0,0,0,1.37.26ZM56.3,88.3H51.58l.41.27a1.59,1.59,0,0,1,.72,1.54v8.31A1.57,1.57,0,0,1,52,100l-.4.27h4.75l-.62-.29a1.76,1.76,0,0,1-1-1.79v-3.5l.45.13a6,6,0,0,0,1.49.22c2,0,4-1.2,4-3.48,0-1.47-.76-3.22-4.39-3.22m-1.55,6.2V90A6.72,6.72,0,0,1,56,89.83c1.52,0,2.39.74,2.39,2,0,2.38-2.65,2.6-3.18,2.62l-.49,0m13.44-6.45c-4.6,0-6.69,3.22-6.69,6.21s2.09,6.22,6.69,6.22,6.69-3.22,6.69-6.22-2.1-6.21-6.69-6.21m4.42,6.48a4.21,4.21,0,0,1-4.46,4.29c-2.58,0-4.39-2-4.39-4.82a4.21,4.21,0,0,1,4.46-4.29c2.58,0,4.39,2,4.39,4.82m10.66,4.24a4.55,4.55,0,0,1-4.71-4.87,4.06,4.06,0,0,1,4.3-4.14,5.81,5.81,0,0,1,3.28,1l.24.16V88.52l-1.08-.2-.14,0a8.8,8.8,0,0,0-2.11-.24c-4.65,0-6.77,3.26-6.77,6.3,0,2.83,1.79,6.13,6.84,6.13a9.49,9.49,0,0,0,3-.42l.06,0,1.53-2.94-.58.47a5.66,5.66,0,0,1-3.9,1.2m11.85,0a4.55,4.55,0,0,1-4.71-4.87,4.06,4.06,0,0,1,4.3-4.14,5.81,5.81,0,0,1,3.28,1l.24.16V88.52l-1.07-.2-.15,0a8.77,8.77,0,0,0-2.1-.24c-4.66,0-6.78,3.26-6.78,6.3,0,2.83,1.8,6.13,6.85,6.13a9.43,9.43,0,0,0,3-.42l.06,0L99.6,97.1l-.58.47a5.66,5.66,0,0,1-3.9,1.2M120.53,100l-.41.27h4.29L124,100a1.6,1.6,0,0,1-.71-1.54V90.11a1.6,1.6,0,0,1,.71-1.54l.4-.27-2.73,0-1.48,0c-3.69,0-4.46,1.86-4.46,3.42a3.17,3.17,0,0,0,2.79,2.94c-1.21,1.71-3.38,4.5-5.3,5.35l-.47.21-.27-.19a1.57,1.57,0,0,1-.72-1.54V90.11a1.57,1.57,0,0,1,.72-1.54l.39-.27h-3l0,0a2.33,2.33,0,0,0-.64.68l-5.77,8.4v-7.3a1.57,1.57,0,0,1,.72-1.54l.39-.27h-4.27l.4.27a1.57,1.57,0,0,1,.72,1.54v8.31a1.57,1.57,0,0,1-.72,1.54l-.4.27h3l0,0a2.2,2.2,0,0,0,.64-.68l5.77-8.4v7.3A1.58,1.58,0,0,1,109,100l-.4.27h4.27l0,0,2.29.12c2.17,0,5.07-4.88,5.91-6.38l.13-.24-.28,0a3.24,3.24,0,0,1-2.31-.68,1.71,1.71,0,0,1-.58-1.33c0-.73.29-2,2.26-2a5.74,5.74,0,0,1,1,.09v8.57a1.6,1.6,0,0,1-.71,1.54"/><path class="cls-1" d="M88,125.28c-43,0-77.85-8.65-77.85-19.32,0-2.18,1.47-4.28,4.15-6.23a1.38,1.38,0,0,1,.54-.12.39.39,0,0,1,.39.27,4.24,4.24,0,0,0-2.34,3.49c0,7.65,28.28,16.95,75.11,16.95s75.1-9.3,75.1-16.95a4.24,4.24,0,0,0-2.34-3.49.42.42,0,0,1,.4-.27,1.25,1.25,0,0,1,.53.12c2.69,2,4.16,4,4.16,6.23,0,10.67-34.85,19.32-77.85,19.32m0-104.4.29.48c16.8,22.32,35.59,26.37,43,48.61,5.26,15.84.38,30.64-6.56,37.41l-.14.14a3.1,3.1,0,0,0,.71,0,2.67,2.67,0,0,0,.73-.35,38.36,38.36,0,0,0,13-37.32c.48-.58,3-2.95,5.22-5.62,2.77-3.28,5.35-6.91,5.35-6.91,4.14,7.8,8.95,12.79,8.9,23.88-.05,13-6.57,18.37-9.48,20.36a1.25,1.25,0,0,0,.73,0,4.28,4.28,0,0,0,1.1-.47,23.94,23.94,0,0,0,10.56-12,42.15,42.15,0,0,0,5.77-3.24,24.11,24.11,0,0,0,4.4-3.79c.17.93.57,6-1.08,9.6a13.5,13.5,0,0,1-4.92,5.81s.12.1.75,0a8.06,8.06,0,0,0,.92-.37,18.42,18.42,0,0,0,8-10.16c2.14-7.28-.86-15.54-.86-15.54s-3.21,4.64-11.23,8.56a23.51,23.51,0,0,0,.05-6c-1.33-12.76-9.45-18.49-12.42-31.09,0,0-6.68,11.6-14.82,17C126.27,38.56,99.43,26.61,88,0,76.48,26.61,49.65,38.56,40,59.9c-8.13-5.44-14.82-17-14.82-17-3,12.6-11.09,18.33-12.41,31.09a23.06,23.06,0,0,0,0,6C4.84,76,1.63,71.37,1.63,71.37s-3,8.26-.86,15.54a18.38,18.38,0,0,0,8,10.16,8.06,8.06,0,0,0,.92.37c.63.14.75,0,.75,0a13.44,13.44,0,0,1-4.92-5.81C3.84,88.06,4.23,83,4.41,82.07A23.46,23.46,0,0,0,8.8,85.86a42.12,42.12,0,0,0,5.78,3.24,23.93,23.93,0,0,0,10.55,12,4.24,4.24,0,0,0,1.11.47c.55.1.72,0,.72,0-2.9-2-9.42-7.41-9.47-20.36,0-11.09,4.76-16.08,8.9-23.88,0,0,2.58,3.63,5.34,6.91,2.26,2.67,4.75,5,5.23,5.62a38.36,38.36,0,0,0,13,37.32,2.79,2.79,0,0,0,.74.35,3.1,3.1,0,0,0,.71,0l-.14-.14C44.3,100.61,39.42,85.81,44.68,70c7.4-22.24,26.19-26.29,43-48.61Z"/></g></g></svg>