<svg xmlns="http://www.w3.org/2000/svg" viewBox="0 0 179.33 102.81"><defs><style>.cls-1{fill:#231f20;}</style></defs><title>Asset 3</title><g id="Layer_2" data-name="Layer 2"><g id="Layer_1-2" data-name="Layer 1"><path class="cls-1" d="M39.79,25.34c-4.47,5.34-8.52,8-12,8-2.66,0-3.94-1.65-3.94-5.08,0-4.08,2.47-8.88,7.34-14.31s9.51-8.5,14-9.42a7.26,7.26,0,0,1,1.43,4.56c0,5.38-2.27,10.84-6.78,16.21M1.65,61.72c.48,0,.87-.3,1.17-.92.94-2.49,2.89-3.71,5.93-3.71,2.26,0,5.57.77,9.81,2.29a35.23,35.23,0,0,0,11.86,2.34,17.7,17.7,0,0,0,10.27-3c2.38-1.59,3.81-3.21,4.28-4.84a.15.15,0,0,0,0-.09c0-.75-.39-1.19-1-1.19-.22,0-.64.1-.86.76-.73,2.49-2.77,3.7-6.25,3.7-1.94,0-5.11-.88-9.46-2.61A33.49,33.49,0,0,0,15,51.74,15.07,15.07,0,0,0,4.24,56a29.31,29.31,0,0,1,9.82-8c3.49-2,10.42-4.85,20.61-8.57C43.79,36,50.33,32.9,54.09,30.25c5.91-4,9-8.89,9.07-14.51a11.74,11.74,0,0,0-4-9.7A16,16,0,0,0,48.43,2.48a16.6,16.6,0,0,0-2.7.14A10,10,0,0,0,38.51,0C33.49,0,31,1,31,3a.34.34,0,0,0,.11.25,1.11,1.11,0,0,0,.75.44,2.51,2.51,0,0,0,1-.38,10.39,10.39,0,0,1,5.59-1.6,8.86,8.86,0,0,1,5.15,1.46A32.77,32.77,0,0,0,28.74,12.6c-4.51,4.83-6.79,9.9-6.79,15,0,5,1.9,7.46,5.66,7.46,4.16,0,8.59-2.71,13.16-8,5-5.66,7.52-11.7,7.52-17.92a9.47,9.47,0,0,0-1.46-4.94A5.53,5.53,0,0,1,48.26,4c5.54,0,8.22,2.42,8.22,7.42,0,7.24-5.16,14.1-15.32,20.39-9.06,4.66-18.46,9.5-28,14.43C7.1,49.74,3.1,53.64,1.32,57.91a7.49,7.49,0,0,0-.69,2.45c0,1.22.72,1.36,1,1.36"/><path class="cls-1" d="M136.55,45.46c2.78-2.65,4.16-3.2,4.83-3.2.51,0,.61.2.61.53,0,1.06-1.65,3.09-9.31,6.92a44.27,44.27,0,0,1,3.87-4.25m42.65,4.93-.54-.46a.44.44,0,0,0-.28-.08.35.35,0,0,0-.24.15c-5.24,6.93-9.09,10.44-11.46,10.44-.63,0-.88-.25-.88-.88,0-.84.69-2,2-3.4,3.3-3.42,5.13-5.35,5.44-5.7,1.88-2.26,2.85-4.41,2.85-6.38a2.71,2.71,0,0,0-3-3c-2.15,0-4.86,1.75-8.25,5.36a7.6,7.6,0,0,0,.33-2.15c0-2.66-1.46-3.21-2.67-3.21-1.92,0-4.66,1.82-8.35,5.55a7.86,7.86,0,0,0,.35-2.34c0-2.66-1.41-3.21-2.59-3.21S149,42,147,44.11c-.77.89-2.39,2.86-4.8,5.88,0,0,0,0,0,0-5.27,6.87-9.28,10.37-11.92,10.37-1.52,0-2.22-.74-2.22-2.31,0-1.33,1-3.41,3.07-6.2,8.41-3.64,12.5-6.56,12.5-8.92,0-1.27-.77-2-2.14-2-2.76,0-6,1.65-9.77,4.88a19.69,19.69,0,0,0-5.08,6.35c-4.46,5.41-7.68,8.17-9.63,8.17-.62,0-.88-.26-.88-.88s.31-1.45,1.71-3.35c3.54-4.71,7.42-9.5,11.55-14.21a.35.35,0,0,0,0-.45.35.35,0,0,0-.43-.13,4.77,4.77,0,0,1-1.82.24c-.62,0-1,0-1.22,0v0a.38.38,0,0,0-.35-.12,9,9,0,0,0-3.4,1.71,30,30,0,0,0-4.27,3.73c-1.36,1.36-2.82,2.84-4.36,4.41s-3,3-4.35,4.35-2.57,2.46-3.6,3.37c-1.28,1.13-1.79,1.35-2,1.38-.88.12-1.17-.26-1.32-.55a3.42,3.42,0,0,1-.14-2.1,9,9,0,0,1,1.11-2.82,8.69,8.69,0,0,1,2.11-2.5,3.54,3.54,0,0,0,1.37-1.38,1.41,1.41,0,0,0,.06-1.49c-.18-.27-.57-.56-1.4-.37a5.62,5.62,0,0,0-2.27,1.61,8.5,8.5,0,0,0-1.63,2.55,11.08,11.08,0,0,0-1,3.5,5.87,5.87,0,0,0,.52,3.27,3.07,3.07,0,0,0,3,1.53,2.26,2.26,0,0,0,1.11-.3,9.56,9.56,0,0,0,1.35-1c.53-.45,1.24-1.1,2.06-1.94l3.21-3.2c1.13-1.12,2.27-2.31,3.39-3.52s2.23-2.36,3.29-3.42h0A28.66,28.66,0,0,1,122,45.17l.87-.66L118,50.29c-2.36,2.91-3.55,5.77-3.55,8.51,0,2.44,1.32,3,2.42,3,2,0,4.91-2.09,8.81-6.35a11.25,11.25,0,0,0-.11,1.53c0,3.15,1.64,4.82,4.73,4.82s7.46-3.57,13.09-10.91a0,0,0,0,0,0,0c5.82-7.32,7.79-8.41,8.46-8.41s.79.22.79.79-.79,2.46-4.55,7.16c-3.64,4.55-6.41,8-8.45,10.49a.36.36,0,0,0,.37.58,9.68,9.68,0,0,1,2.31-.25,2.93,2.93,0,0,1,1.27.22.37.37,0,0,0,.44-.08c3.28-4,6.47-8,9.52-11.75,3.88-4.75,6.91-7.16,9-7.16.41,0,.78.1.78.88,0,.42-.62,1.92-4.8,7.25l-8.1,10.31a.36.36,0,0,0,.37.58,8.62,8.62,0,0,1,2.23-.25,3.41,3.41,0,0,1,1.43.22.37.37,0,0,0,.46-.1c4.1-5.41,7.19-9.35,9.16-11.73,3.81-4.69,6.87-7.08,9.06-7.08.64,0,.78.29.78.71s-.33,1.36-1.94,3c-1.89,2-3.62,3.9-5.18,5.62a10.23,10.23,0,0,0-2.84,6.81c0,2.59,1.45,3.13,2.68,3.13,2.87,0,7-3.57,12.65-10.91a.34.34,0,0,0-.05-.49"/><path class="cls-1" d="M14.13,95.56c-1.24,2.58-2.57,3.8-4.18,3.8a3.94,3.94,0,0,1-2.34-.82.38.38,0,0,0-.3,0,.35.35,0,0,0-.23.21l-.91,2.13a.36.36,0,0,0,.11.43A6.31,6.31,0,0,0,10,102.4c3.63,0,5.7-3,7.7-7.4l11.1-24.64a.41.41,0,0,0,0-.36.38.38,0,0,0-.31-.17H25.93a.38.38,0,0,0-.35.22l-9.35,21.1L3.49,70a.34.34,0,0,0-.31-.18H.37A.35.35,0,0,0,.05,70a.33.33,0,0,0,0,.36L14.64,94.47Z"/><path class="cls-1" d="M45.8,72.52A12.94,12.94,0,0,1,54,74.94a.29.29,0,0,0,.28.07.35.35,0,0,0,.25-.15L55.7,73a.35.35,0,0,0-.08-.47c-2.47-2-5.79-3.09-9.88-3.09-9.39,0-16,6.86-16,16.69,0,10,6.57,16.69,16.33,16.69,4,0,7.94-1.42,10.13-3.6a.43.43,0,0,0,.07-.45l-1-1.85a.31.31,0,0,0-.25-.18.32.32,0,0,0-.3.07,13.35,13.35,0,0,1-8.46,2.91c-7.86,0-13.13-5.46-13.13-13.59s5.19-13.6,12.64-13.6"/><path class="cls-1" d="M71.4,61.72c7.89,0,17-5.38,27-16s15.36-20.68,15.81-30c.19-4.84-.66-8.3-2.55-10.27a7,7,0,0,0-5.26-2C100,3.47,93,8.06,85.73,17.08s-10.9,17.44-10.9,25.1c0,.22.11.63.76.84h.11a.79.79,0,0,0,.85-.85c0-7.15,3.7-15.19,11-23.89s13.63-13.1,18.89-13.1c3.21,0,4.77,2.26,4.77,6.89v2.75c-1,8.46-6.39,18.15-16.1,28.81s-17.67,16-23.7,16c-4.55,0-6.75-2.43-6.75-7.4-.11-8.55,3.26-17.75,10-27.3C82.31,14.1,92,6.43,103.54,2.2c.63-.15.95-.44.95-.84s-.21-.7-1.2-.7h-.09A66.88,66.88,0,0,0,73.46,17.3C64.28,26,59.62,35.51,59.62,45.48c.11,10.77,4.08,16.24,11.78,16.24"/><path class="cls-1" d="M111.13,72.93a.37.37,0,0,0,.36-.37V70.2a.37.37,0,0,0-.36-.37H93.53a.37.37,0,0,0-.37.37V102a.37.37,0,0,0,.37.37h18a.37.37,0,0,0,.36-.37V99.67a.37.37,0,0,0-.36-.37H96.39V87.43h13.37a.35.35,0,0,0,.36-.36V84.7a.36.36,0,0,0-.36-.35H96.39V72.93Z"/><path class="cls-1" d="M116.79,102.19a.35.35,0,0,0,.33.21h2.94a.34.34,0,0,0,.29-.15l10.5-13.88,10.44,13.88a.35.35,0,0,0,.28.15h3a.39.39,0,0,0,.33-.21.38.38,0,0,0,0-.37l-11.93-16,11.53-15.43a.35.35,0,0,0,0-.38.34.34,0,0,0-.31-.21h-3a.39.39,0,0,0-.31.15l-10,13.35L120.86,70a.38.38,0,0,0-.29-.15h-3a.39.39,0,0,0-.33.21.38.38,0,0,0,0,.37L128.8,85.85l-12,16a.33.33,0,0,0,0,.37"/><path class="cls-1" d="M157.44,88.48l6.09-14.17,6,14.17ZM165,69.78a.38.38,0,0,0-.33-.22h-2a.36.36,0,0,0-.34.22l-13.88,32.11a.37.37,0,0,0,0,.34.34.34,0,0,0,.3.17h2.55a.37.37,0,0,0,.33-.22l4.54-10.6h14.8l4.55,10.6a.34.34,0,0,0,.33.22h2.68a.38.38,0,0,0,.31-.17.32.32,0,0,0,0-.34Z"/><path class="cls-1" d="M84.81,102.4h2.51a.37.37,0,0,0,.36-.37V70.2a.37.37,0,0,0-.36-.37H62.57a.37.37,0,0,0-.36.37V102a.37.37,0,0,0,.36.37h2.51a.37.37,0,0,0,.36-.37V72.93h19V102a.36.36,0,0,0,.36.37"/></g></g></svg>