<svg xmlns="http://www.w3.org/2000/svg" viewBox="0 0 84.37 79.58"><defs><style>.cls-1{fill:#8d6a4c;}.cls-2{fill:#231f20;}</style></defs><title>Asset 5</title><g id="Layer_2" data-name="Layer 2"><g id="Layer_1-2" data-name="Layer 1"><path class="cls-1" d="M25.89,66.69a7.53,7.53,0,0,0,.77,5.19,6.45,6.45,0,0,0,1.75,2c.59.36,1.61.91,2.27.47,1.24-.87-.7-3.39-1.24-4a36.37,36.37,0,0,0-3.55-3.58m-5.11,4.38c-1-1.09-2.92-1.42-4.31-1.6a11.07,11.07,0,0,0-4.86.65,15.77,15.77,0,0,0,3.73,2.12A7.58,7.58,0,0,0,20,72.9c.91-.26,1.53-1,.8-1.83m-1.94-4.23a8,8,0,0,0,1.25,2.41c.4.51,1.17,1.2,1.9,1,1.35-.33.36-2.89.11-3.62a36.24,36.24,0,0,0-2.67-4.6,7.76,7.76,0,0,0-.59,4.79M13.77,65.7c.33-.73-.62-1.6-1.1-2a11.38,11.38,0,0,0-2.33-1.32,9.87,9.87,0,0,0-4.86-.58,15.23,15.23,0,0,0,3.8,3.39,7.62,7.62,0,0,0,2.33,1c.59.11,1.83.25,2.16-.48m.69-9.56a7,7,0,0,0-1.57,4.27c0,1.17.51,3.72,2,3.91s1.14-2.89,1-3.73a39.06,39.06,0,0,0-1.35-4.45M8.25,58.29c.59-.47.11-1.42-.22-1.9a8,8,0,0,0-1.82-1.9,9.79,9.79,0,0,0-4.57-1.82,14.5,14.5,0,0,0,2.45,3.68,9,9,0,0,0,2,1.61c.55.29,1.61.77,2.19.33m1.61-1.13c1.42.25,1.57-3,1.54-3.91,0-1.24-.19-2.52-.3-3.76a6.83,6.83,0,0,0-2.37,3.65c-.22,1-.29,3.76,1.13,4M5,49.93c.58-.41.22-1.46,0-2A8.61,8.61,0,0,0,3.58,45.8,9.4,9.4,0,0,0,0,43.46a17.83,17.83,0,0,0,1.53,3.87,7.5,7.5,0,0,0,1.5,2c.44.36,1.39,1,2,.62M8.8,46.35a27.38,27.38,0,0,0,.59-3.84A7,7,0,0,0,6.61,45c-.55,1-1.24,3.32-.15,4.2s2.2-2.09,2.34-2.85M3.69,41.56c1.24-.47,0-3.06-.37-3.76a8.68,8.68,0,0,0-3-3.18A13.75,13.75,0,0,0,1.17,39c.29.77,1.42,3,2.52,2.52m1.53-.25c.88.76,2.05-1.17,2.38-1.72a31.42,31.42,0,0,0,1.53-4,5.84,5.84,0,0,0-3.29,2.08c-.55.81-1.57,2.78-.62,3.62M4.09,33.53c1.13-.22.66-2.49.48-3.22A8.21,8.21,0,0,0,2.3,26.55a12.23,12.23,0,0,0,0,4.35c.11.73.73,2.81,1.79,2.63m4.05-1.21a22.09,22.09,0,0,0,2-3.21,5.28,5.28,0,0,0-3.4,1.31c-.62.59-2.08,2.38-1.2,3.25s2.15-.87,2.55-1.35M5.92,26.15C7.05,26.26,7,24,7,23.27a7.59,7.59,0,0,0-1.43-3.8,15,15,0,0,0-.77,3.76c0,.69.11,2.81,1.14,2.92m4-.33a17.88,17.88,0,0,0,2.41-2.59,5,5,0,0,0-3.25.55c-.7.4-2.23,1.68-1.79,2.7s2.19-.29,2.63-.66m-.7-6.13c.92-.15,1.17-1.83,1.25-2.52a7,7,0,0,0-.7-3.62,11.69,11.69,0,0,0-1.39,3.73c-.07.54-.14,2.55.84,2.41m3.36.43a18.2,18.2,0,0,0,2.78-2,4.85,4.85,0,0,0-3.36.07c-.66.29-1.94,1.1-1.83,2s1.94.22,2.41,0M13,14.28c.8.15,1.31-1.31,1.5-1.86a6.46,6.46,0,0,0,0-3.62,11.23,11.23,0,0,0-1.72,3c-.18.51-.62,2.34.26,2.52m.87.59c0,.91,1.57.51,2.05.4a15,15,0,0,0,3-1.5,4.51,4.51,0,0,0-3.07-.44c-.66.18-1.94.66-1.94,1.54m3.69-5c.92.11,1.65-1.61,1.83-2.3a6.73,6.73,0,0,0,.15-2.41,9.39,9.39,0,0,0-2,2.52c-.22.4-.88,2.12,0,2.19m.55.69c-.07.81,1.5.66,1.94.59a15.37,15.37,0,0,0,2.77-.88,4.44,4.44,0,0,0-2.08-.84c-.69-.07-2.52.15-2.63,1.13m4.31-4c.81,0,1.61-1.27,1.86-1.93a6.27,6.27,0,0,0,.37-2,8.28,8.28,0,0,0-2.16,2c-.21.33-1,1.9-.07,1.93m.33.55C22.35,7.93,24,8,24.36,8A12.61,12.61,0,0,0,27,7.63a4,4,0,0,0-1.75-1c-.66-.18-2.09-.22-2.45.51m4.35-3c.69.26,1.68-1,2-1.49A5,5,0,0,0,29.66,1a7.38,7.38,0,0,0-2,1.39c-.29.25-1.31,1.53-.54,1.82m2.7.48c-.59-.29-1.79-.55-2.34,0s.62,1,1,1.06a7.84,7.84,0,0,0,2.6,0,4.43,4.43,0,0,0-1.28-1m3.47-2.7a4,4,0,0,0,1-1.87,6.9,6.9,0,0,0-1.82,1c-.3.22-1.25,1-.85,1.5s1.36-.33,1.65-.58m1.82,2.41A3.31,3.31,0,0,0,33.53,3c-.33-.11-1.54-.36-1.65.26s1,.84,1.35.91a8.17,8.17,0,0,0,1.9.15m6.21-2.82a16.36,16.36,0,0,0-3.94-.29c-.33,0-2.92.29-2.89,1,.08.92,6.18-.51,6.83-.66M56.24,73.7a6,6,0,0,0,1.76-2,7.5,7.5,0,0,0,.69-5.19,37,37,0,0,0-3.47,3.62c-.55.66-2.48,3.18-1.24,4,.66.44,1.72-.11,2.26-.51m.81,1.14a3.65,3.65,0,0,0-2.12.69c-.84.73-.22,1.57.58,2,2.82,1.46,6.39.37,9.17-.69a12.71,12.71,0,0,0-4.89-1.94,13.22,13.22,0,0,0-2.74,0m5.48-8.37c-.3.73-1.25,3.29.11,3.62A2.19,2.19,0,0,0,64.53,69a6.6,6.6,0,0,0,1.21-2.41,7.5,7.5,0,0,0-.62-4.79,38.35,38.35,0,0,0-2.59,4.64m5.62,2.78c-1.39.18-3.29.51-4.27,1.64-.77.84-.11,1.57.8,1.79a7.42,7.42,0,0,0,4.6-.66A14.86,14.86,0,0,0,73,69.83a11.65,11.65,0,0,0-4.86-.58m.58-8.88c-.18.84-.51,3.91,1,3.69s1.94-2.74,1.94-3.91A7.16,7.16,0,0,0,70,55.88c-.43,1.5-1,3-1.28,4.49m5.48,1.76a8.53,8.53,0,0,0-2.3,1.31c-.47.4-1.42,1.28-1.09,2s1.57.58,2.15.44a6.75,6.75,0,0,0,2.34-1,14.79,14.79,0,0,0,3.76-3.47,10,10,0,0,0-4.86.7M73.08,53c0,.87.15,4.16,1.57,3.91s1.32-3,1.1-4a6.75,6.75,0,0,0-2.41-3.65c-.08,1.27-.22,2.52-.26,3.76m3.36,3.1c-.29.48-.77,1.46-.18,1.9s1.64,0,2.19-.33A7.62,7.62,0,0,0,80.39,56a13.76,13.76,0,0,0,2.44-3.69,9.57,9.57,0,0,0-4.53,1.86,8.81,8.81,0,0,0-1.86,1.9M78,48.9c1.06-.91.37-3.28-.21-4.23A6.67,6.67,0,0,0,75,42.22a27.67,27.67,0,0,0,.62,3.84c.18.73,1.21,3.83,2.37,2.84m2.85-3.43a8,8,0,0,0-1.42,2.12c-.22.51-.58,1.61,0,2s1.53-.29,2-.66a7.11,7.11,0,0,0,1.46-2,16.82,16.82,0,0,0,1.5-3.91,9.5,9.5,0,0,0-3.55,2.41M79.14,41c1-.84-.11-2.85-.65-3.62a5.92,5.92,0,0,0-3.29-2,26.08,26.08,0,0,0,1.57,3.94c.29.59,1.5,2.49,2.37,1.72m1.54.22c1.13.44,2.23-1.76,2.48-2.52a13.17,13.17,0,0,0,.8-4.42A8.43,8.43,0,0,0,81,37.44c-.37.73-1.57,3.32-.33,3.76m-2-7.85c.87-.88-.63-2.67-1.21-3.25a5.58,5.58,0,0,0-3.43-1.28,26.79,26.79,0,0,0,2,3.21c.44.48,1.86,2,2.6,1.32m1.49-.19c1.06.22,1.68-1.9,1.79-2.63a13.45,13.45,0,0,0,0-4.34A8.29,8.29,0,0,0,79.69,30c-.15.69-.62,3,.51,3.17M71.88,22.94a18.19,18.19,0,0,0,2.44,2.59c.44.37,2.23,1.64,2.63.62s-1.09-2.26-1.82-2.7a5.23,5.23,0,0,0-3.25-.51m6.42,2.88c1-.11,1.14-2.23,1.1-3a14.58,14.58,0,0,0-.77-3.72,7.78,7.78,0,0,0-1.39,3.8c0,.69-.07,3,1.06,2.88m-9.46-8a17.26,17.26,0,0,0,2.78,2c.47.25,2.27,1,2.41,0s-1.2-1.68-1.86-2a4.51,4.51,0,0,0-3.33,0m6.1,1.53c1,.15.92-1.86.84-2.41a12.46,12.46,0,0,0-1.38-3.72,7,7,0,0,0-.7,3.61c.11.7.33,2.38,1.24,2.52M68.19,15c.47.15,2,.51,2-.4s-1.31-1.35-1.93-1.5a4.31,4.31,0,0,0-3.07.44,12.94,12.94,0,0,0,3,1.46m2.92-1c.87-.18.36-2,.18-2.48a9.65,9.65,0,0,0-1.71-3,6,6,0,0,0,0,3.61c.18.55.72,2,1.53,1.83M64,11c.4.08,2,.19,1.9-.62-.11-1-1.93-1.17-2.63-1.09a4.44,4.44,0,0,0-2.08.84A14.3,14.3,0,0,0,64,11m2.45-1.31c.91-.11.26-1.79,0-2.19A9.13,9.13,0,0,0,64.46,5a6.6,6.6,0,0,0,.15,2.38c.22.69,1,2.41,1.86,2.3M59.71,7.89c.41,0,2-.15,1.57-.95s-1.82-.66-2.44-.51a4.09,4.09,0,0,0-1.76,1.06,13,13,0,0,0,2.63.4m1.9-1.5c1,0,.11-1.6-.11-1.93a8.39,8.39,0,0,0-2.15-2,5.7,5.7,0,0,0,.36,2c.3.62,1.06,1.9,1.9,1.9m-6.06-.8c.4-.11,1.57-.51,1-1.06s-1.76-.33-2.34,0a4.3,4.3,0,0,0-1.28,1,8,8,0,0,0,2.63,0M56.9,4c.77-.29-.29-1.54-.55-1.83a9.07,9.07,0,0,0-2-1.35,5.87,5.87,0,0,0,.55,1.72c.29.51,1.32,1.75,2,1.46m-6.1.11c.33-.08,1.43-.4,1.35-.95S50.84,2.85,50.51,3A3.08,3.08,0,0,0,48.9,4.31a17.44,17.44,0,0,0,1.9-.18M51.5.91A7.27,7.27,0,0,0,49.67,0a3.8,3.8,0,0,0,1.06,1.86c.25.26,1.2,1,1.61.55s-.55-1.28-.84-1.5m-2,1.25c0-.26-.7-.44-.88-.48a7.77,7.77,0,0,0-2.19-.4,14.51,14.51,0,0,0-3.76.33c.66.14,6.86,1.39,6.83.55m2.7,68.11a.84.84,0,0,0-.84-1l-17.9.07a.85.85,0,0,0-.8,1l1.46,4.09-1.42,4.09a.87.87,0,0,0,.8,1.06l17.9-.11a.84.84,0,0,0,.84-1l-1.46-4.09ZM27.61,75a13.54,13.54,0,0,0-2.7,0A11.86,11.86,0,0,0,20,77c2.78,1,6.36,2.08,9.17.58.8-.4,1.42-1.24.55-2A3.88,3.88,0,0,0,27.61,75"/><path class="cls-2" d="M13.7,29.85a2.71,2.71,0,0,1,3-2.64,3.69,3.69,0,0,1,2.74,1l-.91,1.26a2.21,2.21,0,0,0-1.69-.71c-.84,0-1.34.43-1.34,1,0,2,4.33,1.36,4.33,4.55,0,1.61-1.41,2.71-3.2,2.71a3.55,3.55,0,0,1-3.13-1.51l1-1.15a2.86,2.86,0,0,0,2.2,1.08c.79,0,1.4-.39,1.4-1.12C18,32.5,13.7,33,13.7,29.85"/><polygon class="cls-2" points="20.41 27.36 28.31 27.36 28.31 28.93 25.2 28.93 25.2 36.94 23.52 36.94 23.52 28.93 20.41 28.93 20.41 27.36"/><polygon class="cls-2" points="33.42 32.94 33.42 36.94 31.74 36.94 31.74 32.94 28.36 27.36 30.27 27.36 32.65 31.37 35.01 27.36 36.83 27.36 33.42 32.94"/><polygon class="cls-2" points="38.07 27.36 39.75 27.36 39.75 35.36 44.06 35.36 44.06 36.94 38.07 36.94 38.07 27.36"/><rect class="cls-2" x="45.6" y="27.36" width="1.68" height="9.58"/><path class="cls-2" d="M49.5,29.85a2.71,2.71,0,0,1,3-2.64,3.69,3.69,0,0,1,2.74,1l-.9,1.26a2.23,2.23,0,0,0-1.7-.71c-.84,0-1.34.43-1.34,1,0,2,4.33,1.36,4.33,4.55,0,1.61-1.4,2.71-3.2,2.71a3.56,3.56,0,0,1-3.13-1.51l1-1.15a2.86,2.86,0,0,0,2.2,1.08c.79,0,1.4-.39,1.4-1.12,0-1.89-4.34-1.42-4.34-4.54"/><polygon class="cls-2" points="56.21 27.36 64.11 27.36 64.11 28.93 61 28.93 61 36.94 59.32 36.94 59.32 28.93 56.21 28.93 56.21 27.36"/><path class="cls-2" d="M64.92,29.85a2.72,2.72,0,0,1,3-2.64,3.66,3.66,0,0,1,2.73,1l-.9,1.26a2.21,2.21,0,0,0-1.69-.71c-.84,0-1.35.43-1.35,1,0,2,4.34,1.36,4.34,4.55,0,1.61-1.41,2.71-3.2,2.71a3.55,3.55,0,0,1-3.13-1.51l1-1.15a2.88,2.88,0,0,0,2.21,1.08c.79,0,1.39-.39,1.39-1.12,0-1.89-4.34-1.42-4.34-4.54"/><path class="cls-2" d="M25.2,49.06a4.42,4.42,0,0,1-3.06,1.08A4.68,4.68,0,0,1,17.2,45.2a4.64,4.64,0,0,1,4.9-4.94,4.37,4.37,0,0,1,2.91,1l-.75,1.25a3.6,3.6,0,0,0-2.16-.65A3.09,3.09,0,0,0,19,45.2a3.18,3.18,0,0,0,3.31,3.37,3.73,3.73,0,0,0,2.27-.77Z"/><polygon class="cls-2" points="32.78 45.9 28.4 45.9 28.4 49.99 26.72 49.99 26.72 40.41 28.4 40.41 28.4 44.33 32.78 44.33 32.78 40.41 34.45 40.41 34.45 49.99 32.78 49.99 32.78 45.9"/><path class="cls-2" d="M41.21,48.57a3.14,3.14,0,0,0,3.22-3.37,3.21,3.21,0,1,0-3.22,3.37m0-8.31a4.77,4.77,0,0,1,5,4.94,4.83,4.83,0,0,1-5,4.94,4.76,4.76,0,0,1-5-4.94,4.81,4.81,0,0,1,5-4.94"/><rect class="cls-2" x="48.2" y="40.41" width="1.68" height="9.58"/><path class="cls-2" d="M59.88,49.06a4.42,4.42,0,0,1-3.06,1.08,4.68,4.68,0,0,1-4.94-4.94,4.64,4.64,0,0,1,4.9-4.94,4.37,4.37,0,0,1,2.91,1l-.75,1.25a3.58,3.58,0,0,0-2.16-.65,3.09,3.09,0,0,0-3.12,3.37A3.18,3.18,0,0,0,57,48.57a3.71,3.71,0,0,0,2.27-.77Z"/><polygon class="cls-2" points="61.4 40.41 66.94 40.41 66.94 41.98 63.08 41.98 63.08 44.37 66.53 44.37 66.53 45.94 63.08 45.94 63.08 48.42 67.08 48.42 67.08 49.99 61.4 49.99 61.4 40.41"/></g></g></svg>