<svg xmlns="http://www.w3.org/2000/svg" viewBox="0 0 175.86 98.63"><defs><style>.cls-1{fill:#231f20;}</style></defs><title>Asset 4</title><g id="Layer_2" data-name="Layer 2"><g id="Layer_1-2" data-name="Layer 1"><path class="cls-1" d="M75.15,64c-9.75,0-17.7-8.21-17.7-18.31s8-18.37,17.7-18.37S92.86,35.57,92.86,45.7,84.91,64,75.15,64m0-42.24A23.91,23.91,0,1,0,98.75,45.7a23.79,23.79,0,0,0-23.6-23.93"/><path class="cls-1" d="M51.67,67.42,46.15,26.26c-.32-1.82-.87-4.49-4.67-4.49-4.14,0-4.3,1.94-5.14,4.49,0,0-9.5,31-10.2,35.25-.69-4.29-10.2-35.25-10.2-35.25-.84-2.55-1-4.49-5.13-4.49-3.8,0-4.36,2.67-4.67,4.49L.59,67.61c-.06.73.06,1.23.78,1.23H5c1.09,0,1.33-.5,1.46-1.46.93-6.43,4.6-32.18,5-37.51,1.19,5.85,9.87,34.6,9.87,34.6,1,3.34,1.37,4.37,4.88,4.37s3.84-1,4.87-4.37c0,0,8.71-28.75,9.88-34.6.37,5.4,4.13,31.7,5,37.73.13.81.41,1.24,1.41,1.24h3.61c.79,0,.87-.59.76-1.42"/><path class="cls-1" d="M106.91,67.86l0-37.65S119.2,49.82,125.55,59.3L130,66.06c2.07,3.08,4.42,2.77,4.42,2.77,2.39,0,3.49-1.08,4.07-2.32a6.87,6.87,0,0,0,.62-3.32V23.48a1,1,0,0,0-1-1h-3.81a1,1,0,0,0-1,1l0,37.47c-2.15-3.39-13.43-21.19-18.7-28.91h0l-4.45-6.75c-2.07-3.1-4.41-2.78-4.41-2.78-2.39,0-3.51,1.08-4.07,2.32a7.18,7.18,0,0,0-.59,3.31V67.86a1,1,0,0,0,1,1h3.82a1,1,0,0,0,1-1"/><path class="cls-1" d="M174.73,22a69.63,69.63,0,0,0-10.18-.07c-7.57.47-12.3,2.52-16.75,7.09s-6.15,10.3-6.23,16.55v.24c.08,6.25,1.92,12.12,6.23,16.55S157,69,164.55,69.43a69.63,69.63,0,0,0,10.18-.07c.74-.06,1.13-.27,1.13-1.21V65.38c0-1-.11-1.36-1.15-1.36-2.31.06-6.77.08-10.16-.16-4.79-.38-9.27-2-12.57-5.49a17.06,17.06,0,0,1-4.34-10.14H173.8a1,1,0,0,0,1-1V43.76a1,1,0,0,0-1-1H147.68A16.87,16.87,0,0,1,152,33c3.3-3.53,7.78-5.11,12.57-5.47,3.39-.26,7.75-.23,10.07-.19.81,0,1.24-.22,1.24-1.17V23.2c0-.95-.39-1.15-1.13-1.22"/><path class="cls-1" d="M157.79,14.32l1.87-1.87L168,4.16a1,1,0,0,0,0-1.39L165.47.29a1,1,0,0,0-1.39,0l-1.87,1.87-8.29,8.29a1,1,0,0,0,0,1.38l2.49,2.49a1,1,0,0,0,1.38,0"/><path class="cls-1" d="M36.52,90.36c0-.72.65-1.34,1.73-1.34a4.11,4.11,0,0,1,2.71,1l.92-1.46a5.43,5.43,0,0,0-3.73-1.28c-2.14,0-3.67,1.16-3.67,3,0,4,5.83,2.89,5.83,5.08,0,1-.91,1.49-1.92,1.49a4.74,4.74,0,0,1-3.12-1.37L34.19,97a5.37,5.37,0,0,0,4,1.68c2.16,0,4.18-1,4.18-3.27,0-3.8-5.84-2.72-5.84-5"/><path class="cls-1" d="M46.71,82.36a1.17,1.17,0,0,0-1.25,1.15,1.19,1.19,0,0,0,1.25,1.25,1.17,1.17,0,0,0,1.17-1.25,1.15,1.15,0,0,0-1.17-1.15"/><rect class="cls-1" x="45.7" y="87.57" width="1.92" height="10.82"/><path class="cls-1" d="M57.06,87.38a5,5,0,0,0-3.53,1.52V87.57H51.61V98.39h1.92V90.58a4.15,4.15,0,0,1,3-1.4c2,0,3.05,1.06,3.05,3.32v5.89h1.93V92.14c0-3.39-1.69-4.76-4.5-4.76"/><path class="cls-1" d="M70,96.83a3.85,3.85,0,0,1-.19-7.69,4.35,4.35,0,0,1,3.1,1.12l.89-1.51a5.85,5.85,0,0,0-4.25-1.42,5.65,5.65,0,0,0,.31,11.3A5.26,5.26,0,0,0,74,96.83l-.92-1.4a4.09,4.09,0,0,1-3.1,1.4"/><path class="cls-1" d="M77.27,92a3.23,3.23,0,0,1,3.43-2.88A2.87,2.87,0,0,1,83.83,92Zm3.53-4.69A5.31,5.31,0,0,0,75.23,93c0,3.41,2.28,5.65,5.79,5.65a6.17,6.17,0,0,0,4.06-1.42l-.6-1.51a5,5,0,0,1-3.32,1.13,3.46,3.46,0,0,1-3.77-3.25H85.7a5.8,5.8,0,0,0,.12-1.3,4.82,4.82,0,0,0-5-5"/><polygon class="cls-1" points="92.96 84.59 93.97 86.16 96.42 84.23 96.42 98.39 98.34 98.39 98.34 81.47 96.99 81.47 92.96 84.59"/><path class="cls-1" d="M107.69,90.12a3.34,3.34,0,0,1-3.46-3.51,3.38,3.38,0,0,1,3.34-3.36c2.52,0,3.65,2.11,3.65,4.4a3.6,3.6,0,0,1-3.53,2.47m-.15-8.8a5.41,5.41,0,0,0-5.36,5.44,5,5,0,0,0,5,5.16A4.08,4.08,0,0,0,111,89.83a8.07,8.07,0,0,1-6.8,7.28l.65,1.52c4.73-.6,8.41-4.62,8.41-11,0-3.59-2-6.33-5.72-6.33"/><path class="cls-1" d="M120.92,90.12a3.34,3.34,0,0,1-3.46-3.51,3.38,3.38,0,0,1,3.34-3.36c2.53,0,3.66,2.11,3.66,4.4a3.6,3.6,0,0,1-3.54,2.47m-.14-8.8a5.41,5.41,0,0,0-5.36,5.44,5,5,0,0,0,5,5.16,4.08,4.08,0,0,0,3.8-2.09,8.07,8.07,0,0,1-6.8,7.28l.65,1.52c4.73-.6,8.41-4.62,8.41-11,0-3.59-2-6.33-5.72-6.33"/><path class="cls-1" d="M134.84,96.71c-2.05,0-3.54-1.28-3.54-3a3.12,3.12,0,0,1,3.32-3h.53a3,3,0,0,1,3.24,3c0,1.8-1.39,3-3.55,3m-3-10.7a2.77,2.77,0,0,1,3-2.76A2.8,2.8,0,0,1,137.86,86a2.76,2.76,0,0,1-2.69,2.76h-.62A2.77,2.77,0,0,1,131.83,86m5.31,3.75v-.07a4.32,4.32,0,0,0,2.77-4c0-2.64-2.29-4.4-5.07-4.4s-5.05,1.76-5.05,4.4a4.22,4.22,0,0,0,2.64,4v.07A4.32,4.32,0,0,0,129.26,94c0,2.86,2.57,4.59,5.6,4.59s5.58-1.73,5.58-4.74a4,4,0,0,0-3.3-4.13"/><path class="cls-1" d="M28.89,92.13H.58a.58.58,0,0,0,0,1.16H28.89a.58.58,0,1,0,0-1.16"/><path class="cls-1" d="M175.09,92.13H146.78a.58.58,0,0,0,0,1.16h28.31a.58.58,0,0,0,0-1.16"/></g></g></svg>