<svg xmlns="http://www.w3.org/2000/svg" xmlns:xlink="http://www.w3.org/1999/xlink" viewBox="0 0 258.56 136.35"><defs><style>.cls-1{fill:none;}.cls-2{clip-path:url(#clip-path);}.cls-3,.cls-4{fill:#fff;}.cls-3{fill-rule:evenodd;}</style><clipPath id="clip-path"><rect class="cls-1" width="258.56" height="136.35"/></clipPath></defs><title>Asset 6</title><g id="Layer_2" data-name="Layer 2"><g id="Layer_1-2" data-name="Layer 1"><g class="cls-2"><path class="cls-3" d="M110,94.37c-14.39,0-26.09-12.13-26.09-26.95,0-15,11.7-27.16,26.09-27.16s26.19,12.13,26.19,27.16c0,14.82-11.7,27-26.19,27m0-62.27c-19.12,0-34.79,15.78-34.79,35.32,0,19.33,15.67,35.22,34.79,35.22a35.27,35.27,0,0,0,0-70.54"/><path class="cls-3" d="M67.24,38.65c-.43-2.58-1.29-6.55-6.88-6.55-6.12,0-6.33,2.9-7.62,6.55,0,0-14,45.74-15,52.07-1-6.33-15-52.07-15-52.07C21.5,35,21.18,32.1,15.16,32.1c-5.69,0-6.44,4-6.87,6.55L0,99.74c-.1,1,.11,1.72,1.19,1.72H6.47c1.61,0,2-.65,2.25-2.15C10,89.86,15.49,51.86,16,44c1.72,8.59,14.5,51,14.5,51,1.61,4.94,2,6.44,7.19,6.44S43.4,100,44.9,95c0,0,12.89-42.41,14.61-51C60,52,65.62,90.83,66.81,99.63c.21,1.29.64,1.83,2.14,1.83h5.37c1.07,0,1.18-.86,1.07-2Z"/><path class="cls-3" d="M241.81,40.48c5-.33,11.49-.33,14.92-.22,1.18,0,1.83-.32,1.83-1.72v-4.4c0-1.29-.54-1.61-1.72-1.72a98.2,98.2,0,0,0-15-.11c-11.17.65-18,3.66-24.59,10.42C210.78,49.28,208.1,58,208,67.21v.32c.11,9.23,2.79,17.82,9.23,24.37,6.55,6.77,13.42,9.77,24.59,10.52a111.66,111.66,0,0,0,15-.1c1.18-.11,1.72-.43,1.72-1.83V96.41c0-1.39-.22-2-1.72-2-3.44.11-10,.11-15-.21-7-.54-13.64-2.9-18.47-8.06a25.74,25.74,0,0,1-6.44-15h38.65a1.42,1.42,0,0,0,1.4-1.39V64.52a1.42,1.42,0,0,0-1.4-1.39H217a24.77,24.77,0,0,1,6.33-14.5c4.83-5.26,11.49-7.51,18.47-8.15"/><path class="cls-3" d="M202.84,33.17h-5.59a1.42,1.42,0,0,0-1.39,1.4V89.86c-3.12-4.94-19.76-31.24-27.6-42.62l-6.55-10c-3-4.51-6.44-4.09-6.44-4.09-3.54,0-5.26,1.62-6,3.44a9.49,9.49,0,0,0-1,4.83v58.62a1.46,1.46,0,0,0,1.51,1.4h5.58a1.45,1.45,0,0,0,1.5-1.4l-.1-55.5S175,73.44,184.37,87.39l6.55,10c3,4.62,6.44,4.08,6.44,4.08,3.54,0,5.26-1.61,6-3.44a9.49,9.49,0,0,0,1-4.83V34.57a1.45,1.45,0,0,0-1.5-1.4"/><path class="cls-3" d="M229.89,21.15a1.49,1.49,0,0,0,2,0l2.68-2.79L246.86,6.12a1.32,1.32,0,0,0,0-2L243.2.43a1.31,1.31,0,0,0-1-.43,1.37,1.37,0,0,0-1.07.43l-2.8,2.68L226.13,15.35a1.51,1.51,0,0,0,0,2Z"/><path class="cls-3" d="M3,114.13v9.55c1.18.11,2.36.11,3.65.11,3.55,0,5.8-1.83,5.8-4.94,0-2.9-1.83-4.83-5.69-4.83-1,0-2.58.11-3.76.11m-3-2.79V136H3v-9.56c1.29.11,2.69.22,3.76.22,6,0,8.8-3.76,8.8-7.84,0-3.76-2-7.62-9.12-7.62-1.51,0-5,.11-6.44.11"/><path class="cls-3" d="M24.08,114.13v9.23h3.64c2.9,0,5.7-1.83,5.7-4.72,0-2.58-1.51-4.62-5.8-4.62-.86,0-2.36.11-3.54.11m-3,21.9V111.34c1.4,0,6-.11,6.65-.11,6.77,0,8.81,3.33,8.81,7.3a7.18,7.18,0,0,1-5.37,7.09L39.43,136H35.78l-7.62-9.88H24.08V136Z"/><path class="cls-3" d="M53.49,133.56c5.69,0,9.45-4.29,9.45-9.88,0-5.8-4.08-9.88-9.45-9.88s-9.34,4.08-9.34,9.88c0,5.59,4.08,9.88,9.34,9.88m0-22.65a12.72,12.72,0,0,1,0,25.44,12.21,12.21,0,0,1-12.56-12.67c0-7.19,5.26-12.77,12.56-12.77"/><polygon class="cls-3" points="71.64 111.34 85.59 111.34 85.59 114.13 74.64 114.13 74.64 122.93 84.52 122.93 84.52 125.72 74.64 125.72 74.64 136.03 71.64 136.03 71.64 111.34"/><polygon class="cls-3" points="90.64 111.34 104.6 111.34 104.6 114.13 93.65 114.13 93.65 122.07 103.63 122.07 103.63 124.97 93.65 124.97 93.65 133.24 105.03 133.24 105.03 136.03 90.64 136.03 90.64 111.34"/><path class="cls-3" d="M109.64,117.45c0-3.64,2.8-6.54,7.52-6.54a9.48,9.48,0,0,1,6.76,2.57l-1.61,2.26a6.71,6.71,0,0,0-5-1.93c-2.69,0-4.41,1.39-4.41,3.64,0,6.12,12,3.76,12,12.24,0,4.08-3.54,6.66-8,6.66-3,0-6.55-1.39-7.73-3.65l1.72-2a8.09,8.09,0,0,0,6.11,2.9c2.58,0,4.84-1.4,4.84-3.87,0-6-12.14-4.07-12.14-12.24"/><path class="cls-3" d="M129.08,117.45c0-3.64,2.68-6.54,7.4-6.54a9.8,9.8,0,0,1,6.88,2.57l-1.61,2.26a6.88,6.88,0,0,0-5.05-1.93c-2.79,0-4.51,1.39-4.51,3.64,0,6.12,12.13,3.76,12.13,12.24,0,4.08-3.54,6.66-8,6.66-3,0-6.55-1.39-7.84-3.65l1.72-2a8.46,8.46,0,0,0,6.12,2.9c2.58,0,4.83-1.4,4.83-3.87,0-6-12-4.07-12-12.24"/><rect class="cls-4" x="150.44" y="111.34" width="3.01" height="24.69"/><path class="cls-3" d="M172.24,133.56c5.69,0,9.45-4.29,9.45-9.88,0-5.8-4.08-9.88-9.45-9.88s-9.34,4.08-9.34,9.88c0,5.59,4.08,9.88,9.34,9.88m0-22.65a12.72,12.72,0,1,1-12.56,12.77c0-7.19,5.26-12.77,12.56-12.77"/><polygon class="cls-3" points="208.63 136.03 193.17 116.6 193.17 136.03 190.38 136.03 190.38 111.33 192.74 111.33 208.21 130.77 208.21 111.33 211 111.33 211 136.03 208.63 136.03"/><path class="cls-3" d="M222.59,125.72h8.91l-4.4-10.52Zm3.33-14.6h2.58L239.12,136H235.9l-3.22-7.52H221.41L218.3,136h-3Z"/><polygon class="cls-3" points="243.31 111.34 246.32 111.34 246.32 133.24 258.56 133.24 258.56 136.03 243.31 136.03 243.31 111.34"/></g></g></g></svg>