<?xml version="1.0" encoding="UTF-8" standalone="no"?>
<!-- Created with Inkscape (http://www.inkscape.org/) -->

<svg
   xmlns:dc="http://purl.org/dc/elements/1.1/"
   xmlns:cc="http://creativecommons.org/ns#"
   xmlns:rdf="http://www.w3.org/1999/02/22-rdf-syntax-ns#"
   xmlns:svg="http://www.w3.org/2000/svg"
   xmlns="http://www.w3.org/2000/svg"
   xmlns:sodipodi="http://sodipodi.sourceforge.net/DTD/sodipodi-0.dtd"
   xmlns:inkscape="http://www.inkscape.org/namespaces/inkscape"
   version="1.1"
   id="svg2"
   xml:space="preserve"
   width="264.56668"
   height="139.612"
   viewBox="0 0 264.56668 139.612"
   sodipodi:docname="logo.svg"
   inkscape:version="0.92.3 (2405546, 2018-03-11)"><metadata
     id="metadata8"><rdf:RDF><cc:Work
         rdf:about=""><dc:format>image/svg+xml</dc:format><dc:type
           rdf:resource="http://purl.org/dc/dcmitype/StillImage" /><dc:title></dc:title></cc:Work></rdf:RDF></metadata><defs
     id="defs6"><clipPath
       clipPathUnits="userSpaceOnUse"
       id="clipPath18"><path
         d="M 0,104.709 H 198.425 V 0 H 0 Z"
         id="path16"
         inkscape:connector-curvature="0" /></clipPath></defs><sodipodi:namedview
     pagecolor="#ffffff"
     bordercolor="#666666"
     borderopacity="1"
     objecttolerance="10"
     gridtolerance="10"
     guidetolerance="10"
     inkscape:pageopacity="0"
     inkscape:pageshadow="2"
     inkscape:window-width="1278"
     inkscape:window-height="1008"
     id="namedview4"
     showgrid="false"
     inkscape:zoom="1.4363109"
     inkscape:cx="60.986176"
     inkscape:cy="-28.626997"
     inkscape:window-x="3193"
     inkscape:window-y="0"
     inkscape:window-maximized="0"
     inkscape:current-layer="g10" /><g
     id="g10"
     inkscape:groupmode="layer"
     inkscape:label="логотип и паттерн"
     transform="matrix(1.3333333,0,0,-1.3333333,0,139.612)"><g
       id="g12"><g
         id="g14"
         clip-path="url(#clipPath18)"><g
           id="g20"
           transform="translate(84.4286,32.2419)"><path
             d="m 0,0 c -11.049,0 -20.038,9.296 -20.038,20.723 0,11.469 8.989,20.801 20.038,20.801 11.048,0 20.038,-9.332 20.038,-20.801 C 20.038,9.296 11.048,0 0,0 m 0,47.825 c -14.733,0 -26.718,-12.158 -26.718,-27.102 0,-14.902 11.985,-27.026 26.718,-27.026 14.734,0 26.718,12.124 26.718,27.026 0,14.944 -11.984,27.102 -26.718,27.102"
             style="fill:#010101;fill-opacity:1;fill-rule:nonzero;stroke:none"
             id="path22"
             inkscape:connector-curvature="0" /></g><g
           id="g24"
           transform="translate(51.5868,74.984)"><path
             d="m 0,0 c -0.354,2.053 -0.98,5.082 -5.282,5.082 -4.685,0 -4.858,-2.211 -5.811,-5.082 0,0 -10.76,-35.046 -11.55,-39.907 C -23.432,-35.046 -34.192,0 -34.192,0 c -0.953,2.871 -1.126,5.082 -5.811,5.082 -4.302,0 -4.928,-3.029 -5.282,-5.082 l -6.284,-46.829 c -0.077,-0.812 0.069,-1.378 0.88,-1.378 h 4.082 c 1.235,0 1.494,0.561 1.651,1.654 1.047,7.283 5.206,36.425 5.621,42.462 1.329,-6.62 11.176,-39.177 11.176,-39.177 1.171,-3.767 1.542,-4.939 5.516,-4.939 3.975,0 4.346,1.172 5.517,4.939 0,0 9.847,32.557 11.176,39.177 0.42,-6.111 4.676,-35.891 5.658,-42.716 0.165,-0.925 0.475,-1.4 1.609,-1.4 h 4.082 c 0.884,0 0.979,0.67 0.854,1.602 z"
             style="fill:#010101;fill-opacity:1;fill-rule:nonzero;stroke:none"
             id="path26"
             inkscape:connector-curvature="0" /></g><g
           id="g28"
           transform="translate(185.6332,73.5797)"><path
             d="m 0,0 c 3.836,0.294 8.774,0.265 11.396,0.211 0.927,-0.017 1.396,0.256 1.396,1.334 v 3.321 c 0,1.064 -0.423,1.299 -1.271,1.379 C 8.517,6.495 4.742,6.618 0,6.328 -8.58,5.8 -13.925,3.477 -18.951,-1.7 c -4.878,-5.025 -6.974,-11.666 -7.067,-18.741 v -0.269 c 0.093,-7.077 2.189,-13.719 7.067,-18.742 5.026,-5.177 10.371,-7.5 18.951,-8.027 4.737,-0.293 8.512,-0.168 11.513,0.08 0.854,0.08 1.279,0.313 1.279,1.38 v 3.134 c 0,1.078 -0.111,1.536 -1.28,1.536 C 8.89,-41.403 3.836,-41.447 0,-41.153 c -5.426,0.416 -10.493,2.198 -14.237,6.189 -2.974,3.173 -4.442,7.174 -4.908,11.504 h 29.624 c 0.604,0 1.095,0.489 1.095,1.095 v 3.946 c 0,0.605 -0.491,1.095 -1.095,1.095 l -29.58,-0.004 c 0.507,4.189 1.974,8.057 4.864,11.14 C -10.493,-2.197 -5.426,-0.415 0,0"
             style="fill:#010101;fill-opacity:1;fill-rule:nonzero;stroke:none"
             id="path30"
             inkscape:connector-curvature="0" /></g><g
           id="g32"
           transform="translate(155.7133,79.2409)"><path
             d="m 0,0 h -4.309 c -0.613,0 -1.11,-0.498 -1.11,-1.11 l 0.023,-42.418 c -2.419,3.827 -15.188,23.982 -21.168,32.726 l 0.003,0.004 -5.029,7.651 c -2.34,3.496 -4.996,3.135 -4.996,3.135 -2.719,0 -3.969,-1.21 -4.61,-2.619 0,0 -0.672,-1.157 -0.672,-3.759 v -44.964 c 0,-0.612 0.496,-1.11 1.11,-1.11 h 4.309 c 0.613,0 1.11,0.498 1.11,1.11 l -0.024,42.62 c 0,0 13.947,-22.197 21.128,-32.925 l 5.03,-7.65 c 2.341,-3.497 4.997,-3.136 4.997,-3.136 2.719,0 3.969,1.21 4.61,2.619 0,0 0.708,1.157 0.708,3.76 V -1.11 C 1.11,-0.498 0.614,0 0,0"
             style="fill:#010101;fill-opacity:1;fill-rule:nonzero;stroke:none"
             id="path34"
             inkscape:connector-curvature="0" /></g><g
           id="g36"
           transform="translate(176.4145,88.4928)"><path
             d="m 0,0 c 0.434,-0.434 1.137,-0.434 1.57,0 l 2.114,2.116 0.002,-10e-4 9.389,9.39 c 0.433,0.433 0.435,1.137 0.001,1.57 l -2.817,2.817 c -0.433,0.433 -1.137,0.432 -1.57,0 L 6.575,13.775 H 6.573 L -2.816,4.386 c -0.433,-0.433 -0.435,-1.136 0,-1.57 z"
             style="fill:#010101;fill-opacity:1;fill-rule:nonzero;stroke:none"
             id="path38"
             inkscape:connector-curvature="0" /></g><g
           id="g40"
           transform="translate(2.3051,17.0827)"><path
             d="m 0,0 v -7.321 c 0.922,-0.081 1.816,-0.136 2.766,-0.136 2.792,0 4.473,1.437 4.473,3.823 0,2.251 -1.355,3.688 -4.365,3.688 C 2.115,0.054 0.895,0.027 0,0 M -2.305,-16.812 V 2.169 c 1.057,0 3.769,0.055 4.962,0.055 5.423,0 7.023,-2.929 7.023,-5.885 0,-3.091 -2.196,-5.965 -6.833,-5.965 -0.76,0 -1.898,0.027 -2.847,0.108 v -7.294 z"
             style="fill:#010101;fill-opacity:1;fill-rule:nonzero;stroke:none"
             id="path42"
             inkscape:connector-curvature="0" /></g><g
           id="g44"
           transform="translate(18.4897,17.0827)"><path
             d="m 0,0 v -7.05 h 2.792 c 2.197,0 4.312,1.356 4.312,3.607 0,1.952 -1.084,3.497 -4.447,3.497 C 2.061,0.054 0.895,0.027 0,0 M -2.305,-16.812 V 2.169 c 1.057,0 4.555,0.055 5.097,0.055 5.18,0 6.752,-2.577 6.752,-5.641 0,-2.955 -2.033,-4.826 -4.121,-5.368 l 6.317,-8.027 H 8.92 L 3.091,-9.219 H 0 v -7.593 z"
             style="fill:#010101;fill-opacity:1;fill-rule:nonzero;stroke:none"
             id="path46"
             inkscape:connector-curvature="0" /></g><g
           id="g48"
           transform="translate(41.0741,2.1696)"><path
             d="m 0,0 c 4.338,0 7.24,3.308 7.24,7.592 0,4.42 -3.173,7.592 -7.24,7.592 -4.122,0 -7.24,-3.172 -7.24,-7.592 C -7.24,3.28 -4.067,0 0,0 m 0,17.354 c 5.504,0 9.68,-3.987 9.68,-9.762 0,-5.64 -4.176,-9.762 -9.68,-9.762 -5.504,0 -9.68,3.986 -9.68,9.762 0,5.505 4.04,9.762 9.68,9.762"
             style="fill:#010101;fill-opacity:1;fill-rule:nonzero;stroke:none"
             id="path50"
             inkscape:connector-curvature="0" /></g><g
           id="g52"
           transform="translate(54.9535,19.2516)"><path
             d="M 0,0 H 10.71 V -2.169 H 2.305 v -6.725 h 7.592 v -2.169 H 2.305 V -18.98 H 0 Z"
             style="fill:#010101;fill-opacity:1;fill-rule:nonzero;stroke:none"
             id="path54"
             inkscape:connector-curvature="0" /></g><g
           id="g56"
           transform="translate(69.5927,19.2516)"><path
             d="M 0,0 H 10.711 V -2.169 H 2.305 v -6.128 h 7.592 v -2.169 H 2.305 v -6.346 h 8.677 V -18.98 H 0 Z"
             style="fill:#010101;fill-opacity:1;fill-rule:nonzero;stroke:none"
             id="path58"
             inkscape:connector-curvature="0" /></g><g
           id="g60"
           transform="translate(84.1513,14.5612)"><path
             d="m 0,0 c 0,2.738 2.116,4.962 5.722,4.962 2.195,0 4.148,-0.786 5.233,-1.98 L 9.708,1.247 C 8.705,2.25 7.511,2.792 5.857,2.792 3.742,2.792 2.441,1.681 2.441,0 c 0,-4.691 9.273,-2.929 9.273,-9.409 0,-3.118 -2.739,-5.153 -6.182,-5.153 -2.332,0 -5.044,1.058 -5.992,2.848 l 1.328,1.572 c 1.111,-1.463 3.091,-2.25 4.691,-2.25 1.98,0 3.715,1.031 3.715,2.955 C 9.274,-4.8 0,-6.291 0,0"
             style="fill:#010101;fill-opacity:1;fill-rule:nonzero;stroke:none"
             id="path62"
             inkscape:connector-curvature="0" /></g><g
           id="g64"
           transform="translate(99.0356,14.5612)"><path
             d="m 0,0 c 0,2.738 2.115,4.962 5.722,4.962 2.195,0 4.147,-0.786 5.232,-1.98 L 9.707,1.247 C 8.704,2.25 7.511,2.792 5.856,2.792 3.741,2.792 2.44,1.681 2.44,0 c 0,-4.691 9.274,-2.929 9.274,-9.409 0,-3.118 -2.739,-5.153 -6.183,-5.153 -2.332,0 -5.043,1.058 -5.992,2.848 l 1.328,1.572 c 1.112,-1.463 3.092,-2.25 4.692,-2.25 1.979,0 3.714,1.031 3.714,2.955 C 9.273,-4.8 0,-6.291 0,0"
             style="fill:#010101;fill-opacity:1;fill-rule:nonzero;stroke:none"
             id="path66"
             inkscape:connector-curvature="0" /></g><path
           d="m 115.492,19.252 h 2.306 V 0.272 h -2.306 z"
           style="fill:#010101;fill-opacity:1;fill-rule:nonzero;stroke:none"
           id="path68"
           inkscape:connector-curvature="0" /><g
           id="g70"
           transform="translate(132.2201,2.1696)"><path
             d="m 0,0 c 4.339,0 7.239,3.308 7.239,7.592 0,4.42 -3.172,7.592 -7.239,7.592 -4.121,0 -7.24,-3.172 -7.24,-7.592 C -7.24,3.28 -4.067,0 0,0 m 0,17.354 c 5.504,0 9.68,-3.987 9.68,-9.762 0,-5.64 -4.176,-9.762 -9.68,-9.762 -5.505,0 -9.68,3.986 -9.68,9.762 0,5.505 4.04,9.762 9.68,9.762"
             style="fill:#010101;fill-opacity:1;fill-rule:nonzero;stroke:none"
             id="path72"
             inkscape:connector-curvature="0" /></g><g
           id="g74"
           transform="translate(160.1176,0.2711)"><path
             d="M 0,0 -11.849,14.913 V 0 h -2.17 v 18.98 h 1.844 L -0.325,4.013 V 18.98 h 2.17 L 1.845,0 Z"
             style="fill:#010101;fill-opacity:1;fill-rule:nonzero;stroke:none"
             id="path76"
             inkscape:connector-curvature="0" /></g><g
           id="g78"
           transform="translate(170.8793,8.1891)"><path
             d="M 0,0 H 6.833 L 3.417,8.107 Z m 2.495,11.171 h 1.979 l 8.162,-19.089 h -2.468 l -2.44,5.748 h -8.65 l -2.413,-5.748 h -2.332 z"
             style="fill:#010101;fill-opacity:1;fill-rule:nonzero;stroke:none"
             id="path80"
             inkscape:connector-curvature="0" /></g><g
           id="g82"
           transform="translate(186.765,19.2516)"><path
             d="M 0,0 H 2.306 V -16.812 H 11.66 V -18.98 H 0 Z"
             style="fill:#010101;fill-opacity:1;fill-rule:nonzero;stroke:none"
             id="path84"
             inkscape:connector-curvature="0" /></g></g></g></g></svg>