<svg xmlns="http://www.w3.org/2000/svg" viewBox="0 0 58.13 23.08"><defs><style>.cls-1{fill:#fff;}</style></defs><title>Asset 4</title><g id="Layer_2" data-name="Layer 2"><g id="Layer_1-2" data-name="Layer 1"><path class="cls-1" d="M24.73,21.23a6,6,0,0,1-5.87-6.07,6,6,0,0,1,5.87-6.1,6,6,0,0,1,5.87,6.1,6,6,0,0,1-5.87,6.07m0-14a7.93,7.93,0,1,0,7.83,7.94,7.89,7.89,0,0,0-7.83-7.94"/><path class="cls-1" d="M15.11,8.71c-.1-.6-.28-1.49-1.54-1.49s-1.43.65-1.71,1.49c0,0-3.15,10.26-3.38,11.69C8.25,19,5.1,8.71,5.1,8.71c-.28-.84-.33-1.49-1.71-1.49S2,8.11,1.85,8.71L0,22.43c0,.23,0,.4.25.4h1.2c.36,0,.44-.16.48-.48.31-2.14,1.53-10.68,1.65-12.44C4,11.85,6.86,21.38,6.86,21.38c.35,1.11.45,1.45,1.62,1.45s1.27-.34,1.62-1.45c0,0,2.88-9.53,3.27-11.47.12,1.79,1.37,10.51,1.66,12.51,0,.27.14.41.47.41h1.19c.26,0,.29-.2.25-.47Z"/><path class="cls-1" d="M54.38,9.12C55.5,9,57,9,57.72,9.06c.27,0,.41-.08.41-.39v-1c0-.31-.13-.38-.37-.4a24.36,24.36,0,0,0-3.38,0,7.6,7.6,0,0,0-5.55,2.36,7.81,7.81,0,0,0-2.07,5.49v.08a7.84,7.84,0,0,0,2.07,5.49A7.63,7.63,0,0,0,54.38,23a22.75,22.75,0,0,0,3.37,0c.25,0,.38-.09.38-.4v-.92c0-.31,0-.45-.38-.45-.77,0-2.25,0-3.37-.06a6.16,6.16,0,0,1-4.17-1.81A5.71,5.71,0,0,1,48.77,16h8.68a.32.32,0,0,0,.32-.32V14.51a.32.32,0,0,0-.32-.32H48.79a5.56,5.56,0,0,1,1.42-3.26,6.16,6.16,0,0,1,4.17-1.81"/><path class="cls-1" d="M45.62,7.46H44.35a.32.32,0,0,0-.32.33V20.21c-.7-1.12-4.44-7-6.2-9.59h0L36.36,8.38c-.68-1-1.46-.92-1.46-.92a1.32,1.32,0,0,0-1.35.77,2.34,2.34,0,0,0-.2,1.1V22.5a.33.33,0,0,0,.33.33h1.26a.32.32,0,0,0,.32-.33V10s4.08,6.5,6.19,9.64l1.47,2.25c.68,1,1.46.91,1.46.91a1.31,1.31,0,0,0,1.35-.76,2.24,2.24,0,0,0,.21-1.1V7.79a.32.32,0,0,0-.32-.33"/><path class="cls-1" d="M51.68,4.75a.32.32,0,0,0,.46,0l.62-.62h0l2.75-2.75a.32.32,0,0,0,0-.46L54.69.1a.32.32,0,0,0-.46,0l-.62.62h0L50.86,3.47a.32.32,0,0,0,0,.46Z"/></g></g></svg>